M48
;DRILL file {PCBnew (2010-03-14)-final} date Tue 08 Feb 2011 03:21:14 PM PST
;FORMAT={2:4/ absolute / inch / suppress trailing zeros}
R,T
VER,1
FMAT,2
INCH,LZ
TCST,OFF
ICI,OFF
ATC,ON
T1C0.025
T2C0.032
T3C0.039
T4C0.040
T5C0.043
T6C0.120
T7C0.125
%
M47
G05
M72
T1
X053947Y-037557
T2
X048Y-0295
X048Y-0315
X048Y-0355
X048Y-0375
X0505Y-0455
X0505Y-0485
X0555Y-0455
X0555Y-0485
X0575Y-032
X0575Y-034
X0575Y-035
X0575Y-039
T3
X05Y-026
X05Y-027
X05Y-028
X05Y-029
X05Y-03
X05Y-031
X05Y-032
X05Y-033
X05Y-034
X05Y-035
X05Y-036
X05Y-037
X05Y-038
X05Y-039
X05Y-04
X056Y-026
X056Y-027
X056Y-028
X056Y-029
X056Y-03
X056Y-031
X056Y-032
X056Y-033
X056Y-034
X056Y-035
X056Y-036
X056Y-037
X056Y-038
X056Y-039
X056Y-04
T4
X05725Y-02875
X05725Y-02975
X05825Y-02875
X05825Y-02975
T5
X0475Y-0415
X0475Y-0425
X0475Y-0435
X0485Y-0415
X0485Y-0425
X0485Y-0435
X05082Y-0505
X051365Y-05162
X05191Y-0505
X052455Y-05162
X053Y-0505
X053545Y-05162
X05409Y-0505
X054635Y-05162
X05518Y-0505
X0575Y-0415
X0575Y-0425
X0575Y-0435
X0585Y-0415
X0585Y-0425
X0585Y-0435
T6
X048Y-026
X048Y-046
X058Y-026
X058Y-046
T7
X04808Y-05106
X05792Y-05106
T0
M30
