G04 (created by PCBNEW-RS274X (2010-03-14)-final) date Tue 08 Feb 2011 03:21:09 PM PST*
G01*
G70*
G90*
%MOIN*%
G04 Gerber Fmt 3.4, Leading zero omitted, Abs format*
%FSLAX34Y34*%
G04 APERTURE LIST*
%ADD10C,0.006000*%
%ADD11C,0.006700*%
%ADD12C,0.010000*%
%ADD13C,0.009000*%
%ADD14C,0.015000*%
%ADD15C,0.012000*%
%ADD16C,0.008000*%
G04 APERTURE END LIST*
G54D10*
G54D11*
X57169Y-27412D02*
X57035Y-27221D01*
X56940Y-27412D02*
X56940Y-27012D01*
X57093Y-27012D01*
X57131Y-27031D01*
X57150Y-27050D01*
X57169Y-27088D01*
X57169Y-27145D01*
X57150Y-27183D01*
X57131Y-27202D01*
X57093Y-27221D01*
X56940Y-27221D01*
X57340Y-27202D02*
X57474Y-27202D01*
X57531Y-27412D02*
X57340Y-27412D01*
X57340Y-27012D01*
X57531Y-27012D01*
X57683Y-27393D02*
X57740Y-27412D01*
X57836Y-27412D01*
X57874Y-27393D01*
X57893Y-27374D01*
X57912Y-27336D01*
X57912Y-27298D01*
X57893Y-27260D01*
X57874Y-27240D01*
X57836Y-27221D01*
X57759Y-27202D01*
X57721Y-27183D01*
X57702Y-27164D01*
X57683Y-27126D01*
X57683Y-27088D01*
X57702Y-27050D01*
X57721Y-27031D01*
X57759Y-27012D01*
X57855Y-27012D01*
X57912Y-27031D01*
X58083Y-27202D02*
X58217Y-27202D01*
X58274Y-27412D02*
X58083Y-27412D01*
X58083Y-27012D01*
X58274Y-27012D01*
X58388Y-27012D02*
X58617Y-27012D01*
X58502Y-27412D02*
X58502Y-27012D01*
X57369Y-27672D02*
X57446Y-27672D01*
X57484Y-27691D01*
X57522Y-27729D01*
X57541Y-27805D01*
X57541Y-27939D01*
X57522Y-28015D01*
X57484Y-28053D01*
X57446Y-28072D01*
X57369Y-28072D01*
X57331Y-28053D01*
X57293Y-28015D01*
X57274Y-27939D01*
X57274Y-27805D01*
X57293Y-27729D01*
X57331Y-27691D01*
X57369Y-27672D01*
X57846Y-27862D02*
X57712Y-27862D01*
X57712Y-28072D02*
X57712Y-27672D01*
X57903Y-27672D01*
X58189Y-27862D02*
X58055Y-27862D01*
X58055Y-28072D02*
X58055Y-27672D01*
X58246Y-27672D01*
X57502Y-30512D02*
X57579Y-30512D01*
X57617Y-30531D01*
X57655Y-30569D01*
X57674Y-30645D01*
X57674Y-30779D01*
X57655Y-30855D01*
X57617Y-30893D01*
X57579Y-30912D01*
X57502Y-30912D01*
X57464Y-30893D01*
X57426Y-30855D01*
X57407Y-30779D01*
X57407Y-30645D01*
X57426Y-30569D01*
X57464Y-30531D01*
X57502Y-30512D01*
X57845Y-30912D02*
X57845Y-30512D01*
X58074Y-30912D01*
X58074Y-30512D01*
G54D12*
X54543Y-41171D02*
X54486Y-41143D01*
X54400Y-41143D01*
X54315Y-41171D01*
X54257Y-41229D01*
X54229Y-41286D01*
X54200Y-41400D01*
X54200Y-41486D01*
X54229Y-41600D01*
X54257Y-41657D01*
X54315Y-41714D01*
X54400Y-41743D01*
X54457Y-41743D01*
X54543Y-41714D01*
X54572Y-41686D01*
X54572Y-41486D01*
X54457Y-41486D01*
X54829Y-41743D02*
X54829Y-41143D01*
X55172Y-41743D01*
X55172Y-41143D01*
X55458Y-41743D02*
X55458Y-41143D01*
X55601Y-41143D01*
X55686Y-41171D01*
X55744Y-41229D01*
X55772Y-41286D01*
X55801Y-41400D01*
X55801Y-41486D01*
X55772Y-41600D01*
X55744Y-41657D01*
X55686Y-41714D01*
X55601Y-41743D01*
X55458Y-41743D01*
X50543Y-43171D02*
X50486Y-43143D01*
X50400Y-43143D01*
X50315Y-43171D01*
X50257Y-43229D01*
X50229Y-43286D01*
X50200Y-43400D01*
X50200Y-43486D01*
X50229Y-43600D01*
X50257Y-43657D01*
X50315Y-43714D01*
X50400Y-43743D01*
X50457Y-43743D01*
X50543Y-43714D01*
X50572Y-43686D01*
X50572Y-43486D01*
X50457Y-43486D01*
X50829Y-43743D02*
X50829Y-43143D01*
X51172Y-43743D01*
X51172Y-43143D01*
X51458Y-43743D02*
X51458Y-43143D01*
X51601Y-43143D01*
X51686Y-43171D01*
X51744Y-43229D01*
X51772Y-43286D01*
X51801Y-43400D01*
X51801Y-43486D01*
X51772Y-43600D01*
X51744Y-43657D01*
X51686Y-43714D01*
X51601Y-43743D01*
X51458Y-43743D01*
X54229Y-43514D02*
X54686Y-43514D01*
X54457Y-43743D02*
X54457Y-43286D01*
X55258Y-43143D02*
X54972Y-43143D01*
X54943Y-43429D01*
X54972Y-43400D01*
X55029Y-43371D01*
X55172Y-43371D01*
X55229Y-43400D01*
X55258Y-43429D01*
X55286Y-43486D01*
X55286Y-43629D01*
X55258Y-43686D01*
X55229Y-43714D01*
X55172Y-43743D01*
X55029Y-43743D01*
X54972Y-43714D01*
X54943Y-43686D01*
X55457Y-43143D02*
X55657Y-43743D01*
X55857Y-43143D01*
X50229Y-41514D02*
X50686Y-41514D01*
X50457Y-41743D02*
X50457Y-41286D01*
X51258Y-41143D02*
X50972Y-41143D01*
X50943Y-41429D01*
X50972Y-41400D01*
X51029Y-41371D01*
X51172Y-41371D01*
X51229Y-41400D01*
X51258Y-41429D01*
X51286Y-41486D01*
X51286Y-41629D01*
X51258Y-41686D01*
X51229Y-41714D01*
X51172Y-41743D01*
X51029Y-41743D01*
X50972Y-41714D01*
X50943Y-41686D01*
X51457Y-41143D02*
X51657Y-41743D01*
X51857Y-41143D01*
G54D13*
X59250Y-25000D02*
X46750Y-25000D01*
X59250Y-55000D02*
X59250Y-25000D01*
X46750Y-55000D02*
X59250Y-55000D01*
X46750Y-25000D02*
X46750Y-55000D01*
G54D14*
X47000Y-40750D02*
X49750Y-40750D01*
X49750Y-40750D02*
X49750Y-44250D01*
X49750Y-44250D02*
X47000Y-44250D01*
X47000Y-44250D02*
X47000Y-40750D01*
X59000Y-44250D02*
X56250Y-44250D01*
X56250Y-44250D02*
X56250Y-40750D01*
X56250Y-40750D02*
X59000Y-40750D01*
X59000Y-40750D02*
X59000Y-44250D01*
X59000Y-50500D02*
X59000Y-49750D01*
X59000Y-49750D02*
X47000Y-49750D01*
X47000Y-49750D02*
X47000Y-50500D01*
X47000Y-50500D02*
X47000Y-54750D01*
X47000Y-54750D02*
X59000Y-54750D01*
X59000Y-54750D02*
X59000Y-50500D01*
G54D15*
X57100Y-34400D02*
X57100Y-31600D01*
X57100Y-31600D02*
X57900Y-31600D01*
X57900Y-31600D02*
X57900Y-34400D01*
X57900Y-34400D02*
X57100Y-34400D01*
X57300Y-34400D02*
X57100Y-34200D01*
X58750Y-28250D02*
X58750Y-30250D01*
X58750Y-30250D02*
X56750Y-30250D01*
X56750Y-30250D02*
X56750Y-28250D01*
X56750Y-28250D02*
X58750Y-28250D01*
X48400Y-29100D02*
X48400Y-31900D01*
X48400Y-31900D02*
X47600Y-31900D01*
X47600Y-31900D02*
X47600Y-29100D01*
X47600Y-29100D02*
X48400Y-29100D01*
X48200Y-29100D02*
X48400Y-29300D01*
X48400Y-35100D02*
X48400Y-37900D01*
X48400Y-37900D02*
X47600Y-37900D01*
X47600Y-37900D02*
X47600Y-35100D01*
X47600Y-35100D02*
X48400Y-35100D01*
X48200Y-35100D02*
X48400Y-35300D01*
X55500Y-45500D02*
X55500Y-45700D01*
X55500Y-48500D02*
X55500Y-48300D01*
X55500Y-48300D02*
X55900Y-48300D01*
X55900Y-48300D02*
X55900Y-45700D01*
X55900Y-45700D02*
X55100Y-45700D01*
X55100Y-45700D02*
X55100Y-48300D01*
X55100Y-48300D02*
X55500Y-48300D01*
X55700Y-45700D02*
X55900Y-45900D01*
X50500Y-45500D02*
X50500Y-45700D01*
X50500Y-48500D02*
X50500Y-48300D01*
X50500Y-48300D02*
X50900Y-48300D01*
X50900Y-48300D02*
X50900Y-45700D01*
X50900Y-45700D02*
X50100Y-45700D01*
X50100Y-45700D02*
X50100Y-48300D01*
X50100Y-48300D02*
X50500Y-48300D01*
X50700Y-45700D02*
X50900Y-45900D01*
X57500Y-35000D02*
X57500Y-35400D01*
X57500Y-35400D02*
X57900Y-35400D01*
X57900Y-35400D02*
X57900Y-38600D01*
X57900Y-38600D02*
X57100Y-38600D01*
X57100Y-38600D02*
X57100Y-35400D01*
X57100Y-35400D02*
X57500Y-35400D01*
X57700Y-35400D02*
X57900Y-35600D01*
X57500Y-39000D02*
X57500Y-38600D01*
G54D14*
X52500Y-25500D02*
X52502Y-25543D01*
X52508Y-25586D01*
X52518Y-25629D01*
X52531Y-25671D01*
X52547Y-25711D01*
X52567Y-25749D01*
X52591Y-25786D01*
X52617Y-25821D01*
X52647Y-25853D01*
X52679Y-25883D01*
X52714Y-25909D01*
X52751Y-25933D01*
X52789Y-25953D01*
X52829Y-25969D01*
X52871Y-25982D01*
X52914Y-25992D01*
X52957Y-25998D01*
X53000Y-26000D01*
X53000Y-26000D02*
X53043Y-25998D01*
X53086Y-25992D01*
X53129Y-25982D01*
X53171Y-25969D01*
X53211Y-25953D01*
X53250Y-25933D01*
X53286Y-25909D01*
X53321Y-25883D01*
X53353Y-25853D01*
X53383Y-25821D01*
X53409Y-25786D01*
X53433Y-25749D01*
X53453Y-25711D01*
X53469Y-25671D01*
X53482Y-25629D01*
X53492Y-25586D01*
X53498Y-25543D01*
X53500Y-25500D01*
X55500Y-25500D02*
X53500Y-25500D01*
X50500Y-25500D02*
X52500Y-25500D01*
X50500Y-25500D02*
X50500Y-40500D01*
X50500Y-40500D02*
X55500Y-40500D01*
X55500Y-40500D02*
X55500Y-25500D01*
X58900Y-46000D02*
X58882Y-46174D01*
X58832Y-46342D01*
X58749Y-46498D01*
X58638Y-46634D01*
X58503Y-46746D01*
X58348Y-46829D01*
X58180Y-46881D01*
X58006Y-46899D01*
X57832Y-46884D01*
X57663Y-46834D01*
X57508Y-46753D01*
X57371Y-46643D01*
X57258Y-46508D01*
X57173Y-46354D01*
X57120Y-46187D01*
X57101Y-46012D01*
X57115Y-45838D01*
X57164Y-45669D01*
X57244Y-45513D01*
X57353Y-45375D01*
X57487Y-45261D01*
X57640Y-45176D01*
X57807Y-45121D01*
X57982Y-45101D01*
X58156Y-45114D01*
X58325Y-45161D01*
X58482Y-45241D01*
X58620Y-45349D01*
X58735Y-45482D01*
X58822Y-45634D01*
X58877Y-45801D01*
X58899Y-45975D01*
X58900Y-46000D01*
X48900Y-46000D02*
X48882Y-46174D01*
X48832Y-46342D01*
X48749Y-46498D01*
X48638Y-46634D01*
X48503Y-46746D01*
X48348Y-46829D01*
X48180Y-46881D01*
X48006Y-46899D01*
X47832Y-46884D01*
X47663Y-46834D01*
X47508Y-46753D01*
X47371Y-46643D01*
X47258Y-46508D01*
X47173Y-46354D01*
X47120Y-46187D01*
X47101Y-46012D01*
X47115Y-45838D01*
X47164Y-45669D01*
X47244Y-45513D01*
X47353Y-45375D01*
X47487Y-45261D01*
X47640Y-45176D01*
X47807Y-45121D01*
X47982Y-45101D01*
X48156Y-45114D01*
X48325Y-45161D01*
X48482Y-45241D01*
X48620Y-45349D01*
X48735Y-45482D01*
X48822Y-45634D01*
X48877Y-45801D01*
X48899Y-45975D01*
X48900Y-46000D01*
X58900Y-26000D02*
X58882Y-26174D01*
X58832Y-26342D01*
X58749Y-26498D01*
X58638Y-26634D01*
X58503Y-26746D01*
X58348Y-26829D01*
X58180Y-26881D01*
X58006Y-26899D01*
X57832Y-26884D01*
X57663Y-26834D01*
X57508Y-26753D01*
X57371Y-26643D01*
X57258Y-26508D01*
X57173Y-26354D01*
X57120Y-26187D01*
X57101Y-26012D01*
X57115Y-25838D01*
X57164Y-25669D01*
X57244Y-25513D01*
X57353Y-25375D01*
X57487Y-25261D01*
X57640Y-25176D01*
X57807Y-25121D01*
X57982Y-25101D01*
X58156Y-25114D01*
X58325Y-25161D01*
X58482Y-25241D01*
X58620Y-25349D01*
X58735Y-25482D01*
X58822Y-25634D01*
X58877Y-25801D01*
X58899Y-25975D01*
X58900Y-26000D01*
X48900Y-26000D02*
X48882Y-26174D01*
X48832Y-26342D01*
X48749Y-26498D01*
X48638Y-26634D01*
X48503Y-26746D01*
X48348Y-26829D01*
X48180Y-26881D01*
X48006Y-26899D01*
X47832Y-26884D01*
X47663Y-26834D01*
X47508Y-26753D01*
X47371Y-26643D01*
X47258Y-26508D01*
X47173Y-26354D01*
X47120Y-26187D01*
X47101Y-26012D01*
X47115Y-25838D01*
X47164Y-25669D01*
X47244Y-25513D01*
X47353Y-25375D01*
X47487Y-25261D01*
X47640Y-25176D01*
X47807Y-25121D01*
X47982Y-25101D01*
X48156Y-25114D01*
X48325Y-25161D01*
X48482Y-25241D01*
X48620Y-25349D01*
X48735Y-25482D01*
X48822Y-25634D01*
X48877Y-25801D01*
X48899Y-25975D01*
X48900Y-26000D01*
G54D12*
X47808Y-40493D02*
X47808Y-39893D01*
X48151Y-40493D02*
X47894Y-40150D01*
X48151Y-39893D02*
X47808Y-40236D01*
X48379Y-39950D02*
X48408Y-39921D01*
X48465Y-39893D01*
X48608Y-39893D01*
X48665Y-39921D01*
X48694Y-39950D01*
X48722Y-40007D01*
X48722Y-40064D01*
X48694Y-40150D01*
X48351Y-40493D01*
X48722Y-40493D01*
X50258Y-42743D02*
X50258Y-42143D01*
X50486Y-42143D01*
X50544Y-42171D01*
X50572Y-42200D01*
X50601Y-42257D01*
X50601Y-42343D01*
X50572Y-42400D01*
X50544Y-42429D01*
X50486Y-42457D01*
X50258Y-42457D01*
X51058Y-42429D02*
X51144Y-42457D01*
X51172Y-42486D01*
X51201Y-42543D01*
X51201Y-42629D01*
X51172Y-42686D01*
X51144Y-42714D01*
X51086Y-42743D01*
X50858Y-42743D01*
X50858Y-42143D01*
X51058Y-42143D01*
X51115Y-42171D01*
X51144Y-42200D01*
X51172Y-42257D01*
X51172Y-42314D01*
X51144Y-42371D01*
X51115Y-42400D01*
X51058Y-42429D01*
X50858Y-42429D01*
X51772Y-42743D02*
X51429Y-42743D01*
X51601Y-42743D02*
X51601Y-42143D01*
X51544Y-42229D01*
X51486Y-42286D01*
X51429Y-42314D01*
X57308Y-40493D02*
X57308Y-39893D01*
X57651Y-40493D02*
X57394Y-40150D01*
X57651Y-39893D02*
X57308Y-40236D01*
X58222Y-40493D02*
X57879Y-40493D01*
X58051Y-40493D02*
X58051Y-39893D01*
X57994Y-39979D01*
X57936Y-40036D01*
X57879Y-40064D01*
X54258Y-42743D02*
X54258Y-42143D01*
X54486Y-42143D01*
X54544Y-42171D01*
X54572Y-42200D01*
X54601Y-42257D01*
X54601Y-42343D01*
X54572Y-42400D01*
X54544Y-42429D01*
X54486Y-42457D01*
X54258Y-42457D01*
X54858Y-42743D02*
X54858Y-42143D01*
X55001Y-42143D01*
X55086Y-42171D01*
X55144Y-42229D01*
X55172Y-42286D01*
X55201Y-42400D01*
X55201Y-42486D01*
X55172Y-42600D01*
X55144Y-42657D01*
X55086Y-42714D01*
X55001Y-42743D01*
X54858Y-42743D01*
X55401Y-42143D02*
X55772Y-42143D01*
X55572Y-42371D01*
X55658Y-42371D01*
X55715Y-42400D01*
X55744Y-42429D01*
X55772Y-42486D01*
X55772Y-42629D01*
X55744Y-42686D01*
X55715Y-42714D01*
X55658Y-42743D01*
X55486Y-42743D01*
X55429Y-42714D01*
X55401Y-42686D01*
X52800Y-48893D02*
X52800Y-49321D01*
X52772Y-49407D01*
X52715Y-49464D01*
X52629Y-49493D01*
X52572Y-49493D01*
X53400Y-49493D02*
X53057Y-49493D01*
X53229Y-49493D02*
X53229Y-48893D01*
X53172Y-48979D01*
X53114Y-49036D01*
X53057Y-49064D01*
X49115Y-53993D02*
X49115Y-53393D01*
X49258Y-53393D01*
X49343Y-53421D01*
X49401Y-53479D01*
X49429Y-53536D01*
X49458Y-53650D01*
X49458Y-53736D01*
X49429Y-53850D01*
X49401Y-53907D01*
X49343Y-53964D01*
X49258Y-53993D01*
X49115Y-53993D01*
X49915Y-53679D02*
X50001Y-53707D01*
X50029Y-53736D01*
X50058Y-53793D01*
X50058Y-53879D01*
X50029Y-53936D01*
X50001Y-53964D01*
X49943Y-53993D01*
X49715Y-53993D01*
X49715Y-53393D01*
X49915Y-53393D01*
X49972Y-53421D01*
X50001Y-53450D01*
X50029Y-53507D01*
X50029Y-53564D01*
X50001Y-53621D01*
X49972Y-53650D01*
X49915Y-53679D01*
X49715Y-53679D01*
X50343Y-53993D02*
X50458Y-53993D01*
X50515Y-53964D01*
X50543Y-53936D01*
X50601Y-53850D01*
X50629Y-53736D01*
X50629Y-53507D01*
X50601Y-53450D01*
X50572Y-53421D01*
X50515Y-53393D01*
X50401Y-53393D01*
X50343Y-53421D01*
X50315Y-53450D01*
X50286Y-53507D01*
X50286Y-53650D01*
X50315Y-53707D01*
X50343Y-53736D01*
X50401Y-53764D01*
X50515Y-53764D01*
X50572Y-53736D01*
X50601Y-53707D01*
X50629Y-53650D01*
X50743Y-54050D02*
X51200Y-54050D01*
X51543Y-53679D02*
X51343Y-53679D01*
X51343Y-53993D02*
X51343Y-53393D01*
X51629Y-53393D01*
X51857Y-53679D02*
X52057Y-53679D01*
X52143Y-53993D02*
X51857Y-53993D01*
X51857Y-53393D01*
X52143Y-53393D01*
X52400Y-53993D02*
X52400Y-53393D01*
X52600Y-53821D01*
X52800Y-53393D01*
X52800Y-53993D01*
X53057Y-53821D02*
X53343Y-53821D01*
X53000Y-53993D02*
X53200Y-53393D01*
X53400Y-53993D01*
X53886Y-53993D02*
X53600Y-53993D01*
X53600Y-53393D01*
X54086Y-53679D02*
X54286Y-53679D01*
X54372Y-53993D02*
X54086Y-53993D01*
X54086Y-53393D01*
X54372Y-53393D01*
X54486Y-54050D02*
X54943Y-54050D01*
X55086Y-53993D02*
X55086Y-53393D01*
X55314Y-53393D01*
X55372Y-53421D01*
X55400Y-53450D01*
X55429Y-53507D01*
X55429Y-53593D01*
X55400Y-53650D01*
X55372Y-53679D01*
X55314Y-53707D01*
X55086Y-53707D01*
X55686Y-53993D02*
X55686Y-53393D01*
X55972Y-53993D02*
X55972Y-53393D01*
X56315Y-53993D01*
X56315Y-53393D01*
X56572Y-53964D02*
X56658Y-53993D01*
X56801Y-53993D01*
X56858Y-53964D01*
X56887Y-53936D01*
X56915Y-53879D01*
X56915Y-53821D01*
X56887Y-53764D01*
X56858Y-53736D01*
X56801Y-53707D01*
X56687Y-53679D01*
X56629Y-53650D01*
X56601Y-53621D01*
X56572Y-53564D01*
X56572Y-53507D01*
X56601Y-53450D01*
X56629Y-53421D01*
X56687Y-53393D01*
X56829Y-53393D01*
X56915Y-53421D01*
G54D11*
X58624Y-34316D02*
X58643Y-34335D01*
X58662Y-34392D01*
X58662Y-34430D01*
X58643Y-34488D01*
X58605Y-34526D01*
X58567Y-34545D01*
X58490Y-34564D01*
X58433Y-34564D01*
X58357Y-34545D01*
X58319Y-34526D01*
X58281Y-34488D01*
X58262Y-34430D01*
X58262Y-34392D01*
X58281Y-34335D01*
X58300Y-34316D01*
X58262Y-34183D02*
X58262Y-33935D01*
X58414Y-34069D01*
X58414Y-34011D01*
X58433Y-33973D01*
X58452Y-33954D01*
X58490Y-33935D01*
X58586Y-33935D01*
X58624Y-33954D01*
X58643Y-33973D01*
X58662Y-34011D01*
X58662Y-34126D01*
X58643Y-34164D01*
X58624Y-34183D01*
X58262Y-33348D02*
X58262Y-33309D01*
X58281Y-33271D01*
X58300Y-33252D01*
X58338Y-33233D01*
X58414Y-33214D01*
X58510Y-33214D01*
X58586Y-33233D01*
X58624Y-33252D01*
X58643Y-33271D01*
X58662Y-33309D01*
X58662Y-33348D01*
X58643Y-33386D01*
X58624Y-33405D01*
X58586Y-33424D01*
X58510Y-33443D01*
X58414Y-33443D01*
X58338Y-33424D01*
X58300Y-33405D01*
X58281Y-33386D01*
X58262Y-33348D01*
X58624Y-33043D02*
X58643Y-33024D01*
X58662Y-33043D01*
X58643Y-33062D01*
X58624Y-33043D01*
X58662Y-33043D01*
X58262Y-32891D02*
X58262Y-32643D01*
X58414Y-32777D01*
X58414Y-32719D01*
X58433Y-32681D01*
X58452Y-32662D01*
X58490Y-32643D01*
X58586Y-32643D01*
X58624Y-32662D01*
X58643Y-32681D01*
X58662Y-32719D01*
X58662Y-32834D01*
X58643Y-32872D01*
X58624Y-32891D01*
X58262Y-32510D02*
X58262Y-32262D01*
X58414Y-32396D01*
X58414Y-32338D01*
X58433Y-32300D01*
X58452Y-32281D01*
X58490Y-32262D01*
X58586Y-32262D01*
X58624Y-32281D01*
X58643Y-32300D01*
X58662Y-32338D01*
X58662Y-32453D01*
X58643Y-32491D01*
X58624Y-32510D01*
X58395Y-31919D02*
X58662Y-31919D01*
X58395Y-32091D02*
X58605Y-32091D01*
X58643Y-32072D01*
X58662Y-32034D01*
X58662Y-31976D01*
X58643Y-31938D01*
X58624Y-31919D01*
X58452Y-31595D02*
X58452Y-31729D01*
X58662Y-31729D02*
X58262Y-31729D01*
X58262Y-31538D01*
X58455Y-30912D02*
X58455Y-30512D01*
X58608Y-30512D01*
X58646Y-30531D01*
X58665Y-30550D01*
X58684Y-30588D01*
X58684Y-30645D01*
X58665Y-30683D01*
X58646Y-30702D01*
X58608Y-30721D01*
X58455Y-30721D01*
X59065Y-30912D02*
X58836Y-30912D01*
X58950Y-30912D02*
X58950Y-30512D01*
X58912Y-30569D01*
X58874Y-30607D01*
X58836Y-30626D01*
X47374Y-30566D02*
X47393Y-30585D01*
X47412Y-30642D01*
X47412Y-30680D01*
X47393Y-30738D01*
X47355Y-30776D01*
X47317Y-30795D01*
X47240Y-30814D01*
X47183Y-30814D01*
X47107Y-30795D01*
X47069Y-30776D01*
X47031Y-30738D01*
X47012Y-30680D01*
X47012Y-30642D01*
X47031Y-30585D01*
X47050Y-30566D01*
X47412Y-30185D02*
X47412Y-30414D01*
X47412Y-30300D02*
X47012Y-30300D01*
X47069Y-30338D01*
X47107Y-30376D01*
X47126Y-30414D01*
X48762Y-31157D02*
X48762Y-31118D01*
X48781Y-31080D01*
X48800Y-31061D01*
X48838Y-31042D01*
X48914Y-31023D01*
X49010Y-31023D01*
X49086Y-31042D01*
X49124Y-31061D01*
X49143Y-31080D01*
X49162Y-31118D01*
X49162Y-31157D01*
X49143Y-31195D01*
X49124Y-31214D01*
X49086Y-31233D01*
X49010Y-31252D01*
X48914Y-31252D01*
X48838Y-31233D01*
X48800Y-31214D01*
X48781Y-31195D01*
X48762Y-31157D01*
X49124Y-30852D02*
X49143Y-30833D01*
X49162Y-30852D01*
X49143Y-30871D01*
X49124Y-30852D01*
X49162Y-30852D01*
X49162Y-30452D02*
X49162Y-30681D01*
X49162Y-30567D02*
X48762Y-30567D01*
X48819Y-30605D01*
X48857Y-30643D01*
X48876Y-30681D01*
X48895Y-30109D02*
X49162Y-30109D01*
X48895Y-30281D02*
X49105Y-30281D01*
X49143Y-30262D01*
X49162Y-30224D01*
X49162Y-30166D01*
X49143Y-30128D01*
X49124Y-30109D01*
X48952Y-29785D02*
X48952Y-29919D01*
X49162Y-29919D02*
X48762Y-29919D01*
X48762Y-29728D01*
X47374Y-36566D02*
X47393Y-36585D01*
X47412Y-36642D01*
X47412Y-36680D01*
X47393Y-36738D01*
X47355Y-36776D01*
X47317Y-36795D01*
X47240Y-36814D01*
X47183Y-36814D01*
X47107Y-36795D01*
X47069Y-36776D01*
X47031Y-36738D01*
X47012Y-36680D01*
X47012Y-36642D01*
X47031Y-36585D01*
X47050Y-36566D01*
X47050Y-36414D02*
X47031Y-36395D01*
X47012Y-36357D01*
X47012Y-36261D01*
X47031Y-36223D01*
X47050Y-36204D01*
X47088Y-36185D01*
X47126Y-36185D01*
X47183Y-36204D01*
X47412Y-36433D01*
X47412Y-36185D01*
X49162Y-36928D02*
X49162Y-37157D01*
X49162Y-37043D02*
X48762Y-37043D01*
X48819Y-37081D01*
X48857Y-37119D01*
X48876Y-37157D01*
X48762Y-36681D02*
X48762Y-36642D01*
X48781Y-36604D01*
X48800Y-36585D01*
X48838Y-36566D01*
X48914Y-36547D01*
X49010Y-36547D01*
X49086Y-36566D01*
X49124Y-36585D01*
X49143Y-36604D01*
X49162Y-36642D01*
X49162Y-36681D01*
X49143Y-36719D01*
X49124Y-36738D01*
X49086Y-36757D01*
X49010Y-36776D01*
X48914Y-36776D01*
X48838Y-36757D01*
X48800Y-36738D01*
X48781Y-36719D01*
X48762Y-36681D01*
X48895Y-36204D02*
X49162Y-36204D01*
X48895Y-36376D02*
X49105Y-36376D01*
X49143Y-36357D01*
X49162Y-36319D01*
X49162Y-36261D01*
X49143Y-36223D01*
X49124Y-36204D01*
X48952Y-35880D02*
X48952Y-36014D01*
X49162Y-36014D02*
X48762Y-36014D01*
X48762Y-35823D01*
G54D12*
X48064Y-38578D02*
X48064Y-38121D01*
X48014Y-34728D02*
X48014Y-34271D01*
X48243Y-34500D02*
X47786Y-34500D01*
G54D16*
X54723Y-47083D02*
X54461Y-47250D01*
X54723Y-47369D02*
X54173Y-47369D01*
X54173Y-47178D01*
X54199Y-47131D01*
X54225Y-47107D01*
X54277Y-47083D01*
X54356Y-47083D01*
X54408Y-47107D01*
X54435Y-47131D01*
X54461Y-47178D01*
X54461Y-47369D01*
X54723Y-46607D02*
X54723Y-46893D01*
X54723Y-46750D02*
X54173Y-46750D01*
X54251Y-46798D01*
X54304Y-46845D01*
X54330Y-46893D01*
X56723Y-47059D02*
X56723Y-47345D01*
X56723Y-47202D02*
X56173Y-47202D01*
X56251Y-47250D01*
X56304Y-47297D01*
X56330Y-47345D01*
X56723Y-46845D02*
X56173Y-46845D01*
X56513Y-46797D02*
X56723Y-46654D01*
X56356Y-46654D02*
X56565Y-46845D01*
X49723Y-47083D02*
X49461Y-47250D01*
X49723Y-47369D02*
X49173Y-47369D01*
X49173Y-47178D01*
X49199Y-47131D01*
X49225Y-47107D01*
X49277Y-47083D01*
X49356Y-47083D01*
X49408Y-47107D01*
X49435Y-47131D01*
X49461Y-47178D01*
X49461Y-47369D01*
X49225Y-46893D02*
X49199Y-46869D01*
X49173Y-46821D01*
X49173Y-46702D01*
X49199Y-46655D01*
X49225Y-46631D01*
X49277Y-46607D01*
X49330Y-46607D01*
X49408Y-46631D01*
X49723Y-46917D01*
X49723Y-46607D01*
X51723Y-47059D02*
X51723Y-47345D01*
X51723Y-47202D02*
X51173Y-47202D01*
X51251Y-47250D01*
X51304Y-47297D01*
X51330Y-47345D01*
X51723Y-46845D02*
X51173Y-46845D01*
X51513Y-46797D02*
X51723Y-46654D01*
X51356Y-46654D02*
X51565Y-46845D01*
X58723Y-37833D02*
X58461Y-38000D01*
X58723Y-38119D02*
X58173Y-38119D01*
X58173Y-37928D01*
X58199Y-37881D01*
X58225Y-37857D01*
X58277Y-37833D01*
X58356Y-37833D01*
X58408Y-37857D01*
X58435Y-37881D01*
X58461Y-37928D01*
X58461Y-38119D01*
X58173Y-37667D02*
X58173Y-37357D01*
X58382Y-37524D01*
X58382Y-37452D01*
X58408Y-37405D01*
X58435Y-37381D01*
X58487Y-37357D01*
X58618Y-37357D01*
X58670Y-37381D01*
X58696Y-37405D01*
X58723Y-37452D01*
X58723Y-37595D01*
X58696Y-37643D01*
X58670Y-37667D01*
X58173Y-36393D02*
X58173Y-36488D01*
X58199Y-36536D01*
X58225Y-36559D01*
X58304Y-36607D01*
X58408Y-36631D01*
X58618Y-36631D01*
X58670Y-36607D01*
X58696Y-36583D01*
X58723Y-36536D01*
X58723Y-36440D01*
X58696Y-36393D01*
X58670Y-36369D01*
X58618Y-36345D01*
X58487Y-36345D01*
X58435Y-36369D01*
X58408Y-36393D01*
X58382Y-36440D01*
X58382Y-36536D01*
X58408Y-36583D01*
X58435Y-36607D01*
X58487Y-36631D01*
X58408Y-36060D02*
X58382Y-36107D01*
X58356Y-36131D01*
X58304Y-36155D01*
X58277Y-36155D01*
X58225Y-36131D01*
X58199Y-36107D01*
X58173Y-36060D01*
X58173Y-35964D01*
X58199Y-35917D01*
X58225Y-35893D01*
X58277Y-35869D01*
X58304Y-35869D01*
X58356Y-35893D01*
X58382Y-35917D01*
X58408Y-35964D01*
X58408Y-36060D01*
X58435Y-36107D01*
X58461Y-36131D01*
X58513Y-36155D01*
X58618Y-36155D01*
X58670Y-36131D01*
X58696Y-36107D01*
X58723Y-36060D01*
X58723Y-35964D01*
X58696Y-35917D01*
X58670Y-35893D01*
X58618Y-35869D01*
X58513Y-35869D01*
X58461Y-35893D01*
X58435Y-35917D01*
X58408Y-35964D01*
G54D12*
X48643Y-28207D02*
X49129Y-28207D01*
X49186Y-28179D01*
X49214Y-28150D01*
X49243Y-28093D01*
X49243Y-27979D01*
X49214Y-27921D01*
X49186Y-27893D01*
X49129Y-27864D01*
X48643Y-27864D01*
X49243Y-27264D02*
X49243Y-27607D01*
X49243Y-27435D02*
X48643Y-27435D01*
X48729Y-27492D01*
X48786Y-27550D01*
X48814Y-27607D01*
X53071Y-36258D02*
X53071Y-35972D01*
X53243Y-36315D02*
X52643Y-36115D01*
X53243Y-35915D01*
X53243Y-35372D02*
X52957Y-35572D01*
X53243Y-35715D02*
X52643Y-35715D01*
X52643Y-35487D01*
X52671Y-35429D01*
X52700Y-35401D01*
X52757Y-35372D01*
X52843Y-35372D01*
X52900Y-35401D01*
X52929Y-35429D01*
X52957Y-35487D01*
X52957Y-35715D01*
X53243Y-35115D02*
X52643Y-35115D01*
X52643Y-34972D01*
X52671Y-34887D01*
X52729Y-34829D01*
X52786Y-34801D01*
X52900Y-34772D01*
X52986Y-34772D01*
X53100Y-34801D01*
X53157Y-34829D01*
X53214Y-34887D01*
X53243Y-34972D01*
X53243Y-35115D01*
X52643Y-34515D02*
X53129Y-34515D01*
X53186Y-34487D01*
X53214Y-34458D01*
X53243Y-34401D01*
X53243Y-34287D01*
X53214Y-34229D01*
X53186Y-34201D01*
X53129Y-34172D01*
X52643Y-34172D01*
X53243Y-33886D02*
X52643Y-33886D01*
X53243Y-33600D02*
X52643Y-33600D01*
X53243Y-33257D01*
X52643Y-33257D01*
X52643Y-32857D02*
X52643Y-32743D01*
X52671Y-32685D01*
X52729Y-32628D01*
X52843Y-32600D01*
X53043Y-32600D01*
X53157Y-32628D01*
X53214Y-32685D01*
X53243Y-32743D01*
X53243Y-32857D01*
X53214Y-32914D01*
X53157Y-32971D01*
X53043Y-33000D01*
X52843Y-33000D01*
X52729Y-32971D01*
X52671Y-32914D01*
X52643Y-32857D01*
X53300Y-32485D02*
X53300Y-32028D01*
X53243Y-31885D02*
X52643Y-31885D01*
X53243Y-31542D01*
X52643Y-31542D01*
X53071Y-31285D02*
X53071Y-30999D01*
X53243Y-31342D02*
X52643Y-31142D01*
X53243Y-30942D01*
X53243Y-30742D02*
X52643Y-30742D01*
X53243Y-30399D01*
X52643Y-30399D01*
X52643Y-29999D02*
X52643Y-29885D01*
X52671Y-29827D01*
X52729Y-29770D01*
X52843Y-29742D01*
X53043Y-29742D01*
X53157Y-29770D01*
X53214Y-29827D01*
X53243Y-29885D01*
X53243Y-29999D01*
X53214Y-30056D01*
X53157Y-30113D01*
X53043Y-30142D01*
X52843Y-30142D01*
X52729Y-30113D01*
X52671Y-30056D01*
X52643Y-29999D01*
M02*
