G04 (created by PCBNEW-RS274X (2010-03-14)-final) date Tue 08 Feb 2011 03:21:09 PM PST*
G01*
G70*
G90*
%MOIN*%
G04 Gerber Fmt 3.4, Leading zero omitted, Abs format*
%FSLAX34Y34*%
G04 APERTURE LIST*
%ADD10C,0.006000*%
%ADD11C,0.009000*%
%ADD12C,0.073000*%
%ADD13R,0.073000X0.073000*%
%ADD14C,0.053000*%
%ADD15C,0.165000*%
%ADD16C,0.055000*%
%ADD17R,0.060000X0.060000*%
%ADD18C,0.060000*%
%ADD19R,0.069000X0.060000*%
%ADD20C,0.069000*%
%ADD21C,0.160000*%
%ADD22C,0.035000*%
%ADD23C,0.032000*%
%ADD24C,0.010000*%
G04 APERTURE END LIST*
G54D10*
G54D11*
X59250Y-25000D02*
X46750Y-25000D01*
X59250Y-55000D02*
X59250Y-25000D01*
X46750Y-55000D02*
X59250Y-55000D01*
X46750Y-25000D02*
X46750Y-55000D01*
G54D12*
X48500Y-42500D03*
X48500Y-43500D03*
G54D13*
X48500Y-41500D03*
G54D14*
X47500Y-41500D03*
X47500Y-42500D03*
X47500Y-43500D03*
G54D12*
X57500Y-42500D03*
X57500Y-41500D03*
G54D13*
X57500Y-43500D03*
G54D14*
X58500Y-43500D03*
X58500Y-42500D03*
X58500Y-41500D03*
G54D12*
X53000Y-50500D03*
X51910Y-50500D03*
X50820Y-50500D03*
X54090Y-50500D03*
G54D13*
X55180Y-50500D03*
G54D12*
X54635Y-51620D03*
X53545Y-51620D03*
X52455Y-51620D03*
X51365Y-51620D03*
G54D15*
X48080Y-51060D03*
X57920Y-51060D03*
G54D16*
X57500Y-34000D03*
X57500Y-32000D03*
G54D17*
X57250Y-28750D03*
G54D18*
X58250Y-28750D03*
X57250Y-29750D03*
X58250Y-29750D03*
G54D16*
X48000Y-29500D03*
X48000Y-31500D03*
X48000Y-35500D03*
X48000Y-37500D03*
X55500Y-45500D03*
X55500Y-48500D03*
X50500Y-45500D03*
X50500Y-48500D03*
G54D18*
X57500Y-35000D03*
X57500Y-39000D03*
G54D19*
X50000Y-26000D03*
G54D20*
X50000Y-27000D03*
X50000Y-28000D03*
X50000Y-29000D03*
X50000Y-30000D03*
X50000Y-31000D03*
X50000Y-32000D03*
X50000Y-33000D03*
X50000Y-34000D03*
X50000Y-35000D03*
X50000Y-36000D03*
X50000Y-37000D03*
X50000Y-38000D03*
X50000Y-39000D03*
X50000Y-40000D03*
X56000Y-40000D03*
X56000Y-39000D03*
X56000Y-38000D03*
X56000Y-37000D03*
X56000Y-36000D03*
X56000Y-35000D03*
X56000Y-34000D03*
X56000Y-33000D03*
X56000Y-32000D03*
X56000Y-31000D03*
X56000Y-30000D03*
X56000Y-29000D03*
X56000Y-28000D03*
X56000Y-27000D03*
X56000Y-26000D03*
G54D21*
X58000Y-46000D03*
X48000Y-46000D03*
X58000Y-26000D03*
X48000Y-26000D03*
G54D22*
X53947Y-37557D03*
G54D23*
X48666Y-42500D02*
X48500Y-42500D01*
X49129Y-42037D02*
X48666Y-42500D01*
X49129Y-37871D02*
X49129Y-42037D01*
X50000Y-37000D02*
X49129Y-37871D01*
X53947Y-38947D02*
X57500Y-42500D01*
X53947Y-37557D02*
X53947Y-38947D01*
X56687Y-28687D02*
X56687Y-28750D01*
X56000Y-28000D02*
X56687Y-28687D01*
X57250Y-28750D02*
X56687Y-28750D01*
X55226Y-51620D02*
X54635Y-51620D01*
X55809Y-51037D02*
X55226Y-51620D01*
X55809Y-48809D02*
X55809Y-51037D01*
X55500Y-48500D02*
X55809Y-48809D01*
X51413Y-47587D02*
X50500Y-48500D01*
X51413Y-37587D02*
X51413Y-47587D01*
X56000Y-33000D02*
X51413Y-37587D01*
X51636Y-52439D02*
X52455Y-51620D01*
X50514Y-52439D02*
X51636Y-52439D01*
X49768Y-51693D02*
X50514Y-52439D01*
X49768Y-49232D02*
X49768Y-51693D01*
X50500Y-48500D02*
X49768Y-49232D01*
G54D24*
X48729Y-25245D02*
X57270Y-25245D01*
X48809Y-25325D02*
X57190Y-25325D01*
X48889Y-25405D02*
X57110Y-25405D01*
X48923Y-25485D02*
X49524Y-25485D01*
X50477Y-25485D02*
X55691Y-25485D01*
X56309Y-25485D02*
X57077Y-25485D01*
X48956Y-25565D02*
X49442Y-25565D01*
X50559Y-25565D02*
X55595Y-25565D01*
X56405Y-25565D02*
X57044Y-25565D01*
X48990Y-25645D02*
X49409Y-25645D01*
X50592Y-25645D02*
X55515Y-25645D01*
X56485Y-25645D02*
X57011Y-25645D01*
X49023Y-25725D02*
X49406Y-25725D01*
X50594Y-25725D02*
X55472Y-25725D01*
X56530Y-25725D02*
X56978Y-25725D01*
X49050Y-25805D02*
X49406Y-25805D01*
X50594Y-25805D02*
X55438Y-25805D01*
X56563Y-25805D02*
X56950Y-25805D01*
X49050Y-25885D02*
X49406Y-25885D01*
X50594Y-25885D02*
X55406Y-25885D01*
X56594Y-25885D02*
X56950Y-25885D01*
X49050Y-25965D02*
X49406Y-25965D01*
X50594Y-25965D02*
X55406Y-25965D01*
X56594Y-25965D02*
X56950Y-25965D01*
X49050Y-26045D02*
X49406Y-26045D01*
X50594Y-26045D02*
X55406Y-26045D01*
X56594Y-26045D02*
X56950Y-26045D01*
X49050Y-26125D02*
X49406Y-26125D01*
X50594Y-26125D02*
X55408Y-26125D01*
X56591Y-26125D02*
X56950Y-26125D01*
X49050Y-26205D02*
X49406Y-26205D01*
X50594Y-26205D02*
X55441Y-26205D01*
X56557Y-26205D02*
X56950Y-26205D01*
X49018Y-26285D02*
X49406Y-26285D01*
X50594Y-26285D02*
X55474Y-26285D01*
X56524Y-26285D02*
X56981Y-26285D01*
X46995Y-26365D02*
X47015Y-26365D01*
X48985Y-26365D02*
X49412Y-26365D01*
X50587Y-26365D02*
X55525Y-26365D01*
X56475Y-26365D02*
X57015Y-26365D01*
X58985Y-26365D02*
X59005Y-26365D01*
X46995Y-26445D02*
X47048Y-26445D01*
X48952Y-26445D02*
X49448Y-26445D01*
X50552Y-26445D02*
X55605Y-26445D01*
X56395Y-26445D02*
X57048Y-26445D01*
X58952Y-26445D02*
X59005Y-26445D01*
X46995Y-26525D02*
X47081Y-26525D01*
X48919Y-26525D02*
X49547Y-26525D01*
X50452Y-26525D02*
X55681Y-26525D01*
X56319Y-26525D02*
X57081Y-26525D01*
X58919Y-26525D02*
X59005Y-26525D01*
X46995Y-26605D02*
X47120Y-26605D01*
X48879Y-26605D02*
X49555Y-26605D01*
X50445Y-26605D02*
X55676Y-26605D01*
X56324Y-26605D02*
X57120Y-26605D01*
X58879Y-26605D02*
X59005Y-26605D01*
X46995Y-26685D02*
X47200Y-26685D01*
X48799Y-26685D02*
X49488Y-26685D01*
X50513Y-26685D02*
X55515Y-26685D01*
X55614Y-26685D02*
X55756Y-26685D01*
X56244Y-26685D02*
X56386Y-26685D01*
X56486Y-26685D02*
X57200Y-26685D01*
X58799Y-26685D02*
X59005Y-26685D01*
X46995Y-26765D02*
X47280Y-26765D01*
X48719Y-26765D02*
X49455Y-26765D01*
X50546Y-26765D02*
X55466Y-26765D01*
X55694Y-26765D02*
X55836Y-26765D01*
X56164Y-26765D02*
X56306Y-26765D01*
X56539Y-26765D02*
X57280Y-26765D01*
X58719Y-26765D02*
X59005Y-26765D01*
X46995Y-26845D02*
X47360Y-26845D01*
X48639Y-26845D02*
X49422Y-26845D01*
X50579Y-26845D02*
X55436Y-26845D01*
X55774Y-26845D02*
X55916Y-26845D01*
X56084Y-26845D02*
X56226Y-26845D01*
X56573Y-26845D02*
X57360Y-26845D01*
X58639Y-26845D02*
X59005Y-26845D01*
X46995Y-26925D02*
X47489Y-26925D01*
X48509Y-26925D02*
X49406Y-26925D01*
X50594Y-26925D02*
X55412Y-26925D01*
X55854Y-26925D02*
X55996Y-26925D01*
X56004Y-26925D02*
X56146Y-26925D01*
X56581Y-26925D02*
X57489Y-26925D01*
X58509Y-26925D02*
X59005Y-26925D01*
X46995Y-27005D02*
X47681Y-27005D01*
X48316Y-27005D02*
X49406Y-27005D01*
X50594Y-27005D02*
X55416Y-27005D01*
X55924Y-27005D02*
X56076Y-27005D01*
X56585Y-27005D02*
X57681Y-27005D01*
X58316Y-27005D02*
X59005Y-27005D01*
X46995Y-27085D02*
X49406Y-27085D01*
X50594Y-27085D02*
X55419Y-27085D01*
X55844Y-27085D02*
X55986Y-27085D01*
X56014Y-27085D02*
X56156Y-27085D01*
X56588Y-27085D02*
X59005Y-27085D01*
X46995Y-27165D02*
X49425Y-27165D01*
X50574Y-27165D02*
X55431Y-27165D01*
X55764Y-27165D02*
X55906Y-27165D01*
X56094Y-27165D02*
X56236Y-27165D01*
X56560Y-27165D02*
X59005Y-27165D01*
X46995Y-27245D02*
X49458Y-27245D01*
X50541Y-27245D02*
X55465Y-27245D01*
X55684Y-27245D02*
X55826Y-27245D01*
X56174Y-27245D02*
X56316Y-27245D01*
X56531Y-27245D02*
X59005Y-27245D01*
X46995Y-27325D02*
X49491Y-27325D01*
X50507Y-27325D02*
X55545Y-27325D01*
X55604Y-27325D02*
X55746Y-27325D01*
X56254Y-27325D02*
X56396Y-27325D01*
X56454Y-27325D02*
X59005Y-27325D01*
X46995Y-27405D02*
X49565Y-27405D01*
X50434Y-27405D02*
X55666Y-27405D01*
X56334Y-27405D02*
X59005Y-27405D01*
X46995Y-27485D02*
X49645Y-27485D01*
X50353Y-27485D02*
X55684Y-27485D01*
X56314Y-27485D02*
X59005Y-27485D01*
X46995Y-27565D02*
X49595Y-27565D01*
X50405Y-27565D02*
X55595Y-27565D01*
X56405Y-27565D02*
X59005Y-27565D01*
X46995Y-27645D02*
X49515Y-27645D01*
X50485Y-27645D02*
X55515Y-27645D01*
X56485Y-27645D02*
X59005Y-27645D01*
X46995Y-27725D02*
X49472Y-27725D01*
X50530Y-27725D02*
X55472Y-27725D01*
X56530Y-27725D02*
X59005Y-27725D01*
X46995Y-27805D02*
X49438Y-27805D01*
X50563Y-27805D02*
X55438Y-27805D01*
X56563Y-27805D02*
X59005Y-27805D01*
X46995Y-27885D02*
X49406Y-27885D01*
X50594Y-27885D02*
X55406Y-27885D01*
X56594Y-27885D02*
X59005Y-27885D01*
X46995Y-27965D02*
X49406Y-27965D01*
X50594Y-27965D02*
X55406Y-27965D01*
X56594Y-27965D02*
X59005Y-27965D01*
X46995Y-28045D02*
X49406Y-28045D01*
X50594Y-28045D02*
X55406Y-28045D01*
X56625Y-28045D02*
X59005Y-28045D01*
X46995Y-28125D02*
X49408Y-28125D01*
X50591Y-28125D02*
X55408Y-28125D01*
X56705Y-28125D02*
X59005Y-28125D01*
X46995Y-28205D02*
X49441Y-28205D01*
X50557Y-28205D02*
X55441Y-28205D01*
X56785Y-28205D02*
X56892Y-28205D01*
X57610Y-28205D02*
X58132Y-28205D01*
X58369Y-28205D02*
X59005Y-28205D01*
X46995Y-28285D02*
X49474Y-28285D01*
X50524Y-28285D02*
X55474Y-28285D01*
X57737Y-28285D02*
X57939Y-28285D01*
X58561Y-28285D02*
X59005Y-28285D01*
X46995Y-28365D02*
X49525Y-28365D01*
X50475Y-28365D02*
X55525Y-28365D01*
X57785Y-28365D02*
X57859Y-28365D01*
X58641Y-28365D02*
X59005Y-28365D01*
X46995Y-28445D02*
X49605Y-28445D01*
X50395Y-28445D02*
X55605Y-28445D01*
X58718Y-28445D02*
X59005Y-28445D01*
X46995Y-28525D02*
X49681Y-28525D01*
X50319Y-28525D02*
X55635Y-28525D01*
X58751Y-28525D02*
X59005Y-28525D01*
X46995Y-28605D02*
X49676Y-28605D01*
X50324Y-28605D02*
X55555Y-28605D01*
X58785Y-28605D02*
X59005Y-28605D01*
X46995Y-28685D02*
X49515Y-28685D01*
X49614Y-28685D02*
X49756Y-28685D01*
X50244Y-28685D02*
X50386Y-28685D01*
X50486Y-28685D02*
X55488Y-28685D01*
X58799Y-28685D02*
X59005Y-28685D01*
X46995Y-28765D02*
X49466Y-28765D01*
X49694Y-28765D02*
X49836Y-28765D01*
X50164Y-28765D02*
X50306Y-28765D01*
X50539Y-28765D02*
X55455Y-28765D01*
X58799Y-28765D02*
X59005Y-28765D01*
X46995Y-28845D02*
X49436Y-28845D01*
X49774Y-28845D02*
X49916Y-28845D01*
X50084Y-28845D02*
X50226Y-28845D01*
X50573Y-28845D02*
X55422Y-28845D01*
X58799Y-28845D02*
X59005Y-28845D01*
X46995Y-28925D02*
X49412Y-28925D01*
X49854Y-28925D02*
X49996Y-28925D01*
X50004Y-28925D02*
X50146Y-28925D01*
X50581Y-28925D02*
X55406Y-28925D01*
X58771Y-28925D02*
X59005Y-28925D01*
X46995Y-29005D02*
X47824Y-29005D01*
X48178Y-29005D02*
X49416Y-29005D01*
X49924Y-29005D02*
X50076Y-29005D01*
X50585Y-29005D02*
X55406Y-29005D01*
X58738Y-29005D02*
X59005Y-29005D01*
X46995Y-29085D02*
X47673Y-29085D01*
X48328Y-29085D02*
X49419Y-29085D01*
X49844Y-29085D02*
X49986Y-29085D01*
X50014Y-29085D02*
X50156Y-29085D01*
X50588Y-29085D02*
X55406Y-29085D01*
X58691Y-29085D02*
X59005Y-29085D01*
X46995Y-29165D02*
X47593Y-29165D01*
X48408Y-29165D02*
X49431Y-29165D01*
X49764Y-29165D02*
X49906Y-29165D01*
X50094Y-29165D02*
X50236Y-29165D01*
X50560Y-29165D02*
X55425Y-29165D01*
X56573Y-29165D02*
X56728Y-29165D01*
X58611Y-29165D02*
X59005Y-29165D01*
X46995Y-29245D02*
X47538Y-29245D01*
X48463Y-29245D02*
X49465Y-29245D01*
X49684Y-29245D02*
X49826Y-29245D01*
X50174Y-29245D02*
X50316Y-29245D01*
X50531Y-29245D02*
X55458Y-29245D01*
X56540Y-29245D02*
X56793Y-29245D01*
X58488Y-29245D02*
X59005Y-29245D01*
X46995Y-29325D02*
X47505Y-29325D01*
X48496Y-29325D02*
X49545Y-29325D01*
X49604Y-29325D02*
X49746Y-29325D01*
X50254Y-29325D02*
X50396Y-29325D01*
X50454Y-29325D02*
X55491Y-29325D01*
X56507Y-29325D02*
X56899Y-29325D01*
X58601Y-29325D02*
X59005Y-29325D01*
X46995Y-29405D02*
X47475Y-29405D01*
X48525Y-29405D02*
X49666Y-29405D01*
X50334Y-29405D02*
X55565Y-29405D01*
X56434Y-29405D02*
X56819Y-29405D01*
X58681Y-29405D02*
X59005Y-29405D01*
X46995Y-29485D02*
X47475Y-29485D01*
X48525Y-29485D02*
X49684Y-29485D01*
X50314Y-29485D02*
X55645Y-29485D01*
X56354Y-29485D02*
X56766Y-29485D01*
X58735Y-29485D02*
X59005Y-29485D01*
X46995Y-29565D02*
X47475Y-29565D01*
X48525Y-29565D02*
X49595Y-29565D01*
X50405Y-29565D02*
X55595Y-29565D01*
X56406Y-29565D02*
X56733Y-29565D01*
X58768Y-29565D02*
X59005Y-29565D01*
X46995Y-29645D02*
X47491Y-29645D01*
X48508Y-29645D02*
X49515Y-29645D01*
X50485Y-29645D02*
X55515Y-29645D01*
X56486Y-29645D02*
X56701Y-29645D01*
X58799Y-29645D02*
X59005Y-29645D01*
X46995Y-29725D02*
X47525Y-29725D01*
X48475Y-29725D02*
X49472Y-29725D01*
X50530Y-29725D02*
X55472Y-29725D01*
X56530Y-29725D02*
X56701Y-29725D01*
X58799Y-29725D02*
X59005Y-29725D01*
X46995Y-29805D02*
X47562Y-29805D01*
X48437Y-29805D02*
X49438Y-29805D01*
X50563Y-29805D02*
X55438Y-29805D01*
X56563Y-29805D02*
X56701Y-29805D01*
X58799Y-29805D02*
X59005Y-29805D01*
X46995Y-29885D02*
X47642Y-29885D01*
X48357Y-29885D02*
X49406Y-29885D01*
X50594Y-29885D02*
X55406Y-29885D01*
X56594Y-29885D02*
X56711Y-29885D01*
X58788Y-29885D02*
X59005Y-29885D01*
X46995Y-29965D02*
X47750Y-29965D01*
X48248Y-29965D02*
X49406Y-29965D01*
X50594Y-29965D02*
X55406Y-29965D01*
X56594Y-29965D02*
X56745Y-29965D01*
X58754Y-29965D02*
X59005Y-29965D01*
X46995Y-30045D02*
X49406Y-30045D01*
X50594Y-30045D02*
X55406Y-30045D01*
X56594Y-30045D02*
X56778Y-30045D01*
X57721Y-30045D02*
X57778Y-30045D01*
X58721Y-30045D02*
X59005Y-30045D01*
X46995Y-30125D02*
X49408Y-30125D01*
X50591Y-30125D02*
X55408Y-30125D01*
X56591Y-30125D02*
X56849Y-30125D01*
X57651Y-30125D02*
X57849Y-30125D01*
X58651Y-30125D02*
X59005Y-30125D01*
X46995Y-30205D02*
X49441Y-30205D01*
X50557Y-30205D02*
X55441Y-30205D01*
X56557Y-30205D02*
X56929Y-30205D01*
X57571Y-30205D02*
X57929Y-30205D01*
X58571Y-30205D02*
X59005Y-30205D01*
X46995Y-30285D02*
X49474Y-30285D01*
X50524Y-30285D02*
X55474Y-30285D01*
X56524Y-30285D02*
X57107Y-30285D01*
X57392Y-30285D02*
X58107Y-30285D01*
X58392Y-30285D02*
X59005Y-30285D01*
X46995Y-30365D02*
X49524Y-30365D01*
X50474Y-30365D02*
X55525Y-30365D01*
X56475Y-30365D02*
X59005Y-30365D01*
X46995Y-30445D02*
X49604Y-30445D01*
X50394Y-30445D02*
X55605Y-30445D01*
X56395Y-30445D02*
X59005Y-30445D01*
X46995Y-30525D02*
X49635Y-30525D01*
X50365Y-30525D02*
X55635Y-30525D01*
X56365Y-30525D02*
X59005Y-30525D01*
X46995Y-30605D02*
X49555Y-30605D01*
X50445Y-30605D02*
X55555Y-30605D01*
X56445Y-30605D02*
X59005Y-30605D01*
X46995Y-30685D02*
X49488Y-30685D01*
X50513Y-30685D02*
X55488Y-30685D01*
X56513Y-30685D02*
X59005Y-30685D01*
X46995Y-30765D02*
X49455Y-30765D01*
X50546Y-30765D02*
X55455Y-30765D01*
X56546Y-30765D02*
X59005Y-30765D01*
X46995Y-30845D02*
X49422Y-30845D01*
X50579Y-30845D02*
X55422Y-30845D01*
X56579Y-30845D02*
X59005Y-30845D01*
X46995Y-30925D02*
X49406Y-30925D01*
X50594Y-30925D02*
X55406Y-30925D01*
X56594Y-30925D02*
X59005Y-30925D01*
X46995Y-31005D02*
X47839Y-31005D01*
X48144Y-31005D02*
X49406Y-31005D01*
X50594Y-31005D02*
X55406Y-31005D01*
X56594Y-31005D02*
X59005Y-31005D01*
X46995Y-31085D02*
X47724Y-31085D01*
X48277Y-31085D02*
X49406Y-31085D01*
X50594Y-31085D02*
X55406Y-31085D01*
X56594Y-31085D02*
X59005Y-31085D01*
X46995Y-31165D02*
X47736Y-31165D01*
X48264Y-31165D02*
X49425Y-31165D01*
X50574Y-31165D02*
X55425Y-31165D01*
X56574Y-31165D02*
X59005Y-31165D01*
X46995Y-31245D02*
X47544Y-31245D01*
X47674Y-31245D02*
X47816Y-31245D01*
X48184Y-31245D02*
X48326Y-31245D01*
X48457Y-31245D02*
X49458Y-31245D01*
X50541Y-31245D02*
X55458Y-31245D01*
X56541Y-31245D02*
X59005Y-31245D01*
X46995Y-31325D02*
X47517Y-31325D01*
X47754Y-31325D02*
X47896Y-31325D01*
X48104Y-31325D02*
X48246Y-31325D01*
X48490Y-31325D02*
X49491Y-31325D01*
X50507Y-31325D02*
X55491Y-31325D01*
X56507Y-31325D02*
X59005Y-31325D01*
X46995Y-31405D02*
X47489Y-31405D01*
X47834Y-31405D02*
X47976Y-31405D01*
X48024Y-31405D02*
X48166Y-31405D01*
X48510Y-31405D02*
X49565Y-31405D01*
X50434Y-31405D02*
X55565Y-31405D01*
X56435Y-31405D02*
X59005Y-31405D01*
X46995Y-31485D02*
X47484Y-31485D01*
X47914Y-31485D02*
X48086Y-31485D01*
X48515Y-31485D02*
X49645Y-31485D01*
X50354Y-31485D02*
X55645Y-31485D01*
X56355Y-31485D02*
X57500Y-31485D01*
X57586Y-31485D02*
X59005Y-31485D01*
X46995Y-31565D02*
X47488Y-31565D01*
X47864Y-31565D02*
X48136Y-31565D01*
X48519Y-31565D02*
X49594Y-31565D01*
X50406Y-31565D02*
X55595Y-31565D01*
X56405Y-31565D02*
X57229Y-31565D01*
X57772Y-31565D02*
X59005Y-31565D01*
X46995Y-31645D02*
X47498Y-31645D01*
X47784Y-31645D02*
X47926Y-31645D01*
X48074Y-31645D02*
X48216Y-31645D01*
X48494Y-31645D02*
X49515Y-31645D01*
X50486Y-31645D02*
X55515Y-31645D01*
X56485Y-31645D02*
X57216Y-31645D01*
X57784Y-31645D02*
X59005Y-31645D01*
X46995Y-31725D02*
X47530Y-31725D01*
X47704Y-31725D02*
X47846Y-31725D01*
X48154Y-31725D02*
X48296Y-31725D01*
X48466Y-31725D02*
X49472Y-31725D01*
X50530Y-31725D02*
X55472Y-31725D01*
X56530Y-31725D02*
X57080Y-31725D01*
X57154Y-31725D02*
X57296Y-31725D01*
X57704Y-31725D02*
X57846Y-31725D01*
X57921Y-31725D02*
X59005Y-31725D01*
X46995Y-31805D02*
X47766Y-31805D01*
X48234Y-31805D02*
X49438Y-31805D01*
X50563Y-31805D02*
X55438Y-31805D01*
X56563Y-31805D02*
X57024Y-31805D01*
X57234Y-31805D02*
X57376Y-31805D01*
X57624Y-31805D02*
X57766Y-31805D01*
X57982Y-31805D02*
X59005Y-31805D01*
X46995Y-31885D02*
X47716Y-31885D01*
X48283Y-31885D02*
X49406Y-31885D01*
X50594Y-31885D02*
X55406Y-31885D01*
X56594Y-31885D02*
X56996Y-31885D01*
X57314Y-31885D02*
X57456Y-31885D01*
X57544Y-31885D02*
X57686Y-31885D01*
X58009Y-31885D02*
X59005Y-31885D01*
X46995Y-31965D02*
X47770Y-31965D01*
X48235Y-31965D02*
X49406Y-31965D01*
X50594Y-31965D02*
X55406Y-31965D01*
X56594Y-31965D02*
X56983Y-31965D01*
X57394Y-31965D02*
X57606Y-31965D01*
X58014Y-31965D02*
X59005Y-31965D01*
X46995Y-32045D02*
X49406Y-32045D01*
X50594Y-32045D02*
X55406Y-32045D01*
X56594Y-32045D02*
X56987Y-32045D01*
X57384Y-32045D02*
X57616Y-32045D01*
X58018Y-32045D02*
X59005Y-32045D01*
X46995Y-32125D02*
X49408Y-32125D01*
X50591Y-32125D02*
X55408Y-32125D01*
X56591Y-32125D02*
X56991Y-32125D01*
X57304Y-32125D02*
X57446Y-32125D01*
X57554Y-32125D02*
X57696Y-32125D01*
X58001Y-32125D02*
X59005Y-32125D01*
X46995Y-32205D02*
X49441Y-32205D01*
X50557Y-32205D02*
X55441Y-32205D01*
X56557Y-32205D02*
X57022Y-32205D01*
X57224Y-32205D02*
X57366Y-32205D01*
X57634Y-32205D02*
X57776Y-32205D01*
X57973Y-32205D02*
X59005Y-32205D01*
X46995Y-32285D02*
X49474Y-32285D01*
X50524Y-32285D02*
X55474Y-32285D01*
X56524Y-32285D02*
X57119Y-32285D01*
X57144Y-32285D02*
X57286Y-32285D01*
X57714Y-32285D02*
X57856Y-32285D01*
X57880Y-32285D02*
X59005Y-32285D01*
X46995Y-32365D02*
X49525Y-32365D01*
X50474Y-32365D02*
X55525Y-32365D01*
X56474Y-32365D02*
X57211Y-32365D01*
X57788Y-32365D02*
X59005Y-32365D01*
X46995Y-32445D02*
X49605Y-32445D01*
X50393Y-32445D02*
X55605Y-32445D01*
X56394Y-32445D02*
X57231Y-32445D01*
X57768Y-32445D02*
X59005Y-32445D01*
X46995Y-32525D02*
X49635Y-32525D01*
X50365Y-32525D02*
X55635Y-32525D01*
X56366Y-32525D02*
X59005Y-32525D01*
X46995Y-32605D02*
X49555Y-32605D01*
X50445Y-32605D02*
X55555Y-32605D01*
X56446Y-32605D02*
X59005Y-32605D01*
X46995Y-32685D02*
X49488Y-32685D01*
X50513Y-32685D02*
X55488Y-32685D01*
X56513Y-32685D02*
X59005Y-32685D01*
X46995Y-32765D02*
X49455Y-32765D01*
X50546Y-32765D02*
X55455Y-32765D01*
X56546Y-32765D02*
X59005Y-32765D01*
X46995Y-32845D02*
X49422Y-32845D01*
X50579Y-32845D02*
X55422Y-32845D01*
X56579Y-32845D02*
X59005Y-32845D01*
X46995Y-32925D02*
X49406Y-32925D01*
X50594Y-32925D02*
X55406Y-32925D01*
X56594Y-32925D02*
X59005Y-32925D01*
X46995Y-33005D02*
X49406Y-33005D01*
X50594Y-33005D02*
X55406Y-33005D01*
X56594Y-33005D02*
X59005Y-33005D01*
X46995Y-33085D02*
X49406Y-33085D01*
X50594Y-33085D02*
X55335Y-33085D01*
X56594Y-33085D02*
X59005Y-33085D01*
X46995Y-33165D02*
X49425Y-33165D01*
X50574Y-33165D02*
X55255Y-33165D01*
X56574Y-33165D02*
X59005Y-33165D01*
X46995Y-33245D02*
X49458Y-33245D01*
X50541Y-33245D02*
X55175Y-33245D01*
X56541Y-33245D02*
X59005Y-33245D01*
X46995Y-33325D02*
X49491Y-33325D01*
X50507Y-33325D02*
X55095Y-33325D01*
X56507Y-33325D02*
X59005Y-33325D01*
X46995Y-33405D02*
X49564Y-33405D01*
X50434Y-33405D02*
X55015Y-33405D01*
X56434Y-33405D02*
X59005Y-33405D01*
X46995Y-33485D02*
X49644Y-33485D01*
X50354Y-33485D02*
X54935Y-33485D01*
X56354Y-33485D02*
X57372Y-33485D01*
X57630Y-33485D02*
X59005Y-33485D01*
X46995Y-33565D02*
X49595Y-33565D01*
X50405Y-33565D02*
X54855Y-33565D01*
X56406Y-33565D02*
X57193Y-33565D01*
X57808Y-33565D02*
X59005Y-33565D01*
X46995Y-33645D02*
X49515Y-33645D01*
X50485Y-33645D02*
X54775Y-33645D01*
X56486Y-33645D02*
X57112Y-33645D01*
X57888Y-33645D02*
X59005Y-33645D01*
X46995Y-33725D02*
X49472Y-33725D01*
X50530Y-33725D02*
X54695Y-33725D01*
X56530Y-33725D02*
X57046Y-33725D01*
X57955Y-33725D02*
X59005Y-33725D01*
X46995Y-33805D02*
X49438Y-33805D01*
X50563Y-33805D02*
X54615Y-33805D01*
X56563Y-33805D02*
X57013Y-33805D01*
X57988Y-33805D02*
X59005Y-33805D01*
X46995Y-33885D02*
X49406Y-33885D01*
X50594Y-33885D02*
X54535Y-33885D01*
X56594Y-33885D02*
X56980Y-33885D01*
X58021Y-33885D02*
X59005Y-33885D01*
X46995Y-33965D02*
X49406Y-33965D01*
X50594Y-33965D02*
X54455Y-33965D01*
X56594Y-33965D02*
X56975Y-33965D01*
X58025Y-33965D02*
X59005Y-33965D01*
X46995Y-34045D02*
X49406Y-34045D01*
X50594Y-34045D02*
X54375Y-34045D01*
X56594Y-34045D02*
X56975Y-34045D01*
X58025Y-34045D02*
X59005Y-34045D01*
X46995Y-34125D02*
X49408Y-34125D01*
X50591Y-34125D02*
X54295Y-34125D01*
X56591Y-34125D02*
X56983Y-34125D01*
X58016Y-34125D02*
X59005Y-34125D01*
X46995Y-34205D02*
X49441Y-34205D01*
X50557Y-34205D02*
X54215Y-34205D01*
X55374Y-34205D02*
X55441Y-34205D01*
X56557Y-34205D02*
X57016Y-34205D01*
X57983Y-34205D02*
X59005Y-34205D01*
X46995Y-34285D02*
X49474Y-34285D01*
X50524Y-34285D02*
X54135Y-34285D01*
X55294Y-34285D02*
X55474Y-34285D01*
X56524Y-34285D02*
X57050Y-34285D01*
X57950Y-34285D02*
X59005Y-34285D01*
X46995Y-34365D02*
X49524Y-34365D01*
X50474Y-34365D02*
X54055Y-34365D01*
X55214Y-34365D02*
X55525Y-34365D01*
X56474Y-34365D02*
X57122Y-34365D01*
X57877Y-34365D02*
X59005Y-34365D01*
X46995Y-34445D02*
X49604Y-34445D01*
X50394Y-34445D02*
X53975Y-34445D01*
X55134Y-34445D02*
X55605Y-34445D01*
X56394Y-34445D02*
X57202Y-34445D01*
X57796Y-34445D02*
X59005Y-34445D01*
X46995Y-34525D02*
X49635Y-34525D01*
X50365Y-34525D02*
X53895Y-34525D01*
X55054Y-34525D02*
X55635Y-34525D01*
X56366Y-34525D02*
X57213Y-34525D01*
X57787Y-34525D02*
X59005Y-34525D01*
X46995Y-34605D02*
X49555Y-34605D01*
X50445Y-34605D02*
X53815Y-34605D01*
X54974Y-34605D02*
X55555Y-34605D01*
X56446Y-34605D02*
X57119Y-34605D01*
X57881Y-34605D02*
X59005Y-34605D01*
X46995Y-34685D02*
X49488Y-34685D01*
X50513Y-34685D02*
X53735Y-34685D01*
X54894Y-34685D02*
X55488Y-34685D01*
X56513Y-34685D02*
X57039Y-34685D01*
X57961Y-34685D02*
X59005Y-34685D01*
X46995Y-34765D02*
X49455Y-34765D01*
X50546Y-34765D02*
X53655Y-34765D01*
X54814Y-34765D02*
X55455Y-34765D01*
X56546Y-34765D02*
X57004Y-34765D01*
X57997Y-34765D02*
X59005Y-34765D01*
X46995Y-34845D02*
X49422Y-34845D01*
X50579Y-34845D02*
X53575Y-34845D01*
X54734Y-34845D02*
X55422Y-34845D01*
X56579Y-34845D02*
X56971Y-34845D01*
X58030Y-34845D02*
X59005Y-34845D01*
X46995Y-34925D02*
X49406Y-34925D01*
X50594Y-34925D02*
X53495Y-34925D01*
X54654Y-34925D02*
X55406Y-34925D01*
X56594Y-34925D02*
X56951Y-34925D01*
X58049Y-34925D02*
X59005Y-34925D01*
X46995Y-35005D02*
X47823Y-35005D01*
X48178Y-35005D02*
X49406Y-35005D01*
X50594Y-35005D02*
X53415Y-35005D01*
X54574Y-35005D02*
X55406Y-35005D01*
X56594Y-35005D02*
X56951Y-35005D01*
X58049Y-35005D02*
X59005Y-35005D01*
X46995Y-35085D02*
X47673Y-35085D01*
X48328Y-35085D02*
X49406Y-35085D01*
X50594Y-35085D02*
X53335Y-35085D01*
X54494Y-35085D02*
X55406Y-35085D01*
X56594Y-35085D02*
X56951Y-35085D01*
X58049Y-35085D02*
X59005Y-35085D01*
X46995Y-35165D02*
X47592Y-35165D01*
X48408Y-35165D02*
X49425Y-35165D01*
X50574Y-35165D02*
X53255Y-35165D01*
X54414Y-35165D02*
X55425Y-35165D01*
X56574Y-35165D02*
X56974Y-35165D01*
X58025Y-35165D02*
X59005Y-35165D01*
X46995Y-35245D02*
X47538Y-35245D01*
X48463Y-35245D02*
X49458Y-35245D01*
X50541Y-35245D02*
X53175Y-35245D01*
X54334Y-35245D02*
X55458Y-35245D01*
X56541Y-35245D02*
X57007Y-35245D01*
X57992Y-35245D02*
X59005Y-35245D01*
X46995Y-35325D02*
X47505Y-35325D01*
X48496Y-35325D02*
X49491Y-35325D01*
X50507Y-35325D02*
X53095Y-35325D01*
X54254Y-35325D02*
X55491Y-35325D01*
X56507Y-35325D02*
X57049Y-35325D01*
X57951Y-35325D02*
X59005Y-35325D01*
X46995Y-35405D02*
X47475Y-35405D01*
X48525Y-35405D02*
X49564Y-35405D01*
X50434Y-35405D02*
X53015Y-35405D01*
X54174Y-35405D02*
X55565Y-35405D01*
X56435Y-35405D02*
X57129Y-35405D01*
X57871Y-35405D02*
X59005Y-35405D01*
X46995Y-35485D02*
X47475Y-35485D01*
X48525Y-35485D02*
X49644Y-35485D01*
X50354Y-35485D02*
X52935Y-35485D01*
X54094Y-35485D02*
X55645Y-35485D01*
X56355Y-35485D02*
X57237Y-35485D01*
X57762Y-35485D02*
X59005Y-35485D01*
X46995Y-35565D02*
X47475Y-35565D01*
X48525Y-35565D02*
X49595Y-35565D01*
X50405Y-35565D02*
X52855Y-35565D01*
X54014Y-35565D02*
X55595Y-35565D01*
X56405Y-35565D02*
X59005Y-35565D01*
X46995Y-35645D02*
X47491Y-35645D01*
X48508Y-35645D02*
X49515Y-35645D01*
X50485Y-35645D02*
X52775Y-35645D01*
X53934Y-35645D02*
X55515Y-35645D01*
X56485Y-35645D02*
X59005Y-35645D01*
X46995Y-35725D02*
X47525Y-35725D01*
X48475Y-35725D02*
X49472Y-35725D01*
X50530Y-35725D02*
X52695Y-35725D01*
X53854Y-35725D02*
X55472Y-35725D01*
X56530Y-35725D02*
X59005Y-35725D01*
X46995Y-35805D02*
X47562Y-35805D01*
X48437Y-35805D02*
X49438Y-35805D01*
X50563Y-35805D02*
X52615Y-35805D01*
X53774Y-35805D02*
X55438Y-35805D01*
X56563Y-35805D02*
X59005Y-35805D01*
X46995Y-35885D02*
X47642Y-35885D01*
X48357Y-35885D02*
X49406Y-35885D01*
X50594Y-35885D02*
X52535Y-35885D01*
X53694Y-35885D02*
X55406Y-35885D01*
X56594Y-35885D02*
X59005Y-35885D01*
X46995Y-35965D02*
X47750Y-35965D01*
X48248Y-35965D02*
X49406Y-35965D01*
X50594Y-35965D02*
X52455Y-35965D01*
X53614Y-35965D02*
X55406Y-35965D01*
X56594Y-35965D02*
X59005Y-35965D01*
X46995Y-36045D02*
X49406Y-36045D01*
X50594Y-36045D02*
X52375Y-36045D01*
X53534Y-36045D02*
X55406Y-36045D01*
X56594Y-36045D02*
X59005Y-36045D01*
X46995Y-36125D02*
X49408Y-36125D01*
X50591Y-36125D02*
X52295Y-36125D01*
X53454Y-36125D02*
X55408Y-36125D01*
X56591Y-36125D02*
X59005Y-36125D01*
X46995Y-36205D02*
X49441Y-36205D01*
X50557Y-36205D02*
X52215Y-36205D01*
X53374Y-36205D02*
X55441Y-36205D01*
X56557Y-36205D02*
X59005Y-36205D01*
X46995Y-36285D02*
X49474Y-36285D01*
X50524Y-36285D02*
X52135Y-36285D01*
X53294Y-36285D02*
X55474Y-36285D01*
X56524Y-36285D02*
X59005Y-36285D01*
X46995Y-36365D02*
X49525Y-36365D01*
X50474Y-36365D02*
X52055Y-36365D01*
X53214Y-36365D02*
X55525Y-36365D01*
X56474Y-36365D02*
X59005Y-36365D01*
X46995Y-36445D02*
X49605Y-36445D01*
X50393Y-36445D02*
X51975Y-36445D01*
X53134Y-36445D02*
X55605Y-36445D01*
X56394Y-36445D02*
X59005Y-36445D01*
X46995Y-36525D02*
X49634Y-36525D01*
X50365Y-36525D02*
X51895Y-36525D01*
X53054Y-36525D02*
X55635Y-36525D01*
X56366Y-36525D02*
X59005Y-36525D01*
X46995Y-36605D02*
X49555Y-36605D01*
X50445Y-36605D02*
X51815Y-36605D01*
X52974Y-36605D02*
X55555Y-36605D01*
X56446Y-36605D02*
X59005Y-36605D01*
X46995Y-36685D02*
X49488Y-36685D01*
X50513Y-36685D02*
X51735Y-36685D01*
X52894Y-36685D02*
X55488Y-36685D01*
X56513Y-36685D02*
X59005Y-36685D01*
X46995Y-36765D02*
X49455Y-36765D01*
X50546Y-36765D02*
X51655Y-36765D01*
X52814Y-36765D02*
X55455Y-36765D01*
X56546Y-36765D02*
X59005Y-36765D01*
X46995Y-36845D02*
X49422Y-36845D01*
X50579Y-36845D02*
X51575Y-36845D01*
X52734Y-36845D02*
X55422Y-36845D01*
X56579Y-36845D02*
X59005Y-36845D01*
X46995Y-36925D02*
X49406Y-36925D01*
X50594Y-36925D02*
X51495Y-36925D01*
X52654Y-36925D02*
X55406Y-36925D01*
X56594Y-36925D02*
X59005Y-36925D01*
X46995Y-37005D02*
X47839Y-37005D01*
X48144Y-37005D02*
X49406Y-37005D01*
X50594Y-37005D02*
X51415Y-37005D01*
X52574Y-37005D02*
X55406Y-37005D01*
X56594Y-37005D02*
X59005Y-37005D01*
X46995Y-37085D02*
X47724Y-37085D01*
X48277Y-37085D02*
X49335Y-37085D01*
X50594Y-37085D02*
X51335Y-37085D01*
X52494Y-37085D02*
X55406Y-37085D01*
X56594Y-37085D02*
X59005Y-37085D01*
X46995Y-37165D02*
X47736Y-37165D01*
X48264Y-37165D02*
X49255Y-37165D01*
X50574Y-37165D02*
X51255Y-37165D01*
X52414Y-37165D02*
X53783Y-37165D01*
X54112Y-37165D02*
X55425Y-37165D01*
X56574Y-37165D02*
X59005Y-37165D01*
X46995Y-37245D02*
X47544Y-37245D01*
X47674Y-37245D02*
X47816Y-37245D01*
X48184Y-37245D02*
X48326Y-37245D01*
X48457Y-37245D02*
X49175Y-37245D01*
X50541Y-37245D02*
X51175Y-37245D01*
X52334Y-37245D02*
X53658Y-37245D01*
X54236Y-37245D02*
X55458Y-37245D01*
X56541Y-37245D02*
X59005Y-37245D01*
X46995Y-37325D02*
X47517Y-37325D01*
X47754Y-37325D02*
X47896Y-37325D01*
X48104Y-37325D02*
X48246Y-37325D01*
X48490Y-37325D02*
X49095Y-37325D01*
X50507Y-37325D02*
X51105Y-37325D01*
X52254Y-37325D02*
X53584Y-37325D01*
X54312Y-37325D02*
X55491Y-37325D01*
X56507Y-37325D02*
X59005Y-37325D01*
X46995Y-37405D02*
X47489Y-37405D01*
X47834Y-37405D02*
X47976Y-37405D01*
X48024Y-37405D02*
X48166Y-37405D01*
X48510Y-37405D02*
X49015Y-37405D01*
X50434Y-37405D02*
X51051Y-37405D01*
X52174Y-37405D02*
X53550Y-37405D01*
X54345Y-37405D02*
X55565Y-37405D01*
X56434Y-37405D02*
X59005Y-37405D01*
X46995Y-37485D02*
X47484Y-37485D01*
X47914Y-37485D02*
X48086Y-37485D01*
X48515Y-37485D02*
X48935Y-37485D01*
X50353Y-37485D02*
X51024Y-37485D01*
X52094Y-37485D02*
X53522Y-37485D01*
X54372Y-37485D02*
X55645Y-37485D01*
X56354Y-37485D02*
X59005Y-37485D01*
X46995Y-37565D02*
X47488Y-37565D01*
X47864Y-37565D02*
X48136Y-37565D01*
X48519Y-37565D02*
X48855Y-37565D01*
X50405Y-37565D02*
X51008Y-37565D01*
X52014Y-37565D02*
X53522Y-37565D01*
X54372Y-37565D02*
X55595Y-37565D01*
X56406Y-37565D02*
X59005Y-37565D01*
X46995Y-37645D02*
X47498Y-37645D01*
X47784Y-37645D02*
X47926Y-37645D01*
X48074Y-37645D02*
X48216Y-37645D01*
X48494Y-37645D02*
X48797Y-37645D01*
X50485Y-37645D02*
X51003Y-37645D01*
X51934Y-37645D02*
X53523Y-37645D01*
X54370Y-37645D02*
X55515Y-37645D01*
X56486Y-37645D02*
X59005Y-37645D01*
X46995Y-37725D02*
X47530Y-37725D01*
X47704Y-37725D02*
X47846Y-37725D01*
X48154Y-37725D02*
X48296Y-37725D01*
X48466Y-37725D02*
X48748Y-37725D01*
X50530Y-37725D02*
X51003Y-37725D01*
X51854Y-37725D02*
X53537Y-37725D01*
X54357Y-37725D02*
X55472Y-37725D01*
X56530Y-37725D02*
X59005Y-37725D01*
X46995Y-37805D02*
X47766Y-37805D01*
X48234Y-37805D02*
X48733Y-37805D01*
X50563Y-37805D02*
X51003Y-37805D01*
X51823Y-37805D02*
X53537Y-37805D01*
X54357Y-37805D02*
X55438Y-37805D01*
X56563Y-37805D02*
X59005Y-37805D01*
X46995Y-37885D02*
X47716Y-37885D01*
X48283Y-37885D02*
X48719Y-37885D01*
X50594Y-37885D02*
X51003Y-37885D01*
X51823Y-37885D02*
X53537Y-37885D01*
X54357Y-37885D02*
X55406Y-37885D01*
X56594Y-37885D02*
X59005Y-37885D01*
X46995Y-37965D02*
X47770Y-37965D01*
X48235Y-37965D02*
X48719Y-37965D01*
X50594Y-37965D02*
X51003Y-37965D01*
X51823Y-37965D02*
X53537Y-37965D01*
X54357Y-37965D02*
X55406Y-37965D01*
X56594Y-37965D02*
X59005Y-37965D01*
X46995Y-38045D02*
X48719Y-38045D01*
X50594Y-38045D02*
X51003Y-38045D01*
X51823Y-38045D02*
X53537Y-38045D01*
X54357Y-38045D02*
X55406Y-38045D01*
X56594Y-38045D02*
X59005Y-38045D01*
X46995Y-38125D02*
X48719Y-38125D01*
X50591Y-38125D02*
X51003Y-38125D01*
X51823Y-38125D02*
X53537Y-38125D01*
X54357Y-38125D02*
X55408Y-38125D01*
X56591Y-38125D02*
X59005Y-38125D01*
X46995Y-38205D02*
X48719Y-38205D01*
X50557Y-38205D02*
X51003Y-38205D01*
X51823Y-38205D02*
X53537Y-38205D01*
X54357Y-38205D02*
X55441Y-38205D01*
X56557Y-38205D02*
X59005Y-38205D01*
X46995Y-38285D02*
X48719Y-38285D01*
X50524Y-38285D02*
X51003Y-38285D01*
X51823Y-38285D02*
X53537Y-38285D01*
X54357Y-38285D02*
X55474Y-38285D01*
X56524Y-38285D02*
X59005Y-38285D01*
X46995Y-38365D02*
X48719Y-38365D01*
X50474Y-38365D02*
X51003Y-38365D01*
X51823Y-38365D02*
X53537Y-38365D01*
X54357Y-38365D02*
X55525Y-38365D01*
X56475Y-38365D02*
X59005Y-38365D01*
X46995Y-38445D02*
X48719Y-38445D01*
X50394Y-38445D02*
X51003Y-38445D01*
X51823Y-38445D02*
X53537Y-38445D01*
X54357Y-38445D02*
X55605Y-38445D01*
X56395Y-38445D02*
X59005Y-38445D01*
X46995Y-38525D02*
X48719Y-38525D01*
X50365Y-38525D02*
X51003Y-38525D01*
X51823Y-38525D02*
X53537Y-38525D01*
X54357Y-38525D02*
X55635Y-38525D01*
X56365Y-38525D02*
X57214Y-38525D01*
X57787Y-38525D02*
X59005Y-38525D01*
X46995Y-38605D02*
X48719Y-38605D01*
X50445Y-38605D02*
X51003Y-38605D01*
X51823Y-38605D02*
X53537Y-38605D01*
X54357Y-38605D02*
X55555Y-38605D01*
X56445Y-38605D02*
X57119Y-38605D01*
X57881Y-38605D02*
X59005Y-38605D01*
X46995Y-38685D02*
X48719Y-38685D01*
X50513Y-38685D02*
X51003Y-38685D01*
X51823Y-38685D02*
X53537Y-38685D01*
X54357Y-38685D02*
X55488Y-38685D01*
X56513Y-38685D02*
X57039Y-38685D01*
X57961Y-38685D02*
X59005Y-38685D01*
X46995Y-38765D02*
X48719Y-38765D01*
X50546Y-38765D02*
X51003Y-38765D01*
X51823Y-38765D02*
X53537Y-38765D01*
X54357Y-38765D02*
X55455Y-38765D01*
X56546Y-38765D02*
X57004Y-38765D01*
X57997Y-38765D02*
X59005Y-38765D01*
X46995Y-38845D02*
X48719Y-38845D01*
X50579Y-38845D02*
X51003Y-38845D01*
X51823Y-38845D02*
X53537Y-38845D01*
X54425Y-38845D02*
X55422Y-38845D01*
X56579Y-38845D02*
X56971Y-38845D01*
X58030Y-38845D02*
X59005Y-38845D01*
X46995Y-38925D02*
X48719Y-38925D01*
X50594Y-38925D02*
X51003Y-38925D01*
X51823Y-38925D02*
X53537Y-38925D01*
X54505Y-38925D02*
X55406Y-38925D01*
X56594Y-38925D02*
X56951Y-38925D01*
X58049Y-38925D02*
X59005Y-38925D01*
X46995Y-39005D02*
X48719Y-39005D01*
X50594Y-39005D02*
X51003Y-39005D01*
X51823Y-39005D02*
X53548Y-39005D01*
X54585Y-39005D02*
X55406Y-39005D01*
X56594Y-39005D02*
X56951Y-39005D01*
X58049Y-39005D02*
X59005Y-39005D01*
X46995Y-39085D02*
X48719Y-39085D01*
X50594Y-39085D02*
X51003Y-39085D01*
X51823Y-39085D02*
X53564Y-39085D01*
X54665Y-39085D02*
X55406Y-39085D01*
X56594Y-39085D02*
X56951Y-39085D01*
X58049Y-39085D02*
X59005Y-39085D01*
X46995Y-39165D02*
X48719Y-39165D01*
X50574Y-39165D02*
X51003Y-39165D01*
X51823Y-39165D02*
X53608Y-39165D01*
X54745Y-39165D02*
X55425Y-39165D01*
X56574Y-39165D02*
X56974Y-39165D01*
X58025Y-39165D02*
X59005Y-39165D01*
X46995Y-39245D02*
X48719Y-39245D01*
X50541Y-39245D02*
X51003Y-39245D01*
X51823Y-39245D02*
X53665Y-39245D01*
X54825Y-39245D02*
X55458Y-39245D01*
X56541Y-39245D02*
X57007Y-39245D01*
X57992Y-39245D02*
X59005Y-39245D01*
X46995Y-39325D02*
X48719Y-39325D01*
X50507Y-39325D02*
X51003Y-39325D01*
X51823Y-39325D02*
X53745Y-39325D01*
X54905Y-39325D02*
X55491Y-39325D01*
X56507Y-39325D02*
X57049Y-39325D01*
X57951Y-39325D02*
X59005Y-39325D01*
X46995Y-39405D02*
X48719Y-39405D01*
X50434Y-39405D02*
X51003Y-39405D01*
X51823Y-39405D02*
X53825Y-39405D01*
X54985Y-39405D02*
X55565Y-39405D01*
X56434Y-39405D02*
X57129Y-39405D01*
X57871Y-39405D02*
X59005Y-39405D01*
X46995Y-39485D02*
X48719Y-39485D01*
X50354Y-39485D02*
X51003Y-39485D01*
X51823Y-39485D02*
X53905Y-39485D01*
X55065Y-39485D02*
X55645Y-39485D01*
X56354Y-39485D02*
X57237Y-39485D01*
X57762Y-39485D02*
X59005Y-39485D01*
X46995Y-39565D02*
X48719Y-39565D01*
X50405Y-39565D02*
X51003Y-39565D01*
X51823Y-39565D02*
X53985Y-39565D01*
X55145Y-39565D02*
X55595Y-39565D01*
X56406Y-39565D02*
X59005Y-39565D01*
X46995Y-39645D02*
X48719Y-39645D01*
X50485Y-39645D02*
X51003Y-39645D01*
X51823Y-39645D02*
X54065Y-39645D01*
X55225Y-39645D02*
X55515Y-39645D01*
X56486Y-39645D02*
X59005Y-39645D01*
X46995Y-39725D02*
X48719Y-39725D01*
X50530Y-39725D02*
X51003Y-39725D01*
X51823Y-39725D02*
X54145Y-39725D01*
X55305Y-39725D02*
X55472Y-39725D01*
X56530Y-39725D02*
X59005Y-39725D01*
X46995Y-39805D02*
X48719Y-39805D01*
X50563Y-39805D02*
X51003Y-39805D01*
X51823Y-39805D02*
X54225Y-39805D01*
X55385Y-39805D02*
X55438Y-39805D01*
X56563Y-39805D02*
X59005Y-39805D01*
X46995Y-39885D02*
X48719Y-39885D01*
X50594Y-39885D02*
X51003Y-39885D01*
X51823Y-39885D02*
X54305Y-39885D01*
X56594Y-39885D02*
X59005Y-39885D01*
X46995Y-39965D02*
X48719Y-39965D01*
X50594Y-39965D02*
X51003Y-39965D01*
X51823Y-39965D02*
X54385Y-39965D01*
X56594Y-39965D02*
X59005Y-39965D01*
X46995Y-40045D02*
X48719Y-40045D01*
X50594Y-40045D02*
X51003Y-40045D01*
X51823Y-40045D02*
X54465Y-40045D01*
X56594Y-40045D02*
X59005Y-40045D01*
X46995Y-40125D02*
X48719Y-40125D01*
X50591Y-40125D02*
X51003Y-40125D01*
X51823Y-40125D02*
X54545Y-40125D01*
X56591Y-40125D02*
X59005Y-40125D01*
X46995Y-40205D02*
X48719Y-40205D01*
X50557Y-40205D02*
X51003Y-40205D01*
X51823Y-40205D02*
X54625Y-40205D01*
X56557Y-40205D02*
X59005Y-40205D01*
X46995Y-40285D02*
X48719Y-40285D01*
X50524Y-40285D02*
X51003Y-40285D01*
X51823Y-40285D02*
X54705Y-40285D01*
X56524Y-40285D02*
X59005Y-40285D01*
X46995Y-40365D02*
X48719Y-40365D01*
X50475Y-40365D02*
X51003Y-40365D01*
X51823Y-40365D02*
X54785Y-40365D01*
X56475Y-40365D02*
X59005Y-40365D01*
X46995Y-40445D02*
X48719Y-40445D01*
X49539Y-40445D02*
X49605Y-40445D01*
X50395Y-40445D02*
X51003Y-40445D01*
X51823Y-40445D02*
X54865Y-40445D01*
X56395Y-40445D02*
X59005Y-40445D01*
X46995Y-40525D02*
X48719Y-40525D01*
X49539Y-40525D02*
X49715Y-40525D01*
X50285Y-40525D02*
X51003Y-40525D01*
X51823Y-40525D02*
X54945Y-40525D01*
X56284Y-40525D02*
X59005Y-40525D01*
X46995Y-40605D02*
X48719Y-40605D01*
X49539Y-40605D02*
X51003Y-40605D01*
X51823Y-40605D02*
X55025Y-40605D01*
X56185Y-40605D02*
X59005Y-40605D01*
X46995Y-40685D02*
X48719Y-40685D01*
X49539Y-40685D02*
X51003Y-40685D01*
X51823Y-40685D02*
X55105Y-40685D01*
X56265Y-40685D02*
X59005Y-40685D01*
X46995Y-40765D02*
X48719Y-40765D01*
X49539Y-40765D02*
X51003Y-40765D01*
X51823Y-40765D02*
X55185Y-40765D01*
X56345Y-40765D02*
X59005Y-40765D01*
X46995Y-40845D02*
X48719Y-40845D01*
X49539Y-40845D02*
X51003Y-40845D01*
X51823Y-40845D02*
X55265Y-40845D01*
X56425Y-40845D02*
X59005Y-40845D01*
X46995Y-40925D02*
X47993Y-40925D01*
X49539Y-40925D02*
X51003Y-40925D01*
X51823Y-40925D02*
X55345Y-40925D01*
X56505Y-40925D02*
X57303Y-40925D01*
X57683Y-40925D02*
X59005Y-40925D01*
X46995Y-41005D02*
X47350Y-41005D01*
X47651Y-41005D02*
X47920Y-41005D01*
X49539Y-41005D02*
X51003Y-41005D01*
X51823Y-41005D02*
X55425Y-41005D01*
X56585Y-41005D02*
X57170Y-41005D01*
X57831Y-41005D02*
X58350Y-41005D01*
X58651Y-41005D02*
X59005Y-41005D01*
X46995Y-41085D02*
X47187Y-41085D01*
X47813Y-41085D02*
X47886Y-41085D01*
X49539Y-41085D02*
X51003Y-41085D01*
X51823Y-41085D02*
X55505Y-41085D01*
X56665Y-41085D02*
X57155Y-41085D01*
X57844Y-41085D02*
X58187Y-41085D01*
X58813Y-41085D02*
X59005Y-41085D01*
X46995Y-41165D02*
X47107Y-41165D01*
X49539Y-41165D02*
X51003Y-41165D01*
X51823Y-41165D02*
X55585Y-41165D01*
X56745Y-41165D02*
X57020Y-41165D01*
X57095Y-41165D02*
X57235Y-41165D01*
X57764Y-41165D02*
X57906Y-41165D01*
X57981Y-41165D02*
X58107Y-41165D01*
X58893Y-41165D02*
X59005Y-41165D01*
X46995Y-41245D02*
X47049Y-41245D01*
X49539Y-41245D02*
X51003Y-41245D01*
X51823Y-41245D02*
X55665Y-41245D01*
X56825Y-41245D02*
X56951Y-41245D01*
X57175Y-41245D02*
X57315Y-41245D01*
X57684Y-41245D02*
X57826Y-41245D01*
X58952Y-41245D02*
X59005Y-41245D01*
X46995Y-41325D02*
X47016Y-41325D01*
X49539Y-41325D02*
X51003Y-41325D01*
X51823Y-41325D02*
X55745Y-41325D01*
X56905Y-41325D02*
X56922Y-41325D01*
X57255Y-41325D02*
X57396Y-41325D01*
X57604Y-41325D02*
X57746Y-41325D01*
X58986Y-41325D02*
X59005Y-41325D01*
X49539Y-41405D02*
X51003Y-41405D01*
X51823Y-41405D02*
X55825Y-41405D01*
X57335Y-41405D02*
X57476Y-41405D01*
X57524Y-41405D02*
X57666Y-41405D01*
X49539Y-41485D02*
X51003Y-41485D01*
X51823Y-41485D02*
X55905Y-41485D01*
X57415Y-41485D02*
X57586Y-41485D01*
X49539Y-41565D02*
X51003Y-41565D01*
X51823Y-41565D02*
X55985Y-41565D01*
X57494Y-41565D02*
X57635Y-41565D01*
X49539Y-41645D02*
X51003Y-41645D01*
X51823Y-41645D02*
X56065Y-41645D01*
X57575Y-41645D02*
X57715Y-41645D01*
X49539Y-41725D02*
X51003Y-41725D01*
X51823Y-41725D02*
X56145Y-41725D01*
X57655Y-41725D02*
X57795Y-41725D01*
X49539Y-41805D02*
X51003Y-41805D01*
X51823Y-41805D02*
X56225Y-41805D01*
X57735Y-41805D02*
X57875Y-41805D01*
X58030Y-41805D02*
X58077Y-41805D01*
X49539Y-41885D02*
X51003Y-41885D01*
X51823Y-41885D02*
X56305Y-41885D01*
X57815Y-41885D02*
X58157Y-41885D01*
X49539Y-41965D02*
X51003Y-41965D01*
X51823Y-41965D02*
X56385Y-41965D01*
X57840Y-41965D02*
X58277Y-41965D01*
X49537Y-42045D02*
X51003Y-42045D01*
X51823Y-42045D02*
X56465Y-42045D01*
X57915Y-42045D02*
X58253Y-42045D01*
X49521Y-42125D02*
X51003Y-42125D01*
X51823Y-42125D02*
X56545Y-42125D01*
X57995Y-42125D02*
X58147Y-42125D01*
X49500Y-42205D02*
X51003Y-42205D01*
X51823Y-42205D02*
X56625Y-42205D01*
X58044Y-42205D02*
X58067Y-42205D01*
X49447Y-42285D02*
X51003Y-42285D01*
X51823Y-42285D02*
X56705Y-42285D01*
X49379Y-42365D02*
X51003Y-42365D01*
X51823Y-42365D02*
X56785Y-42365D01*
X49299Y-42445D02*
X51003Y-42445D01*
X51823Y-42445D02*
X56865Y-42445D01*
X49219Y-42525D02*
X51003Y-42525D01*
X51823Y-42525D02*
X56885Y-42525D01*
X49139Y-42605D02*
X51003Y-42605D01*
X51823Y-42605D02*
X56885Y-42605D01*
X49088Y-42685D02*
X51003Y-42685D01*
X51823Y-42685D02*
X56911Y-42685D01*
X49055Y-42765D02*
X51003Y-42765D01*
X51823Y-42765D02*
X56944Y-42765D01*
X47883Y-42845D02*
X47977Y-42845D01*
X49022Y-42845D02*
X51003Y-42845D01*
X51823Y-42845D02*
X56977Y-42845D01*
X47803Y-42925D02*
X48055Y-42925D01*
X48944Y-42925D02*
X51003Y-42925D01*
X51823Y-42925D02*
X56993Y-42925D01*
X47653Y-43005D02*
X48135Y-43005D01*
X48864Y-43005D02*
X51003Y-43005D01*
X51823Y-43005D02*
X56920Y-43005D01*
X47813Y-43085D02*
X48155Y-43085D01*
X48844Y-43085D02*
X51003Y-43085D01*
X51823Y-43085D02*
X56886Y-43085D01*
X47893Y-43165D02*
X48020Y-43165D01*
X48095Y-43165D02*
X48235Y-43165D01*
X48764Y-43165D02*
X48906Y-43165D01*
X48981Y-43165D02*
X51003Y-43165D01*
X51823Y-43165D02*
X56886Y-43165D01*
X48175Y-43245D02*
X48315Y-43245D01*
X48684Y-43245D02*
X48826Y-43245D01*
X49052Y-43245D02*
X51003Y-43245D01*
X51823Y-43245D02*
X56886Y-43245D01*
X48255Y-43325D02*
X48395Y-43325D01*
X48604Y-43325D02*
X48746Y-43325D01*
X49085Y-43325D02*
X51003Y-43325D01*
X51823Y-43325D02*
X56886Y-43325D01*
X48335Y-43405D02*
X48475Y-43405D01*
X48524Y-43405D02*
X48666Y-43405D01*
X49100Y-43405D02*
X51003Y-43405D01*
X51823Y-43405D02*
X56886Y-43405D01*
X48415Y-43485D02*
X48586Y-43485D01*
X49103Y-43485D02*
X51003Y-43485D01*
X51823Y-43485D02*
X56886Y-43485D01*
X48364Y-43565D02*
X48635Y-43565D01*
X49106Y-43565D02*
X51003Y-43565D01*
X51823Y-43565D02*
X56886Y-43565D01*
X46995Y-43645D02*
X47002Y-43645D01*
X48284Y-43645D02*
X48426Y-43645D01*
X48575Y-43645D02*
X48715Y-43645D01*
X49088Y-43645D02*
X51003Y-43645D01*
X51823Y-43645D02*
X56886Y-43645D01*
X58997Y-43645D02*
X59005Y-43645D01*
X46995Y-43725D02*
X47035Y-43725D01*
X48204Y-43725D02*
X48346Y-43725D01*
X48655Y-43725D02*
X48795Y-43725D01*
X49059Y-43725D02*
X51003Y-43725D01*
X51823Y-43725D02*
X56886Y-43725D01*
X58963Y-43725D02*
X59005Y-43725D01*
X46995Y-43805D02*
X47077Y-43805D01*
X47923Y-43805D02*
X47968Y-43805D01*
X48124Y-43805D02*
X48266Y-43805D01*
X48735Y-43805D02*
X48875Y-43805D01*
X49030Y-43805D02*
X51003Y-43805D01*
X51823Y-43805D02*
X56886Y-43805D01*
X58923Y-43805D02*
X59005Y-43805D01*
X46995Y-43885D02*
X47157Y-43885D01*
X47843Y-43885D02*
X48186Y-43885D01*
X48815Y-43885D02*
X51003Y-43885D01*
X51823Y-43885D02*
X56886Y-43885D01*
X58114Y-43885D02*
X58157Y-43885D01*
X58843Y-43885D02*
X59005Y-43885D01*
X46995Y-43965D02*
X47277Y-43965D01*
X47723Y-43965D02*
X48159Y-43965D01*
X48840Y-43965D02*
X51003Y-43965D01*
X51823Y-43965D02*
X56907Y-43965D01*
X58093Y-43965D02*
X58277Y-43965D01*
X58723Y-43965D02*
X59005Y-43965D01*
X46995Y-44045D02*
X48234Y-44045D01*
X48771Y-44045D02*
X51003Y-44045D01*
X51823Y-44045D02*
X56963Y-44045D01*
X58037Y-44045D02*
X59005Y-44045D01*
X46995Y-44125D02*
X51003Y-44125D01*
X51823Y-44125D02*
X59005Y-44125D01*
X46995Y-44205D02*
X51003Y-44205D01*
X51823Y-44205D02*
X59005Y-44205D01*
X46995Y-44285D02*
X51003Y-44285D01*
X51823Y-44285D02*
X59005Y-44285D01*
X46995Y-44365D02*
X51003Y-44365D01*
X51823Y-44365D02*
X59005Y-44365D01*
X46995Y-44445D02*
X51003Y-44445D01*
X51823Y-44445D02*
X59005Y-44445D01*
X46995Y-44525D02*
X51003Y-44525D01*
X51823Y-44525D02*
X59005Y-44525D01*
X46995Y-44605D02*
X51003Y-44605D01*
X51823Y-44605D02*
X59005Y-44605D01*
X46995Y-44685D02*
X51003Y-44685D01*
X51823Y-44685D02*
X59005Y-44685D01*
X46995Y-44765D02*
X51003Y-44765D01*
X51823Y-44765D02*
X59005Y-44765D01*
X46995Y-44845D02*
X51003Y-44845D01*
X51823Y-44845D02*
X59005Y-44845D01*
X46995Y-44925D02*
X51003Y-44925D01*
X51823Y-44925D02*
X59005Y-44925D01*
X46995Y-45005D02*
X47660Y-45005D01*
X48343Y-45005D02*
X50324Y-45005D01*
X50678Y-45005D02*
X51003Y-45005D01*
X51823Y-45005D02*
X55324Y-45005D01*
X55678Y-45005D02*
X57660Y-45005D01*
X58343Y-45005D02*
X59005Y-45005D01*
X46995Y-45085D02*
X47467Y-45085D01*
X48535Y-45085D02*
X50173Y-45085D01*
X50828Y-45085D02*
X51003Y-45085D01*
X51823Y-45085D02*
X55173Y-45085D01*
X55828Y-45085D02*
X57467Y-45085D01*
X58535Y-45085D02*
X59005Y-45085D01*
X46995Y-45165D02*
X47351Y-45165D01*
X48650Y-45165D02*
X50093Y-45165D01*
X50908Y-45165D02*
X51003Y-45165D01*
X51823Y-45165D02*
X55093Y-45165D01*
X55908Y-45165D02*
X57351Y-45165D01*
X58650Y-45165D02*
X59005Y-45165D01*
X46995Y-45245D02*
X47271Y-45245D01*
X48730Y-45245D02*
X50038Y-45245D01*
X50963Y-45245D02*
X51003Y-45245D01*
X51823Y-45245D02*
X55038Y-45245D01*
X55963Y-45245D02*
X57271Y-45245D01*
X58730Y-45245D02*
X59005Y-45245D01*
X46995Y-45325D02*
X47191Y-45325D01*
X48810Y-45325D02*
X50005Y-45325D01*
X50996Y-45325D02*
X51003Y-45325D01*
X51823Y-45325D02*
X55005Y-45325D01*
X55996Y-45325D02*
X57191Y-45325D01*
X58810Y-45325D02*
X59005Y-45325D01*
X46995Y-45405D02*
X47110Y-45405D01*
X48890Y-45405D02*
X49975Y-45405D01*
X51823Y-45405D02*
X54975Y-45405D01*
X56025Y-45405D02*
X57110Y-45405D01*
X58890Y-45405D02*
X59005Y-45405D01*
X46995Y-45485D02*
X47077Y-45485D01*
X48923Y-45485D02*
X49975Y-45485D01*
X51823Y-45485D02*
X54975Y-45485D01*
X56025Y-45485D02*
X57077Y-45485D01*
X58923Y-45485D02*
X59005Y-45485D01*
X46995Y-45565D02*
X47044Y-45565D01*
X48956Y-45565D02*
X49975Y-45565D01*
X51823Y-45565D02*
X54975Y-45565D01*
X56025Y-45565D02*
X57044Y-45565D01*
X58957Y-45565D02*
X59005Y-45565D01*
X46995Y-45645D02*
X47010Y-45645D01*
X48990Y-45645D02*
X49991Y-45645D01*
X51823Y-45645D02*
X54991Y-45645D01*
X56008Y-45645D02*
X57011Y-45645D01*
X58990Y-45645D02*
X59005Y-45645D01*
X49023Y-45725D02*
X50025Y-45725D01*
X50975Y-45725D02*
X51003Y-45725D01*
X51823Y-45725D02*
X55025Y-45725D01*
X55975Y-45725D02*
X56978Y-45725D01*
X49050Y-45805D02*
X50062Y-45805D01*
X50937Y-45805D02*
X51003Y-45805D01*
X51823Y-45805D02*
X55062Y-45805D01*
X55937Y-45805D02*
X56950Y-45805D01*
X49050Y-45885D02*
X50142Y-45885D01*
X50857Y-45885D02*
X51003Y-45885D01*
X51823Y-45885D02*
X55142Y-45885D01*
X55857Y-45885D02*
X56950Y-45885D01*
X49050Y-45965D02*
X50250Y-45965D01*
X50748Y-45965D02*
X51003Y-45965D01*
X51823Y-45965D02*
X55250Y-45965D01*
X55748Y-45965D02*
X56950Y-45965D01*
X49050Y-46045D02*
X51003Y-46045D01*
X51823Y-46045D02*
X56950Y-46045D01*
X49050Y-46125D02*
X51003Y-46125D01*
X51823Y-46125D02*
X56950Y-46125D01*
X49050Y-46205D02*
X51003Y-46205D01*
X51823Y-46205D02*
X56950Y-46205D01*
X49018Y-46285D02*
X51003Y-46285D01*
X51823Y-46285D02*
X56981Y-46285D01*
X46995Y-46365D02*
X47015Y-46365D01*
X48985Y-46365D02*
X51003Y-46365D01*
X51823Y-46365D02*
X57015Y-46365D01*
X58985Y-46365D02*
X59005Y-46365D01*
X46995Y-46445D02*
X47048Y-46445D01*
X48952Y-46445D02*
X51003Y-46445D01*
X51823Y-46445D02*
X57048Y-46445D01*
X58952Y-46445D02*
X59005Y-46445D01*
X46995Y-46525D02*
X47081Y-46525D01*
X48919Y-46525D02*
X51003Y-46525D01*
X51823Y-46525D02*
X57081Y-46525D01*
X58919Y-46525D02*
X59005Y-46525D01*
X46995Y-46605D02*
X47120Y-46605D01*
X48879Y-46605D02*
X51003Y-46605D01*
X51823Y-46605D02*
X57120Y-46605D01*
X58879Y-46605D02*
X59005Y-46605D01*
X46995Y-46685D02*
X47200Y-46685D01*
X48799Y-46685D02*
X51003Y-46685D01*
X51823Y-46685D02*
X57200Y-46685D01*
X58799Y-46685D02*
X59005Y-46685D01*
X46995Y-46765D02*
X47280Y-46765D01*
X48719Y-46765D02*
X51003Y-46765D01*
X51823Y-46765D02*
X57280Y-46765D01*
X58719Y-46765D02*
X59005Y-46765D01*
X46995Y-46845D02*
X47360Y-46845D01*
X48639Y-46845D02*
X51003Y-46845D01*
X51823Y-46845D02*
X57360Y-46845D01*
X58639Y-46845D02*
X59005Y-46845D01*
X46995Y-46925D02*
X47489Y-46925D01*
X48509Y-46925D02*
X51003Y-46925D01*
X51823Y-46925D02*
X57489Y-46925D01*
X58509Y-46925D02*
X59005Y-46925D01*
X46995Y-47005D02*
X47681Y-47005D01*
X48316Y-47005D02*
X51003Y-47005D01*
X51823Y-47005D02*
X57681Y-47005D01*
X58316Y-47005D02*
X59005Y-47005D01*
X46995Y-47085D02*
X51003Y-47085D01*
X51823Y-47085D02*
X59005Y-47085D01*
X46995Y-47165D02*
X51003Y-47165D01*
X51823Y-47165D02*
X59005Y-47165D01*
X46995Y-47245D02*
X51003Y-47245D01*
X51823Y-47245D02*
X59005Y-47245D01*
X46995Y-47325D02*
X51003Y-47325D01*
X51823Y-47325D02*
X59005Y-47325D01*
X46995Y-47405D02*
X51003Y-47405D01*
X51823Y-47405D02*
X59005Y-47405D01*
X46995Y-47485D02*
X50935Y-47485D01*
X51823Y-47485D02*
X59005Y-47485D01*
X46995Y-47565D02*
X50855Y-47565D01*
X51823Y-47565D02*
X59005Y-47565D01*
X46995Y-47645D02*
X50775Y-47645D01*
X51811Y-47645D02*
X59005Y-47645D01*
X46995Y-47725D02*
X50695Y-47725D01*
X51795Y-47725D02*
X59005Y-47725D01*
X46995Y-47805D02*
X50615Y-47805D01*
X51751Y-47805D02*
X59005Y-47805D01*
X46995Y-47885D02*
X50535Y-47885D01*
X51695Y-47885D02*
X59005Y-47885D01*
X46995Y-47965D02*
X50455Y-47965D01*
X51615Y-47965D02*
X59005Y-47965D01*
X46995Y-48045D02*
X50228Y-48045D01*
X51535Y-48045D02*
X55227Y-48045D01*
X55774Y-48045D02*
X59005Y-48045D01*
X46995Y-48125D02*
X50133Y-48125D01*
X51455Y-48125D02*
X55133Y-48125D01*
X55868Y-48125D02*
X59005Y-48125D01*
X46995Y-48205D02*
X50054Y-48205D01*
X51375Y-48205D02*
X55054Y-48205D01*
X55946Y-48205D02*
X59005Y-48205D01*
X46995Y-48285D02*
X50021Y-48285D01*
X51295Y-48285D02*
X55021Y-48285D01*
X55979Y-48285D02*
X59005Y-48285D01*
X46995Y-48365D02*
X49988Y-48365D01*
X51215Y-48365D02*
X54988Y-48365D01*
X56013Y-48365D02*
X59005Y-48365D01*
X46995Y-48445D02*
X49975Y-48445D01*
X51135Y-48445D02*
X54975Y-48445D01*
X56025Y-48445D02*
X59005Y-48445D01*
X46995Y-48525D02*
X49895Y-48525D01*
X51055Y-48525D02*
X54975Y-48525D01*
X56104Y-48525D02*
X59005Y-48525D01*
X46995Y-48605D02*
X49815Y-48605D01*
X51025Y-48605D02*
X54975Y-48605D01*
X56157Y-48605D02*
X59005Y-48605D01*
X46995Y-48685D02*
X49735Y-48685D01*
X50991Y-48685D02*
X55008Y-48685D01*
X56195Y-48685D02*
X59005Y-48685D01*
X46995Y-48765D02*
X49655Y-48765D01*
X50958Y-48765D02*
X55041Y-48765D01*
X56211Y-48765D02*
X59005Y-48765D01*
X46995Y-48845D02*
X49575Y-48845D01*
X50897Y-48845D02*
X55102Y-48845D01*
X56219Y-48845D02*
X59005Y-48845D01*
X46995Y-48925D02*
X49495Y-48925D01*
X50817Y-48925D02*
X55182Y-48925D01*
X56219Y-48925D02*
X59005Y-48925D01*
X46995Y-49005D02*
X49436Y-49005D01*
X50652Y-49005D02*
X55346Y-49005D01*
X56219Y-49005D02*
X59005Y-49005D01*
X46995Y-49085D02*
X49388Y-49085D01*
X50495Y-49085D02*
X55399Y-49085D01*
X56219Y-49085D02*
X59005Y-49085D01*
X46995Y-49165D02*
X49372Y-49165D01*
X50415Y-49165D02*
X55399Y-49165D01*
X56219Y-49165D02*
X59005Y-49165D01*
X46995Y-49245D02*
X49358Y-49245D01*
X50335Y-49245D02*
X55399Y-49245D01*
X56219Y-49245D02*
X59005Y-49245D01*
X46995Y-49325D02*
X49358Y-49325D01*
X50255Y-49325D02*
X55399Y-49325D01*
X56219Y-49325D02*
X59005Y-49325D01*
X46995Y-49405D02*
X49358Y-49405D01*
X50178Y-49405D02*
X55399Y-49405D01*
X56219Y-49405D02*
X59005Y-49405D01*
X46995Y-49485D02*
X49358Y-49485D01*
X50178Y-49485D02*
X55399Y-49485D01*
X56219Y-49485D02*
X59005Y-49485D01*
X46995Y-49565D02*
X49358Y-49565D01*
X50178Y-49565D02*
X55399Y-49565D01*
X56219Y-49565D02*
X59005Y-49565D01*
X46995Y-49645D02*
X49358Y-49645D01*
X50178Y-49645D02*
X55399Y-49645D01*
X56219Y-49645D02*
X59005Y-49645D01*
X46995Y-49725D02*
X49358Y-49725D01*
X50178Y-49725D02*
X55399Y-49725D01*
X56219Y-49725D02*
X59005Y-49725D01*
X46995Y-49805D02*
X49358Y-49805D01*
X50178Y-49805D02*
X55399Y-49805D01*
X56219Y-49805D02*
X59005Y-49805D01*
X46995Y-49885D02*
X49358Y-49885D01*
X50178Y-49885D02*
X51788Y-49885D01*
X52033Y-49885D02*
X52878Y-49885D01*
X53123Y-49885D02*
X53968Y-49885D01*
X54213Y-49885D02*
X55399Y-49885D01*
X56219Y-49885D02*
X59005Y-49885D01*
X46995Y-49965D02*
X49358Y-49965D01*
X50178Y-49965D02*
X50525Y-49965D01*
X51113Y-49965D02*
X51596Y-49965D01*
X52226Y-49965D02*
X52686Y-49965D01*
X53316Y-49965D02*
X53776Y-49965D01*
X54406Y-49965D02*
X54633Y-49965D01*
X56219Y-49965D02*
X59005Y-49965D01*
X46995Y-50045D02*
X47722Y-50045D01*
X48440Y-50045D02*
X49358Y-50045D01*
X50178Y-50045D02*
X50477Y-50045D01*
X51164Y-50045D02*
X51496Y-50045D01*
X52325Y-50045D02*
X52586Y-50045D01*
X53415Y-50045D02*
X53676Y-50045D01*
X54505Y-50045D02*
X54583Y-50045D01*
X56219Y-50045D02*
X57562Y-50045D01*
X58280Y-50045D02*
X59005Y-50045D01*
X46995Y-50125D02*
X47528Y-50125D01*
X48633Y-50125D02*
X49358Y-50125D01*
X50178Y-50125D02*
X50515Y-50125D01*
X51124Y-50125D02*
X51416Y-50125D01*
X52405Y-50125D02*
X52506Y-50125D01*
X53495Y-50125D02*
X53596Y-50125D01*
X56219Y-50125D02*
X57368Y-50125D01*
X58473Y-50125D02*
X59005Y-50125D01*
X46995Y-50205D02*
X47415Y-50205D01*
X48746Y-50205D02*
X49358Y-50205D01*
X50178Y-50205D02*
X50286Y-50205D01*
X50455Y-50205D02*
X50595Y-50205D01*
X51044Y-50205D02*
X51186Y-50205D01*
X51355Y-50205D02*
X51366Y-50205D01*
X52453Y-50205D02*
X52456Y-50205D01*
X53543Y-50205D02*
X53546Y-50205D01*
X56219Y-50205D02*
X57255Y-50205D01*
X58586Y-50205D02*
X59005Y-50205D01*
X46995Y-50285D02*
X47335Y-50285D01*
X48826Y-50285D02*
X49358Y-50285D01*
X50178Y-50285D02*
X50257Y-50285D01*
X50535Y-50285D02*
X50675Y-50285D01*
X50964Y-50285D02*
X51106Y-50285D01*
X56219Y-50285D02*
X57175Y-50285D01*
X58666Y-50285D02*
X59005Y-50285D01*
X46995Y-50365D02*
X47255Y-50365D01*
X48906Y-50365D02*
X49358Y-50365D01*
X50178Y-50365D02*
X50228Y-50365D01*
X50615Y-50365D02*
X50755Y-50365D01*
X50884Y-50365D02*
X51026Y-50365D01*
X56219Y-50365D02*
X57095Y-50365D01*
X58746Y-50365D02*
X59005Y-50365D01*
X46995Y-50445D02*
X47175Y-50445D01*
X48986Y-50445D02*
X49358Y-50445D01*
X50178Y-50445D02*
X50214Y-50445D01*
X50695Y-50445D02*
X50946Y-50445D01*
X56219Y-50445D02*
X57015Y-50445D01*
X58826Y-50445D02*
X59005Y-50445D01*
X46995Y-50525D02*
X47138Y-50525D01*
X49023Y-50525D02*
X49358Y-50525D01*
X50178Y-50525D02*
X50218Y-50525D01*
X50724Y-50525D02*
X50915Y-50525D01*
X56219Y-50525D02*
X56978Y-50525D01*
X58863Y-50525D02*
X59005Y-50525D01*
X46995Y-50605D02*
X47105Y-50605D01*
X49056Y-50605D02*
X49358Y-50605D01*
X50178Y-50605D02*
X50221Y-50605D01*
X50644Y-50605D02*
X50786Y-50605D01*
X50855Y-50605D02*
X50995Y-50605D01*
X56219Y-50605D02*
X56945Y-50605D01*
X58896Y-50605D02*
X59005Y-50605D01*
X46995Y-50685D02*
X47072Y-50685D01*
X49089Y-50685D02*
X49358Y-50685D01*
X50178Y-50685D02*
X50239Y-50685D01*
X50564Y-50685D02*
X50706Y-50685D01*
X50935Y-50685D02*
X51075Y-50685D01*
X56219Y-50685D02*
X56912Y-50685D01*
X58929Y-50685D02*
X59005Y-50685D01*
X46995Y-50765D02*
X47039Y-50765D01*
X49122Y-50765D02*
X49358Y-50765D01*
X50178Y-50765D02*
X50272Y-50765D01*
X50484Y-50765D02*
X50626Y-50765D01*
X51015Y-50765D02*
X51155Y-50765D01*
X56219Y-50765D02*
X56879Y-50765D01*
X58962Y-50765D02*
X59005Y-50765D01*
X46995Y-50845D02*
X47005Y-50845D01*
X49155Y-50845D02*
X49358Y-50845D01*
X50178Y-50845D02*
X50369Y-50845D01*
X50404Y-50845D02*
X50546Y-50845D01*
X51095Y-50845D02*
X51235Y-50845D01*
X51270Y-50845D02*
X51387Y-50845D01*
X52432Y-50845D02*
X52477Y-50845D01*
X53522Y-50845D02*
X53567Y-50845D01*
X56219Y-50845D02*
X56845Y-50845D01*
X58995Y-50845D02*
X59005Y-50845D01*
X46995Y-50925D02*
X47005Y-50925D01*
X49155Y-50925D02*
X49358Y-50925D01*
X50178Y-50925D02*
X50466Y-50925D01*
X51173Y-50925D02*
X51465Y-50925D01*
X52354Y-50925D02*
X52555Y-50925D01*
X53444Y-50925D02*
X53645Y-50925D01*
X54534Y-50925D02*
X54570Y-50925D01*
X56219Y-50925D02*
X56845Y-50925D01*
X58995Y-50925D02*
X59005Y-50925D01*
X46995Y-51005D02*
X47005Y-51005D01*
X49155Y-51005D02*
X49358Y-51005D01*
X50178Y-51005D02*
X50493Y-51005D01*
X51146Y-51005D02*
X51243Y-51005D01*
X51488Y-51005D02*
X51545Y-51005D01*
X52274Y-51005D02*
X52333Y-51005D01*
X52578Y-51005D02*
X52635Y-51005D01*
X53364Y-51005D02*
X53423Y-51005D01*
X53668Y-51005D02*
X53725Y-51005D01*
X54454Y-51005D02*
X54513Y-51005D01*
X56219Y-51005D02*
X56845Y-51005D01*
X58995Y-51005D02*
X59005Y-51005D01*
X46995Y-51085D02*
X47005Y-51085D01*
X49155Y-51085D02*
X49358Y-51085D01*
X50178Y-51085D02*
X50664Y-51085D01*
X50993Y-51085D02*
X51051Y-51085D01*
X51681Y-51085D02*
X51714Y-51085D01*
X52104Y-51085D02*
X52141Y-51085D01*
X52771Y-51085D02*
X52804Y-51085D01*
X53194Y-51085D02*
X53231Y-51085D01*
X53861Y-51085D02*
X53894Y-51085D01*
X54284Y-51085D02*
X54321Y-51085D01*
X56209Y-51085D02*
X56845Y-51085D01*
X58995Y-51085D02*
X59005Y-51085D01*
X46995Y-51165D02*
X47005Y-51165D01*
X49155Y-51165D02*
X49358Y-51165D01*
X50178Y-51165D02*
X50951Y-51165D01*
X51780Y-51165D02*
X52041Y-51165D01*
X52870Y-51165D02*
X53131Y-51165D01*
X53960Y-51165D02*
X54221Y-51165D01*
X56193Y-51165D02*
X56845Y-51165D01*
X58995Y-51165D02*
X59005Y-51165D01*
X46995Y-51245D02*
X47005Y-51245D01*
X49155Y-51245D02*
X49358Y-51245D01*
X50178Y-51245D02*
X50871Y-51245D01*
X51860Y-51245D02*
X51961Y-51245D01*
X52950Y-51245D02*
X53051Y-51245D01*
X54040Y-51245D02*
X54141Y-51245D01*
X56153Y-51245D02*
X56845Y-51245D01*
X58995Y-51245D02*
X59005Y-51245D01*
X46995Y-51325D02*
X47026Y-51325D01*
X49134Y-51325D02*
X49358Y-51325D01*
X50178Y-51325D02*
X50822Y-51325D01*
X51908Y-51325D02*
X51911Y-51325D01*
X52998Y-51325D02*
X53001Y-51325D01*
X54088Y-51325D02*
X54091Y-51325D01*
X56100Y-51325D02*
X56866Y-51325D01*
X58974Y-51325D02*
X59005Y-51325D01*
X46995Y-51405D02*
X47059Y-51405D01*
X49101Y-51405D02*
X49358Y-51405D01*
X50178Y-51405D02*
X50789Y-51405D01*
X56021Y-51405D02*
X56899Y-51405D01*
X58941Y-51405D02*
X59005Y-51405D01*
X46995Y-51485D02*
X47092Y-51485D01*
X49067Y-51485D02*
X49358Y-51485D01*
X50178Y-51485D02*
X50755Y-51485D01*
X55941Y-51485D02*
X56932Y-51485D01*
X58907Y-51485D02*
X59005Y-51485D01*
X46995Y-51565D02*
X47125Y-51565D01*
X49034Y-51565D02*
X49358Y-51565D01*
X50220Y-51565D02*
X50750Y-51565D01*
X55861Y-51565D02*
X56965Y-51565D01*
X58874Y-51565D02*
X59005Y-51565D01*
X46995Y-51645D02*
X47158Y-51645D01*
X49001Y-51645D02*
X49358Y-51645D01*
X50300Y-51645D02*
X50750Y-51645D01*
X55781Y-51645D02*
X56998Y-51645D01*
X58841Y-51645D02*
X59005Y-51645D01*
X46995Y-51725D02*
X47224Y-51725D01*
X48935Y-51725D02*
X49364Y-51725D01*
X50380Y-51725D02*
X50750Y-51725D01*
X55701Y-51725D02*
X57064Y-51725D01*
X58775Y-51725D02*
X59005Y-51725D01*
X46995Y-51805D02*
X47304Y-51805D01*
X48855Y-51805D02*
X49380Y-51805D01*
X50460Y-51805D02*
X50776Y-51805D01*
X55621Y-51805D02*
X57144Y-51805D01*
X58695Y-51805D02*
X59005Y-51805D01*
X46995Y-51885D02*
X47384Y-51885D01*
X48775Y-51885D02*
X49412Y-51885D01*
X50540Y-51885D02*
X50809Y-51885D01*
X55541Y-51885D02*
X57224Y-51885D01*
X58615Y-51885D02*
X59005Y-51885D01*
X46995Y-51965D02*
X47464Y-51965D01*
X48695Y-51965D02*
X49465Y-51965D01*
X50620Y-51965D02*
X50842Y-51965D01*
X52977Y-51965D02*
X53022Y-51965D01*
X54067Y-51965D02*
X54112Y-51965D01*
X55433Y-51965D02*
X57304Y-51965D01*
X58535Y-51965D02*
X59005Y-51965D01*
X46995Y-52045D02*
X47648Y-52045D01*
X48511Y-52045D02*
X49540Y-52045D01*
X52899Y-52045D02*
X53100Y-52045D01*
X53989Y-52045D02*
X54190Y-52045D01*
X55079Y-52045D02*
X57488Y-52045D01*
X58351Y-52045D02*
X59005Y-52045D01*
X46995Y-52125D02*
X47840Y-52125D01*
X48317Y-52125D02*
X49620Y-52125D01*
X52819Y-52125D02*
X53180Y-52125D01*
X53909Y-52125D02*
X54270Y-52125D01*
X54999Y-52125D02*
X57680Y-52125D01*
X58157Y-52125D02*
X59005Y-52125D01*
X46995Y-52205D02*
X49700Y-52205D01*
X52649Y-52205D02*
X53349Y-52205D01*
X53739Y-52205D02*
X54439Y-52205D01*
X54829Y-52205D02*
X59005Y-52205D01*
X46995Y-52285D02*
X49780Y-52285D01*
X52369Y-52285D02*
X59005Y-52285D01*
X46995Y-52365D02*
X49860Y-52365D01*
X52289Y-52365D02*
X59005Y-52365D01*
X46995Y-52445D02*
X49940Y-52445D01*
X52209Y-52445D02*
X59005Y-52445D01*
X46995Y-52525D02*
X50020Y-52525D01*
X52129Y-52525D02*
X59005Y-52525D01*
X46995Y-52605D02*
X50100Y-52605D01*
X52049Y-52605D02*
X59005Y-52605D01*
X46995Y-52685D02*
X50180Y-52685D01*
X51969Y-52685D02*
X59005Y-52685D01*
X46995Y-52765D02*
X50277Y-52765D01*
X51872Y-52765D02*
X59005Y-52765D01*
X46995Y-52845D02*
X50493Y-52845D01*
X51656Y-52845D02*
X59005Y-52845D01*
X46995Y-52925D02*
X59005Y-52925D01*
X46995Y-53005D02*
X59005Y-53005D01*
X46995Y-53085D02*
X59005Y-53085D01*
X46995Y-53165D02*
X59005Y-53165D01*
X46995Y-53245D02*
X59005Y-53245D01*
X46995Y-53325D02*
X59005Y-53325D01*
X46995Y-53405D02*
X59005Y-53405D01*
X46995Y-53485D02*
X59005Y-53485D01*
X46995Y-53565D02*
X59005Y-53565D01*
X46995Y-53645D02*
X59005Y-53645D01*
X46995Y-53725D02*
X59005Y-53725D01*
X46995Y-53805D02*
X59005Y-53805D01*
X46995Y-53885D02*
X59005Y-53885D01*
X46995Y-53965D02*
X59005Y-53965D01*
X46995Y-54045D02*
X59005Y-54045D01*
X46995Y-54125D02*
X59005Y-54125D01*
X46995Y-54205D02*
X59005Y-54205D01*
X46995Y-54285D02*
X59005Y-54285D01*
X46995Y-54365D02*
X59005Y-54365D01*
X46995Y-54445D02*
X59005Y-54445D01*
X46995Y-54525D02*
X59005Y-54525D01*
X46995Y-54605D02*
X59005Y-54605D01*
X46995Y-54685D02*
X59005Y-54685D01*
X59005Y-54755D02*
X59005Y-46318D01*
X58890Y-46595D01*
X58594Y-46890D01*
X58208Y-47050D01*
X57790Y-47050D01*
X57405Y-46890D01*
X57110Y-46594D01*
X56950Y-46208D01*
X56950Y-45790D01*
X57110Y-45405D01*
X57406Y-45110D01*
X57792Y-44950D01*
X58210Y-44950D01*
X58595Y-45110D01*
X58890Y-45406D01*
X59005Y-45683D01*
X59005Y-43626D01*
X58936Y-43792D01*
X58791Y-43937D01*
X58602Y-44015D01*
X58397Y-44015D01*
X58208Y-43936D01*
X58114Y-43842D01*
X58114Y-43915D01*
X58076Y-44006D01*
X58006Y-44076D01*
X57914Y-44114D01*
X57085Y-44114D01*
X56994Y-44076D01*
X56924Y-44006D01*
X56886Y-43914D01*
X56886Y-43085D01*
X56924Y-42994D01*
X56994Y-42924D01*
X57036Y-42906D01*
X56979Y-42848D01*
X56885Y-42622D01*
X56885Y-42464D01*
X53657Y-39237D01*
X53568Y-39104D01*
X53537Y-38947D01*
X53537Y-37677D01*
X53522Y-37641D01*
X53522Y-37472D01*
X53587Y-37316D01*
X53707Y-37196D01*
X53863Y-37132D01*
X54032Y-37132D01*
X54188Y-37197D01*
X54308Y-37317D01*
X54372Y-37473D01*
X54372Y-37642D01*
X54357Y-37678D01*
X54357Y-38777D01*
X55422Y-39842D01*
X55497Y-39663D01*
X55660Y-39500D01*
X55496Y-39336D01*
X55406Y-39118D01*
X55406Y-38882D01*
X55497Y-38663D01*
X55660Y-38500D01*
X55496Y-38336D01*
X55406Y-38118D01*
X55406Y-37882D01*
X55497Y-37663D01*
X55660Y-37500D01*
X55496Y-37336D01*
X55406Y-37118D01*
X55406Y-36882D01*
X55497Y-36663D01*
X55660Y-36500D01*
X55496Y-36336D01*
X55406Y-36118D01*
X55406Y-35882D01*
X55497Y-35663D01*
X55660Y-35500D01*
X55496Y-35336D01*
X55406Y-35118D01*
X55406Y-34882D01*
X55497Y-34663D01*
X55660Y-34500D01*
X55496Y-34336D01*
X55422Y-34157D01*
X51823Y-37757D01*
X51823Y-47587D01*
X51792Y-47744D01*
X51703Y-47877D01*
X51025Y-48555D01*
X51025Y-48605D01*
X50945Y-48798D01*
X50797Y-48945D01*
X50604Y-49025D01*
X50555Y-49025D01*
X50178Y-49402D01*
X50178Y-51523D01*
X50396Y-51741D01*
X50396Y-50854D01*
X50295Y-50820D01*
X50223Y-50644D01*
X50213Y-50405D01*
X50295Y-50180D01*
X50396Y-50146D01*
X50749Y-50500D01*
X50396Y-50854D01*
X50396Y-51741D01*
X50684Y-52029D01*
X50725Y-52028D01*
X50725Y-51107D01*
X50500Y-51025D01*
X50466Y-50924D01*
X50820Y-50571D01*
X50820Y-50429D01*
X50466Y-50076D01*
X50500Y-49975D01*
X50676Y-49903D01*
X50915Y-49893D01*
X51140Y-49975D01*
X51174Y-50076D01*
X50820Y-50429D01*
X50820Y-50571D01*
X51174Y-50924D01*
X51140Y-51025D01*
X50964Y-51097D01*
X50725Y-51107D01*
X50725Y-52028D01*
X50904Y-52028D01*
X50844Y-51968D01*
X50750Y-51742D01*
X50750Y-51497D01*
X50844Y-51271D01*
X51017Y-51099D01*
X51243Y-51005D01*
X51488Y-51005D01*
X51714Y-51099D01*
X51886Y-51272D01*
X51909Y-51329D01*
X51934Y-51271D01*
X52107Y-51099D01*
X52333Y-51005D01*
X52578Y-51005D01*
X52804Y-51099D01*
X52976Y-51272D01*
X52999Y-51329D01*
X53024Y-51271D01*
X53197Y-51099D01*
X53423Y-51005D01*
X53668Y-51005D01*
X53894Y-51099D01*
X54066Y-51272D01*
X54089Y-51329D01*
X54114Y-51271D01*
X54287Y-51099D01*
X54513Y-51005D01*
X54603Y-51005D01*
X54566Y-50914D01*
X54566Y-50893D01*
X54438Y-51021D01*
X54212Y-51115D01*
X53967Y-51115D01*
X53741Y-51021D01*
X53569Y-50848D01*
X53545Y-50790D01*
X53521Y-50849D01*
X53348Y-51021D01*
X53122Y-51115D01*
X52877Y-51115D01*
X52651Y-51021D01*
X52479Y-50848D01*
X52455Y-50790D01*
X52431Y-50849D01*
X52258Y-51021D01*
X52032Y-51115D01*
X51787Y-51115D01*
X51561Y-51021D01*
X51389Y-50848D01*
X51360Y-50778D01*
X51345Y-50820D01*
X51244Y-50854D01*
X50891Y-50500D01*
X51244Y-50146D01*
X51345Y-50180D01*
X51360Y-50218D01*
X51389Y-50151D01*
X51562Y-49979D01*
X51788Y-49885D01*
X52033Y-49885D01*
X52259Y-49979D01*
X52431Y-50152D01*
X52454Y-50209D01*
X52479Y-50151D01*
X52652Y-49979D01*
X52878Y-49885D01*
X53123Y-49885D01*
X53349Y-49979D01*
X53521Y-50152D01*
X53544Y-50209D01*
X53569Y-50151D01*
X53742Y-49979D01*
X53968Y-49885D01*
X54213Y-49885D01*
X54439Y-49979D01*
X54566Y-50106D01*
X54566Y-50085D01*
X54604Y-49994D01*
X54674Y-49924D01*
X54766Y-49886D01*
X55399Y-49886D01*
X55399Y-49025D01*
X55395Y-49025D01*
X55202Y-48945D01*
X55055Y-48797D01*
X54975Y-48604D01*
X54975Y-48395D01*
X55055Y-48202D01*
X55203Y-48055D01*
X55395Y-47975D01*
X55395Y-46025D01*
X55202Y-45945D01*
X55055Y-45797D01*
X54975Y-45604D01*
X54975Y-45395D01*
X55055Y-45202D01*
X55203Y-45055D01*
X55396Y-44975D01*
X55605Y-44975D01*
X55798Y-45055D01*
X55945Y-45203D01*
X56025Y-45396D01*
X56025Y-45605D01*
X55945Y-45798D01*
X55797Y-45945D01*
X55604Y-46025D01*
X55395Y-46025D01*
X55395Y-47975D01*
X55605Y-47975D01*
X55798Y-48055D01*
X55945Y-48203D01*
X56025Y-48396D01*
X56025Y-48445D01*
X56099Y-48519D01*
X56188Y-48652D01*
X56219Y-48809D01*
X56219Y-51037D01*
X56188Y-51194D01*
X56099Y-51327D01*
X55516Y-51910D01*
X55383Y-51999D01*
X55226Y-52030D01*
X55094Y-52030D01*
X54983Y-52141D01*
X54757Y-52235D01*
X54512Y-52235D01*
X54286Y-52141D01*
X54114Y-51968D01*
X54090Y-51910D01*
X54066Y-51969D01*
X53893Y-52141D01*
X53667Y-52235D01*
X53422Y-52235D01*
X53196Y-52141D01*
X53024Y-51968D01*
X53000Y-51910D01*
X52976Y-51969D01*
X52803Y-52141D01*
X52577Y-52235D01*
X52419Y-52235D01*
X51926Y-52729D01*
X51793Y-52818D01*
X51636Y-52849D01*
X50514Y-52849D01*
X50357Y-52818D01*
X50224Y-52729D01*
X49478Y-51983D01*
X49389Y-51850D01*
X49358Y-51693D01*
X49358Y-49232D01*
X49389Y-49075D01*
X49478Y-48942D01*
X49975Y-48445D01*
X49975Y-48395D01*
X50055Y-48202D01*
X50203Y-48055D01*
X50396Y-47975D01*
X50444Y-47975D01*
X51003Y-47417D01*
X51003Y-45658D01*
X50945Y-45798D01*
X50797Y-45945D01*
X50604Y-46025D01*
X50395Y-46025D01*
X50202Y-45945D01*
X50055Y-45797D01*
X49975Y-45604D01*
X49975Y-45395D01*
X50055Y-45202D01*
X50203Y-45055D01*
X50396Y-44975D01*
X50605Y-44975D01*
X50798Y-45055D01*
X50945Y-45203D01*
X51003Y-45342D01*
X51003Y-37587D01*
X51034Y-37430D01*
X51123Y-37297D01*
X55406Y-33014D01*
X55406Y-32882D01*
X55497Y-32663D01*
X55660Y-32499D01*
X55496Y-32336D01*
X55406Y-32118D01*
X55406Y-31882D01*
X55497Y-31663D01*
X55660Y-31499D01*
X55496Y-31336D01*
X55406Y-31118D01*
X55406Y-30882D01*
X55497Y-30663D01*
X55660Y-30500D01*
X55496Y-30336D01*
X55406Y-30118D01*
X55406Y-29882D01*
X55497Y-29663D01*
X55660Y-29500D01*
X55496Y-29336D01*
X55406Y-29118D01*
X55406Y-28882D01*
X55497Y-28663D01*
X55660Y-28499D01*
X55496Y-28336D01*
X55406Y-28118D01*
X55406Y-27882D01*
X55497Y-27663D01*
X55590Y-27570D01*
X55590Y-27339D01*
X55492Y-27308D01*
X55422Y-27142D01*
X55412Y-26910D01*
X55492Y-26692D01*
X55590Y-26661D01*
X55929Y-27000D01*
X55590Y-27339D01*
X55590Y-27570D01*
X55664Y-27496D01*
X55685Y-27487D01*
X55661Y-27410D01*
X56000Y-27071D01*
X56000Y-26929D01*
X55661Y-26590D01*
X55685Y-26512D01*
X55663Y-26503D01*
X55496Y-26336D01*
X55406Y-26118D01*
X55406Y-25882D01*
X55497Y-25663D01*
X55664Y-25496D01*
X55882Y-25406D01*
X56118Y-25406D01*
X56337Y-25497D01*
X56504Y-25664D01*
X56594Y-25882D01*
X56594Y-26118D01*
X56503Y-26337D01*
X56336Y-26504D01*
X56314Y-26512D01*
X56339Y-26590D01*
X56000Y-26929D01*
X56000Y-27071D01*
X56339Y-27410D01*
X56314Y-27487D01*
X56337Y-27497D01*
X56410Y-27570D01*
X56410Y-27339D01*
X56071Y-27000D01*
X56410Y-26661D01*
X56508Y-26692D01*
X56578Y-26858D01*
X56588Y-27090D01*
X56508Y-27308D01*
X56410Y-27339D01*
X56410Y-27570D01*
X56504Y-27664D01*
X56594Y-27882D01*
X56594Y-28014D01*
X56816Y-28236D01*
X56901Y-28201D01*
X57600Y-28201D01*
X57691Y-28239D01*
X57761Y-28309D01*
X57799Y-28401D01*
X57799Y-28425D01*
X57939Y-28285D01*
X58141Y-28201D01*
X58359Y-28201D01*
X58561Y-28285D01*
X58715Y-28439D01*
X58799Y-28641D01*
X58799Y-28859D01*
X58715Y-29061D01*
X58561Y-29215D01*
X58476Y-29250D01*
X58561Y-29285D01*
X58715Y-29439D01*
X58799Y-29641D01*
X58799Y-29859D01*
X58715Y-30061D01*
X58561Y-30215D01*
X58359Y-30299D01*
X58141Y-30299D01*
X57939Y-30215D01*
X57785Y-30061D01*
X57750Y-29976D01*
X57715Y-30061D01*
X57561Y-30215D01*
X57359Y-30299D01*
X57141Y-30299D01*
X56939Y-30215D01*
X56785Y-30061D01*
X56701Y-29859D01*
X56701Y-29641D01*
X56785Y-29439D01*
X56925Y-29299D01*
X56900Y-29299D01*
X56809Y-29261D01*
X56739Y-29191D01*
X56726Y-29160D01*
X56687Y-29160D01*
X56584Y-29139D01*
X56503Y-29337D01*
X56340Y-29499D01*
X56504Y-29664D01*
X56594Y-29882D01*
X56594Y-30118D01*
X56503Y-30337D01*
X56340Y-30500D01*
X56504Y-30664D01*
X56594Y-30882D01*
X56594Y-31118D01*
X56503Y-31337D01*
X56340Y-31500D01*
X56504Y-31664D01*
X56594Y-31882D01*
X56594Y-32118D01*
X56503Y-32337D01*
X56340Y-32499D01*
X56504Y-32664D01*
X56594Y-32882D01*
X56594Y-33118D01*
X56503Y-33337D01*
X56340Y-33499D01*
X56504Y-33664D01*
X56594Y-33882D01*
X56594Y-34118D01*
X56503Y-34337D01*
X56340Y-34499D01*
X56504Y-34664D01*
X56594Y-34882D01*
X56594Y-35118D01*
X56503Y-35337D01*
X56340Y-35500D01*
X56504Y-35664D01*
X56594Y-35882D01*
X56594Y-36118D01*
X56503Y-36337D01*
X56340Y-36499D01*
X56504Y-36664D01*
X56594Y-36882D01*
X56594Y-37118D01*
X56503Y-37337D01*
X56340Y-37499D01*
X56504Y-37664D01*
X56594Y-37882D01*
X56594Y-38118D01*
X56503Y-38337D01*
X56340Y-38500D01*
X56504Y-38664D01*
X56594Y-38882D01*
X56594Y-39118D01*
X56503Y-39337D01*
X56340Y-39499D01*
X56504Y-39664D01*
X56594Y-39882D01*
X56594Y-40118D01*
X56503Y-40337D01*
X56336Y-40504D01*
X56157Y-40577D01*
X56917Y-41337D01*
X56975Y-41180D01*
X57076Y-41146D01*
X57391Y-41461D01*
X57429Y-41500D01*
X57500Y-41571D01*
X57500Y-41429D01*
X57391Y-41320D01*
X57146Y-41076D01*
X57180Y-40975D01*
X57356Y-40903D01*
X57391Y-40901D01*
X57391Y-39549D01*
X57189Y-39465D01*
X57035Y-39311D01*
X56951Y-39109D01*
X56951Y-38891D01*
X57035Y-38689D01*
X57189Y-38535D01*
X57391Y-38451D01*
X57391Y-35549D01*
X57189Y-35465D01*
X57035Y-35311D01*
X56951Y-35109D01*
X56951Y-34891D01*
X57035Y-34689D01*
X57189Y-34535D01*
X57303Y-34487D01*
X57202Y-34445D01*
X57055Y-34297D01*
X56975Y-34104D01*
X56975Y-33895D01*
X57055Y-33702D01*
X57139Y-33618D01*
X57139Y-32290D01*
X57048Y-32267D01*
X56992Y-32130D01*
X56981Y-31926D01*
X57048Y-31733D01*
X57139Y-31710D01*
X57429Y-32000D01*
X57139Y-32290D01*
X57139Y-33618D01*
X57203Y-33555D01*
X57396Y-33475D01*
X57426Y-33475D01*
X57426Y-32519D01*
X57233Y-32452D01*
X57210Y-32361D01*
X57500Y-32071D01*
X57500Y-31929D01*
X57210Y-31639D01*
X57233Y-31548D01*
X57370Y-31492D01*
X57574Y-31481D01*
X57767Y-31548D01*
X57790Y-31639D01*
X57500Y-31929D01*
X57500Y-32071D01*
X57790Y-32361D01*
X57767Y-32452D01*
X57630Y-32508D01*
X57426Y-32519D01*
X57426Y-33475D01*
X57605Y-33475D01*
X57798Y-33555D01*
X57861Y-33618D01*
X57861Y-32290D01*
X57571Y-32000D01*
X57861Y-31710D01*
X57952Y-31733D01*
X58008Y-31870D01*
X58019Y-32074D01*
X57952Y-32267D01*
X57861Y-32290D01*
X57861Y-33618D01*
X57945Y-33703D01*
X58025Y-33896D01*
X58025Y-34105D01*
X57945Y-34298D01*
X57797Y-34445D01*
X57695Y-34487D01*
X57811Y-34535D01*
X57965Y-34689D01*
X58049Y-34891D01*
X58049Y-35109D01*
X57965Y-35311D01*
X57811Y-35465D01*
X57609Y-35549D01*
X57391Y-35549D01*
X57391Y-38451D01*
X57609Y-38451D01*
X57811Y-38535D01*
X57965Y-38689D01*
X58049Y-38891D01*
X58049Y-39109D01*
X57965Y-39311D01*
X57811Y-39465D01*
X57609Y-39549D01*
X57391Y-39549D01*
X57391Y-40901D01*
X57595Y-40893D01*
X57820Y-40975D01*
X57854Y-41076D01*
X57500Y-41429D01*
X57500Y-41571D01*
X57854Y-41924D01*
X57837Y-41974D01*
X57849Y-41979D01*
X58021Y-42152D01*
X58054Y-42231D01*
X58064Y-42208D01*
X58209Y-42063D01*
X58361Y-42000D01*
X58208Y-41936D01*
X58063Y-41791D01*
X58048Y-41755D01*
X58025Y-41820D01*
X57924Y-41854D01*
X57571Y-41500D01*
X57924Y-41146D01*
X58025Y-41180D01*
X58050Y-41241D01*
X58064Y-41208D01*
X58209Y-41063D01*
X58398Y-40985D01*
X58603Y-40985D01*
X58792Y-41064D01*
X58937Y-41209D01*
X59005Y-41373D01*
X59005Y-26318D01*
X58890Y-26595D01*
X58594Y-26890D01*
X58208Y-27050D01*
X57790Y-27050D01*
X57405Y-26890D01*
X57110Y-26594D01*
X56950Y-26208D01*
X56950Y-25790D01*
X57110Y-25405D01*
X57270Y-25245D01*
X48729Y-25245D01*
X48890Y-25406D01*
X49050Y-25792D01*
X49050Y-26210D01*
X48890Y-26595D01*
X48594Y-26890D01*
X48208Y-27050D01*
X47790Y-27050D01*
X47405Y-26890D01*
X47110Y-26594D01*
X46995Y-26316D01*
X46995Y-41373D01*
X47064Y-41208D01*
X47209Y-41063D01*
X47398Y-40985D01*
X47603Y-40985D01*
X47639Y-41000D01*
X47639Y-37790D01*
X47548Y-37767D01*
X47492Y-37630D01*
X47481Y-37426D01*
X47548Y-37233D01*
X47639Y-37210D01*
X47929Y-37500D01*
X47639Y-37790D01*
X47639Y-41000D01*
X47792Y-41064D01*
X47886Y-41158D01*
X47886Y-41085D01*
X47895Y-41063D01*
X47924Y-40994D01*
X47926Y-40992D01*
X47926Y-38019D01*
X47895Y-38008D01*
X47733Y-37952D01*
X47710Y-37861D01*
X48000Y-37571D01*
X48000Y-37429D01*
X47710Y-37139D01*
X47733Y-37048D01*
X47870Y-36992D01*
X47895Y-36990D01*
X47895Y-36025D01*
X47702Y-35945D01*
X47555Y-35797D01*
X47475Y-35604D01*
X47475Y-35395D01*
X47555Y-35202D01*
X47639Y-35118D01*
X47639Y-31790D01*
X47548Y-31767D01*
X47492Y-31630D01*
X47481Y-31426D01*
X47548Y-31233D01*
X47639Y-31210D01*
X47929Y-31500D01*
X47639Y-31790D01*
X47639Y-35118D01*
X47703Y-35055D01*
X47895Y-34975D01*
X47926Y-34975D01*
X47926Y-32019D01*
X47895Y-32008D01*
X47733Y-31952D01*
X47710Y-31861D01*
X48000Y-31571D01*
X48000Y-31429D01*
X47710Y-31139D01*
X47733Y-31048D01*
X47870Y-30992D01*
X47895Y-30990D01*
X47895Y-30025D01*
X47702Y-29945D01*
X47555Y-29797D01*
X47475Y-29604D01*
X47475Y-29395D01*
X47555Y-29202D01*
X47703Y-29055D01*
X47896Y-28975D01*
X48105Y-28975D01*
X48298Y-29055D01*
X48445Y-29203D01*
X48525Y-29396D01*
X48525Y-29605D01*
X48445Y-29798D01*
X48297Y-29945D01*
X48104Y-30025D01*
X47895Y-30025D01*
X47895Y-30990D01*
X48074Y-30981D01*
X48267Y-31048D01*
X48290Y-31139D01*
X48000Y-31429D01*
X48000Y-31571D01*
X48290Y-31861D01*
X48267Y-31952D01*
X48130Y-32008D01*
X47926Y-32019D01*
X47926Y-34975D01*
X48105Y-34975D01*
X48298Y-35055D01*
X48361Y-35118D01*
X48361Y-31790D01*
X48071Y-31500D01*
X48361Y-31210D01*
X48452Y-31233D01*
X48508Y-31370D01*
X48519Y-31574D01*
X48452Y-31767D01*
X48361Y-31790D01*
X48361Y-35118D01*
X48445Y-35203D01*
X48525Y-35396D01*
X48525Y-35605D01*
X48445Y-35798D01*
X48297Y-35945D01*
X48104Y-36025D01*
X47895Y-36025D01*
X47895Y-36990D01*
X48074Y-36981D01*
X48267Y-37048D01*
X48290Y-37139D01*
X48000Y-37429D01*
X48000Y-37571D01*
X48290Y-37861D01*
X48267Y-37952D01*
X48130Y-38008D01*
X47926Y-38019D01*
X47926Y-40992D01*
X47994Y-40924D01*
X48086Y-40886D01*
X48361Y-40886D01*
X48361Y-37790D01*
X48071Y-37500D01*
X48361Y-37210D01*
X48452Y-37233D01*
X48508Y-37370D01*
X48519Y-37574D01*
X48452Y-37767D01*
X48361Y-37790D01*
X48361Y-40886D01*
X48719Y-40886D01*
X48719Y-37871D01*
X48750Y-37714D01*
X48839Y-37581D01*
X49406Y-37014D01*
X49406Y-36882D01*
X49497Y-36663D01*
X49659Y-36499D01*
X49496Y-36336D01*
X49406Y-36118D01*
X49406Y-35882D01*
X49497Y-35663D01*
X49659Y-35500D01*
X49496Y-35336D01*
X49406Y-35118D01*
X49406Y-34882D01*
X49497Y-34663D01*
X49659Y-34500D01*
X49496Y-34336D01*
X49406Y-34118D01*
X49406Y-33882D01*
X49497Y-33663D01*
X49659Y-33500D01*
X49496Y-33336D01*
X49406Y-33118D01*
X49406Y-32882D01*
X49497Y-32663D01*
X49660Y-32500D01*
X49496Y-32336D01*
X49406Y-32118D01*
X49406Y-31882D01*
X49497Y-31663D01*
X49659Y-31499D01*
X49496Y-31336D01*
X49406Y-31118D01*
X49406Y-30882D01*
X49497Y-30663D01*
X49659Y-30500D01*
X49496Y-30336D01*
X49406Y-30118D01*
X49406Y-29882D01*
X49497Y-29663D01*
X49590Y-29570D01*
X49590Y-29339D01*
X49492Y-29308D01*
X49422Y-29142D01*
X49412Y-28910D01*
X49492Y-28692D01*
X49590Y-28661D01*
X49929Y-29000D01*
X49590Y-29339D01*
X49590Y-29570D01*
X49664Y-29496D01*
X49685Y-29487D01*
X49661Y-29410D01*
X50000Y-29071D01*
X50000Y-28929D01*
X49661Y-28590D01*
X49685Y-28512D01*
X49663Y-28503D01*
X49496Y-28336D01*
X49406Y-28118D01*
X49406Y-27882D01*
X49497Y-27663D01*
X49660Y-27500D01*
X49496Y-27336D01*
X49406Y-27118D01*
X49406Y-26882D01*
X49497Y-26663D01*
X49611Y-26549D01*
X49605Y-26549D01*
X49514Y-26511D01*
X49444Y-26441D01*
X49406Y-26349D01*
X49406Y-25650D01*
X49444Y-25559D01*
X49514Y-25489D01*
X49606Y-25451D01*
X50395Y-25451D01*
X50486Y-25489D01*
X50556Y-25559D01*
X50594Y-25651D01*
X50594Y-26350D01*
X50556Y-26441D01*
X50486Y-26511D01*
X50394Y-26549D01*
X50389Y-26549D01*
X50504Y-26664D01*
X50594Y-26882D01*
X50594Y-27118D01*
X50503Y-27337D01*
X50339Y-27499D01*
X50504Y-27664D01*
X50594Y-27882D01*
X50594Y-28118D01*
X50503Y-28337D01*
X50336Y-28504D01*
X50314Y-28512D01*
X50339Y-28590D01*
X50000Y-28929D01*
X50000Y-29071D01*
X50339Y-29410D01*
X50314Y-29487D01*
X50337Y-29497D01*
X50410Y-29570D01*
X50410Y-29339D01*
X50071Y-29000D01*
X50410Y-28661D01*
X50508Y-28692D01*
X50578Y-28858D01*
X50588Y-29090D01*
X50508Y-29308D01*
X50410Y-29339D01*
X50410Y-29570D01*
X50504Y-29664D01*
X50594Y-29882D01*
X50594Y-30118D01*
X50503Y-30337D01*
X50339Y-30500D01*
X50504Y-30664D01*
X50594Y-30882D01*
X50594Y-31118D01*
X50503Y-31337D01*
X50340Y-31499D01*
X50504Y-31664D01*
X50594Y-31882D01*
X50594Y-32118D01*
X50503Y-32337D01*
X50339Y-32499D01*
X50504Y-32664D01*
X50594Y-32882D01*
X50594Y-33118D01*
X50503Y-33337D01*
X50339Y-33500D01*
X50504Y-33664D01*
X50594Y-33882D01*
X50594Y-34118D01*
X50503Y-34337D01*
X50339Y-34500D01*
X50504Y-34664D01*
X50594Y-34882D01*
X50594Y-35118D01*
X50503Y-35337D01*
X50339Y-35500D01*
X50504Y-35664D01*
X50594Y-35882D01*
X50594Y-36118D01*
X50503Y-36337D01*
X50339Y-36499D01*
X50504Y-36664D01*
X50594Y-36882D01*
X50594Y-37118D01*
X50503Y-37337D01*
X50339Y-37499D01*
X50504Y-37664D01*
X50594Y-37882D01*
X50594Y-38118D01*
X50503Y-38337D01*
X50339Y-38500D01*
X50504Y-38664D01*
X50594Y-38882D01*
X50594Y-39118D01*
X50503Y-39337D01*
X50339Y-39500D01*
X50504Y-39664D01*
X50594Y-39882D01*
X50594Y-40118D01*
X50503Y-40337D01*
X50336Y-40504D01*
X50118Y-40594D01*
X49882Y-40594D01*
X49663Y-40503D01*
X49539Y-40379D01*
X49539Y-42037D01*
X49538Y-42037D01*
X49539Y-42038D01*
X49532Y-42069D01*
X49508Y-42194D01*
X49419Y-42327D01*
X49415Y-42329D01*
X49109Y-42636D01*
X49021Y-42849D01*
X48848Y-43021D01*
X48837Y-43025D01*
X48854Y-43076D01*
X48500Y-43429D01*
X48146Y-43076D01*
X48162Y-43025D01*
X48151Y-43021D01*
X47979Y-42848D01*
X47945Y-42768D01*
X47936Y-42792D01*
X47791Y-42937D01*
X47638Y-42999D01*
X47792Y-43064D01*
X47937Y-43209D01*
X47951Y-43244D01*
X47975Y-43180D01*
X48076Y-43146D01*
X48429Y-43500D01*
X48076Y-43854D01*
X47975Y-43820D01*
X47949Y-43758D01*
X47936Y-43792D01*
X47791Y-43937D01*
X47602Y-44015D01*
X47397Y-44015D01*
X47208Y-43936D01*
X47063Y-43791D01*
X46995Y-43626D01*
X46995Y-45681D01*
X47110Y-45405D01*
X47406Y-45110D01*
X47792Y-44950D01*
X48210Y-44950D01*
X48405Y-45031D01*
X48405Y-44107D01*
X48180Y-44025D01*
X48146Y-43924D01*
X48500Y-43571D01*
X48854Y-43924D01*
X48820Y-44025D01*
X48644Y-44097D01*
X48405Y-44107D01*
X48405Y-45031D01*
X48595Y-45110D01*
X48890Y-45406D01*
X48924Y-45488D01*
X48924Y-43854D01*
X48571Y-43500D01*
X48924Y-43146D01*
X49025Y-43180D01*
X49097Y-43356D01*
X49107Y-43595D01*
X49025Y-43820D01*
X48924Y-43854D01*
X48924Y-45488D01*
X49050Y-45792D01*
X49050Y-46210D01*
X48890Y-46595D01*
X48594Y-46890D01*
X48208Y-47050D01*
X47790Y-47050D01*
X47405Y-46890D01*
X47110Y-46594D01*
X46995Y-46316D01*
X46995Y-54755D01*
X47865Y-54755D01*
X47865Y-52135D01*
X47470Y-51971D01*
X47168Y-51668D01*
X47005Y-51273D01*
X47005Y-50845D01*
X47169Y-50450D01*
X47472Y-50148D01*
X47867Y-49985D01*
X48295Y-49985D01*
X48690Y-50149D01*
X48992Y-50452D01*
X49155Y-50847D01*
X49155Y-51275D01*
X48991Y-51670D01*
X48688Y-51972D01*
X48293Y-52135D01*
X47865Y-52135D01*
X47865Y-54755D01*
X57705Y-54755D01*
X57705Y-52135D01*
X57310Y-51971D01*
X57008Y-51668D01*
X56845Y-51273D01*
X56845Y-50845D01*
X57009Y-50450D01*
X57312Y-50148D01*
X57707Y-49985D01*
X58135Y-49985D01*
X58530Y-50149D01*
X58832Y-50452D01*
X58995Y-50847D01*
X58995Y-51275D01*
X58831Y-51670D01*
X58528Y-51972D01*
X58133Y-52135D01*
X57705Y-52135D01*
X57705Y-54755D01*
X59005Y-54755D01*
M02*
