G04 (created by PCBNEW-RS274X (2010-03-14)-final) date Tue 08 Feb 2011 03:21:09 PM PST*
G01*
G70*
G90*
%MOIN*%
G04 Gerber Fmt 3.4, Leading zero omitted, Abs format*
%FSLAX34Y34*%
G04 APERTURE LIST*
%ADD10C,0.006000*%
%ADD11C,0.009000*%
%ADD12C,0.073000*%
%ADD13R,0.073000X0.073000*%
%ADD14C,0.053000*%
%ADD15C,0.165000*%
%ADD16C,0.055000*%
%ADD17R,0.060000X0.060000*%
%ADD18C,0.060000*%
%ADD19R,0.069000X0.060000*%
%ADD20C,0.069000*%
%ADD21C,0.160000*%
%ADD22C,0.035000*%
%ADD23C,0.032000*%
%ADD24C,0.010000*%
G04 APERTURE END LIST*
G54D10*
G54D11*
X59250Y-25000D02*
X46750Y-25000D01*
X59250Y-55000D02*
X59250Y-25000D01*
X46750Y-55000D02*
X59250Y-55000D01*
X46750Y-25000D02*
X46750Y-55000D01*
G54D12*
X48500Y-42500D03*
X48500Y-43500D03*
G54D13*
X48500Y-41500D03*
G54D14*
X47500Y-41500D03*
X47500Y-42500D03*
X47500Y-43500D03*
G54D12*
X57500Y-42500D03*
X57500Y-41500D03*
G54D13*
X57500Y-43500D03*
G54D14*
X58500Y-43500D03*
X58500Y-42500D03*
X58500Y-41500D03*
G54D12*
X53000Y-50500D03*
X51910Y-50500D03*
X50820Y-50500D03*
X54090Y-50500D03*
G54D13*
X55180Y-50500D03*
G54D12*
X54635Y-51620D03*
X53545Y-51620D03*
X52455Y-51620D03*
X51365Y-51620D03*
G54D15*
X48080Y-51060D03*
X57920Y-51060D03*
G54D16*
X57500Y-34000D03*
X57500Y-32000D03*
G54D17*
X57250Y-28750D03*
G54D18*
X58250Y-28750D03*
X57250Y-29750D03*
X58250Y-29750D03*
G54D16*
X48000Y-29500D03*
X48000Y-31500D03*
X48000Y-35500D03*
X48000Y-37500D03*
X55500Y-45500D03*
X55500Y-48500D03*
X50500Y-45500D03*
X50500Y-48500D03*
G54D18*
X57500Y-35000D03*
X57500Y-39000D03*
G54D19*
X50000Y-26000D03*
G54D20*
X50000Y-27000D03*
X50000Y-28000D03*
X50000Y-29000D03*
X50000Y-30000D03*
X50000Y-31000D03*
X50000Y-32000D03*
X50000Y-33000D03*
X50000Y-34000D03*
X50000Y-35000D03*
X50000Y-36000D03*
X50000Y-37000D03*
X50000Y-38000D03*
X50000Y-39000D03*
X50000Y-40000D03*
X56000Y-40000D03*
X56000Y-39000D03*
X56000Y-38000D03*
X56000Y-37000D03*
X56000Y-36000D03*
X56000Y-35000D03*
X56000Y-34000D03*
X56000Y-33000D03*
X56000Y-32000D03*
X56000Y-31000D03*
X56000Y-30000D03*
X56000Y-29000D03*
X56000Y-28000D03*
X56000Y-27000D03*
X56000Y-26000D03*
G54D21*
X58000Y-46000D03*
X48000Y-46000D03*
X58000Y-26000D03*
X48000Y-26000D03*
G54D22*
X53947Y-37557D03*
G54D23*
X53947Y-34947D02*
X53947Y-37557D01*
X50000Y-31000D02*
X53947Y-34947D01*
X56747Y-47253D02*
X55500Y-48500D01*
X56747Y-32747D02*
X56747Y-47253D01*
X56000Y-32000D02*
X56747Y-32747D01*
X57500Y-35000D02*
X57500Y-34000D01*
X58250Y-28750D02*
X58250Y-29750D01*
X58250Y-33250D02*
X57500Y-34000D01*
X58250Y-29750D02*
X58250Y-33250D01*
G54D24*
X48729Y-25245D02*
X57270Y-25245D01*
X48809Y-25325D02*
X57190Y-25325D01*
X48889Y-25405D02*
X57110Y-25405D01*
X48923Y-25485D02*
X49524Y-25485D01*
X50477Y-25485D02*
X55691Y-25485D01*
X56309Y-25485D02*
X57077Y-25485D01*
X48956Y-25565D02*
X49442Y-25565D01*
X50559Y-25565D02*
X55595Y-25565D01*
X56405Y-25565D02*
X57044Y-25565D01*
X48990Y-25645D02*
X49409Y-25645D01*
X50592Y-25645D02*
X55515Y-25645D01*
X56485Y-25645D02*
X57011Y-25645D01*
X49023Y-25725D02*
X49406Y-25725D01*
X50594Y-25725D02*
X55472Y-25725D01*
X56530Y-25725D02*
X56978Y-25725D01*
X49050Y-25805D02*
X49406Y-25805D01*
X50594Y-25805D02*
X55438Y-25805D01*
X56563Y-25805D02*
X56950Y-25805D01*
X49050Y-25885D02*
X49406Y-25885D01*
X50594Y-25885D02*
X55406Y-25885D01*
X56594Y-25885D02*
X56950Y-25885D01*
X49050Y-25965D02*
X49406Y-25965D01*
X50594Y-25965D02*
X55406Y-25965D01*
X56594Y-25965D02*
X56950Y-25965D01*
X49050Y-26045D02*
X49406Y-26045D01*
X50594Y-26045D02*
X55406Y-26045D01*
X56594Y-26045D02*
X56950Y-26045D01*
X49050Y-26125D02*
X49406Y-26125D01*
X50594Y-26125D02*
X55408Y-26125D01*
X56591Y-26125D02*
X56950Y-26125D01*
X49050Y-26205D02*
X49406Y-26205D01*
X50594Y-26205D02*
X55441Y-26205D01*
X56557Y-26205D02*
X56950Y-26205D01*
X49018Y-26285D02*
X49406Y-26285D01*
X50594Y-26285D02*
X55474Y-26285D01*
X56524Y-26285D02*
X56981Y-26285D01*
X46995Y-26365D02*
X47015Y-26365D01*
X48985Y-26365D02*
X49412Y-26365D01*
X50587Y-26365D02*
X55525Y-26365D01*
X56474Y-26365D02*
X57015Y-26365D01*
X58985Y-26365D02*
X59005Y-26365D01*
X46995Y-26445D02*
X47048Y-26445D01*
X48952Y-26445D02*
X49448Y-26445D01*
X50552Y-26445D02*
X55605Y-26445D01*
X56393Y-26445D02*
X57048Y-26445D01*
X58952Y-26445D02*
X59005Y-26445D01*
X46995Y-26525D02*
X47081Y-26525D01*
X48919Y-26525D02*
X49547Y-26525D01*
X50452Y-26525D02*
X55635Y-26525D01*
X56365Y-26525D02*
X57081Y-26525D01*
X58919Y-26525D02*
X59005Y-26525D01*
X46995Y-26605D02*
X47120Y-26605D01*
X48879Y-26605D02*
X49555Y-26605D01*
X50445Y-26605D02*
X55555Y-26605D01*
X56445Y-26605D02*
X57120Y-26605D01*
X58879Y-26605D02*
X59005Y-26605D01*
X46995Y-26685D02*
X47200Y-26685D01*
X48799Y-26685D02*
X49488Y-26685D01*
X50513Y-26685D02*
X55488Y-26685D01*
X56513Y-26685D02*
X57200Y-26685D01*
X58799Y-26685D02*
X59005Y-26685D01*
X46995Y-26765D02*
X47280Y-26765D01*
X48719Y-26765D02*
X49455Y-26765D01*
X50546Y-26765D02*
X55455Y-26765D01*
X56546Y-26765D02*
X57280Y-26765D01*
X58719Y-26765D02*
X59005Y-26765D01*
X46995Y-26845D02*
X47360Y-26845D01*
X48639Y-26845D02*
X49422Y-26845D01*
X50579Y-26845D02*
X55422Y-26845D01*
X56579Y-26845D02*
X57360Y-26845D01*
X58639Y-26845D02*
X59005Y-26845D01*
X46995Y-26925D02*
X47489Y-26925D01*
X48509Y-26925D02*
X49406Y-26925D01*
X50594Y-26925D02*
X55406Y-26925D01*
X56594Y-26925D02*
X57489Y-26925D01*
X58509Y-26925D02*
X59005Y-26925D01*
X46995Y-27005D02*
X47681Y-27005D01*
X48316Y-27005D02*
X49406Y-27005D01*
X50594Y-27005D02*
X55406Y-27005D01*
X56594Y-27005D02*
X57681Y-27005D01*
X58316Y-27005D02*
X59005Y-27005D01*
X46995Y-27085D02*
X49406Y-27085D01*
X50594Y-27085D02*
X55406Y-27085D01*
X56594Y-27085D02*
X59005Y-27085D01*
X46995Y-27165D02*
X49425Y-27165D01*
X50574Y-27165D02*
X55425Y-27165D01*
X56574Y-27165D02*
X59005Y-27165D01*
X46995Y-27245D02*
X49458Y-27245D01*
X50541Y-27245D02*
X55458Y-27245D01*
X56541Y-27245D02*
X59005Y-27245D01*
X46995Y-27325D02*
X49491Y-27325D01*
X50507Y-27325D02*
X55491Y-27325D01*
X56507Y-27325D02*
X59005Y-27325D01*
X46995Y-27405D02*
X49565Y-27405D01*
X50434Y-27405D02*
X55565Y-27405D01*
X56434Y-27405D02*
X59005Y-27405D01*
X46995Y-27485D02*
X49645Y-27485D01*
X50353Y-27485D02*
X55645Y-27485D01*
X56354Y-27485D02*
X59005Y-27485D01*
X46995Y-27565D02*
X49595Y-27565D01*
X50405Y-27565D02*
X55595Y-27565D01*
X56406Y-27565D02*
X59005Y-27565D01*
X46995Y-27645D02*
X49515Y-27645D01*
X50485Y-27645D02*
X55515Y-27645D01*
X56486Y-27645D02*
X59005Y-27645D01*
X46995Y-27725D02*
X49472Y-27725D01*
X50530Y-27725D02*
X55472Y-27725D01*
X56530Y-27725D02*
X59005Y-27725D01*
X46995Y-27805D02*
X49438Y-27805D01*
X50563Y-27805D02*
X55438Y-27805D01*
X56563Y-27805D02*
X59005Y-27805D01*
X46995Y-27885D02*
X49406Y-27885D01*
X50594Y-27885D02*
X55406Y-27885D01*
X56594Y-27885D02*
X59005Y-27885D01*
X46995Y-27965D02*
X49406Y-27965D01*
X50594Y-27965D02*
X55406Y-27965D01*
X56594Y-27965D02*
X59005Y-27965D01*
X46995Y-28045D02*
X49406Y-28045D01*
X50594Y-28045D02*
X55406Y-28045D01*
X56594Y-28045D02*
X59005Y-28045D01*
X46995Y-28125D02*
X49408Y-28125D01*
X50591Y-28125D02*
X55408Y-28125D01*
X56591Y-28125D02*
X59005Y-28125D01*
X46995Y-28205D02*
X49441Y-28205D01*
X50557Y-28205D02*
X55441Y-28205D01*
X56557Y-28205D02*
X56892Y-28205D01*
X57610Y-28205D02*
X58132Y-28205D01*
X58369Y-28205D02*
X59005Y-28205D01*
X46995Y-28285D02*
X49474Y-28285D01*
X50524Y-28285D02*
X55474Y-28285D01*
X56524Y-28285D02*
X56763Y-28285D01*
X57737Y-28285D02*
X57939Y-28285D01*
X58561Y-28285D02*
X59005Y-28285D01*
X46995Y-28365D02*
X49525Y-28365D01*
X50474Y-28365D02*
X55525Y-28365D01*
X56475Y-28365D02*
X56716Y-28365D01*
X57785Y-28365D02*
X57859Y-28365D01*
X58641Y-28365D02*
X59005Y-28365D01*
X46995Y-28445D02*
X49605Y-28445D01*
X50394Y-28445D02*
X55605Y-28445D01*
X56395Y-28445D02*
X56701Y-28445D01*
X58718Y-28445D02*
X59005Y-28445D01*
X46995Y-28525D02*
X49635Y-28525D01*
X50365Y-28525D02*
X55681Y-28525D01*
X56319Y-28525D02*
X56701Y-28525D01*
X58751Y-28525D02*
X59005Y-28525D01*
X46995Y-28605D02*
X49555Y-28605D01*
X50445Y-28605D02*
X55676Y-28605D01*
X56324Y-28605D02*
X56701Y-28605D01*
X58785Y-28605D02*
X59005Y-28605D01*
X46995Y-28685D02*
X49488Y-28685D01*
X50513Y-28685D02*
X55515Y-28685D01*
X55614Y-28685D02*
X55756Y-28685D01*
X56244Y-28685D02*
X56386Y-28685D01*
X56486Y-28685D02*
X56701Y-28685D01*
X58799Y-28685D02*
X59005Y-28685D01*
X46995Y-28765D02*
X49455Y-28765D01*
X50546Y-28765D02*
X55466Y-28765D01*
X55694Y-28765D02*
X55836Y-28765D01*
X56164Y-28765D02*
X56306Y-28765D01*
X56539Y-28765D02*
X56701Y-28765D01*
X58799Y-28765D02*
X59005Y-28765D01*
X46995Y-28845D02*
X49422Y-28845D01*
X50579Y-28845D02*
X55436Y-28845D01*
X55774Y-28845D02*
X55916Y-28845D01*
X56084Y-28845D02*
X56226Y-28845D01*
X56573Y-28845D02*
X56701Y-28845D01*
X58799Y-28845D02*
X59005Y-28845D01*
X46995Y-28925D02*
X49406Y-28925D01*
X50594Y-28925D02*
X55412Y-28925D01*
X55854Y-28925D02*
X55996Y-28925D01*
X56004Y-28925D02*
X56146Y-28925D01*
X56581Y-28925D02*
X56701Y-28925D01*
X58771Y-28925D02*
X59005Y-28925D01*
X46995Y-29005D02*
X47839Y-29005D01*
X48144Y-29005D02*
X49406Y-29005D01*
X50594Y-29005D02*
X55416Y-29005D01*
X55924Y-29005D02*
X56076Y-29005D01*
X56585Y-29005D02*
X56701Y-29005D01*
X58738Y-29005D02*
X59005Y-29005D01*
X46995Y-29085D02*
X47724Y-29085D01*
X48277Y-29085D02*
X49406Y-29085D01*
X50594Y-29085D02*
X55419Y-29085D01*
X55844Y-29085D02*
X55986Y-29085D01*
X56014Y-29085D02*
X56156Y-29085D01*
X56588Y-29085D02*
X56701Y-29085D01*
X58691Y-29085D02*
X59005Y-29085D01*
X46995Y-29165D02*
X47736Y-29165D01*
X48264Y-29165D02*
X49425Y-29165D01*
X50574Y-29165D02*
X55431Y-29165D01*
X55764Y-29165D02*
X55906Y-29165D01*
X56094Y-29165D02*
X56236Y-29165D01*
X56560Y-29165D02*
X56728Y-29165D01*
X58660Y-29165D02*
X59005Y-29165D01*
X46995Y-29245D02*
X47544Y-29245D01*
X47674Y-29245D02*
X47816Y-29245D01*
X48184Y-29245D02*
X48326Y-29245D01*
X48457Y-29245D02*
X49458Y-29245D01*
X50541Y-29245D02*
X55465Y-29245D01*
X55684Y-29245D02*
X55826Y-29245D01*
X56174Y-29245D02*
X56316Y-29245D01*
X56531Y-29245D02*
X56793Y-29245D01*
X58660Y-29245D02*
X59005Y-29245D01*
X46995Y-29325D02*
X47517Y-29325D01*
X47754Y-29325D02*
X47896Y-29325D01*
X48104Y-29325D02*
X48246Y-29325D01*
X48490Y-29325D02*
X49491Y-29325D01*
X50507Y-29325D02*
X55545Y-29325D01*
X55604Y-29325D02*
X55746Y-29325D01*
X56254Y-29325D02*
X56396Y-29325D01*
X56454Y-29325D02*
X56899Y-29325D01*
X58660Y-29325D02*
X59005Y-29325D01*
X46995Y-29405D02*
X47489Y-29405D01*
X47834Y-29405D02*
X47976Y-29405D01*
X48024Y-29405D02*
X48166Y-29405D01*
X48510Y-29405D02*
X49565Y-29405D01*
X50434Y-29405D02*
X55666Y-29405D01*
X56334Y-29405D02*
X56819Y-29405D01*
X58681Y-29405D02*
X59005Y-29405D01*
X46995Y-29485D02*
X47484Y-29485D01*
X47914Y-29485D02*
X48086Y-29485D01*
X48515Y-29485D02*
X49645Y-29485D01*
X50354Y-29485D02*
X55684Y-29485D01*
X56314Y-29485D02*
X56766Y-29485D01*
X58735Y-29485D02*
X59005Y-29485D01*
X46995Y-29565D02*
X47488Y-29565D01*
X47864Y-29565D02*
X48136Y-29565D01*
X48519Y-29565D02*
X49595Y-29565D01*
X50405Y-29565D02*
X55595Y-29565D01*
X56405Y-29565D02*
X56733Y-29565D01*
X58768Y-29565D02*
X59005Y-29565D01*
X46995Y-29645D02*
X47498Y-29645D01*
X47784Y-29645D02*
X47926Y-29645D01*
X48074Y-29645D02*
X48216Y-29645D01*
X48494Y-29645D02*
X49515Y-29645D01*
X50485Y-29645D02*
X55515Y-29645D01*
X56485Y-29645D02*
X56701Y-29645D01*
X58799Y-29645D02*
X59005Y-29645D01*
X46995Y-29725D02*
X47530Y-29725D01*
X47704Y-29725D02*
X47846Y-29725D01*
X48154Y-29725D02*
X48296Y-29725D01*
X48466Y-29725D02*
X49472Y-29725D01*
X50530Y-29725D02*
X55472Y-29725D01*
X56530Y-29725D02*
X56701Y-29725D01*
X58799Y-29725D02*
X59005Y-29725D01*
X46995Y-29805D02*
X47766Y-29805D01*
X48234Y-29805D02*
X49438Y-29805D01*
X50563Y-29805D02*
X55438Y-29805D01*
X56563Y-29805D02*
X56701Y-29805D01*
X58799Y-29805D02*
X59005Y-29805D01*
X46995Y-29885D02*
X47716Y-29885D01*
X48283Y-29885D02*
X49406Y-29885D01*
X50594Y-29885D02*
X55406Y-29885D01*
X56594Y-29885D02*
X56711Y-29885D01*
X58788Y-29885D02*
X59005Y-29885D01*
X46995Y-29965D02*
X47770Y-29965D01*
X48235Y-29965D02*
X49406Y-29965D01*
X50594Y-29965D02*
X55406Y-29965D01*
X56594Y-29965D02*
X56745Y-29965D01*
X58754Y-29965D02*
X59005Y-29965D01*
X46995Y-30045D02*
X49406Y-30045D01*
X50594Y-30045D02*
X55406Y-30045D01*
X56594Y-30045D02*
X56778Y-30045D01*
X57721Y-30045D02*
X57778Y-30045D01*
X58721Y-30045D02*
X59005Y-30045D01*
X46995Y-30125D02*
X49408Y-30125D01*
X50591Y-30125D02*
X55408Y-30125D01*
X56591Y-30125D02*
X56849Y-30125D01*
X57651Y-30125D02*
X57840Y-30125D01*
X58660Y-30125D02*
X59005Y-30125D01*
X46995Y-30205D02*
X49441Y-30205D01*
X50557Y-30205D02*
X55441Y-30205D01*
X56557Y-30205D02*
X56929Y-30205D01*
X57571Y-30205D02*
X57840Y-30205D01*
X58660Y-30205D02*
X59005Y-30205D01*
X46995Y-30285D02*
X49474Y-30285D01*
X50524Y-30285D02*
X55474Y-30285D01*
X56524Y-30285D02*
X57107Y-30285D01*
X57392Y-30285D02*
X57840Y-30285D01*
X58660Y-30285D02*
X59005Y-30285D01*
X46995Y-30365D02*
X49524Y-30365D01*
X50474Y-30365D02*
X55525Y-30365D01*
X56475Y-30365D02*
X57840Y-30365D01*
X58660Y-30365D02*
X59005Y-30365D01*
X46995Y-30445D02*
X49604Y-30445D01*
X50394Y-30445D02*
X55605Y-30445D01*
X56395Y-30445D02*
X57840Y-30445D01*
X58660Y-30445D02*
X59005Y-30445D01*
X46995Y-30525D02*
X49635Y-30525D01*
X50365Y-30525D02*
X55635Y-30525D01*
X56365Y-30525D02*
X57840Y-30525D01*
X58660Y-30525D02*
X59005Y-30525D01*
X46995Y-30605D02*
X49555Y-30605D01*
X50445Y-30605D02*
X55555Y-30605D01*
X56445Y-30605D02*
X57840Y-30605D01*
X58660Y-30605D02*
X59005Y-30605D01*
X46995Y-30685D02*
X49488Y-30685D01*
X50513Y-30685D02*
X55488Y-30685D01*
X56513Y-30685D02*
X57840Y-30685D01*
X58660Y-30685D02*
X59005Y-30685D01*
X46995Y-30765D02*
X49455Y-30765D01*
X50546Y-30765D02*
X55455Y-30765D01*
X56546Y-30765D02*
X57840Y-30765D01*
X58660Y-30765D02*
X59005Y-30765D01*
X46995Y-30845D02*
X49422Y-30845D01*
X50579Y-30845D02*
X55422Y-30845D01*
X56579Y-30845D02*
X57840Y-30845D01*
X58660Y-30845D02*
X59005Y-30845D01*
X46995Y-30925D02*
X49406Y-30925D01*
X50594Y-30925D02*
X55406Y-30925D01*
X56594Y-30925D02*
X57840Y-30925D01*
X58660Y-30925D02*
X59005Y-30925D01*
X46995Y-31005D02*
X47824Y-31005D01*
X48178Y-31005D02*
X49406Y-31005D01*
X50594Y-31005D02*
X55406Y-31005D01*
X56594Y-31005D02*
X57840Y-31005D01*
X58660Y-31005D02*
X59005Y-31005D01*
X46995Y-31085D02*
X47673Y-31085D01*
X48328Y-31085D02*
X49406Y-31085D01*
X50665Y-31085D02*
X55406Y-31085D01*
X56594Y-31085D02*
X57840Y-31085D01*
X58660Y-31085D02*
X59005Y-31085D01*
X46995Y-31165D02*
X47592Y-31165D01*
X48408Y-31165D02*
X49425Y-31165D01*
X50745Y-31165D02*
X55425Y-31165D01*
X56574Y-31165D02*
X57840Y-31165D01*
X58660Y-31165D02*
X59005Y-31165D01*
X46995Y-31245D02*
X47538Y-31245D01*
X48463Y-31245D02*
X49458Y-31245D01*
X50825Y-31245D02*
X55458Y-31245D01*
X56541Y-31245D02*
X57840Y-31245D01*
X58660Y-31245D02*
X59005Y-31245D01*
X46995Y-31325D02*
X47505Y-31325D01*
X48496Y-31325D02*
X49491Y-31325D01*
X50905Y-31325D02*
X55491Y-31325D01*
X56507Y-31325D02*
X57840Y-31325D01*
X58660Y-31325D02*
X59005Y-31325D01*
X46995Y-31405D02*
X47475Y-31405D01*
X48525Y-31405D02*
X49565Y-31405D01*
X50985Y-31405D02*
X55565Y-31405D01*
X56435Y-31405D02*
X57840Y-31405D01*
X58660Y-31405D02*
X59005Y-31405D01*
X46995Y-31485D02*
X47475Y-31485D01*
X48525Y-31485D02*
X49645Y-31485D01*
X51065Y-31485D02*
X55645Y-31485D01*
X56355Y-31485D02*
X57372Y-31485D01*
X57630Y-31485D02*
X57840Y-31485D01*
X58660Y-31485D02*
X59005Y-31485D01*
X46995Y-31565D02*
X47475Y-31565D01*
X48525Y-31565D02*
X49594Y-31565D01*
X51145Y-31565D02*
X55595Y-31565D01*
X56405Y-31565D02*
X57193Y-31565D01*
X57808Y-31565D02*
X57840Y-31565D01*
X58660Y-31565D02*
X59005Y-31565D01*
X46995Y-31645D02*
X47491Y-31645D01*
X48508Y-31645D02*
X49515Y-31645D01*
X51225Y-31645D02*
X55515Y-31645D01*
X56485Y-31645D02*
X57113Y-31645D01*
X58660Y-31645D02*
X59005Y-31645D01*
X46995Y-31725D02*
X47525Y-31725D01*
X48475Y-31725D02*
X49472Y-31725D01*
X51305Y-31725D02*
X55472Y-31725D01*
X56530Y-31725D02*
X57046Y-31725D01*
X58660Y-31725D02*
X59005Y-31725D01*
X46995Y-31805D02*
X47562Y-31805D01*
X48437Y-31805D02*
X49438Y-31805D01*
X51385Y-31805D02*
X55438Y-31805D01*
X56563Y-31805D02*
X57013Y-31805D01*
X58660Y-31805D02*
X59005Y-31805D01*
X46995Y-31885D02*
X47642Y-31885D01*
X48357Y-31885D02*
X49406Y-31885D01*
X51465Y-31885D02*
X55406Y-31885D01*
X56594Y-31885D02*
X56980Y-31885D01*
X58660Y-31885D02*
X59005Y-31885D01*
X46995Y-31965D02*
X47750Y-31965D01*
X48248Y-31965D02*
X49406Y-31965D01*
X51545Y-31965D02*
X55406Y-31965D01*
X56594Y-31965D02*
X56975Y-31965D01*
X58660Y-31965D02*
X59005Y-31965D01*
X46995Y-32045D02*
X49406Y-32045D01*
X51625Y-32045D02*
X55406Y-32045D01*
X56625Y-32045D02*
X56975Y-32045D01*
X58660Y-32045D02*
X59005Y-32045D01*
X46995Y-32125D02*
X49408Y-32125D01*
X51705Y-32125D02*
X55408Y-32125D01*
X56705Y-32125D02*
X56983Y-32125D01*
X58660Y-32125D02*
X59005Y-32125D01*
X46995Y-32205D02*
X49441Y-32205D01*
X50557Y-32205D02*
X50625Y-32205D01*
X51785Y-32205D02*
X55441Y-32205D01*
X56785Y-32205D02*
X57016Y-32205D01*
X58660Y-32205D02*
X59005Y-32205D01*
X46995Y-32285D02*
X49474Y-32285D01*
X50524Y-32285D02*
X50705Y-32285D01*
X51865Y-32285D02*
X55474Y-32285D01*
X56865Y-32285D02*
X57050Y-32285D01*
X58660Y-32285D02*
X59005Y-32285D01*
X46995Y-32365D02*
X49525Y-32365D01*
X50474Y-32365D02*
X50785Y-32365D01*
X51945Y-32365D02*
X55525Y-32365D01*
X56945Y-32365D02*
X57122Y-32365D01*
X58660Y-32365D02*
X59005Y-32365D01*
X46995Y-32445D02*
X49605Y-32445D01*
X50393Y-32445D02*
X50865Y-32445D01*
X52025Y-32445D02*
X55605Y-32445D01*
X57025Y-32445D02*
X57202Y-32445D01*
X57797Y-32445D02*
X57840Y-32445D01*
X58660Y-32445D02*
X59005Y-32445D01*
X46995Y-32525D02*
X49635Y-32525D01*
X50365Y-32525D02*
X50945Y-32525D01*
X52105Y-32525D02*
X55635Y-32525D01*
X57083Y-32525D02*
X57840Y-32525D01*
X58660Y-32525D02*
X59005Y-32525D01*
X46995Y-32605D02*
X49555Y-32605D01*
X50445Y-32605D02*
X51025Y-32605D01*
X52185Y-32605D02*
X55555Y-32605D01*
X57129Y-32605D02*
X57840Y-32605D01*
X58660Y-32605D02*
X59005Y-32605D01*
X46995Y-32685D02*
X49488Y-32685D01*
X50513Y-32685D02*
X51105Y-32685D01*
X52265Y-32685D02*
X55488Y-32685D01*
X57145Y-32685D02*
X57840Y-32685D01*
X58660Y-32685D02*
X59005Y-32685D01*
X46995Y-32765D02*
X49455Y-32765D01*
X50546Y-32765D02*
X51185Y-32765D01*
X52345Y-32765D02*
X55455Y-32765D01*
X57157Y-32765D02*
X57840Y-32765D01*
X58660Y-32765D02*
X59005Y-32765D01*
X46995Y-32845D02*
X49422Y-32845D01*
X50579Y-32845D02*
X51265Y-32845D01*
X52425Y-32845D02*
X55422Y-32845D01*
X57157Y-32845D02*
X57840Y-32845D01*
X58660Y-32845D02*
X59005Y-32845D01*
X46995Y-32925D02*
X49406Y-32925D01*
X50594Y-32925D02*
X51345Y-32925D01*
X52505Y-32925D02*
X55406Y-32925D01*
X57157Y-32925D02*
X57840Y-32925D01*
X58660Y-32925D02*
X59005Y-32925D01*
X46995Y-33005D02*
X49406Y-33005D01*
X50594Y-33005D02*
X51425Y-33005D01*
X52585Y-33005D02*
X55406Y-33005D01*
X57157Y-33005D02*
X57840Y-33005D01*
X58660Y-33005D02*
X59005Y-33005D01*
X46995Y-33085D02*
X49406Y-33085D01*
X50594Y-33085D02*
X51505Y-33085D01*
X52665Y-33085D02*
X55406Y-33085D01*
X57157Y-33085D02*
X57835Y-33085D01*
X58660Y-33085D02*
X59005Y-33085D01*
X46995Y-33165D02*
X49425Y-33165D01*
X50574Y-33165D02*
X51585Y-33165D01*
X52745Y-33165D02*
X55425Y-33165D01*
X57157Y-33165D02*
X57755Y-33165D01*
X58660Y-33165D02*
X59005Y-33165D01*
X46995Y-33245D02*
X49458Y-33245D01*
X50541Y-33245D02*
X51665Y-33245D01*
X52825Y-33245D02*
X55458Y-33245D01*
X57157Y-33245D02*
X57675Y-33245D01*
X58660Y-33245D02*
X59005Y-33245D01*
X46995Y-33325D02*
X49491Y-33325D01*
X50507Y-33325D02*
X51745Y-33325D01*
X52905Y-33325D02*
X55491Y-33325D01*
X57157Y-33325D02*
X57595Y-33325D01*
X58645Y-33325D02*
X59005Y-33325D01*
X46995Y-33405D02*
X49564Y-33405D01*
X50434Y-33405D02*
X51825Y-33405D01*
X52985Y-33405D02*
X55565Y-33405D01*
X57157Y-33405D02*
X57515Y-33405D01*
X58629Y-33405D02*
X59005Y-33405D01*
X46995Y-33485D02*
X49644Y-33485D01*
X50354Y-33485D02*
X51905Y-33485D01*
X53065Y-33485D02*
X55645Y-33485D01*
X57157Y-33485D02*
X57372Y-33485D01*
X58576Y-33485D02*
X59005Y-33485D01*
X46995Y-33565D02*
X49595Y-33565D01*
X50405Y-33565D02*
X51985Y-33565D01*
X53145Y-33565D02*
X55595Y-33565D01*
X57157Y-33565D02*
X57193Y-33565D01*
X58513Y-33565D02*
X59005Y-33565D01*
X46995Y-33645D02*
X49515Y-33645D01*
X50485Y-33645D02*
X52065Y-33645D01*
X53225Y-33645D02*
X55515Y-33645D01*
X58433Y-33645D02*
X59005Y-33645D01*
X46995Y-33725D02*
X49472Y-33725D01*
X50530Y-33725D02*
X52145Y-33725D01*
X53305Y-33725D02*
X55472Y-33725D01*
X58353Y-33725D02*
X59005Y-33725D01*
X46995Y-33805D02*
X49438Y-33805D01*
X50563Y-33805D02*
X52225Y-33805D01*
X53385Y-33805D02*
X55438Y-33805D01*
X58273Y-33805D02*
X59005Y-33805D01*
X46995Y-33885D02*
X49406Y-33885D01*
X50594Y-33885D02*
X52305Y-33885D01*
X53465Y-33885D02*
X55406Y-33885D01*
X58193Y-33885D02*
X59005Y-33885D01*
X46995Y-33965D02*
X49406Y-33965D01*
X50594Y-33965D02*
X52385Y-33965D01*
X53545Y-33965D02*
X55406Y-33965D01*
X58113Y-33965D02*
X59005Y-33965D01*
X46995Y-34045D02*
X49406Y-34045D01*
X50594Y-34045D02*
X52465Y-34045D01*
X53625Y-34045D02*
X55406Y-34045D01*
X58033Y-34045D02*
X59005Y-34045D01*
X46995Y-34125D02*
X49408Y-34125D01*
X50591Y-34125D02*
X52545Y-34125D01*
X53705Y-34125D02*
X55408Y-34125D01*
X58016Y-34125D02*
X59005Y-34125D01*
X46995Y-34205D02*
X49441Y-34205D01*
X50557Y-34205D02*
X52625Y-34205D01*
X53785Y-34205D02*
X55441Y-34205D01*
X57983Y-34205D02*
X59005Y-34205D01*
X46995Y-34285D02*
X49474Y-34285D01*
X50524Y-34285D02*
X52705Y-34285D01*
X53865Y-34285D02*
X55474Y-34285D01*
X57950Y-34285D02*
X59005Y-34285D01*
X46995Y-34365D02*
X49524Y-34365D01*
X50474Y-34365D02*
X52785Y-34365D01*
X53945Y-34365D02*
X55525Y-34365D01*
X57910Y-34365D02*
X59005Y-34365D01*
X46995Y-34445D02*
X49604Y-34445D01*
X50394Y-34445D02*
X52865Y-34445D01*
X54025Y-34445D02*
X55605Y-34445D01*
X57910Y-34445D02*
X59005Y-34445D01*
X46995Y-34525D02*
X49635Y-34525D01*
X50365Y-34525D02*
X52945Y-34525D01*
X54105Y-34525D02*
X55635Y-34525D01*
X57910Y-34525D02*
X59005Y-34525D01*
X46995Y-34605D02*
X49555Y-34605D01*
X50445Y-34605D02*
X53025Y-34605D01*
X54185Y-34605D02*
X55555Y-34605D01*
X57910Y-34605D02*
X59005Y-34605D01*
X46995Y-34685D02*
X49488Y-34685D01*
X50513Y-34685D02*
X53105Y-34685D01*
X54256Y-34685D02*
X55488Y-34685D01*
X57961Y-34685D02*
X59005Y-34685D01*
X46995Y-34765D02*
X49455Y-34765D01*
X50546Y-34765D02*
X53185Y-34765D01*
X54310Y-34765D02*
X55455Y-34765D01*
X57997Y-34765D02*
X59005Y-34765D01*
X46995Y-34845D02*
X49422Y-34845D01*
X50579Y-34845D02*
X53265Y-34845D01*
X54337Y-34845D02*
X55422Y-34845D01*
X58030Y-34845D02*
X59005Y-34845D01*
X46995Y-34925D02*
X49406Y-34925D01*
X50594Y-34925D02*
X53345Y-34925D01*
X54353Y-34925D02*
X55406Y-34925D01*
X58049Y-34925D02*
X59005Y-34925D01*
X46995Y-35005D02*
X47839Y-35005D01*
X48144Y-35005D02*
X49406Y-35005D01*
X50594Y-35005D02*
X53425Y-35005D01*
X54357Y-35005D02*
X55406Y-35005D01*
X58049Y-35005D02*
X59005Y-35005D01*
X46995Y-35085D02*
X47724Y-35085D01*
X48277Y-35085D02*
X49406Y-35085D01*
X50594Y-35085D02*
X53505Y-35085D01*
X54357Y-35085D02*
X55406Y-35085D01*
X58049Y-35085D02*
X59005Y-35085D01*
X46995Y-35165D02*
X47736Y-35165D01*
X48264Y-35165D02*
X49425Y-35165D01*
X50574Y-35165D02*
X53537Y-35165D01*
X54357Y-35165D02*
X55425Y-35165D01*
X58025Y-35165D02*
X59005Y-35165D01*
X46995Y-35245D02*
X47544Y-35245D01*
X47674Y-35245D02*
X47816Y-35245D01*
X48184Y-35245D02*
X48326Y-35245D01*
X48457Y-35245D02*
X49458Y-35245D01*
X50541Y-35245D02*
X53537Y-35245D01*
X54357Y-35245D02*
X55458Y-35245D01*
X57992Y-35245D02*
X59005Y-35245D01*
X46995Y-35325D02*
X47517Y-35325D01*
X47754Y-35325D02*
X47896Y-35325D01*
X48104Y-35325D02*
X48246Y-35325D01*
X48490Y-35325D02*
X49491Y-35325D01*
X50507Y-35325D02*
X53537Y-35325D01*
X54357Y-35325D02*
X55491Y-35325D01*
X57951Y-35325D02*
X59005Y-35325D01*
X46995Y-35405D02*
X47489Y-35405D01*
X47834Y-35405D02*
X47976Y-35405D01*
X48024Y-35405D02*
X48166Y-35405D01*
X48510Y-35405D02*
X49564Y-35405D01*
X50434Y-35405D02*
X53537Y-35405D01*
X54357Y-35405D02*
X55565Y-35405D01*
X57871Y-35405D02*
X59005Y-35405D01*
X46995Y-35485D02*
X47484Y-35485D01*
X47914Y-35485D02*
X48086Y-35485D01*
X48515Y-35485D02*
X49644Y-35485D01*
X50354Y-35485D02*
X53537Y-35485D01*
X54357Y-35485D02*
X55645Y-35485D01*
X57157Y-35485D02*
X57237Y-35485D01*
X57762Y-35485D02*
X59005Y-35485D01*
X46995Y-35565D02*
X47488Y-35565D01*
X47864Y-35565D02*
X48136Y-35565D01*
X48519Y-35565D02*
X49595Y-35565D01*
X50405Y-35565D02*
X53537Y-35565D01*
X54357Y-35565D02*
X55595Y-35565D01*
X57157Y-35565D02*
X59005Y-35565D01*
X46995Y-35645D02*
X47498Y-35645D01*
X47784Y-35645D02*
X47926Y-35645D01*
X48074Y-35645D02*
X48216Y-35645D01*
X48494Y-35645D02*
X49515Y-35645D01*
X50485Y-35645D02*
X53537Y-35645D01*
X54357Y-35645D02*
X55515Y-35645D01*
X57157Y-35645D02*
X59005Y-35645D01*
X46995Y-35725D02*
X47530Y-35725D01*
X47704Y-35725D02*
X47846Y-35725D01*
X48154Y-35725D02*
X48296Y-35725D01*
X48466Y-35725D02*
X49472Y-35725D01*
X50530Y-35725D02*
X53537Y-35725D01*
X54357Y-35725D02*
X55472Y-35725D01*
X57157Y-35725D02*
X59005Y-35725D01*
X46995Y-35805D02*
X47766Y-35805D01*
X48234Y-35805D02*
X49438Y-35805D01*
X50563Y-35805D02*
X53537Y-35805D01*
X54357Y-35805D02*
X55438Y-35805D01*
X57157Y-35805D02*
X59005Y-35805D01*
X46995Y-35885D02*
X47716Y-35885D01*
X48283Y-35885D02*
X49406Y-35885D01*
X50594Y-35885D02*
X53537Y-35885D01*
X54357Y-35885D02*
X55406Y-35885D01*
X57157Y-35885D02*
X59005Y-35885D01*
X46995Y-35965D02*
X47770Y-35965D01*
X48235Y-35965D02*
X49406Y-35965D01*
X50594Y-35965D02*
X53537Y-35965D01*
X54357Y-35965D02*
X55406Y-35965D01*
X57157Y-35965D02*
X59005Y-35965D01*
X46995Y-36045D02*
X49406Y-36045D01*
X50594Y-36045D02*
X53537Y-36045D01*
X54357Y-36045D02*
X55406Y-36045D01*
X57157Y-36045D02*
X59005Y-36045D01*
X46995Y-36125D02*
X49408Y-36125D01*
X50591Y-36125D02*
X53537Y-36125D01*
X54357Y-36125D02*
X55408Y-36125D01*
X57157Y-36125D02*
X59005Y-36125D01*
X46995Y-36205D02*
X49441Y-36205D01*
X50557Y-36205D02*
X53537Y-36205D01*
X54357Y-36205D02*
X55441Y-36205D01*
X57157Y-36205D02*
X59005Y-36205D01*
X46995Y-36285D02*
X49474Y-36285D01*
X50524Y-36285D02*
X53537Y-36285D01*
X54357Y-36285D02*
X55474Y-36285D01*
X57157Y-36285D02*
X59005Y-36285D01*
X46995Y-36365D02*
X49525Y-36365D01*
X50474Y-36365D02*
X53537Y-36365D01*
X54357Y-36365D02*
X55525Y-36365D01*
X57157Y-36365D02*
X59005Y-36365D01*
X46995Y-36445D02*
X49605Y-36445D01*
X50393Y-36445D02*
X53537Y-36445D01*
X54357Y-36445D02*
X55605Y-36445D01*
X57157Y-36445D02*
X59005Y-36445D01*
X46995Y-36525D02*
X49634Y-36525D01*
X50365Y-36525D02*
X53537Y-36525D01*
X54357Y-36525D02*
X55635Y-36525D01*
X57157Y-36525D02*
X59005Y-36525D01*
X46995Y-36605D02*
X49555Y-36605D01*
X50445Y-36605D02*
X53537Y-36605D01*
X54357Y-36605D02*
X55555Y-36605D01*
X57157Y-36605D02*
X59005Y-36605D01*
X46995Y-36685D02*
X49488Y-36685D01*
X50513Y-36685D02*
X53537Y-36685D01*
X54357Y-36685D02*
X55488Y-36685D01*
X57157Y-36685D02*
X59005Y-36685D01*
X46995Y-36765D02*
X49455Y-36765D01*
X50546Y-36765D02*
X53537Y-36765D01*
X54357Y-36765D02*
X55455Y-36765D01*
X57157Y-36765D02*
X59005Y-36765D01*
X46995Y-36845D02*
X49422Y-36845D01*
X50579Y-36845D02*
X53537Y-36845D01*
X54357Y-36845D02*
X55422Y-36845D01*
X57157Y-36845D02*
X59005Y-36845D01*
X46995Y-36925D02*
X49406Y-36925D01*
X50594Y-36925D02*
X53537Y-36925D01*
X54357Y-36925D02*
X55406Y-36925D01*
X57157Y-36925D02*
X59005Y-36925D01*
X46995Y-37005D02*
X47823Y-37005D01*
X48178Y-37005D02*
X49406Y-37005D01*
X50594Y-37005D02*
X53537Y-37005D01*
X54357Y-37005D02*
X55406Y-37005D01*
X57157Y-37005D02*
X59005Y-37005D01*
X46995Y-37085D02*
X47673Y-37085D01*
X48328Y-37085D02*
X49406Y-37085D01*
X50594Y-37085D02*
X53537Y-37085D01*
X54357Y-37085D02*
X55406Y-37085D01*
X57157Y-37085D02*
X59005Y-37085D01*
X46995Y-37165D02*
X47592Y-37165D01*
X48408Y-37165D02*
X49425Y-37165D01*
X50574Y-37165D02*
X53537Y-37165D01*
X54357Y-37165D02*
X55425Y-37165D01*
X57157Y-37165D02*
X59005Y-37165D01*
X46995Y-37245D02*
X47538Y-37245D01*
X48463Y-37245D02*
X49458Y-37245D01*
X50541Y-37245D02*
X53537Y-37245D01*
X54357Y-37245D02*
X55458Y-37245D01*
X57157Y-37245D02*
X59005Y-37245D01*
X46995Y-37325D02*
X47505Y-37325D01*
X48496Y-37325D02*
X49491Y-37325D01*
X50507Y-37325D02*
X53537Y-37325D01*
X54357Y-37325D02*
X55491Y-37325D01*
X57157Y-37325D02*
X59005Y-37325D01*
X46995Y-37405D02*
X47475Y-37405D01*
X48525Y-37405D02*
X49564Y-37405D01*
X50434Y-37405D02*
X53537Y-37405D01*
X54357Y-37405D02*
X55565Y-37405D01*
X57157Y-37405D02*
X59005Y-37405D01*
X46995Y-37485D02*
X47475Y-37485D01*
X48525Y-37485D02*
X49644Y-37485D01*
X50353Y-37485D02*
X53522Y-37485D01*
X54372Y-37485D02*
X55645Y-37485D01*
X57157Y-37485D02*
X59005Y-37485D01*
X46995Y-37565D02*
X47475Y-37565D01*
X48525Y-37565D02*
X49595Y-37565D01*
X50405Y-37565D02*
X53522Y-37565D01*
X54372Y-37565D02*
X55595Y-37565D01*
X57157Y-37565D02*
X59005Y-37565D01*
X46995Y-37645D02*
X47491Y-37645D01*
X48508Y-37645D02*
X49515Y-37645D01*
X50485Y-37645D02*
X53523Y-37645D01*
X54370Y-37645D02*
X55515Y-37645D01*
X57157Y-37645D02*
X59005Y-37645D01*
X46995Y-37725D02*
X47525Y-37725D01*
X48475Y-37725D02*
X49472Y-37725D01*
X50530Y-37725D02*
X53556Y-37725D01*
X54337Y-37725D02*
X55472Y-37725D01*
X57157Y-37725D02*
X59005Y-37725D01*
X46995Y-37805D02*
X47562Y-37805D01*
X48437Y-37805D02*
X49438Y-37805D01*
X50563Y-37805D02*
X53594Y-37805D01*
X54300Y-37805D02*
X55438Y-37805D01*
X57157Y-37805D02*
X59005Y-37805D01*
X46995Y-37885D02*
X47642Y-37885D01*
X48357Y-37885D02*
X49406Y-37885D01*
X50594Y-37885D02*
X53674Y-37885D01*
X54220Y-37885D02*
X55406Y-37885D01*
X57157Y-37885D02*
X59005Y-37885D01*
X46995Y-37965D02*
X47750Y-37965D01*
X48248Y-37965D02*
X49406Y-37965D01*
X50594Y-37965D02*
X53821Y-37965D01*
X54072Y-37965D02*
X55406Y-37965D01*
X57157Y-37965D02*
X59005Y-37965D01*
X46995Y-38045D02*
X49406Y-38045D01*
X50594Y-38045D02*
X55406Y-38045D01*
X57157Y-38045D02*
X59005Y-38045D01*
X46995Y-38125D02*
X49408Y-38125D01*
X50591Y-38125D02*
X55408Y-38125D01*
X57157Y-38125D02*
X59005Y-38125D01*
X46995Y-38205D02*
X49441Y-38205D01*
X50557Y-38205D02*
X55441Y-38205D01*
X57157Y-38205D02*
X59005Y-38205D01*
X46995Y-38285D02*
X49474Y-38285D01*
X50524Y-38285D02*
X55474Y-38285D01*
X57157Y-38285D02*
X59005Y-38285D01*
X46995Y-38365D02*
X49524Y-38365D01*
X50474Y-38365D02*
X55525Y-38365D01*
X57157Y-38365D02*
X59005Y-38365D01*
X46995Y-38445D02*
X49604Y-38445D01*
X50394Y-38445D02*
X55605Y-38445D01*
X57157Y-38445D02*
X59005Y-38445D01*
X46995Y-38525D02*
X49635Y-38525D01*
X50365Y-38525D02*
X55635Y-38525D01*
X57157Y-38525D02*
X57227Y-38525D01*
X57773Y-38525D02*
X59005Y-38525D01*
X46995Y-38605D02*
X49555Y-38605D01*
X50445Y-38605D02*
X55555Y-38605D01*
X57157Y-38605D02*
X57175Y-38605D01*
X57175Y-38605D02*
X57197Y-38605D01*
X57804Y-38605D02*
X59005Y-38605D01*
X46995Y-38685D02*
X49488Y-38685D01*
X50513Y-38685D02*
X55488Y-38685D01*
X57744Y-38685D02*
X59005Y-38685D01*
X46995Y-38765D02*
X49455Y-38765D01*
X50546Y-38765D02*
X55455Y-38765D01*
X57664Y-38765D02*
X57806Y-38765D01*
X57991Y-38765D02*
X59005Y-38765D01*
X46995Y-38845D02*
X49422Y-38845D01*
X50579Y-38845D02*
X55422Y-38845D01*
X57584Y-38845D02*
X57726Y-38845D01*
X58024Y-38845D02*
X59005Y-38845D01*
X46995Y-38925D02*
X49406Y-38925D01*
X50594Y-38925D02*
X55406Y-38925D01*
X57504Y-38925D02*
X57646Y-38925D01*
X58036Y-38925D02*
X59005Y-38925D01*
X46995Y-39005D02*
X49406Y-39005D01*
X50594Y-39005D02*
X55406Y-39005D01*
X57424Y-39005D02*
X57424Y-39005D01*
X57434Y-39005D02*
X57575Y-39005D01*
X58040Y-39005D02*
X59005Y-39005D01*
X46995Y-39085D02*
X49406Y-39085D01*
X50594Y-39085D02*
X55406Y-39085D01*
X57344Y-39085D02*
X57344Y-39085D01*
X57515Y-39085D02*
X57655Y-39085D01*
X58040Y-39085D02*
X59005Y-39085D01*
X46995Y-39165D02*
X49425Y-39165D01*
X50574Y-39165D02*
X55425Y-39165D01*
X57264Y-39165D02*
X57264Y-39165D01*
X57595Y-39165D02*
X57735Y-39165D01*
X58012Y-39165D02*
X59005Y-39165D01*
X46995Y-39245D02*
X49458Y-39245D01*
X50541Y-39245D02*
X55458Y-39245D01*
X57184Y-39245D02*
X57184Y-39245D01*
X57675Y-39245D02*
X57815Y-39245D01*
X57984Y-39245D02*
X59005Y-39245D01*
X46995Y-39325D02*
X49491Y-39325D01*
X50507Y-39325D02*
X55491Y-39325D01*
X57755Y-39325D02*
X59005Y-39325D01*
X46995Y-39405D02*
X49564Y-39405D01*
X50434Y-39405D02*
X55565Y-39405D01*
X57157Y-39405D02*
X57199Y-39405D01*
X57800Y-39405D02*
X59005Y-39405D01*
X46995Y-39485D02*
X49644Y-39485D01*
X50354Y-39485D02*
X55645Y-39485D01*
X57157Y-39485D02*
X57255Y-39485D01*
X57749Y-39485D02*
X59005Y-39485D01*
X46995Y-39565D02*
X49595Y-39565D01*
X50405Y-39565D02*
X55595Y-39565D01*
X57157Y-39565D02*
X59005Y-39565D01*
X46995Y-39645D02*
X49515Y-39645D01*
X50485Y-39645D02*
X55515Y-39645D01*
X57157Y-39645D02*
X59005Y-39645D01*
X46995Y-39725D02*
X49472Y-39725D01*
X50530Y-39725D02*
X55472Y-39725D01*
X57157Y-39725D02*
X59005Y-39725D01*
X46995Y-39805D02*
X49438Y-39805D01*
X50563Y-39805D02*
X55438Y-39805D01*
X57157Y-39805D02*
X59005Y-39805D01*
X46995Y-39885D02*
X49406Y-39885D01*
X50594Y-39885D02*
X55406Y-39885D01*
X57157Y-39885D02*
X59005Y-39885D01*
X46995Y-39965D02*
X49406Y-39965D01*
X50594Y-39965D02*
X55406Y-39965D01*
X57157Y-39965D02*
X59005Y-39965D01*
X46995Y-40045D02*
X49406Y-40045D01*
X50594Y-40045D02*
X55406Y-40045D01*
X57157Y-40045D02*
X59005Y-40045D01*
X46995Y-40125D02*
X49408Y-40125D01*
X50591Y-40125D02*
X55408Y-40125D01*
X57157Y-40125D02*
X59005Y-40125D01*
X46995Y-40205D02*
X49441Y-40205D01*
X50557Y-40205D02*
X55441Y-40205D01*
X57157Y-40205D02*
X59005Y-40205D01*
X46995Y-40285D02*
X49474Y-40285D01*
X50524Y-40285D02*
X55474Y-40285D01*
X57157Y-40285D02*
X59005Y-40285D01*
X46995Y-40365D02*
X49525Y-40365D01*
X50475Y-40365D02*
X55525Y-40365D01*
X57157Y-40365D02*
X59005Y-40365D01*
X46995Y-40445D02*
X49605Y-40445D01*
X50395Y-40445D02*
X55605Y-40445D01*
X57157Y-40445D02*
X59005Y-40445D01*
X46995Y-40525D02*
X49715Y-40525D01*
X50285Y-40525D02*
X55715Y-40525D01*
X56285Y-40525D02*
X56337Y-40525D01*
X57157Y-40525D02*
X59005Y-40525D01*
X46995Y-40605D02*
X56337Y-40605D01*
X57157Y-40605D02*
X59005Y-40605D01*
X46995Y-40685D02*
X56337Y-40685D01*
X57157Y-40685D02*
X59005Y-40685D01*
X46995Y-40765D02*
X56337Y-40765D01*
X57157Y-40765D02*
X59005Y-40765D01*
X46995Y-40845D02*
X56337Y-40845D01*
X57157Y-40845D02*
X59005Y-40845D01*
X46995Y-40925D02*
X47993Y-40925D01*
X48428Y-40925D02*
X48572Y-40925D01*
X49007Y-40925D02*
X56337Y-40925D01*
X57157Y-40925D02*
X57281Y-40925D01*
X57720Y-40925D02*
X59005Y-40925D01*
X46995Y-41005D02*
X47350Y-41005D01*
X47651Y-41005D02*
X47920Y-41005D01*
X48450Y-41005D02*
X48550Y-41005D01*
X49081Y-41005D02*
X56337Y-41005D01*
X57875Y-41005D02*
X58350Y-41005D01*
X58651Y-41005D02*
X59005Y-41005D01*
X46995Y-41085D02*
X47187Y-41085D01*
X47813Y-41085D02*
X47887Y-41085D01*
X48450Y-41085D02*
X48550Y-41085D01*
X49114Y-41085D02*
X56337Y-41085D01*
X57955Y-41085D02*
X58187Y-41085D01*
X58813Y-41085D02*
X59005Y-41085D01*
X46995Y-41165D02*
X47107Y-41165D01*
X48450Y-41165D02*
X48550Y-41165D01*
X49115Y-41165D02*
X56337Y-41165D01*
X58027Y-41165D02*
X58107Y-41165D01*
X58893Y-41165D02*
X59005Y-41165D01*
X46995Y-41245D02*
X47049Y-41245D01*
X48450Y-41245D02*
X48550Y-41245D01*
X49115Y-41245D02*
X56337Y-41245D01*
X58952Y-41245D02*
X59005Y-41245D01*
X46995Y-41325D02*
X47016Y-41325D01*
X48450Y-41325D02*
X48550Y-41325D01*
X49115Y-41325D02*
X56337Y-41325D01*
X58986Y-41325D02*
X59005Y-41325D01*
X48450Y-41405D02*
X48550Y-41405D01*
X49098Y-41405D02*
X56337Y-41405D01*
X48450Y-41485D02*
X56337Y-41485D01*
X49068Y-41565D02*
X56337Y-41565D01*
X49114Y-41645D02*
X56337Y-41645D01*
X49114Y-41725D02*
X56337Y-41725D01*
X49114Y-41805D02*
X56337Y-41805D01*
X49114Y-41885D02*
X56337Y-41885D01*
X49092Y-41965D02*
X56337Y-41965D01*
X49037Y-42045D02*
X56337Y-42045D01*
X48995Y-42125D02*
X56337Y-42125D01*
X49044Y-42205D02*
X56337Y-42205D01*
X49077Y-42285D02*
X56337Y-42285D01*
X49110Y-42365D02*
X56337Y-42365D01*
X49115Y-42445D02*
X56337Y-42445D01*
X49115Y-42525D02*
X56337Y-42525D01*
X49115Y-42605D02*
X56337Y-42605D01*
X49089Y-42685D02*
X56337Y-42685D01*
X49055Y-42765D02*
X56337Y-42765D01*
X49022Y-42845D02*
X56337Y-42845D01*
X48943Y-42925D02*
X56337Y-42925D01*
X48875Y-43005D02*
X56337Y-43005D01*
X48955Y-43085D02*
X56337Y-43085D01*
X49027Y-43165D02*
X56337Y-43165D01*
X49060Y-43245D02*
X56337Y-43245D01*
X49093Y-43325D02*
X56337Y-43325D01*
X49115Y-43405D02*
X56337Y-43405D01*
X49115Y-43485D02*
X56337Y-43485D01*
X49115Y-43565D02*
X56337Y-43565D01*
X46995Y-43645D02*
X47002Y-43645D01*
X49105Y-43645D02*
X56337Y-43645D01*
X46995Y-43725D02*
X47035Y-43725D01*
X49072Y-43725D02*
X56337Y-43725D01*
X46995Y-43805D02*
X47077Y-43805D01*
X47923Y-43805D02*
X47960Y-43805D01*
X49039Y-43805D02*
X56337Y-43805D01*
X46995Y-43885D02*
X47157Y-43885D01*
X47843Y-43885D02*
X48015Y-43885D01*
X48984Y-43885D02*
X56337Y-43885D01*
X46995Y-43965D02*
X47277Y-43965D01*
X47723Y-43965D02*
X48095Y-43965D01*
X48904Y-43965D02*
X56337Y-43965D01*
X46995Y-44045D02*
X48208Y-44045D01*
X48790Y-44045D02*
X56337Y-44045D01*
X46995Y-44125D02*
X56337Y-44125D01*
X46995Y-44205D02*
X56337Y-44205D01*
X46995Y-44285D02*
X56337Y-44285D01*
X46995Y-44365D02*
X56337Y-44365D01*
X46995Y-44445D02*
X56337Y-44445D01*
X46995Y-44525D02*
X56337Y-44525D01*
X46995Y-44605D02*
X56337Y-44605D01*
X46995Y-44685D02*
X56337Y-44685D01*
X46995Y-44765D02*
X56337Y-44765D01*
X46995Y-44845D02*
X56337Y-44845D01*
X46995Y-44925D02*
X56337Y-44925D01*
X46995Y-45005D02*
X47660Y-45005D01*
X48343Y-45005D02*
X50339Y-45005D01*
X50644Y-45005D02*
X55339Y-45005D01*
X55644Y-45005D02*
X56337Y-45005D01*
X46995Y-45085D02*
X47467Y-45085D01*
X48535Y-45085D02*
X50224Y-45085D01*
X50777Y-45085D02*
X55224Y-45085D01*
X55777Y-45085D02*
X56337Y-45085D01*
X46995Y-45165D02*
X47351Y-45165D01*
X48650Y-45165D02*
X50236Y-45165D01*
X50764Y-45165D02*
X55236Y-45165D01*
X55764Y-45165D02*
X56337Y-45165D01*
X46995Y-45245D02*
X47271Y-45245D01*
X48730Y-45245D02*
X50044Y-45245D01*
X50174Y-45245D02*
X50316Y-45245D01*
X50684Y-45245D02*
X50826Y-45245D01*
X50957Y-45245D02*
X55044Y-45245D01*
X55174Y-45245D02*
X55316Y-45245D01*
X55684Y-45245D02*
X55826Y-45245D01*
X55957Y-45245D02*
X56337Y-45245D01*
X46995Y-45325D02*
X47191Y-45325D01*
X48810Y-45325D02*
X50017Y-45325D01*
X50254Y-45325D02*
X50396Y-45325D01*
X50604Y-45325D02*
X50746Y-45325D01*
X50990Y-45325D02*
X55017Y-45325D01*
X55254Y-45325D02*
X55396Y-45325D01*
X55604Y-45325D02*
X55746Y-45325D01*
X55990Y-45325D02*
X56337Y-45325D01*
X46995Y-45405D02*
X47110Y-45405D01*
X48890Y-45405D02*
X49989Y-45405D01*
X50334Y-45405D02*
X50476Y-45405D01*
X50524Y-45405D02*
X50666Y-45405D01*
X51010Y-45405D02*
X54989Y-45405D01*
X55334Y-45405D02*
X55476Y-45405D01*
X55524Y-45405D02*
X55666Y-45405D01*
X56010Y-45405D02*
X56337Y-45405D01*
X46995Y-45485D02*
X47077Y-45485D01*
X48923Y-45485D02*
X49984Y-45485D01*
X50414Y-45485D02*
X50586Y-45485D01*
X51015Y-45485D02*
X54984Y-45485D01*
X55414Y-45485D02*
X55586Y-45485D01*
X56015Y-45485D02*
X56337Y-45485D01*
X46995Y-45565D02*
X47044Y-45565D01*
X48956Y-45565D02*
X49988Y-45565D01*
X50364Y-45565D02*
X50636Y-45565D01*
X51019Y-45565D02*
X54988Y-45565D01*
X55364Y-45565D02*
X55636Y-45565D01*
X56019Y-45565D02*
X56337Y-45565D01*
X46995Y-45645D02*
X47010Y-45645D01*
X48990Y-45645D02*
X49998Y-45645D01*
X50284Y-45645D02*
X50426Y-45645D01*
X50574Y-45645D02*
X50716Y-45645D01*
X50994Y-45645D02*
X54998Y-45645D01*
X55284Y-45645D02*
X55426Y-45645D01*
X55574Y-45645D02*
X55716Y-45645D01*
X55994Y-45645D02*
X56337Y-45645D01*
X49023Y-45725D02*
X50030Y-45725D01*
X50204Y-45725D02*
X50346Y-45725D01*
X50654Y-45725D02*
X50796Y-45725D01*
X50966Y-45725D02*
X55030Y-45725D01*
X55204Y-45725D02*
X55346Y-45725D01*
X55654Y-45725D02*
X55796Y-45725D01*
X55966Y-45725D02*
X56337Y-45725D01*
X49050Y-45805D02*
X50266Y-45805D01*
X50734Y-45805D02*
X55266Y-45805D01*
X55734Y-45805D02*
X56337Y-45805D01*
X49050Y-45885D02*
X50216Y-45885D01*
X50783Y-45885D02*
X55216Y-45885D01*
X55783Y-45885D02*
X56337Y-45885D01*
X49050Y-45965D02*
X50270Y-45965D01*
X50735Y-45965D02*
X55270Y-45965D01*
X55735Y-45965D02*
X56337Y-45965D01*
X49050Y-46045D02*
X56337Y-46045D01*
X49050Y-46125D02*
X56337Y-46125D01*
X49050Y-46205D02*
X56337Y-46205D01*
X49018Y-46285D02*
X56337Y-46285D01*
X46995Y-46365D02*
X47015Y-46365D01*
X48985Y-46365D02*
X56337Y-46365D01*
X58985Y-46365D02*
X59005Y-46365D01*
X46995Y-46445D02*
X47048Y-46445D01*
X48952Y-46445D02*
X56337Y-46445D01*
X58952Y-46445D02*
X59005Y-46445D01*
X46995Y-46525D02*
X47081Y-46525D01*
X48919Y-46525D02*
X56337Y-46525D01*
X58919Y-46525D02*
X59005Y-46525D01*
X46995Y-46605D02*
X47120Y-46605D01*
X48879Y-46605D02*
X56337Y-46605D01*
X58879Y-46605D02*
X59005Y-46605D01*
X46995Y-46685D02*
X47200Y-46685D01*
X48799Y-46685D02*
X56337Y-46685D01*
X57157Y-46685D02*
X57200Y-46685D01*
X58799Y-46685D02*
X59005Y-46685D01*
X46995Y-46765D02*
X47280Y-46765D01*
X48719Y-46765D02*
X56337Y-46765D01*
X57157Y-46765D02*
X57280Y-46765D01*
X58719Y-46765D02*
X59005Y-46765D01*
X46995Y-46845D02*
X47360Y-46845D01*
X48639Y-46845D02*
X56337Y-46845D01*
X57157Y-46845D02*
X57360Y-46845D01*
X58639Y-46845D02*
X59005Y-46845D01*
X46995Y-46925D02*
X47489Y-46925D01*
X48509Y-46925D02*
X56337Y-46925D01*
X57157Y-46925D02*
X57489Y-46925D01*
X58509Y-46925D02*
X59005Y-46925D01*
X46995Y-47005D02*
X47681Y-47005D01*
X48316Y-47005D02*
X56337Y-47005D01*
X57157Y-47005D02*
X57681Y-47005D01*
X58316Y-47005D02*
X59005Y-47005D01*
X46995Y-47085D02*
X56335Y-47085D01*
X57157Y-47085D02*
X59005Y-47085D01*
X46995Y-47165D02*
X56255Y-47165D01*
X57157Y-47165D02*
X59005Y-47165D01*
X46995Y-47245D02*
X56175Y-47245D01*
X57157Y-47245D02*
X59005Y-47245D01*
X46995Y-47325D02*
X56095Y-47325D01*
X57142Y-47325D02*
X59005Y-47325D01*
X46995Y-47405D02*
X56015Y-47405D01*
X57126Y-47405D02*
X59005Y-47405D01*
X46995Y-47485D02*
X55935Y-47485D01*
X57075Y-47485D02*
X59005Y-47485D01*
X46995Y-47565D02*
X55855Y-47565D01*
X57015Y-47565D02*
X59005Y-47565D01*
X46995Y-47645D02*
X55775Y-47645D01*
X56935Y-47645D02*
X59005Y-47645D01*
X46995Y-47725D02*
X55695Y-47725D01*
X56855Y-47725D02*
X59005Y-47725D01*
X46995Y-47805D02*
X55615Y-47805D01*
X56775Y-47805D02*
X59005Y-47805D01*
X46995Y-47885D02*
X55535Y-47885D01*
X56695Y-47885D02*
X59005Y-47885D01*
X46995Y-47965D02*
X55455Y-47965D01*
X56615Y-47965D02*
X59005Y-47965D01*
X46995Y-48045D02*
X50228Y-48045D01*
X50774Y-48045D02*
X55228Y-48045D01*
X56535Y-48045D02*
X59005Y-48045D01*
X46995Y-48125D02*
X50132Y-48125D01*
X50868Y-48125D02*
X55132Y-48125D01*
X56455Y-48125D02*
X59005Y-48125D01*
X46995Y-48205D02*
X50054Y-48205D01*
X50946Y-48205D02*
X55054Y-48205D01*
X56375Y-48205D02*
X59005Y-48205D01*
X46995Y-48285D02*
X50021Y-48285D01*
X50979Y-48285D02*
X55021Y-48285D01*
X56295Y-48285D02*
X59005Y-48285D01*
X46995Y-48365D02*
X49988Y-48365D01*
X51013Y-48365D02*
X54988Y-48365D01*
X56215Y-48365D02*
X59005Y-48365D01*
X46995Y-48445D02*
X49975Y-48445D01*
X51025Y-48445D02*
X54975Y-48445D01*
X56135Y-48445D02*
X59005Y-48445D01*
X46995Y-48525D02*
X49975Y-48525D01*
X51025Y-48525D02*
X54975Y-48525D01*
X56055Y-48525D02*
X59005Y-48525D01*
X46995Y-48605D02*
X49975Y-48605D01*
X51025Y-48605D02*
X54975Y-48605D01*
X56025Y-48605D02*
X59005Y-48605D01*
X46995Y-48685D02*
X50008Y-48685D01*
X50991Y-48685D02*
X55008Y-48685D01*
X55991Y-48685D02*
X59005Y-48685D01*
X46995Y-48765D02*
X50041Y-48765D01*
X50958Y-48765D02*
X55041Y-48765D01*
X55958Y-48765D02*
X59005Y-48765D01*
X46995Y-48845D02*
X50102Y-48845D01*
X50897Y-48845D02*
X55102Y-48845D01*
X55897Y-48845D02*
X59005Y-48845D01*
X46995Y-48925D02*
X50182Y-48925D01*
X50817Y-48925D02*
X55182Y-48925D01*
X55817Y-48925D02*
X59005Y-48925D01*
X46995Y-49005D02*
X50346Y-49005D01*
X50652Y-49005D02*
X55346Y-49005D01*
X55652Y-49005D02*
X59005Y-49005D01*
X46995Y-49085D02*
X59005Y-49085D01*
X46995Y-49165D02*
X59005Y-49165D01*
X46995Y-49245D02*
X59005Y-49245D01*
X46995Y-49325D02*
X59005Y-49325D01*
X46995Y-49405D02*
X59005Y-49405D01*
X46995Y-49485D02*
X59005Y-49485D01*
X46995Y-49565D02*
X59005Y-49565D01*
X46995Y-49645D02*
X59005Y-49645D01*
X46995Y-49725D02*
X59005Y-49725D01*
X46995Y-49805D02*
X59005Y-49805D01*
X46995Y-49885D02*
X50698Y-49885D01*
X50943Y-49885D02*
X51788Y-49885D01*
X52033Y-49885D02*
X52878Y-49885D01*
X53123Y-49885D02*
X53968Y-49885D01*
X54213Y-49885D02*
X59005Y-49885D01*
X46995Y-49965D02*
X50506Y-49965D01*
X51136Y-49965D02*
X51596Y-49965D01*
X52226Y-49965D02*
X52686Y-49965D01*
X53316Y-49965D02*
X53776Y-49965D01*
X54406Y-49965D02*
X54633Y-49965D01*
X55727Y-49965D02*
X59005Y-49965D01*
X46995Y-50045D02*
X47722Y-50045D01*
X48440Y-50045D02*
X50406Y-50045D01*
X51235Y-50045D02*
X51496Y-50045D01*
X52325Y-50045D02*
X52586Y-50045D01*
X53415Y-50045D02*
X53676Y-50045D01*
X54505Y-50045D02*
X54583Y-50045D01*
X55778Y-50045D02*
X57562Y-50045D01*
X58280Y-50045D02*
X59005Y-50045D01*
X46995Y-50125D02*
X47528Y-50125D01*
X48633Y-50125D02*
X50325Y-50125D01*
X51315Y-50125D02*
X51416Y-50125D01*
X52405Y-50125D02*
X52506Y-50125D01*
X53495Y-50125D02*
X53596Y-50125D01*
X55794Y-50125D02*
X57368Y-50125D01*
X58473Y-50125D02*
X59005Y-50125D01*
X46995Y-50205D02*
X47415Y-50205D01*
X48746Y-50205D02*
X50277Y-50205D01*
X51363Y-50205D02*
X51366Y-50205D01*
X52453Y-50205D02*
X52456Y-50205D01*
X53543Y-50205D02*
X53546Y-50205D01*
X55794Y-50205D02*
X57255Y-50205D01*
X58586Y-50205D02*
X59005Y-50205D01*
X46995Y-50285D02*
X47335Y-50285D01*
X48826Y-50285D02*
X50244Y-50285D01*
X55794Y-50285D02*
X57175Y-50285D01*
X58666Y-50285D02*
X59005Y-50285D01*
X46995Y-50365D02*
X47255Y-50365D01*
X48906Y-50365D02*
X50210Y-50365D01*
X55794Y-50365D02*
X57095Y-50365D01*
X58746Y-50365D02*
X59005Y-50365D01*
X46995Y-50445D02*
X47175Y-50445D01*
X48986Y-50445D02*
X50205Y-50445D01*
X55794Y-50445D02*
X57015Y-50445D01*
X58826Y-50445D02*
X59005Y-50445D01*
X46995Y-50525D02*
X47138Y-50525D01*
X49023Y-50525D02*
X50205Y-50525D01*
X55794Y-50525D02*
X56978Y-50525D01*
X58863Y-50525D02*
X59005Y-50525D01*
X46995Y-50605D02*
X47105Y-50605D01*
X49056Y-50605D02*
X50205Y-50605D01*
X55794Y-50605D02*
X56945Y-50605D01*
X58896Y-50605D02*
X59005Y-50605D01*
X46995Y-50685D02*
X47072Y-50685D01*
X49089Y-50685D02*
X50231Y-50685D01*
X55794Y-50685D02*
X56912Y-50685D01*
X58929Y-50685D02*
X59005Y-50685D01*
X46995Y-50765D02*
X47039Y-50765D01*
X49122Y-50765D02*
X50264Y-50765D01*
X55794Y-50765D02*
X56879Y-50765D01*
X58962Y-50765D02*
X59005Y-50765D01*
X46995Y-50845D02*
X47005Y-50845D01*
X49155Y-50845D02*
X50297Y-50845D01*
X51342Y-50845D02*
X51387Y-50845D01*
X52432Y-50845D02*
X52477Y-50845D01*
X53522Y-50845D02*
X53567Y-50845D01*
X55794Y-50845D02*
X56845Y-50845D01*
X58995Y-50845D02*
X59005Y-50845D01*
X46995Y-50925D02*
X47005Y-50925D01*
X49155Y-50925D02*
X50375Y-50925D01*
X51264Y-50925D02*
X51465Y-50925D01*
X52354Y-50925D02*
X52555Y-50925D01*
X53444Y-50925D02*
X53645Y-50925D01*
X54534Y-50925D02*
X54570Y-50925D01*
X55789Y-50925D02*
X56845Y-50925D01*
X58995Y-50925D02*
X59005Y-50925D01*
X46995Y-51005D02*
X47005Y-51005D01*
X49155Y-51005D02*
X50455Y-51005D01*
X51184Y-51005D02*
X51243Y-51005D01*
X51488Y-51005D02*
X51545Y-51005D01*
X52274Y-51005D02*
X52333Y-51005D01*
X52578Y-51005D02*
X52635Y-51005D01*
X53364Y-51005D02*
X53423Y-51005D01*
X53668Y-51005D02*
X53725Y-51005D01*
X54454Y-51005D02*
X54513Y-51005D01*
X55756Y-51005D02*
X56845Y-51005D01*
X58995Y-51005D02*
X59005Y-51005D01*
X46995Y-51085D02*
X47005Y-51085D01*
X49155Y-51085D02*
X50624Y-51085D01*
X51014Y-51085D02*
X51051Y-51085D01*
X51681Y-51085D02*
X51714Y-51085D01*
X52104Y-51085D02*
X52141Y-51085D01*
X52771Y-51085D02*
X52804Y-51085D01*
X53194Y-51085D02*
X53231Y-51085D01*
X53861Y-51085D02*
X53894Y-51085D01*
X54284Y-51085D02*
X54321Y-51085D01*
X55664Y-51085D02*
X56845Y-51085D01*
X58995Y-51085D02*
X59005Y-51085D01*
X46995Y-51165D02*
X47005Y-51165D01*
X49155Y-51165D02*
X50951Y-51165D01*
X51780Y-51165D02*
X52041Y-51165D01*
X52870Y-51165D02*
X53131Y-51165D01*
X53960Y-51165D02*
X54221Y-51165D01*
X55049Y-51165D02*
X56845Y-51165D01*
X58995Y-51165D02*
X59005Y-51165D01*
X46995Y-51245D02*
X47005Y-51245D01*
X49155Y-51245D02*
X50871Y-51245D01*
X51860Y-51245D02*
X51961Y-51245D01*
X52950Y-51245D02*
X53051Y-51245D01*
X54040Y-51245D02*
X54141Y-51245D01*
X55129Y-51245D02*
X56845Y-51245D01*
X58995Y-51245D02*
X59005Y-51245D01*
X46995Y-51325D02*
X47026Y-51325D01*
X49134Y-51325D02*
X50822Y-51325D01*
X51908Y-51325D02*
X51911Y-51325D01*
X52998Y-51325D02*
X53001Y-51325D01*
X54088Y-51325D02*
X54091Y-51325D01*
X55179Y-51325D02*
X56866Y-51325D01*
X58974Y-51325D02*
X59005Y-51325D01*
X46995Y-51405D02*
X47059Y-51405D01*
X49101Y-51405D02*
X50789Y-51405D01*
X55212Y-51405D02*
X56899Y-51405D01*
X58941Y-51405D02*
X59005Y-51405D01*
X46995Y-51485D02*
X47092Y-51485D01*
X49067Y-51485D02*
X50755Y-51485D01*
X55245Y-51485D02*
X56932Y-51485D01*
X58907Y-51485D02*
X59005Y-51485D01*
X46995Y-51565D02*
X47125Y-51565D01*
X49034Y-51565D02*
X50750Y-51565D01*
X55250Y-51565D02*
X56965Y-51565D01*
X58874Y-51565D02*
X59005Y-51565D01*
X46995Y-51645D02*
X47158Y-51645D01*
X49001Y-51645D02*
X50750Y-51645D01*
X55250Y-51645D02*
X56998Y-51645D01*
X58841Y-51645D02*
X59005Y-51645D01*
X46995Y-51725D02*
X47224Y-51725D01*
X48935Y-51725D02*
X50750Y-51725D01*
X55250Y-51725D02*
X57064Y-51725D01*
X58775Y-51725D02*
X59005Y-51725D01*
X46995Y-51805D02*
X47304Y-51805D01*
X48855Y-51805D02*
X50776Y-51805D01*
X55224Y-51805D02*
X57144Y-51805D01*
X58695Y-51805D02*
X59005Y-51805D01*
X46995Y-51885D02*
X47384Y-51885D01*
X48775Y-51885D02*
X50809Y-51885D01*
X55190Y-51885D02*
X57224Y-51885D01*
X58615Y-51885D02*
X59005Y-51885D01*
X46995Y-51965D02*
X47464Y-51965D01*
X48695Y-51965D02*
X50842Y-51965D01*
X51887Y-51965D02*
X51932Y-51965D01*
X52977Y-51965D02*
X53022Y-51965D01*
X54067Y-51965D02*
X54112Y-51965D01*
X55157Y-51965D02*
X57304Y-51965D01*
X58535Y-51965D02*
X59005Y-51965D01*
X46995Y-52045D02*
X47648Y-52045D01*
X48511Y-52045D02*
X50920Y-52045D01*
X51809Y-52045D02*
X52010Y-52045D01*
X52899Y-52045D02*
X53100Y-52045D01*
X53989Y-52045D02*
X54190Y-52045D01*
X55079Y-52045D02*
X57488Y-52045D01*
X58351Y-52045D02*
X59005Y-52045D01*
X46995Y-52125D02*
X47840Y-52125D01*
X48317Y-52125D02*
X51000Y-52125D01*
X51729Y-52125D02*
X52090Y-52125D01*
X52819Y-52125D02*
X53180Y-52125D01*
X53909Y-52125D02*
X54270Y-52125D01*
X54999Y-52125D02*
X57680Y-52125D01*
X58157Y-52125D02*
X59005Y-52125D01*
X46995Y-52205D02*
X51169Y-52205D01*
X51559Y-52205D02*
X52259Y-52205D01*
X52649Y-52205D02*
X53349Y-52205D01*
X53739Y-52205D02*
X54439Y-52205D01*
X54829Y-52205D02*
X59005Y-52205D01*
X46995Y-52285D02*
X59005Y-52285D01*
X46995Y-52365D02*
X59005Y-52365D01*
X46995Y-52445D02*
X59005Y-52445D01*
X46995Y-52525D02*
X59005Y-52525D01*
X46995Y-52605D02*
X59005Y-52605D01*
X46995Y-52685D02*
X59005Y-52685D01*
X46995Y-52765D02*
X59005Y-52765D01*
X46995Y-52845D02*
X59005Y-52845D01*
X46995Y-52925D02*
X59005Y-52925D01*
X46995Y-53005D02*
X59005Y-53005D01*
X46995Y-53085D02*
X59005Y-53085D01*
X46995Y-53165D02*
X59005Y-53165D01*
X46995Y-53245D02*
X59005Y-53245D01*
X46995Y-53325D02*
X59005Y-53325D01*
X46995Y-53405D02*
X59005Y-53405D01*
X46995Y-53485D02*
X59005Y-53485D01*
X46995Y-53565D02*
X59005Y-53565D01*
X46995Y-53645D02*
X59005Y-53645D01*
X46995Y-53725D02*
X59005Y-53725D01*
X46995Y-53805D02*
X59005Y-53805D01*
X46995Y-53885D02*
X59005Y-53885D01*
X46995Y-53965D02*
X59005Y-53965D01*
X46995Y-54045D02*
X59005Y-54045D01*
X46995Y-54125D02*
X59005Y-54125D01*
X46995Y-54205D02*
X59005Y-54205D01*
X46995Y-54285D02*
X59005Y-54285D01*
X46995Y-54365D02*
X59005Y-54365D01*
X46995Y-54445D02*
X59005Y-54445D01*
X46995Y-54525D02*
X59005Y-54525D01*
X46995Y-54605D02*
X59005Y-54605D01*
X46995Y-54685D02*
X59005Y-54685D01*
X57450Y-43450D02*
X57550Y-43450D01*
X57450Y-43530D02*
X57550Y-43530D01*
X57450Y-43610D02*
X57550Y-43610D01*
X57450Y-43690D02*
X57550Y-43690D01*
X58978Y-43690D02*
X59005Y-43690D01*
X57450Y-43770D02*
X57550Y-43770D01*
X58945Y-43770D02*
X59005Y-43770D01*
X57450Y-43850D02*
X57550Y-43850D01*
X58114Y-43850D02*
X58122Y-43850D01*
X58878Y-43850D02*
X59005Y-43850D01*
X57450Y-43930D02*
X57550Y-43930D01*
X58107Y-43930D02*
X58202Y-43930D01*
X58798Y-43930D02*
X59005Y-43930D01*
X57450Y-44010D02*
X57550Y-44010D01*
X58072Y-44010D02*
X58385Y-44010D01*
X58614Y-44010D02*
X59005Y-44010D01*
X57413Y-44090D02*
X57587Y-44090D01*
X57972Y-44090D02*
X59005Y-44090D01*
X57157Y-44170D02*
X59005Y-44170D01*
X57157Y-44250D02*
X59005Y-44250D01*
X57157Y-44330D02*
X59005Y-44330D01*
X57157Y-44410D02*
X59005Y-44410D01*
X57157Y-44490D02*
X59005Y-44490D01*
X57157Y-44570D02*
X59005Y-44570D01*
X57157Y-44650D02*
X59005Y-44650D01*
X57157Y-44730D02*
X59005Y-44730D01*
X57157Y-44810D02*
X59005Y-44810D01*
X57157Y-44890D02*
X59005Y-44890D01*
X57157Y-44970D02*
X57744Y-44970D01*
X58259Y-44970D02*
X59005Y-44970D01*
X57157Y-45050D02*
X57551Y-45050D01*
X58451Y-45050D02*
X59005Y-45050D01*
X57157Y-45130D02*
X57386Y-45130D01*
X58615Y-45130D02*
X59005Y-45130D01*
X57157Y-45210D02*
X57306Y-45210D01*
X58695Y-45210D02*
X59005Y-45210D01*
X57157Y-45290D02*
X57226Y-45290D01*
X58775Y-45290D02*
X59005Y-45290D01*
X58855Y-45370D02*
X59005Y-45370D01*
X58909Y-45450D02*
X59005Y-45450D01*
X58942Y-45530D02*
X59005Y-45530D01*
X58975Y-45610D02*
X59005Y-45610D01*
X59005Y-54755D02*
X59005Y-46318D01*
X58890Y-46595D01*
X58594Y-46890D01*
X58208Y-47050D01*
X57790Y-47050D01*
X57405Y-46890D01*
X57157Y-46641D01*
X57157Y-47253D01*
X57126Y-47410D01*
X57037Y-47543D01*
X56025Y-48555D01*
X56025Y-48605D01*
X55945Y-48798D01*
X55797Y-48945D01*
X55604Y-49025D01*
X55395Y-49025D01*
X55202Y-48945D01*
X55055Y-48797D01*
X54975Y-48604D01*
X54975Y-48395D01*
X55055Y-48202D01*
X55139Y-48118D01*
X55139Y-45790D01*
X55048Y-45767D01*
X54992Y-45630D01*
X54981Y-45426D01*
X55048Y-45233D01*
X55139Y-45210D01*
X55429Y-45500D01*
X55139Y-45790D01*
X55139Y-48118D01*
X55203Y-48055D01*
X55396Y-47975D01*
X55426Y-47975D01*
X55426Y-46019D01*
X55233Y-45952D01*
X55210Y-45861D01*
X55500Y-45571D01*
X55500Y-45429D01*
X55210Y-45139D01*
X55233Y-45048D01*
X55370Y-44992D01*
X55574Y-44981D01*
X55767Y-45048D01*
X55790Y-45139D01*
X55500Y-45429D01*
X55500Y-45571D01*
X55790Y-45861D01*
X55767Y-45952D01*
X55630Y-46008D01*
X55426Y-46019D01*
X55426Y-47975D01*
X55445Y-47975D01*
X55861Y-47559D01*
X55861Y-45790D01*
X55571Y-45500D01*
X55861Y-45210D01*
X55952Y-45233D01*
X56008Y-45370D01*
X56019Y-45574D01*
X55952Y-45767D01*
X55861Y-45790D01*
X55861Y-47559D01*
X56337Y-47083D01*
X56337Y-40503D01*
X56336Y-40504D01*
X56118Y-40594D01*
X55882Y-40594D01*
X55663Y-40503D01*
X55496Y-40336D01*
X55406Y-40118D01*
X55406Y-39882D01*
X55497Y-39663D01*
X55660Y-39500D01*
X55496Y-39336D01*
X55406Y-39118D01*
X55406Y-38882D01*
X55497Y-38663D01*
X55660Y-38500D01*
X55496Y-38336D01*
X55406Y-38118D01*
X55406Y-37882D01*
X55497Y-37663D01*
X55660Y-37500D01*
X55496Y-37336D01*
X55406Y-37118D01*
X55406Y-36882D01*
X55497Y-36663D01*
X55660Y-36500D01*
X55496Y-36336D01*
X55406Y-36118D01*
X55406Y-35882D01*
X55497Y-35663D01*
X55660Y-35500D01*
X55496Y-35336D01*
X55406Y-35118D01*
X55406Y-34882D01*
X55497Y-34663D01*
X55660Y-34500D01*
X55496Y-34336D01*
X55406Y-34118D01*
X55406Y-33882D01*
X55497Y-33663D01*
X55660Y-33499D01*
X55496Y-33336D01*
X55406Y-33118D01*
X55406Y-32882D01*
X55497Y-32663D01*
X55660Y-32499D01*
X55496Y-32336D01*
X55406Y-32118D01*
X55406Y-31882D01*
X55497Y-31663D01*
X55660Y-31499D01*
X55496Y-31336D01*
X55406Y-31118D01*
X55406Y-30882D01*
X55497Y-30663D01*
X55660Y-30500D01*
X55496Y-30336D01*
X55406Y-30118D01*
X55406Y-29882D01*
X55497Y-29663D01*
X55590Y-29570D01*
X55590Y-29339D01*
X55492Y-29308D01*
X55422Y-29142D01*
X55412Y-28910D01*
X55492Y-28692D01*
X55590Y-28661D01*
X55929Y-29000D01*
X55590Y-29339D01*
X55590Y-29570D01*
X55664Y-29496D01*
X55685Y-29487D01*
X55661Y-29410D01*
X56000Y-29071D01*
X56000Y-28929D01*
X55661Y-28590D01*
X55685Y-28512D01*
X55663Y-28503D01*
X55496Y-28336D01*
X55406Y-28118D01*
X55406Y-27882D01*
X55497Y-27663D01*
X55660Y-27499D01*
X55496Y-27336D01*
X55406Y-27118D01*
X55406Y-26882D01*
X55497Y-26663D01*
X55660Y-26500D01*
X55496Y-26336D01*
X55406Y-26118D01*
X55406Y-25882D01*
X55497Y-25663D01*
X55664Y-25496D01*
X55882Y-25406D01*
X56118Y-25406D01*
X56337Y-25497D01*
X56504Y-25664D01*
X56594Y-25882D01*
X56594Y-26118D01*
X56503Y-26337D01*
X56339Y-26499D01*
X56504Y-26664D01*
X56594Y-26882D01*
X56594Y-27118D01*
X56503Y-27337D01*
X56340Y-27499D01*
X56504Y-27664D01*
X56594Y-27882D01*
X56594Y-28118D01*
X56503Y-28337D01*
X56336Y-28504D01*
X56314Y-28512D01*
X56339Y-28590D01*
X56000Y-28929D01*
X56000Y-29071D01*
X56339Y-29410D01*
X56314Y-29487D01*
X56337Y-29497D01*
X56410Y-29570D01*
X56410Y-29339D01*
X56071Y-29000D01*
X56410Y-28661D01*
X56508Y-28692D01*
X56578Y-28858D01*
X56588Y-29090D01*
X56508Y-29308D01*
X56410Y-29339D01*
X56410Y-29570D01*
X56504Y-29664D01*
X56594Y-29882D01*
X56594Y-30118D01*
X56503Y-30337D01*
X56340Y-30500D01*
X56504Y-30664D01*
X56594Y-30882D01*
X56594Y-31118D01*
X56503Y-31337D01*
X56340Y-31500D01*
X56504Y-31664D01*
X56594Y-31882D01*
X56594Y-32014D01*
X57037Y-32457D01*
X57126Y-32590D01*
X57157Y-32747D01*
X57157Y-33600D01*
X57203Y-33555D01*
X57396Y-33475D01*
X57445Y-33475D01*
X57840Y-33080D01*
X57840Y-32402D01*
X57797Y-32445D01*
X57604Y-32525D01*
X57395Y-32525D01*
X57202Y-32445D01*
X57055Y-32297D01*
X56975Y-32104D01*
X56975Y-31895D01*
X57055Y-31702D01*
X57203Y-31555D01*
X57396Y-31475D01*
X57605Y-31475D01*
X57798Y-31555D01*
X57840Y-31597D01*
X57840Y-30116D01*
X57785Y-30061D01*
X57750Y-29976D01*
X57715Y-30061D01*
X57561Y-30215D01*
X57359Y-30299D01*
X57141Y-30299D01*
X56939Y-30215D01*
X56785Y-30061D01*
X56701Y-29859D01*
X56701Y-29641D01*
X56785Y-29439D01*
X56925Y-29299D01*
X56900Y-29299D01*
X56809Y-29261D01*
X56739Y-29191D01*
X56701Y-29099D01*
X56701Y-28400D01*
X56739Y-28309D01*
X56809Y-28239D01*
X56901Y-28201D01*
X57600Y-28201D01*
X57691Y-28239D01*
X57761Y-28309D01*
X57799Y-28401D01*
X57799Y-28425D01*
X57939Y-28285D01*
X58141Y-28201D01*
X58359Y-28201D01*
X58561Y-28285D01*
X58715Y-28439D01*
X58799Y-28641D01*
X58799Y-28859D01*
X58715Y-29061D01*
X58660Y-29116D01*
X58660Y-29384D01*
X58715Y-29439D01*
X58799Y-29641D01*
X58799Y-29859D01*
X58715Y-30061D01*
X58660Y-30116D01*
X58660Y-33250D01*
X58629Y-33407D01*
X58540Y-33540D01*
X58536Y-33542D01*
X58025Y-34054D01*
X58025Y-34105D01*
X57945Y-34298D01*
X57910Y-34332D01*
X57910Y-34634D01*
X57965Y-34689D01*
X58049Y-34891D01*
X58049Y-35109D01*
X57965Y-35311D01*
X57811Y-35465D01*
X57609Y-35549D01*
X57391Y-35549D01*
X57189Y-35465D01*
X57157Y-35433D01*
X57157Y-38623D01*
X57175Y-38605D01*
X57192Y-38621D01*
X57219Y-38528D01*
X57366Y-38468D01*
X57579Y-38457D01*
X57781Y-38528D01*
X57808Y-38622D01*
X57500Y-38929D01*
X57429Y-39000D01*
X57157Y-39272D01*
X57157Y-39272D01*
X57429Y-39000D01*
X57500Y-39071D01*
X57808Y-39378D01*
X57781Y-39472D01*
X57634Y-39532D01*
X57421Y-39543D01*
X57219Y-39472D01*
X57192Y-39378D01*
X57175Y-39395D01*
X57157Y-39377D01*
X57157Y-40976D01*
X57378Y-40885D01*
X57421Y-40885D01*
X57623Y-40885D01*
X57849Y-40979D01*
X57878Y-41008D01*
X57878Y-39308D01*
X57571Y-39000D01*
X57878Y-38692D01*
X57972Y-38719D01*
X58032Y-38866D01*
X58043Y-39079D01*
X57972Y-39281D01*
X57878Y-39308D01*
X57878Y-41008D01*
X58021Y-41152D01*
X58054Y-41231D01*
X58064Y-41208D01*
X58209Y-41063D01*
X58398Y-40985D01*
X58603Y-40985D01*
X58792Y-41064D01*
X58937Y-41209D01*
X59005Y-41373D01*
X59005Y-26318D01*
X58890Y-26595D01*
X58594Y-26890D01*
X58208Y-27050D01*
X57790Y-27050D01*
X57405Y-26890D01*
X57110Y-26594D01*
X56950Y-26208D01*
X56950Y-25790D01*
X57110Y-25405D01*
X57270Y-25245D01*
X48729Y-25245D01*
X48890Y-25406D01*
X49050Y-25792D01*
X49050Y-26210D01*
X48890Y-26595D01*
X48594Y-26890D01*
X48208Y-27050D01*
X47790Y-27050D01*
X47405Y-26890D01*
X47110Y-26594D01*
X46995Y-26316D01*
X46995Y-41373D01*
X47064Y-41208D01*
X47209Y-41063D01*
X47398Y-40985D01*
X47603Y-40985D01*
X47792Y-41064D01*
X47885Y-41157D01*
X47886Y-41086D01*
X47895Y-41064D01*
X47895Y-38025D01*
X47702Y-37945D01*
X47555Y-37797D01*
X47475Y-37604D01*
X47475Y-37395D01*
X47555Y-37202D01*
X47639Y-37118D01*
X47639Y-35790D01*
X47548Y-35767D01*
X47492Y-35630D01*
X47481Y-35426D01*
X47548Y-35233D01*
X47639Y-35210D01*
X47929Y-35500D01*
X47639Y-35790D01*
X47639Y-37118D01*
X47703Y-37055D01*
X47895Y-36975D01*
X47926Y-36975D01*
X47926Y-36019D01*
X47895Y-36008D01*
X47733Y-35952D01*
X47710Y-35861D01*
X48000Y-35571D01*
X48000Y-35429D01*
X47710Y-35139D01*
X47733Y-35048D01*
X47870Y-34992D01*
X47895Y-34990D01*
X47895Y-32025D01*
X47702Y-31945D01*
X47555Y-31797D01*
X47475Y-31604D01*
X47475Y-31395D01*
X47555Y-31202D01*
X47639Y-31118D01*
X47639Y-29790D01*
X47548Y-29767D01*
X47492Y-29630D01*
X47481Y-29426D01*
X47548Y-29233D01*
X47639Y-29210D01*
X47929Y-29500D01*
X47639Y-29790D01*
X47639Y-31118D01*
X47703Y-31055D01*
X47896Y-30975D01*
X47926Y-30975D01*
X47926Y-30019D01*
X47733Y-29952D01*
X47710Y-29861D01*
X48000Y-29571D01*
X48000Y-29429D01*
X47710Y-29139D01*
X47733Y-29048D01*
X47870Y-28992D01*
X48074Y-28981D01*
X48267Y-29048D01*
X48290Y-29139D01*
X48000Y-29429D01*
X48000Y-29571D01*
X48290Y-29861D01*
X48267Y-29952D01*
X48130Y-30008D01*
X47926Y-30019D01*
X47926Y-30975D01*
X48105Y-30975D01*
X48298Y-31055D01*
X48361Y-31118D01*
X48361Y-29790D01*
X48071Y-29500D01*
X48361Y-29210D01*
X48452Y-29233D01*
X48508Y-29370D01*
X48519Y-29574D01*
X48452Y-29767D01*
X48361Y-29790D01*
X48361Y-31118D01*
X48445Y-31203D01*
X48525Y-31396D01*
X48525Y-31605D01*
X48445Y-31798D01*
X48297Y-31945D01*
X48104Y-32025D01*
X47895Y-32025D01*
X47895Y-34990D01*
X48074Y-34981D01*
X48267Y-35048D01*
X48290Y-35139D01*
X48000Y-35429D01*
X48000Y-35571D01*
X48290Y-35861D01*
X48267Y-35952D01*
X48130Y-36008D01*
X47926Y-36019D01*
X47926Y-36975D01*
X48105Y-36975D01*
X48298Y-37055D01*
X48361Y-37118D01*
X48361Y-35790D01*
X48071Y-35500D01*
X48361Y-35210D01*
X48452Y-35233D01*
X48508Y-35370D01*
X48519Y-35574D01*
X48452Y-35767D01*
X48361Y-35790D01*
X48361Y-37118D01*
X48445Y-37203D01*
X48525Y-37396D01*
X48525Y-37605D01*
X48445Y-37798D01*
X48297Y-37945D01*
X48104Y-38025D01*
X47895Y-38025D01*
X47895Y-41064D01*
X47924Y-40994D01*
X47994Y-40924D01*
X48085Y-40886D01*
X48184Y-40886D01*
X48388Y-40885D01*
X48450Y-40947D01*
X48450Y-41450D01*
X48450Y-41550D01*
X48550Y-41550D01*
X48550Y-41450D01*
X48550Y-40947D01*
X48612Y-40885D01*
X48816Y-40886D01*
X48915Y-40886D01*
X49006Y-40924D01*
X49076Y-40994D01*
X49114Y-41086D01*
X49115Y-41388D01*
X49053Y-41450D01*
X48550Y-41450D01*
X48550Y-41550D01*
X49053Y-41550D01*
X49115Y-41612D01*
X49114Y-41914D01*
X49076Y-42006D01*
X49006Y-42076D01*
X48963Y-42093D01*
X49021Y-42152D01*
X49115Y-42378D01*
X49115Y-42623D01*
X49021Y-42849D01*
X48869Y-42999D01*
X49021Y-43152D01*
X49115Y-43378D01*
X49115Y-43623D01*
X49021Y-43849D01*
X48848Y-44021D01*
X48622Y-44115D01*
X48377Y-44115D01*
X48151Y-44021D01*
X47979Y-43848D01*
X47945Y-43768D01*
X47936Y-43792D01*
X47791Y-43937D01*
X47602Y-44015D01*
X47397Y-44015D01*
X47208Y-43936D01*
X47063Y-43791D01*
X46995Y-43626D01*
X46995Y-45681D01*
X47110Y-45405D01*
X47406Y-45110D01*
X47792Y-44950D01*
X48210Y-44950D01*
X48595Y-45110D01*
X48890Y-45406D01*
X49050Y-45792D01*
X49050Y-46210D01*
X48890Y-46595D01*
X48594Y-46890D01*
X48208Y-47050D01*
X47790Y-47050D01*
X47405Y-46890D01*
X47110Y-46594D01*
X46995Y-46316D01*
X46995Y-54755D01*
X47865Y-54755D01*
X47865Y-52135D01*
X47470Y-51971D01*
X47168Y-51668D01*
X47005Y-51273D01*
X47005Y-50845D01*
X47169Y-50450D01*
X47472Y-50148D01*
X47867Y-49985D01*
X48295Y-49985D01*
X48690Y-50149D01*
X48992Y-50452D01*
X49155Y-50847D01*
X49155Y-51275D01*
X48991Y-51670D01*
X48688Y-51972D01*
X48293Y-52135D01*
X47865Y-52135D01*
X47865Y-54755D01*
X49882Y-54755D01*
X49882Y-40594D01*
X49663Y-40503D01*
X49496Y-40336D01*
X49406Y-40118D01*
X49406Y-39882D01*
X49497Y-39663D01*
X49659Y-39500D01*
X49496Y-39336D01*
X49406Y-39118D01*
X49406Y-38882D01*
X49497Y-38663D01*
X49659Y-38500D01*
X49496Y-38336D01*
X49406Y-38118D01*
X49406Y-37882D01*
X49497Y-37663D01*
X49659Y-37500D01*
X49496Y-37336D01*
X49406Y-37118D01*
X49406Y-36882D01*
X49497Y-36663D01*
X49659Y-36499D01*
X49496Y-36336D01*
X49406Y-36118D01*
X49406Y-35882D01*
X49497Y-35663D01*
X49659Y-35500D01*
X49496Y-35336D01*
X49406Y-35118D01*
X49406Y-34882D01*
X49497Y-34663D01*
X49659Y-34500D01*
X49496Y-34336D01*
X49406Y-34118D01*
X49406Y-33882D01*
X49497Y-33663D01*
X49659Y-33500D01*
X49496Y-33336D01*
X49406Y-33118D01*
X49406Y-32882D01*
X49497Y-32663D01*
X49660Y-32500D01*
X49496Y-32336D01*
X49406Y-32118D01*
X49406Y-31882D01*
X49497Y-31663D01*
X49659Y-31499D01*
X49496Y-31336D01*
X49406Y-31118D01*
X49406Y-30882D01*
X49497Y-30663D01*
X49659Y-30500D01*
X49496Y-30336D01*
X49406Y-30118D01*
X49406Y-29882D01*
X49497Y-29663D01*
X49660Y-29499D01*
X49496Y-29336D01*
X49406Y-29118D01*
X49406Y-28882D01*
X49497Y-28663D01*
X49660Y-28499D01*
X49496Y-28336D01*
X49406Y-28118D01*
X49406Y-27882D01*
X49497Y-27663D01*
X49660Y-27500D01*
X49496Y-27336D01*
X49406Y-27118D01*
X49406Y-26882D01*
X49497Y-26663D01*
X49611Y-26549D01*
X49605Y-26549D01*
X49514Y-26511D01*
X49444Y-26441D01*
X49406Y-26349D01*
X49406Y-25650D01*
X49444Y-25559D01*
X49514Y-25489D01*
X49606Y-25451D01*
X50395Y-25451D01*
X50486Y-25489D01*
X50556Y-25559D01*
X50594Y-25651D01*
X50594Y-26350D01*
X50556Y-26441D01*
X50486Y-26511D01*
X50394Y-26549D01*
X50389Y-26549D01*
X50504Y-26664D01*
X50594Y-26882D01*
X50594Y-27118D01*
X50503Y-27337D01*
X50339Y-27499D01*
X50504Y-27664D01*
X50594Y-27882D01*
X50594Y-28118D01*
X50503Y-28337D01*
X50339Y-28500D01*
X50504Y-28664D01*
X50594Y-28882D01*
X50594Y-29118D01*
X50503Y-29337D01*
X50339Y-29500D01*
X50504Y-29664D01*
X50594Y-29882D01*
X50594Y-30118D01*
X50503Y-30337D01*
X50339Y-30500D01*
X50504Y-30664D01*
X50594Y-30882D01*
X50594Y-31014D01*
X54237Y-34657D01*
X54326Y-34790D01*
X54357Y-34947D01*
X54357Y-37436D01*
X54372Y-37473D01*
X54372Y-37642D01*
X54307Y-37798D01*
X54187Y-37918D01*
X54031Y-37982D01*
X53862Y-37982D01*
X53706Y-37917D01*
X53586Y-37797D01*
X53522Y-37641D01*
X53522Y-37472D01*
X53537Y-37436D01*
X53537Y-35117D01*
X50577Y-32157D01*
X50503Y-32337D01*
X50339Y-32499D01*
X50504Y-32664D01*
X50594Y-32882D01*
X50594Y-33118D01*
X50503Y-33337D01*
X50339Y-33500D01*
X50504Y-33664D01*
X50594Y-33882D01*
X50594Y-34118D01*
X50503Y-34337D01*
X50339Y-34500D01*
X50504Y-34664D01*
X50594Y-34882D01*
X50594Y-35118D01*
X50503Y-35337D01*
X50339Y-35500D01*
X50504Y-35664D01*
X50594Y-35882D01*
X50594Y-36118D01*
X50503Y-36337D01*
X50339Y-36499D01*
X50504Y-36664D01*
X50594Y-36882D01*
X50594Y-37118D01*
X50503Y-37337D01*
X50339Y-37499D01*
X50504Y-37664D01*
X50594Y-37882D01*
X50594Y-38118D01*
X50503Y-38337D01*
X50339Y-38500D01*
X50504Y-38664D01*
X50594Y-38882D01*
X50594Y-39118D01*
X50503Y-39337D01*
X50339Y-39500D01*
X50504Y-39664D01*
X50594Y-39882D01*
X50594Y-40118D01*
X50503Y-40337D01*
X50336Y-40504D01*
X50118Y-40594D01*
X49882Y-40594D01*
X49882Y-54755D01*
X54512Y-54755D01*
X54512Y-52235D01*
X54286Y-52141D01*
X54114Y-51968D01*
X54090Y-51910D01*
X54066Y-51969D01*
X53893Y-52141D01*
X53667Y-52235D01*
X53422Y-52235D01*
X53196Y-52141D01*
X53024Y-51968D01*
X53000Y-51910D01*
X52976Y-51969D01*
X52803Y-52141D01*
X52577Y-52235D01*
X52332Y-52235D01*
X52106Y-52141D01*
X51934Y-51968D01*
X51910Y-51910D01*
X51886Y-51969D01*
X51713Y-52141D01*
X51487Y-52235D01*
X51242Y-52235D01*
X51016Y-52141D01*
X50844Y-51968D01*
X50750Y-51742D01*
X50750Y-51497D01*
X50844Y-51271D01*
X51017Y-51099D01*
X51243Y-51005D01*
X51488Y-51005D01*
X51714Y-51099D01*
X51886Y-51272D01*
X51909Y-51329D01*
X51934Y-51271D01*
X52107Y-51099D01*
X52333Y-51005D01*
X52578Y-51005D01*
X52804Y-51099D01*
X52976Y-51272D01*
X52999Y-51329D01*
X53024Y-51271D01*
X53197Y-51099D01*
X53423Y-51005D01*
X53668Y-51005D01*
X53894Y-51099D01*
X54066Y-51272D01*
X54089Y-51329D01*
X54114Y-51271D01*
X54287Y-51099D01*
X54513Y-51005D01*
X54603Y-51005D01*
X54566Y-50914D01*
X54566Y-50893D01*
X54438Y-51021D01*
X54212Y-51115D01*
X53967Y-51115D01*
X53741Y-51021D01*
X53569Y-50848D01*
X53545Y-50790D01*
X53521Y-50849D01*
X53348Y-51021D01*
X53122Y-51115D01*
X52877Y-51115D01*
X52651Y-51021D01*
X52479Y-50848D01*
X52455Y-50790D01*
X52431Y-50849D01*
X52258Y-51021D01*
X52032Y-51115D01*
X51787Y-51115D01*
X51561Y-51021D01*
X51389Y-50848D01*
X51365Y-50790D01*
X51341Y-50849D01*
X51168Y-51021D01*
X50942Y-51115D01*
X50697Y-51115D01*
X50471Y-51021D01*
X50299Y-50848D01*
X50205Y-50622D01*
X50205Y-50377D01*
X50299Y-50151D01*
X50395Y-50055D01*
X50395Y-49025D01*
X50202Y-48945D01*
X50055Y-48797D01*
X49975Y-48604D01*
X49975Y-48395D01*
X50055Y-48202D01*
X50139Y-48118D01*
X50139Y-45790D01*
X50048Y-45767D01*
X49992Y-45630D01*
X49981Y-45426D01*
X50048Y-45233D01*
X50139Y-45210D01*
X50429Y-45500D01*
X50139Y-45790D01*
X50139Y-48118D01*
X50203Y-48055D01*
X50396Y-47975D01*
X50426Y-47975D01*
X50426Y-46019D01*
X50233Y-45952D01*
X50210Y-45861D01*
X50500Y-45571D01*
X50500Y-45429D01*
X50210Y-45139D01*
X50233Y-45048D01*
X50370Y-44992D01*
X50574Y-44981D01*
X50767Y-45048D01*
X50790Y-45139D01*
X50500Y-45429D01*
X50500Y-45571D01*
X50790Y-45861D01*
X50767Y-45952D01*
X50630Y-46008D01*
X50426Y-46019D01*
X50426Y-47975D01*
X50605Y-47975D01*
X50798Y-48055D01*
X50861Y-48118D01*
X50861Y-45790D01*
X50571Y-45500D01*
X50861Y-45210D01*
X50952Y-45233D01*
X51008Y-45370D01*
X51019Y-45574D01*
X50952Y-45767D01*
X50861Y-45790D01*
X50861Y-48118D01*
X50945Y-48203D01*
X51025Y-48396D01*
X51025Y-48605D01*
X50945Y-48798D01*
X50797Y-48945D01*
X50604Y-49025D01*
X50395Y-49025D01*
X50395Y-50055D01*
X50472Y-49979D01*
X50698Y-49885D01*
X50943Y-49885D01*
X51169Y-49979D01*
X51341Y-50152D01*
X51364Y-50209D01*
X51389Y-50151D01*
X51562Y-49979D01*
X51788Y-49885D01*
X52033Y-49885D01*
X52259Y-49979D01*
X52431Y-50152D01*
X52454Y-50209D01*
X52479Y-50151D01*
X52652Y-49979D01*
X52878Y-49885D01*
X53123Y-49885D01*
X53349Y-49979D01*
X53521Y-50152D01*
X53544Y-50209D01*
X53569Y-50151D01*
X53742Y-49979D01*
X53968Y-49885D01*
X54213Y-49885D01*
X54439Y-49979D01*
X54566Y-50106D01*
X54566Y-50085D01*
X54604Y-49994D01*
X54674Y-49924D01*
X54766Y-49886D01*
X55595Y-49886D01*
X55686Y-49924D01*
X55756Y-49994D01*
X55794Y-50086D01*
X55794Y-50915D01*
X55756Y-51006D01*
X55686Y-51076D01*
X55594Y-51114D01*
X54998Y-51114D01*
X55156Y-51272D01*
X55250Y-51498D01*
X55250Y-51743D01*
X55156Y-51969D01*
X54983Y-52141D01*
X54757Y-52235D01*
X54512Y-52235D01*
X54512Y-54755D01*
X57705Y-54755D01*
X57705Y-52135D01*
X57310Y-51971D01*
X57008Y-51668D01*
X56845Y-51273D01*
X56845Y-50845D01*
X57009Y-50450D01*
X57312Y-50148D01*
X57707Y-49985D01*
X58135Y-49985D01*
X58530Y-50149D01*
X58832Y-50452D01*
X58995Y-50847D01*
X58995Y-51275D01*
X58831Y-51670D01*
X58528Y-51972D01*
X58133Y-52135D01*
X57705Y-52135D01*
X57705Y-54755D01*
X59005Y-54755D01*
X48729Y-25245D02*
X57270Y-25245D01*
X48809Y-25325D02*
X57190Y-25325D01*
X48889Y-25405D02*
X57110Y-25405D01*
X48923Y-25485D02*
X49524Y-25485D01*
X50477Y-25485D02*
X55691Y-25485D01*
X56309Y-25485D02*
X57077Y-25485D01*
X48956Y-25565D02*
X49442Y-25565D01*
X50559Y-25565D02*
X55595Y-25565D01*
X56405Y-25565D02*
X57044Y-25565D01*
X48990Y-25645D02*
X49409Y-25645D01*
X50592Y-25645D02*
X55515Y-25645D01*
X56485Y-25645D02*
X57011Y-25645D01*
X49023Y-25725D02*
X49406Y-25725D01*
X50594Y-25725D02*
X55472Y-25725D01*
X56530Y-25725D02*
X56978Y-25725D01*
X49050Y-25805D02*
X49406Y-25805D01*
X50594Y-25805D02*
X55438Y-25805D01*
X56563Y-25805D02*
X56950Y-25805D01*
X49050Y-25885D02*
X49406Y-25885D01*
X50594Y-25885D02*
X55406Y-25885D01*
X56594Y-25885D02*
X56950Y-25885D01*
X49050Y-25965D02*
X49406Y-25965D01*
X50594Y-25965D02*
X55406Y-25965D01*
X56594Y-25965D02*
X56950Y-25965D01*
X49050Y-26045D02*
X49406Y-26045D01*
X50594Y-26045D02*
X55406Y-26045D01*
X56594Y-26045D02*
X56950Y-26045D01*
X49050Y-26125D02*
X49406Y-26125D01*
X50594Y-26125D02*
X55408Y-26125D01*
X56591Y-26125D02*
X56950Y-26125D01*
X49050Y-26205D02*
X49406Y-26205D01*
X50594Y-26205D02*
X55441Y-26205D01*
X56557Y-26205D02*
X56950Y-26205D01*
X49018Y-26285D02*
X49406Y-26285D01*
X50594Y-26285D02*
X55474Y-26285D01*
X56524Y-26285D02*
X56981Y-26285D01*
X46995Y-26365D02*
X47015Y-26365D01*
X48985Y-26365D02*
X49412Y-26365D01*
X50587Y-26365D02*
X55525Y-26365D01*
X56474Y-26365D02*
X57015Y-26365D01*
X58985Y-26365D02*
X59005Y-26365D01*
X46995Y-26445D02*
X47048Y-26445D01*
X48952Y-26445D02*
X49448Y-26445D01*
X50552Y-26445D02*
X55605Y-26445D01*
X56393Y-26445D02*
X57048Y-26445D01*
X58952Y-26445D02*
X59005Y-26445D01*
X46995Y-26525D02*
X47081Y-26525D01*
X48919Y-26525D02*
X49547Y-26525D01*
X50452Y-26525D02*
X55635Y-26525D01*
X56365Y-26525D02*
X57081Y-26525D01*
X58919Y-26525D02*
X59005Y-26525D01*
X46995Y-26605D02*
X47120Y-26605D01*
X48879Y-26605D02*
X49555Y-26605D01*
X50445Y-26605D02*
X55555Y-26605D01*
X56445Y-26605D02*
X57120Y-26605D01*
X58879Y-26605D02*
X59005Y-26605D01*
X46995Y-26685D02*
X47200Y-26685D01*
X48799Y-26685D02*
X49488Y-26685D01*
X50513Y-26685D02*
X55488Y-26685D01*
X56513Y-26685D02*
X57200Y-26685D01*
X58799Y-26685D02*
X59005Y-26685D01*
X46995Y-26765D02*
X47280Y-26765D01*
X48719Y-26765D02*
X49455Y-26765D01*
X50546Y-26765D02*
X55455Y-26765D01*
X56546Y-26765D02*
X57280Y-26765D01*
X58719Y-26765D02*
X59005Y-26765D01*
X46995Y-26845D02*
X47360Y-26845D01*
X48639Y-26845D02*
X49422Y-26845D01*
X50579Y-26845D02*
X55422Y-26845D01*
X56579Y-26845D02*
X57360Y-26845D01*
X58639Y-26845D02*
X59005Y-26845D01*
X46995Y-26925D02*
X47489Y-26925D01*
X48509Y-26925D02*
X49406Y-26925D01*
X50594Y-26925D02*
X55406Y-26925D01*
X56594Y-26925D02*
X57489Y-26925D01*
X58509Y-26925D02*
X59005Y-26925D01*
X46995Y-27005D02*
X47681Y-27005D01*
X48316Y-27005D02*
X49406Y-27005D01*
X50594Y-27005D02*
X55406Y-27005D01*
X56594Y-27005D02*
X57681Y-27005D01*
X58316Y-27005D02*
X59005Y-27005D01*
X46995Y-27085D02*
X49406Y-27085D01*
X50594Y-27085D02*
X55406Y-27085D01*
X56594Y-27085D02*
X59005Y-27085D01*
X46995Y-27165D02*
X49425Y-27165D01*
X50574Y-27165D02*
X55425Y-27165D01*
X56574Y-27165D02*
X59005Y-27165D01*
X46995Y-27245D02*
X49458Y-27245D01*
X50541Y-27245D02*
X55458Y-27245D01*
X56541Y-27245D02*
X59005Y-27245D01*
X46995Y-27325D02*
X49491Y-27325D01*
X50507Y-27325D02*
X55491Y-27325D01*
X56507Y-27325D02*
X59005Y-27325D01*
X46995Y-27405D02*
X49565Y-27405D01*
X50434Y-27405D02*
X55565Y-27405D01*
X56434Y-27405D02*
X59005Y-27405D01*
X46995Y-27485D02*
X49645Y-27485D01*
X50353Y-27485D02*
X55645Y-27485D01*
X56354Y-27485D02*
X59005Y-27485D01*
X46995Y-27565D02*
X49595Y-27565D01*
X50405Y-27565D02*
X55595Y-27565D01*
X56406Y-27565D02*
X59005Y-27565D01*
X46995Y-27645D02*
X49515Y-27645D01*
X50485Y-27645D02*
X55515Y-27645D01*
X56486Y-27645D02*
X59005Y-27645D01*
X46995Y-27725D02*
X49472Y-27725D01*
X50530Y-27725D02*
X55472Y-27725D01*
X56530Y-27725D02*
X59005Y-27725D01*
X46995Y-27805D02*
X49438Y-27805D01*
X50563Y-27805D02*
X55438Y-27805D01*
X56563Y-27805D02*
X59005Y-27805D01*
X46995Y-27885D02*
X49406Y-27885D01*
X50594Y-27885D02*
X55406Y-27885D01*
X56594Y-27885D02*
X59005Y-27885D01*
X46995Y-27965D02*
X49406Y-27965D01*
X50594Y-27965D02*
X55406Y-27965D01*
X56594Y-27965D02*
X59005Y-27965D01*
X46995Y-28045D02*
X49406Y-28045D01*
X50594Y-28045D02*
X55406Y-28045D01*
X56594Y-28045D02*
X59005Y-28045D01*
X46995Y-28125D02*
X49408Y-28125D01*
X50591Y-28125D02*
X55408Y-28125D01*
X56591Y-28125D02*
X59005Y-28125D01*
X46995Y-28205D02*
X49441Y-28205D01*
X50557Y-28205D02*
X55441Y-28205D01*
X56557Y-28205D02*
X56892Y-28205D01*
X57610Y-28205D02*
X58132Y-28205D01*
X58369Y-28205D02*
X59005Y-28205D01*
X46995Y-28285D02*
X49474Y-28285D01*
X50524Y-28285D02*
X55474Y-28285D01*
X56524Y-28285D02*
X56763Y-28285D01*
X57737Y-28285D02*
X57939Y-28285D01*
X58561Y-28285D02*
X59005Y-28285D01*
X46995Y-28365D02*
X49525Y-28365D01*
X50474Y-28365D02*
X55525Y-28365D01*
X56475Y-28365D02*
X56716Y-28365D01*
X57785Y-28365D02*
X57859Y-28365D01*
X58641Y-28365D02*
X59005Y-28365D01*
X46995Y-28445D02*
X49605Y-28445D01*
X50394Y-28445D02*
X55605Y-28445D01*
X56395Y-28445D02*
X56701Y-28445D01*
X58718Y-28445D02*
X59005Y-28445D01*
X46995Y-28525D02*
X49635Y-28525D01*
X50365Y-28525D02*
X55681Y-28525D01*
X56319Y-28525D02*
X56701Y-28525D01*
X58751Y-28525D02*
X59005Y-28525D01*
X46995Y-28605D02*
X49555Y-28605D01*
X50445Y-28605D02*
X55676Y-28605D01*
X56324Y-28605D02*
X56701Y-28605D01*
X58785Y-28605D02*
X59005Y-28605D01*
X46995Y-28685D02*
X49488Y-28685D01*
X50513Y-28685D02*
X55515Y-28685D01*
X55614Y-28685D02*
X55756Y-28685D01*
X56244Y-28685D02*
X56386Y-28685D01*
X56486Y-28685D02*
X56701Y-28685D01*
X58799Y-28685D02*
X59005Y-28685D01*
X46995Y-28765D02*
X49455Y-28765D01*
X50546Y-28765D02*
X55466Y-28765D01*
X55694Y-28765D02*
X55836Y-28765D01*
X56164Y-28765D02*
X56306Y-28765D01*
X56539Y-28765D02*
X56701Y-28765D01*
X58799Y-28765D02*
X59005Y-28765D01*
X46995Y-28845D02*
X49422Y-28845D01*
X50579Y-28845D02*
X55436Y-28845D01*
X55774Y-28845D02*
X55916Y-28845D01*
X56084Y-28845D02*
X56226Y-28845D01*
X56573Y-28845D02*
X56701Y-28845D01*
X58799Y-28845D02*
X59005Y-28845D01*
X46995Y-28925D02*
X49406Y-28925D01*
X50594Y-28925D02*
X55412Y-28925D01*
X55854Y-28925D02*
X55996Y-28925D01*
X56004Y-28925D02*
X56146Y-28925D01*
X56581Y-28925D02*
X56701Y-28925D01*
X58771Y-28925D02*
X59005Y-28925D01*
X46995Y-29005D02*
X47839Y-29005D01*
X48144Y-29005D02*
X49406Y-29005D01*
X50594Y-29005D02*
X55416Y-29005D01*
X55924Y-29005D02*
X56076Y-29005D01*
X56585Y-29005D02*
X56701Y-29005D01*
X58738Y-29005D02*
X59005Y-29005D01*
X46995Y-29085D02*
X47724Y-29085D01*
X48277Y-29085D02*
X49406Y-29085D01*
X50594Y-29085D02*
X55419Y-29085D01*
X55844Y-29085D02*
X55986Y-29085D01*
X56014Y-29085D02*
X56156Y-29085D01*
X56588Y-29085D02*
X56701Y-29085D01*
X58691Y-29085D02*
X59005Y-29085D01*
X46995Y-29165D02*
X47736Y-29165D01*
X48264Y-29165D02*
X49425Y-29165D01*
X50574Y-29165D02*
X55431Y-29165D01*
X55764Y-29165D02*
X55906Y-29165D01*
X56094Y-29165D02*
X56236Y-29165D01*
X56560Y-29165D02*
X56728Y-29165D01*
X58660Y-29165D02*
X59005Y-29165D01*
X46995Y-29245D02*
X47544Y-29245D01*
X47674Y-29245D02*
X47816Y-29245D01*
X48184Y-29245D02*
X48326Y-29245D01*
X48457Y-29245D02*
X49458Y-29245D01*
X50541Y-29245D02*
X55465Y-29245D01*
X55684Y-29245D02*
X55826Y-29245D01*
X56174Y-29245D02*
X56316Y-29245D01*
X56531Y-29245D02*
X56793Y-29245D01*
X58660Y-29245D02*
X59005Y-29245D01*
X46995Y-29325D02*
X47517Y-29325D01*
X47754Y-29325D02*
X47896Y-29325D01*
X48104Y-29325D02*
X48246Y-29325D01*
X48490Y-29325D02*
X49491Y-29325D01*
X50507Y-29325D02*
X55545Y-29325D01*
X55604Y-29325D02*
X55746Y-29325D01*
X56254Y-29325D02*
X56396Y-29325D01*
X56454Y-29325D02*
X56899Y-29325D01*
X58660Y-29325D02*
X59005Y-29325D01*
X46995Y-29405D02*
X47489Y-29405D01*
X47834Y-29405D02*
X47976Y-29405D01*
X48024Y-29405D02*
X48166Y-29405D01*
X48510Y-29405D02*
X49565Y-29405D01*
X50434Y-29405D02*
X55666Y-29405D01*
X56334Y-29405D02*
X56819Y-29405D01*
X58681Y-29405D02*
X59005Y-29405D01*
X46995Y-29485D02*
X47484Y-29485D01*
X47914Y-29485D02*
X48086Y-29485D01*
X48515Y-29485D02*
X49645Y-29485D01*
X50354Y-29485D02*
X55684Y-29485D01*
X56314Y-29485D02*
X56766Y-29485D01*
X58735Y-29485D02*
X59005Y-29485D01*
X46995Y-29565D02*
X47488Y-29565D01*
X47864Y-29565D02*
X48136Y-29565D01*
X48519Y-29565D02*
X49595Y-29565D01*
X50405Y-29565D02*
X55595Y-29565D01*
X56405Y-29565D02*
X56733Y-29565D01*
X58768Y-29565D02*
X59005Y-29565D01*
X46995Y-29645D02*
X47498Y-29645D01*
X47784Y-29645D02*
X47926Y-29645D01*
X48074Y-29645D02*
X48216Y-29645D01*
X48494Y-29645D02*
X49515Y-29645D01*
X50485Y-29645D02*
X55515Y-29645D01*
X56485Y-29645D02*
X56701Y-29645D01*
X58799Y-29645D02*
X59005Y-29645D01*
X46995Y-29725D02*
X47530Y-29725D01*
X47704Y-29725D02*
X47846Y-29725D01*
X48154Y-29725D02*
X48296Y-29725D01*
X48466Y-29725D02*
X49472Y-29725D01*
X50530Y-29725D02*
X55472Y-29725D01*
X56530Y-29725D02*
X56701Y-29725D01*
X58799Y-29725D02*
X59005Y-29725D01*
X46995Y-29805D02*
X47766Y-29805D01*
X48234Y-29805D02*
X49438Y-29805D01*
X50563Y-29805D02*
X55438Y-29805D01*
X56563Y-29805D02*
X56701Y-29805D01*
X58799Y-29805D02*
X59005Y-29805D01*
X46995Y-29885D02*
X47716Y-29885D01*
X48283Y-29885D02*
X49406Y-29885D01*
X50594Y-29885D02*
X55406Y-29885D01*
X56594Y-29885D02*
X56711Y-29885D01*
X58788Y-29885D02*
X59005Y-29885D01*
X46995Y-29965D02*
X47770Y-29965D01*
X48235Y-29965D02*
X49406Y-29965D01*
X50594Y-29965D02*
X55406Y-29965D01*
X56594Y-29965D02*
X56745Y-29965D01*
X58754Y-29965D02*
X59005Y-29965D01*
X46995Y-30045D02*
X49406Y-30045D01*
X50594Y-30045D02*
X55406Y-30045D01*
X56594Y-30045D02*
X56778Y-30045D01*
X57721Y-30045D02*
X57778Y-30045D01*
X58721Y-30045D02*
X59005Y-30045D01*
X46995Y-30125D02*
X49408Y-30125D01*
X50591Y-30125D02*
X55408Y-30125D01*
X56591Y-30125D02*
X56849Y-30125D01*
X57651Y-30125D02*
X57840Y-30125D01*
X58660Y-30125D02*
X59005Y-30125D01*
X46995Y-30205D02*
X49441Y-30205D01*
X50557Y-30205D02*
X55441Y-30205D01*
X56557Y-30205D02*
X56929Y-30205D01*
X57571Y-30205D02*
X57840Y-30205D01*
X58660Y-30205D02*
X59005Y-30205D01*
X46995Y-30285D02*
X49474Y-30285D01*
X50524Y-30285D02*
X55474Y-30285D01*
X56524Y-30285D02*
X57107Y-30285D01*
X57392Y-30285D02*
X57840Y-30285D01*
X58660Y-30285D02*
X59005Y-30285D01*
X46995Y-30365D02*
X49524Y-30365D01*
X50474Y-30365D02*
X55525Y-30365D01*
X56475Y-30365D02*
X57840Y-30365D01*
X58660Y-30365D02*
X59005Y-30365D01*
X46995Y-30445D02*
X49604Y-30445D01*
X50394Y-30445D02*
X55605Y-30445D01*
X56395Y-30445D02*
X57840Y-30445D01*
X58660Y-30445D02*
X59005Y-30445D01*
X46995Y-30525D02*
X49635Y-30525D01*
X50365Y-30525D02*
X55635Y-30525D01*
X56365Y-30525D02*
X57840Y-30525D01*
X58660Y-30525D02*
X59005Y-30525D01*
X46995Y-30605D02*
X49555Y-30605D01*
X50445Y-30605D02*
X55555Y-30605D01*
X56445Y-30605D02*
X57840Y-30605D01*
X58660Y-30605D02*
X59005Y-30605D01*
X46995Y-30685D02*
X49488Y-30685D01*
X50513Y-30685D02*
X55488Y-30685D01*
X56513Y-30685D02*
X57840Y-30685D01*
X58660Y-30685D02*
X59005Y-30685D01*
X46995Y-30765D02*
X49455Y-30765D01*
X50546Y-30765D02*
X55455Y-30765D01*
X56546Y-30765D02*
X57840Y-30765D01*
X58660Y-30765D02*
X59005Y-30765D01*
X46995Y-30845D02*
X49422Y-30845D01*
X50579Y-30845D02*
X55422Y-30845D01*
X56579Y-30845D02*
X57840Y-30845D01*
X58660Y-30845D02*
X59005Y-30845D01*
X46995Y-30925D02*
X49406Y-30925D01*
X50594Y-30925D02*
X55406Y-30925D01*
X56594Y-30925D02*
X57840Y-30925D01*
X58660Y-30925D02*
X59005Y-30925D01*
X46995Y-31005D02*
X47824Y-31005D01*
X48178Y-31005D02*
X49406Y-31005D01*
X50594Y-31005D02*
X55406Y-31005D01*
X56594Y-31005D02*
X57840Y-31005D01*
X58660Y-31005D02*
X59005Y-31005D01*
X46995Y-31085D02*
X47673Y-31085D01*
X48328Y-31085D02*
X49406Y-31085D01*
X50665Y-31085D02*
X55406Y-31085D01*
X56594Y-31085D02*
X57840Y-31085D01*
X58660Y-31085D02*
X59005Y-31085D01*
X46995Y-31165D02*
X47592Y-31165D01*
X48408Y-31165D02*
X49425Y-31165D01*
X50745Y-31165D02*
X55425Y-31165D01*
X56574Y-31165D02*
X57840Y-31165D01*
X58660Y-31165D02*
X59005Y-31165D01*
X46995Y-31245D02*
X47538Y-31245D01*
X48463Y-31245D02*
X49458Y-31245D01*
X50825Y-31245D02*
X55458Y-31245D01*
X56541Y-31245D02*
X57840Y-31245D01*
X58660Y-31245D02*
X59005Y-31245D01*
X46995Y-31325D02*
X47505Y-31325D01*
X48496Y-31325D02*
X49491Y-31325D01*
X50905Y-31325D02*
X55491Y-31325D01*
X56507Y-31325D02*
X57840Y-31325D01*
X58660Y-31325D02*
X59005Y-31325D01*
X46995Y-31405D02*
X47475Y-31405D01*
X48525Y-31405D02*
X49565Y-31405D01*
X50985Y-31405D02*
X55565Y-31405D01*
X56435Y-31405D02*
X57840Y-31405D01*
X58660Y-31405D02*
X59005Y-31405D01*
X46995Y-31485D02*
X47475Y-31485D01*
X48525Y-31485D02*
X49645Y-31485D01*
X51065Y-31485D02*
X55645Y-31485D01*
X56355Y-31485D02*
X57372Y-31485D01*
X57630Y-31485D02*
X57840Y-31485D01*
X58660Y-31485D02*
X59005Y-31485D01*
X46995Y-31565D02*
X47475Y-31565D01*
X48525Y-31565D02*
X49594Y-31565D01*
X51145Y-31565D02*
X55595Y-31565D01*
X56405Y-31565D02*
X57193Y-31565D01*
X57808Y-31565D02*
X57840Y-31565D01*
X58660Y-31565D02*
X59005Y-31565D01*
X46995Y-31645D02*
X47491Y-31645D01*
X48508Y-31645D02*
X49515Y-31645D01*
X51225Y-31645D02*
X55515Y-31645D01*
X56485Y-31645D02*
X57113Y-31645D01*
X58660Y-31645D02*
X59005Y-31645D01*
X46995Y-31725D02*
X47525Y-31725D01*
X48475Y-31725D02*
X49472Y-31725D01*
X51305Y-31725D02*
X55472Y-31725D01*
X56530Y-31725D02*
X57046Y-31725D01*
X58660Y-31725D02*
X59005Y-31725D01*
X46995Y-31805D02*
X47562Y-31805D01*
X48437Y-31805D02*
X49438Y-31805D01*
X51385Y-31805D02*
X55438Y-31805D01*
X56563Y-31805D02*
X57013Y-31805D01*
X58660Y-31805D02*
X59005Y-31805D01*
X46995Y-31885D02*
X47642Y-31885D01*
X48357Y-31885D02*
X49406Y-31885D01*
X51465Y-31885D02*
X55406Y-31885D01*
X56594Y-31885D02*
X56980Y-31885D01*
X58660Y-31885D02*
X59005Y-31885D01*
X46995Y-31965D02*
X47750Y-31965D01*
X48248Y-31965D02*
X49406Y-31965D01*
X51545Y-31965D02*
X55406Y-31965D01*
X56594Y-31965D02*
X56975Y-31965D01*
X58660Y-31965D02*
X59005Y-31965D01*
X46995Y-32045D02*
X49406Y-32045D01*
X51625Y-32045D02*
X55406Y-32045D01*
X56625Y-32045D02*
X56975Y-32045D01*
X58660Y-32045D02*
X59005Y-32045D01*
X46995Y-32125D02*
X49408Y-32125D01*
X51705Y-32125D02*
X55408Y-32125D01*
X56705Y-32125D02*
X56983Y-32125D01*
X58660Y-32125D02*
X59005Y-32125D01*
X46995Y-32205D02*
X49441Y-32205D01*
X50557Y-32205D02*
X50625Y-32205D01*
X51785Y-32205D02*
X55441Y-32205D01*
X56785Y-32205D02*
X57016Y-32205D01*
X58660Y-32205D02*
X59005Y-32205D01*
X46995Y-32285D02*
X49474Y-32285D01*
X50524Y-32285D02*
X50705Y-32285D01*
X51865Y-32285D02*
X55474Y-32285D01*
X56865Y-32285D02*
X57050Y-32285D01*
X58660Y-32285D02*
X59005Y-32285D01*
X46995Y-32365D02*
X49525Y-32365D01*
X50474Y-32365D02*
X50785Y-32365D01*
X51945Y-32365D02*
X55525Y-32365D01*
X56945Y-32365D02*
X57122Y-32365D01*
X58660Y-32365D02*
X59005Y-32365D01*
X46995Y-32445D02*
X49605Y-32445D01*
X50393Y-32445D02*
X50865Y-32445D01*
X52025Y-32445D02*
X55605Y-32445D01*
X57025Y-32445D02*
X57202Y-32445D01*
X57797Y-32445D02*
X57840Y-32445D01*
X58660Y-32445D02*
X59005Y-32445D01*
X46995Y-32525D02*
X49635Y-32525D01*
X50365Y-32525D02*
X50945Y-32525D01*
X52105Y-32525D02*
X55635Y-32525D01*
X57083Y-32525D02*
X57840Y-32525D01*
X58660Y-32525D02*
X59005Y-32525D01*
X46995Y-32605D02*
X49555Y-32605D01*
X50445Y-32605D02*
X51025Y-32605D01*
X52185Y-32605D02*
X55555Y-32605D01*
X57129Y-32605D02*
X57840Y-32605D01*
X58660Y-32605D02*
X59005Y-32605D01*
X46995Y-32685D02*
X49488Y-32685D01*
X50513Y-32685D02*
X51105Y-32685D01*
X52265Y-32685D02*
X55488Y-32685D01*
X57145Y-32685D02*
X57840Y-32685D01*
X58660Y-32685D02*
X59005Y-32685D01*
X46995Y-32765D02*
X49455Y-32765D01*
X50546Y-32765D02*
X51185Y-32765D01*
X52345Y-32765D02*
X55455Y-32765D01*
X57157Y-32765D02*
X57840Y-32765D01*
X58660Y-32765D02*
X59005Y-32765D01*
X46995Y-32845D02*
X49422Y-32845D01*
X50579Y-32845D02*
X51265Y-32845D01*
X52425Y-32845D02*
X55422Y-32845D01*
X57157Y-32845D02*
X57840Y-32845D01*
X58660Y-32845D02*
X59005Y-32845D01*
X46995Y-32925D02*
X49406Y-32925D01*
X50594Y-32925D02*
X51345Y-32925D01*
X52505Y-32925D02*
X55406Y-32925D01*
X57157Y-32925D02*
X57840Y-32925D01*
X58660Y-32925D02*
X59005Y-32925D01*
X46995Y-33005D02*
X49406Y-33005D01*
X50594Y-33005D02*
X51425Y-33005D01*
X52585Y-33005D02*
X55406Y-33005D01*
X57157Y-33005D02*
X57840Y-33005D01*
X58660Y-33005D02*
X59005Y-33005D01*
X46995Y-33085D02*
X49406Y-33085D01*
X50594Y-33085D02*
X51505Y-33085D01*
X52665Y-33085D02*
X55406Y-33085D01*
X57157Y-33085D02*
X57835Y-33085D01*
X58660Y-33085D02*
X59005Y-33085D01*
X46995Y-33165D02*
X49425Y-33165D01*
X50574Y-33165D02*
X51585Y-33165D01*
X52745Y-33165D02*
X55425Y-33165D01*
X57157Y-33165D02*
X57755Y-33165D01*
X58660Y-33165D02*
X59005Y-33165D01*
X46995Y-33245D02*
X49458Y-33245D01*
X50541Y-33245D02*
X51665Y-33245D01*
X52825Y-33245D02*
X55458Y-33245D01*
X57157Y-33245D02*
X57675Y-33245D01*
X58660Y-33245D02*
X59005Y-33245D01*
X46995Y-33325D02*
X49491Y-33325D01*
X50507Y-33325D02*
X51745Y-33325D01*
X52905Y-33325D02*
X55491Y-33325D01*
X57157Y-33325D02*
X57595Y-33325D01*
X58645Y-33325D02*
X59005Y-33325D01*
X46995Y-33405D02*
X49564Y-33405D01*
X50434Y-33405D02*
X51825Y-33405D01*
X52985Y-33405D02*
X55565Y-33405D01*
X57157Y-33405D02*
X57515Y-33405D01*
X58629Y-33405D02*
X59005Y-33405D01*
X46995Y-33485D02*
X49644Y-33485D01*
X50354Y-33485D02*
X51905Y-33485D01*
X53065Y-33485D02*
X55645Y-33485D01*
X57157Y-33485D02*
X57372Y-33485D01*
X58576Y-33485D02*
X59005Y-33485D01*
X46995Y-33565D02*
X49595Y-33565D01*
X50405Y-33565D02*
X51985Y-33565D01*
X53145Y-33565D02*
X55595Y-33565D01*
X57157Y-33565D02*
X57193Y-33565D01*
X58513Y-33565D02*
X59005Y-33565D01*
X46995Y-33645D02*
X49515Y-33645D01*
X50485Y-33645D02*
X52065Y-33645D01*
X53225Y-33645D02*
X55515Y-33645D01*
X58433Y-33645D02*
X59005Y-33645D01*
X46995Y-33725D02*
X49472Y-33725D01*
X50530Y-33725D02*
X52145Y-33725D01*
X53305Y-33725D02*
X55472Y-33725D01*
X58353Y-33725D02*
X59005Y-33725D01*
X46995Y-33805D02*
X49438Y-33805D01*
X50563Y-33805D02*
X52225Y-33805D01*
X53385Y-33805D02*
X55438Y-33805D01*
X58273Y-33805D02*
X59005Y-33805D01*
X46995Y-33885D02*
X49406Y-33885D01*
X50594Y-33885D02*
X52305Y-33885D01*
X53465Y-33885D02*
X55406Y-33885D01*
X58193Y-33885D02*
X59005Y-33885D01*
X46995Y-33965D02*
X49406Y-33965D01*
X50594Y-33965D02*
X52385Y-33965D01*
X53545Y-33965D02*
X55406Y-33965D01*
X58113Y-33965D02*
X59005Y-33965D01*
X46995Y-34045D02*
X49406Y-34045D01*
X50594Y-34045D02*
X52465Y-34045D01*
X53625Y-34045D02*
X55406Y-34045D01*
X58033Y-34045D02*
X59005Y-34045D01*
X46995Y-34125D02*
X49408Y-34125D01*
X50591Y-34125D02*
X52545Y-34125D01*
X53705Y-34125D02*
X55408Y-34125D01*
X58016Y-34125D02*
X59005Y-34125D01*
X46995Y-34205D02*
X49441Y-34205D01*
X50557Y-34205D02*
X52625Y-34205D01*
X53785Y-34205D02*
X55441Y-34205D01*
X57983Y-34205D02*
X59005Y-34205D01*
X46995Y-34285D02*
X49474Y-34285D01*
X50524Y-34285D02*
X52705Y-34285D01*
X53865Y-34285D02*
X55474Y-34285D01*
X57950Y-34285D02*
X59005Y-34285D01*
X46995Y-34365D02*
X49524Y-34365D01*
X50474Y-34365D02*
X52785Y-34365D01*
X53945Y-34365D02*
X55525Y-34365D01*
X57910Y-34365D02*
X59005Y-34365D01*
X46995Y-34445D02*
X49604Y-34445D01*
X50394Y-34445D02*
X52865Y-34445D01*
X54025Y-34445D02*
X55605Y-34445D01*
X57910Y-34445D02*
X59005Y-34445D01*
X46995Y-34525D02*
X49635Y-34525D01*
X50365Y-34525D02*
X52945Y-34525D01*
X54105Y-34525D02*
X55635Y-34525D01*
X57910Y-34525D02*
X59005Y-34525D01*
X46995Y-34605D02*
X49555Y-34605D01*
X50445Y-34605D02*
X53025Y-34605D01*
X54185Y-34605D02*
X55555Y-34605D01*
X57910Y-34605D02*
X59005Y-34605D01*
X46995Y-34685D02*
X49488Y-34685D01*
X50513Y-34685D02*
X53105Y-34685D01*
X54256Y-34685D02*
X55488Y-34685D01*
X57961Y-34685D02*
X59005Y-34685D01*
X46995Y-34765D02*
X49455Y-34765D01*
X50546Y-34765D02*
X53185Y-34765D01*
X54310Y-34765D02*
X55455Y-34765D01*
X57997Y-34765D02*
X59005Y-34765D01*
X46995Y-34845D02*
X49422Y-34845D01*
X50579Y-34845D02*
X53265Y-34845D01*
X54337Y-34845D02*
X55422Y-34845D01*
X58030Y-34845D02*
X59005Y-34845D01*
X46995Y-34925D02*
X49406Y-34925D01*
X50594Y-34925D02*
X53345Y-34925D01*
X54353Y-34925D02*
X55406Y-34925D01*
X58049Y-34925D02*
X59005Y-34925D01*
X46995Y-35005D02*
X47839Y-35005D01*
X48144Y-35005D02*
X49406Y-35005D01*
X50594Y-35005D02*
X53425Y-35005D01*
X54357Y-35005D02*
X55406Y-35005D01*
X58049Y-35005D02*
X59005Y-35005D01*
X46995Y-35085D02*
X47724Y-35085D01*
X48277Y-35085D02*
X49406Y-35085D01*
X50594Y-35085D02*
X53505Y-35085D01*
X54357Y-35085D02*
X55406Y-35085D01*
X58049Y-35085D02*
X59005Y-35085D01*
X46995Y-35165D02*
X47736Y-35165D01*
X48264Y-35165D02*
X49425Y-35165D01*
X50574Y-35165D02*
X53537Y-35165D01*
X54357Y-35165D02*
X55425Y-35165D01*
X58025Y-35165D02*
X59005Y-35165D01*
X46995Y-35245D02*
X47544Y-35245D01*
X47674Y-35245D02*
X47816Y-35245D01*
X48184Y-35245D02*
X48326Y-35245D01*
X48457Y-35245D02*
X49458Y-35245D01*
X50541Y-35245D02*
X53537Y-35245D01*
X54357Y-35245D02*
X55458Y-35245D01*
X57992Y-35245D02*
X59005Y-35245D01*
X46995Y-35325D02*
X47517Y-35325D01*
X47754Y-35325D02*
X47896Y-35325D01*
X48104Y-35325D02*
X48246Y-35325D01*
X48490Y-35325D02*
X49491Y-35325D01*
X50507Y-35325D02*
X53537Y-35325D01*
X54357Y-35325D02*
X55491Y-35325D01*
X57951Y-35325D02*
X59005Y-35325D01*
X46995Y-35405D02*
X47489Y-35405D01*
X47834Y-35405D02*
X47976Y-35405D01*
X48024Y-35405D02*
X48166Y-35405D01*
X48510Y-35405D02*
X49564Y-35405D01*
X50434Y-35405D02*
X53537Y-35405D01*
X54357Y-35405D02*
X55565Y-35405D01*
X57871Y-35405D02*
X59005Y-35405D01*
X46995Y-35485D02*
X47484Y-35485D01*
X47914Y-35485D02*
X48086Y-35485D01*
X48515Y-35485D02*
X49644Y-35485D01*
X50354Y-35485D02*
X53537Y-35485D01*
X54357Y-35485D02*
X55645Y-35485D01*
X57157Y-35485D02*
X57237Y-35485D01*
X57762Y-35485D02*
X59005Y-35485D01*
X46995Y-35565D02*
X47488Y-35565D01*
X47864Y-35565D02*
X48136Y-35565D01*
X48519Y-35565D02*
X49595Y-35565D01*
X50405Y-35565D02*
X53537Y-35565D01*
X54357Y-35565D02*
X55595Y-35565D01*
X57157Y-35565D02*
X59005Y-35565D01*
X46995Y-35645D02*
X47498Y-35645D01*
X47784Y-35645D02*
X47926Y-35645D01*
X48074Y-35645D02*
X48216Y-35645D01*
X48494Y-35645D02*
X49515Y-35645D01*
X50485Y-35645D02*
X53537Y-35645D01*
X54357Y-35645D02*
X55515Y-35645D01*
X57157Y-35645D02*
X59005Y-35645D01*
X46995Y-35725D02*
X47530Y-35725D01*
X47704Y-35725D02*
X47846Y-35725D01*
X48154Y-35725D02*
X48296Y-35725D01*
X48466Y-35725D02*
X49472Y-35725D01*
X50530Y-35725D02*
X53537Y-35725D01*
X54357Y-35725D02*
X55472Y-35725D01*
X57157Y-35725D02*
X59005Y-35725D01*
X46995Y-35805D02*
X47766Y-35805D01*
X48234Y-35805D02*
X49438Y-35805D01*
X50563Y-35805D02*
X53537Y-35805D01*
X54357Y-35805D02*
X55438Y-35805D01*
X57157Y-35805D02*
X59005Y-35805D01*
X46995Y-35885D02*
X47716Y-35885D01*
X48283Y-35885D02*
X49406Y-35885D01*
X50594Y-35885D02*
X53537Y-35885D01*
X54357Y-35885D02*
X55406Y-35885D01*
X57157Y-35885D02*
X59005Y-35885D01*
X46995Y-35965D02*
X47770Y-35965D01*
X48235Y-35965D02*
X49406Y-35965D01*
X50594Y-35965D02*
X53537Y-35965D01*
X54357Y-35965D02*
X55406Y-35965D01*
X57157Y-35965D02*
X59005Y-35965D01*
X46995Y-36045D02*
X49406Y-36045D01*
X50594Y-36045D02*
X53537Y-36045D01*
X54357Y-36045D02*
X55406Y-36045D01*
X57157Y-36045D02*
X59005Y-36045D01*
X46995Y-36125D02*
X49408Y-36125D01*
X50591Y-36125D02*
X53537Y-36125D01*
X54357Y-36125D02*
X55408Y-36125D01*
X57157Y-36125D02*
X59005Y-36125D01*
X46995Y-36205D02*
X49441Y-36205D01*
X50557Y-36205D02*
X53537Y-36205D01*
X54357Y-36205D02*
X55441Y-36205D01*
X57157Y-36205D02*
X59005Y-36205D01*
X46995Y-36285D02*
X49474Y-36285D01*
X50524Y-36285D02*
X53537Y-36285D01*
X54357Y-36285D02*
X55474Y-36285D01*
X57157Y-36285D02*
X59005Y-36285D01*
X46995Y-36365D02*
X49525Y-36365D01*
X50474Y-36365D02*
X53537Y-36365D01*
X54357Y-36365D02*
X55525Y-36365D01*
X57157Y-36365D02*
X59005Y-36365D01*
X46995Y-36445D02*
X49605Y-36445D01*
X50393Y-36445D02*
X53537Y-36445D01*
X54357Y-36445D02*
X55605Y-36445D01*
X57157Y-36445D02*
X59005Y-36445D01*
X46995Y-36525D02*
X49634Y-36525D01*
X50365Y-36525D02*
X53537Y-36525D01*
X54357Y-36525D02*
X55635Y-36525D01*
X57157Y-36525D02*
X59005Y-36525D01*
X46995Y-36605D02*
X49555Y-36605D01*
X50445Y-36605D02*
X53537Y-36605D01*
X54357Y-36605D02*
X55555Y-36605D01*
X57157Y-36605D02*
X59005Y-36605D01*
X46995Y-36685D02*
X49488Y-36685D01*
X50513Y-36685D02*
X53537Y-36685D01*
X54357Y-36685D02*
X55488Y-36685D01*
X57157Y-36685D02*
X59005Y-36685D01*
X46995Y-36765D02*
X49455Y-36765D01*
X50546Y-36765D02*
X53537Y-36765D01*
X54357Y-36765D02*
X55455Y-36765D01*
X57157Y-36765D02*
X59005Y-36765D01*
X46995Y-36845D02*
X49422Y-36845D01*
X50579Y-36845D02*
X53537Y-36845D01*
X54357Y-36845D02*
X55422Y-36845D01*
X57157Y-36845D02*
X59005Y-36845D01*
X46995Y-36925D02*
X49406Y-36925D01*
X50594Y-36925D02*
X53537Y-36925D01*
X54357Y-36925D02*
X55406Y-36925D01*
X57157Y-36925D02*
X59005Y-36925D01*
X46995Y-37005D02*
X47823Y-37005D01*
X48178Y-37005D02*
X49406Y-37005D01*
X50594Y-37005D02*
X53537Y-37005D01*
X54357Y-37005D02*
X55406Y-37005D01*
X57157Y-37005D02*
X59005Y-37005D01*
X46995Y-37085D02*
X47673Y-37085D01*
X48328Y-37085D02*
X49406Y-37085D01*
X50594Y-37085D02*
X53537Y-37085D01*
X54357Y-37085D02*
X55406Y-37085D01*
X57157Y-37085D02*
X59005Y-37085D01*
X46995Y-37165D02*
X47592Y-37165D01*
X48408Y-37165D02*
X49425Y-37165D01*
X50574Y-37165D02*
X53537Y-37165D01*
X54357Y-37165D02*
X55425Y-37165D01*
X57157Y-37165D02*
X59005Y-37165D01*
X46995Y-37245D02*
X47538Y-37245D01*
X48463Y-37245D02*
X49458Y-37245D01*
X50541Y-37245D02*
X53537Y-37245D01*
X54357Y-37245D02*
X55458Y-37245D01*
X57157Y-37245D02*
X59005Y-37245D01*
X46995Y-37325D02*
X47505Y-37325D01*
X48496Y-37325D02*
X49491Y-37325D01*
X50507Y-37325D02*
X53537Y-37325D01*
X54357Y-37325D02*
X55491Y-37325D01*
X57157Y-37325D02*
X59005Y-37325D01*
X46995Y-37405D02*
X47475Y-37405D01*
X48525Y-37405D02*
X49564Y-37405D01*
X50434Y-37405D02*
X53537Y-37405D01*
X54357Y-37405D02*
X55565Y-37405D01*
X57157Y-37405D02*
X59005Y-37405D01*
X46995Y-37485D02*
X47475Y-37485D01*
X48525Y-37485D02*
X49644Y-37485D01*
X50353Y-37485D02*
X53522Y-37485D01*
X54372Y-37485D02*
X55645Y-37485D01*
X57157Y-37485D02*
X59005Y-37485D01*
X46995Y-37565D02*
X47475Y-37565D01*
X48525Y-37565D02*
X49595Y-37565D01*
X50405Y-37565D02*
X53522Y-37565D01*
X54372Y-37565D02*
X55595Y-37565D01*
X57157Y-37565D02*
X59005Y-37565D01*
X46995Y-37645D02*
X47491Y-37645D01*
X48508Y-37645D02*
X49515Y-37645D01*
X50485Y-37645D02*
X53523Y-37645D01*
X54370Y-37645D02*
X55515Y-37645D01*
X57157Y-37645D02*
X59005Y-37645D01*
X46995Y-37725D02*
X47525Y-37725D01*
X48475Y-37725D02*
X49472Y-37725D01*
X50530Y-37725D02*
X53556Y-37725D01*
X54337Y-37725D02*
X55472Y-37725D01*
X57157Y-37725D02*
X59005Y-37725D01*
X46995Y-37805D02*
X47562Y-37805D01*
X48437Y-37805D02*
X49438Y-37805D01*
X50563Y-37805D02*
X53594Y-37805D01*
X54300Y-37805D02*
X55438Y-37805D01*
X57157Y-37805D02*
X59005Y-37805D01*
X46995Y-37885D02*
X47642Y-37885D01*
X48357Y-37885D02*
X49406Y-37885D01*
X50594Y-37885D02*
X53674Y-37885D01*
X54220Y-37885D02*
X55406Y-37885D01*
X57157Y-37885D02*
X59005Y-37885D01*
X46995Y-37965D02*
X47750Y-37965D01*
X48248Y-37965D02*
X49406Y-37965D01*
X50594Y-37965D02*
X53821Y-37965D01*
X54072Y-37965D02*
X55406Y-37965D01*
X57157Y-37965D02*
X59005Y-37965D01*
X46995Y-38045D02*
X49406Y-38045D01*
X50594Y-38045D02*
X55406Y-38045D01*
X57157Y-38045D02*
X59005Y-38045D01*
X46995Y-38125D02*
X49408Y-38125D01*
X50591Y-38125D02*
X55408Y-38125D01*
X57157Y-38125D02*
X59005Y-38125D01*
X46995Y-38205D02*
X49441Y-38205D01*
X50557Y-38205D02*
X55441Y-38205D01*
X57157Y-38205D02*
X59005Y-38205D01*
X46995Y-38285D02*
X49474Y-38285D01*
X50524Y-38285D02*
X55474Y-38285D01*
X57157Y-38285D02*
X59005Y-38285D01*
X46995Y-38365D02*
X49524Y-38365D01*
X50474Y-38365D02*
X55525Y-38365D01*
X57157Y-38365D02*
X59005Y-38365D01*
X46995Y-38445D02*
X49604Y-38445D01*
X50394Y-38445D02*
X55605Y-38445D01*
X57157Y-38445D02*
X59005Y-38445D01*
X46995Y-38525D02*
X49635Y-38525D01*
X50365Y-38525D02*
X55635Y-38525D01*
X57157Y-38525D02*
X57227Y-38525D01*
X57773Y-38525D02*
X59005Y-38525D01*
X46995Y-38605D02*
X49555Y-38605D01*
X50445Y-38605D02*
X55555Y-38605D01*
X57157Y-38605D02*
X57175Y-38605D01*
X57175Y-38605D02*
X57197Y-38605D01*
X57804Y-38605D02*
X59005Y-38605D01*
X46995Y-38685D02*
X49488Y-38685D01*
X50513Y-38685D02*
X55488Y-38685D01*
X57744Y-38685D02*
X59005Y-38685D01*
X46995Y-38765D02*
X49455Y-38765D01*
X50546Y-38765D02*
X55455Y-38765D01*
X57664Y-38765D02*
X57806Y-38765D01*
X57991Y-38765D02*
X59005Y-38765D01*
X46995Y-38845D02*
X49422Y-38845D01*
X50579Y-38845D02*
X55422Y-38845D01*
X57584Y-38845D02*
X57726Y-38845D01*
X58024Y-38845D02*
X59005Y-38845D01*
X46995Y-38925D02*
X49406Y-38925D01*
X50594Y-38925D02*
X55406Y-38925D01*
X57504Y-38925D02*
X57646Y-38925D01*
X58036Y-38925D02*
X59005Y-38925D01*
X46995Y-39005D02*
X49406Y-39005D01*
X50594Y-39005D02*
X55406Y-39005D01*
X57424Y-39005D02*
X57424Y-39005D01*
X57434Y-39005D02*
X57575Y-39005D01*
X58040Y-39005D02*
X59005Y-39005D01*
X46995Y-39085D02*
X49406Y-39085D01*
X50594Y-39085D02*
X55406Y-39085D01*
X57344Y-39085D02*
X57344Y-39085D01*
X57515Y-39085D02*
X57655Y-39085D01*
X58040Y-39085D02*
X59005Y-39085D01*
X46995Y-39165D02*
X49425Y-39165D01*
X50574Y-39165D02*
X55425Y-39165D01*
X57264Y-39165D02*
X57264Y-39165D01*
X57595Y-39165D02*
X57735Y-39165D01*
X58012Y-39165D02*
X59005Y-39165D01*
X46995Y-39245D02*
X49458Y-39245D01*
X50541Y-39245D02*
X55458Y-39245D01*
X57184Y-39245D02*
X57184Y-39245D01*
X57675Y-39245D02*
X57815Y-39245D01*
X57984Y-39245D02*
X59005Y-39245D01*
X46995Y-39325D02*
X49491Y-39325D01*
X50507Y-39325D02*
X55491Y-39325D01*
X57755Y-39325D02*
X59005Y-39325D01*
X46995Y-39405D02*
X49564Y-39405D01*
X50434Y-39405D02*
X55565Y-39405D01*
X57157Y-39405D02*
X57199Y-39405D01*
X57800Y-39405D02*
X59005Y-39405D01*
X46995Y-39485D02*
X49644Y-39485D01*
X50354Y-39485D02*
X55645Y-39485D01*
X57157Y-39485D02*
X57255Y-39485D01*
X57749Y-39485D02*
X59005Y-39485D01*
X46995Y-39565D02*
X49595Y-39565D01*
X50405Y-39565D02*
X55595Y-39565D01*
X57157Y-39565D02*
X59005Y-39565D01*
X46995Y-39645D02*
X49515Y-39645D01*
X50485Y-39645D02*
X55515Y-39645D01*
X57157Y-39645D02*
X59005Y-39645D01*
X46995Y-39725D02*
X49472Y-39725D01*
X50530Y-39725D02*
X55472Y-39725D01*
X57157Y-39725D02*
X59005Y-39725D01*
X46995Y-39805D02*
X49438Y-39805D01*
X50563Y-39805D02*
X55438Y-39805D01*
X57157Y-39805D02*
X59005Y-39805D01*
X46995Y-39885D02*
X49406Y-39885D01*
X50594Y-39885D02*
X55406Y-39885D01*
X57157Y-39885D02*
X59005Y-39885D01*
X46995Y-39965D02*
X49406Y-39965D01*
X50594Y-39965D02*
X55406Y-39965D01*
X57157Y-39965D02*
X59005Y-39965D01*
X46995Y-40045D02*
X49406Y-40045D01*
X50594Y-40045D02*
X55406Y-40045D01*
X57157Y-40045D02*
X59005Y-40045D01*
X46995Y-40125D02*
X49408Y-40125D01*
X50591Y-40125D02*
X55408Y-40125D01*
X57157Y-40125D02*
X59005Y-40125D01*
X46995Y-40205D02*
X49441Y-40205D01*
X50557Y-40205D02*
X55441Y-40205D01*
X57157Y-40205D02*
X59005Y-40205D01*
X46995Y-40285D02*
X49474Y-40285D01*
X50524Y-40285D02*
X55474Y-40285D01*
X57157Y-40285D02*
X59005Y-40285D01*
X46995Y-40365D02*
X49525Y-40365D01*
X50475Y-40365D02*
X55525Y-40365D01*
X57157Y-40365D02*
X59005Y-40365D01*
X46995Y-40445D02*
X49605Y-40445D01*
X50395Y-40445D02*
X55605Y-40445D01*
X57157Y-40445D02*
X59005Y-40445D01*
X46995Y-40525D02*
X49715Y-40525D01*
X50285Y-40525D02*
X55715Y-40525D01*
X56285Y-40525D02*
X56337Y-40525D01*
X57157Y-40525D02*
X59005Y-40525D01*
X46995Y-40605D02*
X56337Y-40605D01*
X57157Y-40605D02*
X59005Y-40605D01*
X46995Y-40685D02*
X56337Y-40685D01*
X57157Y-40685D02*
X59005Y-40685D01*
X46995Y-40765D02*
X56337Y-40765D01*
X57157Y-40765D02*
X59005Y-40765D01*
X46995Y-40845D02*
X56337Y-40845D01*
X57157Y-40845D02*
X59005Y-40845D01*
X46995Y-40925D02*
X47993Y-40925D01*
X48428Y-40925D02*
X48572Y-40925D01*
X49007Y-40925D02*
X56337Y-40925D01*
X57157Y-40925D02*
X57281Y-40925D01*
X57720Y-40925D02*
X59005Y-40925D01*
X46995Y-41005D02*
X47350Y-41005D01*
X47651Y-41005D02*
X47920Y-41005D01*
X48450Y-41005D02*
X48550Y-41005D01*
X49081Y-41005D02*
X56337Y-41005D01*
X57875Y-41005D02*
X58350Y-41005D01*
X58651Y-41005D02*
X59005Y-41005D01*
X46995Y-41085D02*
X47187Y-41085D01*
X47813Y-41085D02*
X47887Y-41085D01*
X48450Y-41085D02*
X48550Y-41085D01*
X49114Y-41085D02*
X56337Y-41085D01*
X57955Y-41085D02*
X58187Y-41085D01*
X58813Y-41085D02*
X59005Y-41085D01*
X46995Y-41165D02*
X47107Y-41165D01*
X48450Y-41165D02*
X48550Y-41165D01*
X49115Y-41165D02*
X56337Y-41165D01*
X58027Y-41165D02*
X58107Y-41165D01*
X58893Y-41165D02*
X59005Y-41165D01*
X46995Y-41245D02*
X47049Y-41245D01*
X48450Y-41245D02*
X48550Y-41245D01*
X49115Y-41245D02*
X56337Y-41245D01*
X58952Y-41245D02*
X59005Y-41245D01*
X46995Y-41325D02*
X47016Y-41325D01*
X48450Y-41325D02*
X48550Y-41325D01*
X49115Y-41325D02*
X56337Y-41325D01*
X58986Y-41325D02*
X59005Y-41325D01*
X48450Y-41405D02*
X48550Y-41405D01*
X49098Y-41405D02*
X56337Y-41405D01*
X48450Y-41485D02*
X56337Y-41485D01*
X49068Y-41565D02*
X56337Y-41565D01*
X49114Y-41645D02*
X56337Y-41645D01*
X49114Y-41725D02*
X56337Y-41725D01*
X49114Y-41805D02*
X56337Y-41805D01*
X49114Y-41885D02*
X56337Y-41885D01*
X49092Y-41965D02*
X56337Y-41965D01*
X49037Y-42045D02*
X56337Y-42045D01*
X48995Y-42125D02*
X56337Y-42125D01*
X49044Y-42205D02*
X56337Y-42205D01*
X49077Y-42285D02*
X56337Y-42285D01*
X49110Y-42365D02*
X56337Y-42365D01*
X49115Y-42445D02*
X56337Y-42445D01*
X49115Y-42525D02*
X56337Y-42525D01*
X49115Y-42605D02*
X56337Y-42605D01*
X49089Y-42685D02*
X56337Y-42685D01*
X49055Y-42765D02*
X56337Y-42765D01*
X49022Y-42845D02*
X56337Y-42845D01*
X48943Y-42925D02*
X56337Y-42925D01*
X48875Y-43005D02*
X56337Y-43005D01*
X48955Y-43085D02*
X56337Y-43085D01*
X49027Y-43165D02*
X56337Y-43165D01*
X49060Y-43245D02*
X56337Y-43245D01*
X49093Y-43325D02*
X56337Y-43325D01*
X49115Y-43405D02*
X56337Y-43405D01*
X49115Y-43485D02*
X56337Y-43485D01*
X49115Y-43565D02*
X56337Y-43565D01*
X46995Y-43645D02*
X47002Y-43645D01*
X49105Y-43645D02*
X56337Y-43645D01*
X46995Y-43725D02*
X47035Y-43725D01*
X49072Y-43725D02*
X56337Y-43725D01*
X46995Y-43805D02*
X47077Y-43805D01*
X47923Y-43805D02*
X47960Y-43805D01*
X49039Y-43805D02*
X56337Y-43805D01*
X46995Y-43885D02*
X47157Y-43885D01*
X47843Y-43885D02*
X48015Y-43885D01*
X48984Y-43885D02*
X56337Y-43885D01*
X46995Y-43965D02*
X47277Y-43965D01*
X47723Y-43965D02*
X48095Y-43965D01*
X48904Y-43965D02*
X56337Y-43965D01*
X46995Y-44045D02*
X48208Y-44045D01*
X48790Y-44045D02*
X56337Y-44045D01*
X46995Y-44125D02*
X56337Y-44125D01*
X46995Y-44205D02*
X56337Y-44205D01*
X46995Y-44285D02*
X56337Y-44285D01*
X46995Y-44365D02*
X56337Y-44365D01*
X46995Y-44445D02*
X56337Y-44445D01*
X46995Y-44525D02*
X56337Y-44525D01*
X46995Y-44605D02*
X56337Y-44605D01*
X46995Y-44685D02*
X56337Y-44685D01*
X46995Y-44765D02*
X56337Y-44765D01*
X46995Y-44845D02*
X56337Y-44845D01*
X46995Y-44925D02*
X56337Y-44925D01*
X46995Y-45005D02*
X47660Y-45005D01*
X48343Y-45005D02*
X50339Y-45005D01*
X50644Y-45005D02*
X55339Y-45005D01*
X55644Y-45005D02*
X56337Y-45005D01*
X46995Y-45085D02*
X47467Y-45085D01*
X48535Y-45085D02*
X50224Y-45085D01*
X50777Y-45085D02*
X55224Y-45085D01*
X55777Y-45085D02*
X56337Y-45085D01*
X46995Y-45165D02*
X47351Y-45165D01*
X48650Y-45165D02*
X50236Y-45165D01*
X50764Y-45165D02*
X55236Y-45165D01*
X55764Y-45165D02*
X56337Y-45165D01*
X46995Y-45245D02*
X47271Y-45245D01*
X48730Y-45245D02*
X50044Y-45245D01*
X50174Y-45245D02*
X50316Y-45245D01*
X50684Y-45245D02*
X50826Y-45245D01*
X50957Y-45245D02*
X55044Y-45245D01*
X55174Y-45245D02*
X55316Y-45245D01*
X55684Y-45245D02*
X55826Y-45245D01*
X55957Y-45245D02*
X56337Y-45245D01*
X46995Y-45325D02*
X47191Y-45325D01*
X48810Y-45325D02*
X50017Y-45325D01*
X50254Y-45325D02*
X50396Y-45325D01*
X50604Y-45325D02*
X50746Y-45325D01*
X50990Y-45325D02*
X55017Y-45325D01*
X55254Y-45325D02*
X55396Y-45325D01*
X55604Y-45325D02*
X55746Y-45325D01*
X55990Y-45325D02*
X56337Y-45325D01*
X46995Y-45405D02*
X47110Y-45405D01*
X48890Y-45405D02*
X49989Y-45405D01*
X50334Y-45405D02*
X50476Y-45405D01*
X50524Y-45405D02*
X50666Y-45405D01*
X51010Y-45405D02*
X54989Y-45405D01*
X55334Y-45405D02*
X55476Y-45405D01*
X55524Y-45405D02*
X55666Y-45405D01*
X56010Y-45405D02*
X56337Y-45405D01*
X46995Y-45485D02*
X47077Y-45485D01*
X48923Y-45485D02*
X49984Y-45485D01*
X50414Y-45485D02*
X50586Y-45485D01*
X51015Y-45485D02*
X54984Y-45485D01*
X55414Y-45485D02*
X55586Y-45485D01*
X56015Y-45485D02*
X56337Y-45485D01*
X46995Y-45565D02*
X47044Y-45565D01*
X48956Y-45565D02*
X49988Y-45565D01*
X50364Y-45565D02*
X50636Y-45565D01*
X51019Y-45565D02*
X54988Y-45565D01*
X55364Y-45565D02*
X55636Y-45565D01*
X56019Y-45565D02*
X56337Y-45565D01*
X46995Y-45645D02*
X47010Y-45645D01*
X48990Y-45645D02*
X49998Y-45645D01*
X50284Y-45645D02*
X50426Y-45645D01*
X50574Y-45645D02*
X50716Y-45645D01*
X50994Y-45645D02*
X54998Y-45645D01*
X55284Y-45645D02*
X55426Y-45645D01*
X55574Y-45645D02*
X55716Y-45645D01*
X55994Y-45645D02*
X56337Y-45645D01*
X49023Y-45725D02*
X50030Y-45725D01*
X50204Y-45725D02*
X50346Y-45725D01*
X50654Y-45725D02*
X50796Y-45725D01*
X50966Y-45725D02*
X55030Y-45725D01*
X55204Y-45725D02*
X55346Y-45725D01*
X55654Y-45725D02*
X55796Y-45725D01*
X55966Y-45725D02*
X56337Y-45725D01*
X49050Y-45805D02*
X50266Y-45805D01*
X50734Y-45805D02*
X55266Y-45805D01*
X55734Y-45805D02*
X56337Y-45805D01*
X49050Y-45885D02*
X50216Y-45885D01*
X50783Y-45885D02*
X55216Y-45885D01*
X55783Y-45885D02*
X56337Y-45885D01*
X49050Y-45965D02*
X50270Y-45965D01*
X50735Y-45965D02*
X55270Y-45965D01*
X55735Y-45965D02*
X56337Y-45965D01*
X49050Y-46045D02*
X56337Y-46045D01*
X49050Y-46125D02*
X56337Y-46125D01*
X49050Y-46205D02*
X56337Y-46205D01*
X49018Y-46285D02*
X56337Y-46285D01*
X46995Y-46365D02*
X47015Y-46365D01*
X48985Y-46365D02*
X56337Y-46365D01*
X58985Y-46365D02*
X59005Y-46365D01*
X46995Y-46445D02*
X47048Y-46445D01*
X48952Y-46445D02*
X56337Y-46445D01*
X58952Y-46445D02*
X59005Y-46445D01*
X46995Y-46525D02*
X47081Y-46525D01*
X48919Y-46525D02*
X56337Y-46525D01*
X58919Y-46525D02*
X59005Y-46525D01*
X46995Y-46605D02*
X47120Y-46605D01*
X48879Y-46605D02*
X56337Y-46605D01*
X58879Y-46605D02*
X59005Y-46605D01*
X46995Y-46685D02*
X47200Y-46685D01*
X48799Y-46685D02*
X56337Y-46685D01*
X57157Y-46685D02*
X57200Y-46685D01*
X58799Y-46685D02*
X59005Y-46685D01*
X46995Y-46765D02*
X47280Y-46765D01*
X48719Y-46765D02*
X56337Y-46765D01*
X57157Y-46765D02*
X57280Y-46765D01*
X58719Y-46765D02*
X59005Y-46765D01*
X46995Y-46845D02*
X47360Y-46845D01*
X48639Y-46845D02*
X56337Y-46845D01*
X57157Y-46845D02*
X57360Y-46845D01*
X58639Y-46845D02*
X59005Y-46845D01*
X46995Y-46925D02*
X47489Y-46925D01*
X48509Y-46925D02*
X56337Y-46925D01*
X57157Y-46925D02*
X57489Y-46925D01*
X58509Y-46925D02*
X59005Y-46925D01*
X46995Y-47005D02*
X47681Y-47005D01*
X48316Y-47005D02*
X56337Y-47005D01*
X57157Y-47005D02*
X57681Y-47005D01*
X58316Y-47005D02*
X59005Y-47005D01*
X46995Y-47085D02*
X56335Y-47085D01*
X57157Y-47085D02*
X59005Y-47085D01*
X46995Y-47165D02*
X56255Y-47165D01*
X57157Y-47165D02*
X59005Y-47165D01*
X46995Y-47245D02*
X56175Y-47245D01*
X57157Y-47245D02*
X59005Y-47245D01*
X46995Y-47325D02*
X56095Y-47325D01*
X57142Y-47325D02*
X59005Y-47325D01*
X46995Y-47405D02*
X56015Y-47405D01*
X57126Y-47405D02*
X59005Y-47405D01*
X46995Y-47485D02*
X55935Y-47485D01*
X57075Y-47485D02*
X59005Y-47485D01*
X46995Y-47565D02*
X55855Y-47565D01*
X57015Y-47565D02*
X59005Y-47565D01*
X46995Y-47645D02*
X55775Y-47645D01*
X56935Y-47645D02*
X59005Y-47645D01*
X46995Y-47725D02*
X55695Y-47725D01*
X56855Y-47725D02*
X59005Y-47725D01*
X46995Y-47805D02*
X55615Y-47805D01*
X56775Y-47805D02*
X59005Y-47805D01*
X46995Y-47885D02*
X55535Y-47885D01*
X56695Y-47885D02*
X59005Y-47885D01*
X46995Y-47965D02*
X55455Y-47965D01*
X56615Y-47965D02*
X59005Y-47965D01*
X46995Y-48045D02*
X50228Y-48045D01*
X50774Y-48045D02*
X55228Y-48045D01*
X56535Y-48045D02*
X59005Y-48045D01*
X46995Y-48125D02*
X50132Y-48125D01*
X50868Y-48125D02*
X55132Y-48125D01*
X56455Y-48125D02*
X59005Y-48125D01*
X46995Y-48205D02*
X50054Y-48205D01*
X50946Y-48205D02*
X55054Y-48205D01*
X56375Y-48205D02*
X59005Y-48205D01*
X46995Y-48285D02*
X50021Y-48285D01*
X50979Y-48285D02*
X55021Y-48285D01*
X56295Y-48285D02*
X59005Y-48285D01*
X46995Y-48365D02*
X49988Y-48365D01*
X51013Y-48365D02*
X54988Y-48365D01*
X56215Y-48365D02*
X59005Y-48365D01*
X46995Y-48445D02*
X49975Y-48445D01*
X51025Y-48445D02*
X54975Y-48445D01*
X56135Y-48445D02*
X59005Y-48445D01*
X46995Y-48525D02*
X49975Y-48525D01*
X51025Y-48525D02*
X54975Y-48525D01*
X56055Y-48525D02*
X59005Y-48525D01*
X46995Y-48605D02*
X49975Y-48605D01*
X51025Y-48605D02*
X54975Y-48605D01*
X56025Y-48605D02*
X59005Y-48605D01*
X46995Y-48685D02*
X50008Y-48685D01*
X50991Y-48685D02*
X55008Y-48685D01*
X55991Y-48685D02*
X59005Y-48685D01*
X46995Y-48765D02*
X50041Y-48765D01*
X50958Y-48765D02*
X55041Y-48765D01*
X55958Y-48765D02*
X59005Y-48765D01*
X46995Y-48845D02*
X50102Y-48845D01*
X50897Y-48845D02*
X55102Y-48845D01*
X55897Y-48845D02*
X59005Y-48845D01*
X46995Y-48925D02*
X50182Y-48925D01*
X50817Y-48925D02*
X55182Y-48925D01*
X55817Y-48925D02*
X59005Y-48925D01*
X46995Y-49005D02*
X50346Y-49005D01*
X50652Y-49005D02*
X55346Y-49005D01*
X55652Y-49005D02*
X59005Y-49005D01*
X46995Y-49085D02*
X59005Y-49085D01*
X46995Y-49165D02*
X59005Y-49165D01*
X46995Y-49245D02*
X59005Y-49245D01*
X46995Y-49325D02*
X59005Y-49325D01*
X46995Y-49405D02*
X59005Y-49405D01*
X46995Y-49485D02*
X59005Y-49485D01*
X46995Y-49565D02*
X59005Y-49565D01*
X46995Y-49645D02*
X59005Y-49645D01*
X46995Y-49725D02*
X59005Y-49725D01*
X46995Y-49805D02*
X59005Y-49805D01*
X46995Y-49885D02*
X50698Y-49885D01*
X50943Y-49885D02*
X51788Y-49885D01*
X52033Y-49885D02*
X52878Y-49885D01*
X53123Y-49885D02*
X53968Y-49885D01*
X54213Y-49885D02*
X59005Y-49885D01*
X46995Y-49965D02*
X50506Y-49965D01*
X51136Y-49965D02*
X51596Y-49965D01*
X52226Y-49965D02*
X52686Y-49965D01*
X53316Y-49965D02*
X53776Y-49965D01*
X54406Y-49965D02*
X54633Y-49965D01*
X55727Y-49965D02*
X59005Y-49965D01*
X46995Y-50045D02*
X47722Y-50045D01*
X48440Y-50045D02*
X50406Y-50045D01*
X51235Y-50045D02*
X51496Y-50045D01*
X52325Y-50045D02*
X52586Y-50045D01*
X53415Y-50045D02*
X53676Y-50045D01*
X54505Y-50045D02*
X54583Y-50045D01*
X55778Y-50045D02*
X57562Y-50045D01*
X58280Y-50045D02*
X59005Y-50045D01*
X46995Y-50125D02*
X47528Y-50125D01*
X48633Y-50125D02*
X50325Y-50125D01*
X51315Y-50125D02*
X51416Y-50125D01*
X52405Y-50125D02*
X52506Y-50125D01*
X53495Y-50125D02*
X53596Y-50125D01*
X55794Y-50125D02*
X57368Y-50125D01*
X58473Y-50125D02*
X59005Y-50125D01*
X46995Y-50205D02*
X47415Y-50205D01*
X48746Y-50205D02*
X50277Y-50205D01*
X51363Y-50205D02*
X51366Y-50205D01*
X52453Y-50205D02*
X52456Y-50205D01*
X53543Y-50205D02*
X53546Y-50205D01*
X55794Y-50205D02*
X57255Y-50205D01*
X58586Y-50205D02*
X59005Y-50205D01*
X46995Y-50285D02*
X47335Y-50285D01*
X48826Y-50285D02*
X50244Y-50285D01*
X55794Y-50285D02*
X57175Y-50285D01*
X58666Y-50285D02*
X59005Y-50285D01*
X46995Y-50365D02*
X47255Y-50365D01*
X48906Y-50365D02*
X50210Y-50365D01*
X55794Y-50365D02*
X57095Y-50365D01*
X58746Y-50365D02*
X59005Y-50365D01*
X46995Y-50445D02*
X47175Y-50445D01*
X48986Y-50445D02*
X50205Y-50445D01*
X55794Y-50445D02*
X57015Y-50445D01*
X58826Y-50445D02*
X59005Y-50445D01*
X46995Y-50525D02*
X47138Y-50525D01*
X49023Y-50525D02*
X50205Y-50525D01*
X55794Y-50525D02*
X56978Y-50525D01*
X58863Y-50525D02*
X59005Y-50525D01*
X46995Y-50605D02*
X47105Y-50605D01*
X49056Y-50605D02*
X50205Y-50605D01*
X55794Y-50605D02*
X56945Y-50605D01*
X58896Y-50605D02*
X59005Y-50605D01*
X46995Y-50685D02*
X47072Y-50685D01*
X49089Y-50685D02*
X50231Y-50685D01*
X55794Y-50685D02*
X56912Y-50685D01*
X58929Y-50685D02*
X59005Y-50685D01*
X46995Y-50765D02*
X47039Y-50765D01*
X49122Y-50765D02*
X50264Y-50765D01*
X55794Y-50765D02*
X56879Y-50765D01*
X58962Y-50765D02*
X59005Y-50765D01*
X46995Y-50845D02*
X47005Y-50845D01*
X49155Y-50845D02*
X50297Y-50845D01*
X51342Y-50845D02*
X51387Y-50845D01*
X52432Y-50845D02*
X52477Y-50845D01*
X53522Y-50845D02*
X53567Y-50845D01*
X55794Y-50845D02*
X56845Y-50845D01*
X58995Y-50845D02*
X59005Y-50845D01*
X46995Y-50925D02*
X47005Y-50925D01*
X49155Y-50925D02*
X50375Y-50925D01*
X51264Y-50925D02*
X51465Y-50925D01*
X52354Y-50925D02*
X52555Y-50925D01*
X53444Y-50925D02*
X53645Y-50925D01*
X54534Y-50925D02*
X54570Y-50925D01*
X55789Y-50925D02*
X56845Y-50925D01*
X58995Y-50925D02*
X59005Y-50925D01*
X46995Y-51005D02*
X47005Y-51005D01*
X49155Y-51005D02*
X50455Y-51005D01*
X51184Y-51005D02*
X51243Y-51005D01*
X51488Y-51005D02*
X51545Y-51005D01*
X52274Y-51005D02*
X52333Y-51005D01*
X52578Y-51005D02*
X52635Y-51005D01*
X53364Y-51005D02*
X53423Y-51005D01*
X53668Y-51005D02*
X53725Y-51005D01*
X54454Y-51005D02*
X54513Y-51005D01*
X55756Y-51005D02*
X56845Y-51005D01*
X58995Y-51005D02*
X59005Y-51005D01*
X46995Y-51085D02*
X47005Y-51085D01*
X49155Y-51085D02*
X50624Y-51085D01*
X51014Y-51085D02*
X51051Y-51085D01*
X51681Y-51085D02*
X51714Y-51085D01*
X52104Y-51085D02*
X52141Y-51085D01*
X52771Y-51085D02*
X52804Y-51085D01*
X53194Y-51085D02*
X53231Y-51085D01*
X53861Y-51085D02*
X53894Y-51085D01*
X54284Y-51085D02*
X54321Y-51085D01*
X55664Y-51085D02*
X56845Y-51085D01*
X58995Y-51085D02*
X59005Y-51085D01*
X46995Y-51165D02*
X47005Y-51165D01*
X49155Y-51165D02*
X50951Y-51165D01*
X51780Y-51165D02*
X52041Y-51165D01*
X52870Y-51165D02*
X53131Y-51165D01*
X53960Y-51165D02*
X54221Y-51165D01*
X55049Y-51165D02*
X56845Y-51165D01*
X58995Y-51165D02*
X59005Y-51165D01*
X46995Y-51245D02*
X47005Y-51245D01*
X49155Y-51245D02*
X50871Y-51245D01*
X51860Y-51245D02*
X51961Y-51245D01*
X52950Y-51245D02*
X53051Y-51245D01*
X54040Y-51245D02*
X54141Y-51245D01*
X55129Y-51245D02*
X56845Y-51245D01*
X58995Y-51245D02*
X59005Y-51245D01*
X46995Y-51325D02*
X47026Y-51325D01*
X49134Y-51325D02*
X50822Y-51325D01*
X51908Y-51325D02*
X51911Y-51325D01*
X52998Y-51325D02*
X53001Y-51325D01*
X54088Y-51325D02*
X54091Y-51325D01*
X55179Y-51325D02*
X56866Y-51325D01*
X58974Y-51325D02*
X59005Y-51325D01*
X46995Y-51405D02*
X47059Y-51405D01*
X49101Y-51405D02*
X50789Y-51405D01*
X55212Y-51405D02*
X56899Y-51405D01*
X58941Y-51405D02*
X59005Y-51405D01*
X46995Y-51485D02*
X47092Y-51485D01*
X49067Y-51485D02*
X50755Y-51485D01*
X55245Y-51485D02*
X56932Y-51485D01*
X58907Y-51485D02*
X59005Y-51485D01*
X46995Y-51565D02*
X47125Y-51565D01*
X49034Y-51565D02*
X50750Y-51565D01*
X55250Y-51565D02*
X56965Y-51565D01*
X58874Y-51565D02*
X59005Y-51565D01*
X46995Y-51645D02*
X47158Y-51645D01*
X49001Y-51645D02*
X50750Y-51645D01*
X55250Y-51645D02*
X56998Y-51645D01*
X58841Y-51645D02*
X59005Y-51645D01*
X46995Y-51725D02*
X47224Y-51725D01*
X48935Y-51725D02*
X50750Y-51725D01*
X55250Y-51725D02*
X57064Y-51725D01*
X58775Y-51725D02*
X59005Y-51725D01*
X46995Y-51805D02*
X47304Y-51805D01*
X48855Y-51805D02*
X50776Y-51805D01*
X55224Y-51805D02*
X57144Y-51805D01*
X58695Y-51805D02*
X59005Y-51805D01*
X46995Y-51885D02*
X47384Y-51885D01*
X48775Y-51885D02*
X50809Y-51885D01*
X55190Y-51885D02*
X57224Y-51885D01*
X58615Y-51885D02*
X59005Y-51885D01*
X46995Y-51965D02*
X47464Y-51965D01*
X48695Y-51965D02*
X50842Y-51965D01*
X51887Y-51965D02*
X51932Y-51965D01*
X52977Y-51965D02*
X53022Y-51965D01*
X54067Y-51965D02*
X54112Y-51965D01*
X55157Y-51965D02*
X57304Y-51965D01*
X58535Y-51965D02*
X59005Y-51965D01*
X46995Y-52045D02*
X47648Y-52045D01*
X48511Y-52045D02*
X50920Y-52045D01*
X51809Y-52045D02*
X52010Y-52045D01*
X52899Y-52045D02*
X53100Y-52045D01*
X53989Y-52045D02*
X54190Y-52045D01*
X55079Y-52045D02*
X57488Y-52045D01*
X58351Y-52045D02*
X59005Y-52045D01*
X46995Y-52125D02*
X47840Y-52125D01*
X48317Y-52125D02*
X51000Y-52125D01*
X51729Y-52125D02*
X52090Y-52125D01*
X52819Y-52125D02*
X53180Y-52125D01*
X53909Y-52125D02*
X54270Y-52125D01*
X54999Y-52125D02*
X57680Y-52125D01*
X58157Y-52125D02*
X59005Y-52125D01*
X46995Y-52205D02*
X51169Y-52205D01*
X51559Y-52205D02*
X52259Y-52205D01*
X52649Y-52205D02*
X53349Y-52205D01*
X53739Y-52205D02*
X54439Y-52205D01*
X54829Y-52205D02*
X59005Y-52205D01*
X46995Y-52285D02*
X59005Y-52285D01*
X46995Y-52365D02*
X59005Y-52365D01*
X46995Y-52445D02*
X59005Y-52445D01*
X46995Y-52525D02*
X59005Y-52525D01*
X46995Y-52605D02*
X59005Y-52605D01*
X46995Y-52685D02*
X59005Y-52685D01*
X46995Y-52765D02*
X59005Y-52765D01*
X46995Y-52845D02*
X59005Y-52845D01*
X46995Y-52925D02*
X59005Y-52925D01*
X46995Y-53005D02*
X59005Y-53005D01*
X46995Y-53085D02*
X59005Y-53085D01*
X46995Y-53165D02*
X59005Y-53165D01*
X46995Y-53245D02*
X59005Y-53245D01*
X46995Y-53325D02*
X59005Y-53325D01*
X46995Y-53405D02*
X59005Y-53405D01*
X46995Y-53485D02*
X59005Y-53485D01*
X46995Y-53565D02*
X59005Y-53565D01*
X46995Y-53645D02*
X59005Y-53645D01*
X46995Y-53725D02*
X59005Y-53725D01*
X46995Y-53805D02*
X59005Y-53805D01*
X46995Y-53885D02*
X59005Y-53885D01*
X46995Y-53965D02*
X59005Y-53965D01*
X46995Y-54045D02*
X59005Y-54045D01*
X46995Y-54125D02*
X59005Y-54125D01*
X46995Y-54205D02*
X59005Y-54205D01*
X46995Y-54285D02*
X59005Y-54285D01*
X46995Y-54365D02*
X59005Y-54365D01*
X46995Y-54445D02*
X59005Y-54445D01*
X46995Y-54525D02*
X59005Y-54525D01*
X46995Y-54605D02*
X59005Y-54605D01*
X46995Y-54685D02*
X59005Y-54685D01*
X57450Y-43450D02*
X57550Y-43450D01*
X57450Y-43530D02*
X57550Y-43530D01*
X57450Y-43610D02*
X57550Y-43610D01*
X57450Y-43690D02*
X57550Y-43690D01*
X58978Y-43690D02*
X59005Y-43690D01*
X57450Y-43770D02*
X57550Y-43770D01*
X58945Y-43770D02*
X59005Y-43770D01*
X57450Y-43850D02*
X57550Y-43850D01*
X58114Y-43850D02*
X58122Y-43850D01*
X58878Y-43850D02*
X59005Y-43850D01*
X57450Y-43930D02*
X57550Y-43930D01*
X58107Y-43930D02*
X58202Y-43930D01*
X58798Y-43930D02*
X59005Y-43930D01*
X57450Y-44010D02*
X57550Y-44010D01*
X58072Y-44010D02*
X58385Y-44010D01*
X58614Y-44010D02*
X59005Y-44010D01*
X57413Y-44090D02*
X57587Y-44090D01*
X57972Y-44090D02*
X59005Y-44090D01*
X57157Y-44170D02*
X59005Y-44170D01*
X57157Y-44250D02*
X59005Y-44250D01*
X57157Y-44330D02*
X59005Y-44330D01*
X57157Y-44410D02*
X59005Y-44410D01*
X57157Y-44490D02*
X59005Y-44490D01*
X57157Y-44570D02*
X59005Y-44570D01*
X57157Y-44650D02*
X59005Y-44650D01*
X57157Y-44730D02*
X59005Y-44730D01*
X57157Y-44810D02*
X59005Y-44810D01*
X57157Y-44890D02*
X59005Y-44890D01*
X57157Y-44970D02*
X57744Y-44970D01*
X58259Y-44970D02*
X59005Y-44970D01*
X57157Y-45050D02*
X57551Y-45050D01*
X58451Y-45050D02*
X59005Y-45050D01*
X57157Y-45130D02*
X57386Y-45130D01*
X58615Y-45130D02*
X59005Y-45130D01*
X57157Y-45210D02*
X57306Y-45210D01*
X58695Y-45210D02*
X59005Y-45210D01*
X57157Y-45290D02*
X57226Y-45290D01*
X58775Y-45290D02*
X59005Y-45290D01*
X58855Y-45370D02*
X59005Y-45370D01*
X58909Y-45450D02*
X59005Y-45450D01*
X58942Y-45530D02*
X59005Y-45530D01*
X58975Y-45610D02*
X59005Y-45610D01*
X59005Y-45683D02*
X59005Y-43626D01*
X58936Y-43792D01*
X58791Y-43937D01*
X58602Y-44015D01*
X58397Y-44015D01*
X58208Y-43936D01*
X58114Y-43842D01*
X58114Y-43914D01*
X58076Y-44006D01*
X58006Y-44076D01*
X57915Y-44114D01*
X57816Y-44114D01*
X57612Y-44115D01*
X57550Y-44053D01*
X57550Y-43550D01*
X57550Y-43450D01*
X57450Y-43450D01*
X57450Y-43550D01*
X57450Y-44053D01*
X57388Y-44115D01*
X57184Y-44114D01*
X57157Y-44114D01*
X57157Y-45358D01*
X57406Y-45110D01*
X57792Y-44950D01*
X58210Y-44950D01*
X58595Y-45110D01*
X58890Y-45406D01*
X59005Y-45683D01*
M02*
