G04 (created by PCBNEW-RS274X (2010-03-14)-final) date Wed 16 Feb 2011 04:18:36 PM PST*
G01*
G70*
G90*
%MOIN*%
G04 Gerber Fmt 3.4, Leading zero omitted, Abs format*
%FSLAX34Y34*%
G04 APERTURE LIST*
%ADD10C,0.006000*%
%ADD11C,0.010000*%
%ADD12C,0.009000*%
%ADD13C,0.015000*%
%ADD14C,0.012000*%
%ADD15C,0.008000*%
G04 APERTURE END LIST*
G54D10*
G54D11*
X54543Y-43921D02*
X54486Y-43893D01*
X54400Y-43893D01*
X54315Y-43921D01*
X54257Y-43979D01*
X54229Y-44036D01*
X54200Y-44150D01*
X54200Y-44236D01*
X54229Y-44350D01*
X54257Y-44407D01*
X54315Y-44464D01*
X54400Y-44493D01*
X54457Y-44493D01*
X54543Y-44464D01*
X54572Y-44436D01*
X54572Y-44236D01*
X54457Y-44236D01*
X54829Y-44493D02*
X54829Y-43893D01*
X55172Y-44493D01*
X55172Y-43893D01*
X55458Y-44493D02*
X55458Y-43893D01*
X55601Y-43893D01*
X55686Y-43921D01*
X55744Y-43979D01*
X55772Y-44036D01*
X55801Y-44150D01*
X55801Y-44236D01*
X55772Y-44350D01*
X55744Y-44407D01*
X55686Y-44464D01*
X55601Y-44493D01*
X55458Y-44493D01*
X50543Y-45921D02*
X50486Y-45893D01*
X50400Y-45893D01*
X50315Y-45921D01*
X50257Y-45979D01*
X50229Y-46036D01*
X50200Y-46150D01*
X50200Y-46236D01*
X50229Y-46350D01*
X50257Y-46407D01*
X50315Y-46464D01*
X50400Y-46493D01*
X50457Y-46493D01*
X50543Y-46464D01*
X50572Y-46436D01*
X50572Y-46236D01*
X50457Y-46236D01*
X50829Y-46493D02*
X50829Y-45893D01*
X51172Y-46493D01*
X51172Y-45893D01*
X51458Y-46493D02*
X51458Y-45893D01*
X51601Y-45893D01*
X51686Y-45921D01*
X51744Y-45979D01*
X51772Y-46036D01*
X51801Y-46150D01*
X51801Y-46236D01*
X51772Y-46350D01*
X51744Y-46407D01*
X51686Y-46464D01*
X51601Y-46493D01*
X51458Y-46493D01*
X54229Y-46264D02*
X54686Y-46264D01*
X54457Y-46493D02*
X54457Y-46036D01*
X55258Y-45893D02*
X54972Y-45893D01*
X54943Y-46179D01*
X54972Y-46150D01*
X55029Y-46121D01*
X55172Y-46121D01*
X55229Y-46150D01*
X55258Y-46179D01*
X55286Y-46236D01*
X55286Y-46379D01*
X55258Y-46436D01*
X55229Y-46464D01*
X55172Y-46493D01*
X55029Y-46493D01*
X54972Y-46464D01*
X54943Y-46436D01*
X55457Y-45893D02*
X55657Y-46493D01*
X55857Y-45893D01*
X50229Y-44264D02*
X50686Y-44264D01*
X50457Y-44493D02*
X50457Y-44036D01*
X51258Y-43893D02*
X50972Y-43893D01*
X50943Y-44179D01*
X50972Y-44150D01*
X51029Y-44121D01*
X51172Y-44121D01*
X51229Y-44150D01*
X51258Y-44179D01*
X51286Y-44236D01*
X51286Y-44379D01*
X51258Y-44436D01*
X51229Y-44464D01*
X51172Y-44493D01*
X51029Y-44493D01*
X50972Y-44464D01*
X50943Y-44436D01*
X51457Y-43893D02*
X51657Y-44493D01*
X51857Y-43893D01*
G54D12*
X59250Y-25000D02*
X46750Y-25000D01*
X59250Y-55000D02*
X59250Y-25000D01*
X46750Y-55000D02*
X59250Y-55000D01*
X46750Y-25000D02*
X46750Y-55000D01*
G54D13*
X47000Y-43500D02*
X49750Y-43500D01*
X49750Y-43500D02*
X49750Y-47000D01*
X49750Y-47000D02*
X47000Y-47000D01*
X47000Y-47000D02*
X47000Y-43500D01*
X59000Y-47000D02*
X56250Y-47000D01*
X56250Y-47000D02*
X56250Y-43500D01*
X56250Y-43500D02*
X59000Y-43500D01*
X59000Y-43500D02*
X59000Y-47000D01*
X59000Y-50500D02*
X59000Y-49750D01*
X59000Y-49750D02*
X47000Y-49750D01*
X47000Y-49750D02*
X47000Y-50500D01*
X47000Y-50500D02*
X47000Y-54750D01*
X47000Y-54750D02*
X59000Y-54750D01*
X59000Y-54750D02*
X59000Y-50500D01*
G54D14*
X58000Y-37000D02*
X58000Y-37200D01*
X58000Y-40000D02*
X58000Y-39800D01*
X58000Y-39800D02*
X58400Y-39800D01*
X58400Y-39800D02*
X58400Y-37200D01*
X58400Y-37200D02*
X57600Y-37200D01*
X57600Y-37200D02*
X57600Y-39800D01*
X57600Y-39800D02*
X58000Y-39800D01*
X58200Y-37200D02*
X58400Y-37400D01*
X48000Y-37000D02*
X48000Y-37200D01*
X48000Y-40000D02*
X48000Y-39800D01*
X48000Y-39800D02*
X48400Y-39800D01*
X48400Y-39800D02*
X48400Y-37200D01*
X48400Y-37200D02*
X47600Y-37200D01*
X47600Y-37200D02*
X47600Y-39800D01*
X47600Y-39800D02*
X48000Y-39800D01*
X48200Y-37200D02*
X48400Y-37400D01*
G54D13*
X58900Y-48500D02*
X58882Y-48674D01*
X58832Y-48842D01*
X58749Y-48998D01*
X58638Y-49134D01*
X58503Y-49246D01*
X58348Y-49329D01*
X58180Y-49381D01*
X58006Y-49399D01*
X57832Y-49384D01*
X57663Y-49334D01*
X57508Y-49253D01*
X57371Y-49143D01*
X57258Y-49008D01*
X57173Y-48854D01*
X57120Y-48687D01*
X57101Y-48512D01*
X57115Y-48338D01*
X57164Y-48169D01*
X57244Y-48013D01*
X57353Y-47875D01*
X57487Y-47761D01*
X57640Y-47676D01*
X57807Y-47621D01*
X57982Y-47601D01*
X58156Y-47614D01*
X58325Y-47661D01*
X58482Y-47741D01*
X58620Y-47849D01*
X58735Y-47982D01*
X58822Y-48134D01*
X58877Y-48301D01*
X58899Y-48475D01*
X58900Y-48500D01*
X48900Y-48500D02*
X48882Y-48674D01*
X48832Y-48842D01*
X48749Y-48998D01*
X48638Y-49134D01*
X48503Y-49246D01*
X48348Y-49329D01*
X48180Y-49381D01*
X48006Y-49399D01*
X47832Y-49384D01*
X47663Y-49334D01*
X47508Y-49253D01*
X47371Y-49143D01*
X47258Y-49008D01*
X47173Y-48854D01*
X47120Y-48687D01*
X47101Y-48512D01*
X47115Y-48338D01*
X47164Y-48169D01*
X47244Y-48013D01*
X47353Y-47875D01*
X47487Y-47761D01*
X47640Y-47676D01*
X47807Y-47621D01*
X47982Y-47601D01*
X48156Y-47614D01*
X48325Y-47661D01*
X48482Y-47741D01*
X48620Y-47849D01*
X48735Y-47982D01*
X48822Y-48134D01*
X48877Y-48301D01*
X48899Y-48475D01*
X48900Y-48500D01*
X58900Y-28500D02*
X58882Y-28674D01*
X58832Y-28842D01*
X58749Y-28998D01*
X58638Y-29134D01*
X58503Y-29246D01*
X58348Y-29329D01*
X58180Y-29381D01*
X58006Y-29399D01*
X57832Y-29384D01*
X57663Y-29334D01*
X57508Y-29253D01*
X57371Y-29143D01*
X57258Y-29008D01*
X57173Y-28854D01*
X57120Y-28687D01*
X57101Y-28512D01*
X57115Y-28338D01*
X57164Y-28169D01*
X57244Y-28013D01*
X57353Y-27875D01*
X57487Y-27761D01*
X57640Y-27676D01*
X57807Y-27621D01*
X57982Y-27601D01*
X58156Y-27614D01*
X58325Y-27661D01*
X58482Y-27741D01*
X58620Y-27849D01*
X58735Y-27982D01*
X58822Y-28134D01*
X58877Y-28301D01*
X58899Y-28475D01*
X58900Y-28500D01*
X48900Y-28500D02*
X48882Y-28674D01*
X48832Y-28842D01*
X48749Y-28998D01*
X48638Y-29134D01*
X48503Y-29246D01*
X48348Y-29329D01*
X48180Y-29381D01*
X48006Y-29399D01*
X47832Y-29384D01*
X47663Y-29334D01*
X47508Y-29253D01*
X47371Y-29143D01*
X47258Y-29008D01*
X47173Y-28854D01*
X47120Y-28687D01*
X47101Y-28512D01*
X47115Y-28338D01*
X47164Y-28169D01*
X47244Y-28013D01*
X47353Y-27875D01*
X47487Y-27761D01*
X47640Y-27676D01*
X47807Y-27621D01*
X47982Y-27601D01*
X48156Y-27614D01*
X48325Y-27661D01*
X48482Y-27741D01*
X48620Y-27849D01*
X48735Y-27982D01*
X48822Y-28134D01*
X48877Y-28301D01*
X48899Y-28475D01*
X48900Y-28500D01*
X54500Y-26000D02*
X54500Y-25000D01*
X54500Y-25000D02*
X51500Y-25000D01*
X51500Y-25000D02*
X51500Y-26000D01*
X56500Y-43000D02*
X49500Y-43000D01*
X49500Y-43000D02*
X49500Y-26000D01*
X49500Y-26000D02*
X56500Y-26000D01*
X56500Y-26000D02*
X56500Y-43000D01*
X53500Y-42000D02*
X53498Y-41957D01*
X53492Y-41914D01*
X53482Y-41871D01*
X53469Y-41829D01*
X53453Y-41789D01*
X53433Y-41751D01*
X53409Y-41714D01*
X53383Y-41679D01*
X53353Y-41647D01*
X53321Y-41617D01*
X53286Y-41591D01*
X53250Y-41567D01*
X53211Y-41547D01*
X53171Y-41531D01*
X53129Y-41518D01*
X53086Y-41508D01*
X53043Y-41502D01*
X53000Y-41500D01*
X53000Y-41500D02*
X52957Y-41502D01*
X52914Y-41508D01*
X52871Y-41518D01*
X52829Y-41531D01*
X52789Y-41547D01*
X52751Y-41567D01*
X52714Y-41591D01*
X52679Y-41617D01*
X52647Y-41647D01*
X52617Y-41679D01*
X52591Y-41714D01*
X52567Y-41751D01*
X52547Y-41789D01*
X52531Y-41829D01*
X52518Y-41871D01*
X52508Y-41914D01*
X52502Y-41957D01*
X52500Y-42000D01*
X50500Y-42000D02*
X52500Y-42000D01*
X55500Y-42000D02*
X53500Y-42000D01*
X55500Y-42000D02*
X55500Y-27000D01*
X55500Y-27000D02*
X50500Y-27000D01*
X50500Y-27000D02*
X50500Y-42000D01*
G54D11*
X47808Y-43243D02*
X47808Y-42643D01*
X48151Y-43243D02*
X47894Y-42900D01*
X48151Y-42643D02*
X47808Y-42986D01*
X48379Y-42700D02*
X48408Y-42671D01*
X48465Y-42643D01*
X48608Y-42643D01*
X48665Y-42671D01*
X48694Y-42700D01*
X48722Y-42757D01*
X48722Y-42814D01*
X48694Y-42900D01*
X48351Y-43243D01*
X48722Y-43243D01*
X50258Y-45493D02*
X50258Y-44893D01*
X50486Y-44893D01*
X50544Y-44921D01*
X50572Y-44950D01*
X50601Y-45007D01*
X50601Y-45093D01*
X50572Y-45150D01*
X50544Y-45179D01*
X50486Y-45207D01*
X50258Y-45207D01*
X51058Y-45179D02*
X51144Y-45207D01*
X51172Y-45236D01*
X51201Y-45293D01*
X51201Y-45379D01*
X51172Y-45436D01*
X51144Y-45464D01*
X51086Y-45493D01*
X50858Y-45493D01*
X50858Y-44893D01*
X51058Y-44893D01*
X51115Y-44921D01*
X51144Y-44950D01*
X51172Y-45007D01*
X51172Y-45064D01*
X51144Y-45121D01*
X51115Y-45150D01*
X51058Y-45179D01*
X50858Y-45179D01*
X51772Y-45493D02*
X51429Y-45493D01*
X51601Y-45493D02*
X51601Y-44893D01*
X51544Y-44979D01*
X51486Y-45036D01*
X51429Y-45064D01*
X57308Y-43243D02*
X57308Y-42643D01*
X57651Y-43243D02*
X57394Y-42900D01*
X57651Y-42643D02*
X57308Y-42986D01*
X58222Y-43243D02*
X57879Y-43243D01*
X58051Y-43243D02*
X58051Y-42643D01*
X57994Y-42729D01*
X57936Y-42786D01*
X57879Y-42814D01*
X54258Y-45493D02*
X54258Y-44893D01*
X54486Y-44893D01*
X54544Y-44921D01*
X54572Y-44950D01*
X54601Y-45007D01*
X54601Y-45093D01*
X54572Y-45150D01*
X54544Y-45179D01*
X54486Y-45207D01*
X54258Y-45207D01*
X54858Y-45493D02*
X54858Y-44893D01*
X55001Y-44893D01*
X55086Y-44921D01*
X55144Y-44979D01*
X55172Y-45036D01*
X55201Y-45150D01*
X55201Y-45236D01*
X55172Y-45350D01*
X55144Y-45407D01*
X55086Y-45464D01*
X55001Y-45493D01*
X54858Y-45493D01*
X55401Y-44893D02*
X55772Y-44893D01*
X55572Y-45121D01*
X55658Y-45121D01*
X55715Y-45150D01*
X55744Y-45179D01*
X55772Y-45236D01*
X55772Y-45379D01*
X55744Y-45436D01*
X55715Y-45464D01*
X55658Y-45493D01*
X55486Y-45493D01*
X55429Y-45464D01*
X55401Y-45436D01*
X52800Y-48893D02*
X52800Y-49321D01*
X52772Y-49407D01*
X52715Y-49464D01*
X52629Y-49493D01*
X52572Y-49493D01*
X53400Y-49493D02*
X53057Y-49493D01*
X53229Y-49493D02*
X53229Y-48893D01*
X53172Y-48979D01*
X53114Y-49036D01*
X53057Y-49064D01*
X49115Y-53993D02*
X49115Y-53393D01*
X49258Y-53393D01*
X49343Y-53421D01*
X49401Y-53479D01*
X49429Y-53536D01*
X49458Y-53650D01*
X49458Y-53736D01*
X49429Y-53850D01*
X49401Y-53907D01*
X49343Y-53964D01*
X49258Y-53993D01*
X49115Y-53993D01*
X49915Y-53679D02*
X50001Y-53707D01*
X50029Y-53736D01*
X50058Y-53793D01*
X50058Y-53879D01*
X50029Y-53936D01*
X50001Y-53964D01*
X49943Y-53993D01*
X49715Y-53993D01*
X49715Y-53393D01*
X49915Y-53393D01*
X49972Y-53421D01*
X50001Y-53450D01*
X50029Y-53507D01*
X50029Y-53564D01*
X50001Y-53621D01*
X49972Y-53650D01*
X49915Y-53679D01*
X49715Y-53679D01*
X50343Y-53993D02*
X50458Y-53993D01*
X50515Y-53964D01*
X50543Y-53936D01*
X50601Y-53850D01*
X50629Y-53736D01*
X50629Y-53507D01*
X50601Y-53450D01*
X50572Y-53421D01*
X50515Y-53393D01*
X50401Y-53393D01*
X50343Y-53421D01*
X50315Y-53450D01*
X50286Y-53507D01*
X50286Y-53650D01*
X50315Y-53707D01*
X50343Y-53736D01*
X50401Y-53764D01*
X50515Y-53764D01*
X50572Y-53736D01*
X50601Y-53707D01*
X50629Y-53650D01*
X50743Y-54050D02*
X51200Y-54050D01*
X51543Y-53679D02*
X51343Y-53679D01*
X51343Y-53993D02*
X51343Y-53393D01*
X51629Y-53393D01*
X51857Y-53679D02*
X52057Y-53679D01*
X52143Y-53993D02*
X51857Y-53993D01*
X51857Y-53393D01*
X52143Y-53393D01*
X52400Y-53993D02*
X52400Y-53393D01*
X52600Y-53821D01*
X52800Y-53393D01*
X52800Y-53993D01*
X53057Y-53821D02*
X53343Y-53821D01*
X53000Y-53993D02*
X53200Y-53393D01*
X53400Y-53993D01*
X53886Y-53993D02*
X53600Y-53993D01*
X53600Y-53393D01*
X54086Y-53679D02*
X54286Y-53679D01*
X54372Y-53993D02*
X54086Y-53993D01*
X54086Y-53393D01*
X54372Y-53393D01*
X54486Y-54050D02*
X54943Y-54050D01*
X55086Y-53993D02*
X55086Y-53393D01*
X55314Y-53393D01*
X55372Y-53421D01*
X55400Y-53450D01*
X55429Y-53507D01*
X55429Y-53593D01*
X55400Y-53650D01*
X55372Y-53679D01*
X55314Y-53707D01*
X55086Y-53707D01*
X55686Y-53993D02*
X55686Y-53393D01*
X55972Y-53993D02*
X55972Y-53393D01*
X56315Y-53993D01*
X56315Y-53393D01*
X56572Y-53964D02*
X56658Y-53993D01*
X56801Y-53993D01*
X56858Y-53964D01*
X56887Y-53936D01*
X56915Y-53879D01*
X56915Y-53821D01*
X56887Y-53764D01*
X56858Y-53736D01*
X56801Y-53707D01*
X56687Y-53679D01*
X56629Y-53650D01*
X56601Y-53621D01*
X56572Y-53564D01*
X56572Y-53507D01*
X56601Y-53450D01*
X56629Y-53421D01*
X56687Y-53393D01*
X56829Y-53393D01*
X56915Y-53421D01*
G54D15*
X57473Y-38583D02*
X57211Y-38750D01*
X57473Y-38869D02*
X56923Y-38869D01*
X56923Y-38678D01*
X56949Y-38631D01*
X56975Y-38607D01*
X57027Y-38583D01*
X57106Y-38583D01*
X57158Y-38607D01*
X57185Y-38631D01*
X57211Y-38678D01*
X57211Y-38869D01*
X57473Y-38107D02*
X57473Y-38393D01*
X57473Y-38250D02*
X56923Y-38250D01*
X57001Y-38298D01*
X57054Y-38345D01*
X57080Y-38393D01*
X58223Y-38559D02*
X58223Y-38845D01*
X58223Y-38702D02*
X57673Y-38702D01*
X57751Y-38750D01*
X57804Y-38797D01*
X57830Y-38845D01*
X58223Y-38345D02*
X57673Y-38345D01*
X58013Y-38297D02*
X58223Y-38154D01*
X57856Y-38154D02*
X58065Y-38345D01*
X47473Y-38583D02*
X47211Y-38750D01*
X47473Y-38869D02*
X46923Y-38869D01*
X46923Y-38678D01*
X46949Y-38631D01*
X46975Y-38607D01*
X47027Y-38583D01*
X47106Y-38583D01*
X47158Y-38607D01*
X47185Y-38631D01*
X47211Y-38678D01*
X47211Y-38869D01*
X46975Y-38393D02*
X46949Y-38369D01*
X46923Y-38321D01*
X46923Y-38202D01*
X46949Y-38155D01*
X46975Y-38131D01*
X47027Y-38107D01*
X47080Y-38107D01*
X47158Y-38131D01*
X47473Y-38417D01*
X47473Y-38107D01*
X48223Y-38559D02*
X48223Y-38845D01*
X48223Y-38702D02*
X47673Y-38702D01*
X47751Y-38750D01*
X47804Y-38797D01*
X47830Y-38845D01*
X48223Y-38345D02*
X47673Y-38345D01*
X48013Y-38297D02*
X48223Y-38154D01*
X47856Y-38154D02*
X48065Y-38345D01*
G54D11*
X53643Y-34707D02*
X54129Y-34707D01*
X54186Y-34679D01*
X54214Y-34650D01*
X54243Y-34593D01*
X54243Y-34479D01*
X54214Y-34421D01*
X54186Y-34393D01*
X54129Y-34364D01*
X53643Y-34364D01*
X54243Y-33764D02*
X54243Y-34107D01*
X54243Y-33935D02*
X53643Y-33935D01*
X53729Y-33992D01*
X53786Y-34050D01*
X53814Y-34107D01*
X52071Y-38008D02*
X52071Y-37722D01*
X52243Y-38065D02*
X51643Y-37865D01*
X52243Y-37665D01*
X52243Y-37122D02*
X51957Y-37322D01*
X52243Y-37465D02*
X51643Y-37465D01*
X51643Y-37237D01*
X51671Y-37179D01*
X51700Y-37151D01*
X51757Y-37122D01*
X51843Y-37122D01*
X51900Y-37151D01*
X51929Y-37179D01*
X51957Y-37237D01*
X51957Y-37465D01*
X52243Y-36865D02*
X51643Y-36865D01*
X51643Y-36722D01*
X51671Y-36637D01*
X51729Y-36579D01*
X51786Y-36551D01*
X51900Y-36522D01*
X51986Y-36522D01*
X52100Y-36551D01*
X52157Y-36579D01*
X52214Y-36637D01*
X52243Y-36722D01*
X52243Y-36865D01*
X51643Y-36265D02*
X52129Y-36265D01*
X52186Y-36237D01*
X52214Y-36208D01*
X52243Y-36151D01*
X52243Y-36037D01*
X52214Y-35979D01*
X52186Y-35951D01*
X52129Y-35922D01*
X51643Y-35922D01*
X52243Y-35636D02*
X51643Y-35636D01*
X52243Y-35350D02*
X51643Y-35350D01*
X52243Y-35007D01*
X51643Y-35007D01*
X51643Y-34607D02*
X51643Y-34493D01*
X51671Y-34435D01*
X51729Y-34378D01*
X51843Y-34350D01*
X52043Y-34350D01*
X52157Y-34378D01*
X52214Y-34435D01*
X52243Y-34493D01*
X52243Y-34607D01*
X52214Y-34664D01*
X52157Y-34721D01*
X52043Y-34750D01*
X51843Y-34750D01*
X51729Y-34721D01*
X51671Y-34664D01*
X51643Y-34607D01*
X52300Y-34235D02*
X52300Y-33778D01*
X52243Y-33635D02*
X51643Y-33635D01*
X52243Y-33292D01*
X51643Y-33292D01*
X52071Y-33035D02*
X52071Y-32749D01*
X52243Y-33092D02*
X51643Y-32892D01*
X52243Y-32692D01*
X52243Y-32492D02*
X51643Y-32492D01*
X52243Y-32149D01*
X51643Y-32149D01*
X51643Y-31749D02*
X51643Y-31635D01*
X51671Y-31577D01*
X51729Y-31520D01*
X51843Y-31492D01*
X52043Y-31492D01*
X52157Y-31520D01*
X52214Y-31577D01*
X52243Y-31635D01*
X52243Y-31749D01*
X52214Y-31806D01*
X52157Y-31863D01*
X52043Y-31892D01*
X51843Y-31892D01*
X51729Y-31863D01*
X51671Y-31806D01*
X51643Y-31749D01*
X52243Y-25143D02*
X52243Y-25629D01*
X52271Y-25686D01*
X52300Y-25714D01*
X52357Y-25743D01*
X52471Y-25743D01*
X52529Y-25714D01*
X52557Y-25686D01*
X52586Y-25629D01*
X52586Y-25143D01*
X52843Y-25714D02*
X52929Y-25743D01*
X53072Y-25743D01*
X53129Y-25714D01*
X53158Y-25686D01*
X53186Y-25629D01*
X53186Y-25571D01*
X53158Y-25514D01*
X53129Y-25486D01*
X53072Y-25457D01*
X52958Y-25429D01*
X52900Y-25400D01*
X52872Y-25371D01*
X52843Y-25314D01*
X52843Y-25257D01*
X52872Y-25200D01*
X52900Y-25171D01*
X52958Y-25143D01*
X53100Y-25143D01*
X53186Y-25171D01*
X53643Y-25429D02*
X53729Y-25457D01*
X53757Y-25486D01*
X53786Y-25543D01*
X53786Y-25629D01*
X53757Y-25686D01*
X53729Y-25714D01*
X53671Y-25743D01*
X53443Y-25743D01*
X53443Y-25143D01*
X53643Y-25143D01*
X53700Y-25171D01*
X53729Y-25200D01*
X53757Y-25257D01*
X53757Y-25314D01*
X53729Y-25371D01*
X53700Y-25400D01*
X53643Y-25429D01*
X53443Y-25429D01*
M02*
