M48
;DRILL file {PCBnew (2010-03-14)-final} date Wed 16 Feb 2011 04:18:43 PM PST
;FORMAT={2:4/ absolute / inch / suppress trailing zeros}
R,T
VER,1
FMAT,2
INCH,LZ
TCST,OFF
ICI,OFF
ATC,ON
T1C0.032
T2C0.039
T3C0.043
T4C0.120
T5C0.125
%
M47
G05
M72
T1
X048Y-037
X048Y-04
X058Y-037
X058Y-04
T2
X05Y-0275
X05Y-0285
X05Y-0295
X05Y-0305
X05Y-0315
X05Y-0325
X05Y-0335
X05Y-0345
X05Y-0355
X05Y-0365
X05Y-0375
X05Y-0385
X05Y-0395
X05Y-0405
X05Y-0415
X056Y-0275
X056Y-0285
X056Y-0295
X056Y-0305
X056Y-0315
X056Y-0325
X056Y-0335
X056Y-0345
X056Y-0355
X056Y-0365
X056Y-0375
X056Y-0385
X056Y-0395
X056Y-0405
X056Y-0415
T3
X0475Y-04425
X0475Y-04525
X0475Y-04625
X0485Y-04425
X0485Y-04525
X0485Y-04625
X05082Y-0505
X051365Y-05162
X05191Y-0505
X052455Y-05162
X053Y-0505
X053545Y-05162
X05409Y-0505
X054635Y-05162
X05518Y-0505
X0575Y-04425
X0575Y-04525
X0575Y-04625
X0585Y-04425
X0585Y-04525
X0585Y-04625
T4
X048Y-0285
X048Y-0485
X058Y-0285
X058Y-0485
T5
X04808Y-05106
X05792Y-05106
T0
M30
