G04 (created by PCBNEW-RS274X (2010-03-14)-final) date Wed 16 Feb 2011 04:18:36 PM PST*
G01*
G70*
G90*
%MOIN*%
G04 Gerber Fmt 3.4, Leading zero omitted, Abs format*
%FSLAX34Y34*%
G04 APERTURE LIST*
%ADD10C,0.006000*%
%ADD11C,0.009000*%
%ADD12C,0.073000*%
%ADD13R,0.073000X0.073000*%
%ADD14C,0.053000*%
%ADD15C,0.165000*%
%ADD16C,0.055000*%
%ADD17C,0.160000*%
%ADD18R,0.069000X0.060000*%
%ADD19C,0.069000*%
%ADD20C,0.032000*%
%ADD21C,0.010000*%
G04 APERTURE END LIST*
G54D10*
G54D11*
X59250Y-25000D02*
X46750Y-25000D01*
X59250Y-55000D02*
X59250Y-25000D01*
X46750Y-55000D02*
X59250Y-55000D01*
X46750Y-25000D02*
X46750Y-55000D01*
G54D12*
X48500Y-45250D03*
X48500Y-46250D03*
G54D13*
X48500Y-44250D03*
G54D14*
X47500Y-44250D03*
X47500Y-45250D03*
X47500Y-46250D03*
G54D12*
X57500Y-45250D03*
X57500Y-44250D03*
G54D13*
X57500Y-46250D03*
G54D14*
X58500Y-46250D03*
X58500Y-45250D03*
X58500Y-44250D03*
G54D12*
X53000Y-50500D03*
X51910Y-50500D03*
X50820Y-50500D03*
X54090Y-50500D03*
G54D13*
X55180Y-50500D03*
G54D12*
X54635Y-51620D03*
X53545Y-51620D03*
X52455Y-51620D03*
X51365Y-51620D03*
G54D15*
X48080Y-51060D03*
X57920Y-51060D03*
G54D16*
X58000Y-37000D03*
X58000Y-40000D03*
X48000Y-37000D03*
X48000Y-40000D03*
G54D17*
X58000Y-48500D03*
X48000Y-48500D03*
X58000Y-28500D03*
X48000Y-28500D03*
G54D18*
X56000Y-41500D03*
G54D19*
X56000Y-40500D03*
X56000Y-39500D03*
X56000Y-38500D03*
X56000Y-37500D03*
X56000Y-36500D03*
X56000Y-35500D03*
X56000Y-34500D03*
X56000Y-33500D03*
X56000Y-32500D03*
X56000Y-31500D03*
X56000Y-30500D03*
X56000Y-29500D03*
X56000Y-28500D03*
X56000Y-27500D03*
X50000Y-27500D03*
X50000Y-28500D03*
X50000Y-29500D03*
X50000Y-30500D03*
X50000Y-31500D03*
X50000Y-32500D03*
X50000Y-33500D03*
X50000Y-34500D03*
X50000Y-35500D03*
X50000Y-36500D03*
X50000Y-37500D03*
X50000Y-38500D03*
X50000Y-39500D03*
X50000Y-40500D03*
X50000Y-41500D03*
G54D20*
X55458Y-42064D02*
X55914Y-42064D01*
X55366Y-41972D02*
X55458Y-42064D01*
X55366Y-40866D02*
X55366Y-41972D01*
X50000Y-35500D02*
X55366Y-40866D01*
X58000Y-40673D02*
X58000Y-40000D01*
X56609Y-42064D02*
X58000Y-40673D01*
X55914Y-42064D02*
X56609Y-42064D01*
X55318Y-51620D02*
X54635Y-51620D01*
X55914Y-51024D02*
X55318Y-51620D01*
X55914Y-42064D02*
X55914Y-51024D01*
X51636Y-52439D02*
X52455Y-51620D01*
X50514Y-52439D02*
X51636Y-52439D01*
X49169Y-51094D02*
X50514Y-52439D01*
X49169Y-41169D02*
X49169Y-51094D01*
X48000Y-40000D02*
X49169Y-41169D01*
G54D21*
X46995Y-25245D02*
X59005Y-25245D01*
X46995Y-25325D02*
X59005Y-25325D01*
X46995Y-25405D02*
X59005Y-25405D01*
X46995Y-25485D02*
X59005Y-25485D01*
X46995Y-25565D02*
X59005Y-25565D01*
X46995Y-25645D02*
X59005Y-25645D01*
X46995Y-25725D02*
X59005Y-25725D01*
X46995Y-25805D02*
X59005Y-25805D01*
X46995Y-25885D02*
X59005Y-25885D01*
X46995Y-25965D02*
X59005Y-25965D01*
X46995Y-26045D02*
X59005Y-26045D01*
X46995Y-26125D02*
X59005Y-26125D01*
X46995Y-26205D02*
X59005Y-26205D01*
X46995Y-26285D02*
X59005Y-26285D01*
X46995Y-26365D02*
X59005Y-26365D01*
X46995Y-26445D02*
X59005Y-26445D01*
X46995Y-26525D02*
X59005Y-26525D01*
X46995Y-26605D02*
X59005Y-26605D01*
X46995Y-26685D02*
X59005Y-26685D01*
X46995Y-26765D02*
X59005Y-26765D01*
X46995Y-26845D02*
X59005Y-26845D01*
X46995Y-26925D02*
X49836Y-26925D01*
X50164Y-26925D02*
X55836Y-26925D01*
X56164Y-26925D02*
X59005Y-26925D01*
X46995Y-27005D02*
X49655Y-27005D01*
X50345Y-27005D02*
X55655Y-27005D01*
X56345Y-27005D02*
X59005Y-27005D01*
X46995Y-27085D02*
X49575Y-27085D01*
X50425Y-27085D02*
X55575Y-27085D01*
X56425Y-27085D02*
X59005Y-27085D01*
X46995Y-27165D02*
X49497Y-27165D01*
X50505Y-27165D02*
X55497Y-27165D01*
X56505Y-27165D02*
X59005Y-27165D01*
X46995Y-27245D02*
X49463Y-27245D01*
X50538Y-27245D02*
X55463Y-27245D01*
X56538Y-27245D02*
X59005Y-27245D01*
X46995Y-27325D02*
X49430Y-27325D01*
X50571Y-27325D02*
X55430Y-27325D01*
X56571Y-27325D02*
X59005Y-27325D01*
X46995Y-27405D02*
X49406Y-27405D01*
X50594Y-27405D02*
X55406Y-27405D01*
X56594Y-27405D02*
X59005Y-27405D01*
X46995Y-27485D02*
X47758Y-27485D01*
X48234Y-27485D02*
X49406Y-27485D01*
X50594Y-27485D02*
X55406Y-27485D01*
X56594Y-27485D02*
X57758Y-27485D01*
X58234Y-27485D02*
X59005Y-27485D01*
X46995Y-27565D02*
X47564Y-27565D01*
X48432Y-27565D02*
X49406Y-27565D01*
X50594Y-27565D02*
X55406Y-27565D01*
X56594Y-27565D02*
X57564Y-27565D01*
X58432Y-27565D02*
X59005Y-27565D01*
X46995Y-27645D02*
X47411Y-27645D01*
X48590Y-27645D02*
X49417Y-27645D01*
X50582Y-27645D02*
X55417Y-27645D01*
X56582Y-27645D02*
X57411Y-27645D01*
X58590Y-27645D02*
X59005Y-27645D01*
X46995Y-27725D02*
X47364Y-27725D01*
X48637Y-27725D02*
X49450Y-27725D01*
X50549Y-27725D02*
X55450Y-27725D01*
X56549Y-27725D02*
X57364Y-27725D01*
X58637Y-27725D02*
X59005Y-27725D01*
X46995Y-27805D02*
X47376Y-27805D01*
X48624Y-27805D02*
X49483Y-27805D01*
X50516Y-27805D02*
X55483Y-27805D01*
X56516Y-27805D02*
X57376Y-27805D01*
X58624Y-27805D02*
X59005Y-27805D01*
X46995Y-27885D02*
X47189Y-27885D01*
X47314Y-27885D02*
X47456Y-27885D01*
X48544Y-27885D02*
X48686Y-27885D01*
X48812Y-27885D02*
X49544Y-27885D01*
X50454Y-27885D02*
X55545Y-27885D01*
X56454Y-27885D02*
X57189Y-27885D01*
X57314Y-27885D02*
X57456Y-27885D01*
X58544Y-27885D02*
X58686Y-27885D01*
X58812Y-27885D02*
X59005Y-27885D01*
X46995Y-27965D02*
X47107Y-27965D01*
X47394Y-27965D02*
X47536Y-27965D01*
X48464Y-27965D02*
X48606Y-27965D01*
X48894Y-27965D02*
X49624Y-27965D01*
X50374Y-27965D02*
X55625Y-27965D01*
X56374Y-27965D02*
X57107Y-27965D01*
X57394Y-27965D02*
X57536Y-27965D01*
X58464Y-27965D02*
X58606Y-27965D01*
X58895Y-27965D02*
X59005Y-27965D01*
X46995Y-28045D02*
X47075Y-28045D01*
X47474Y-28045D02*
X47616Y-28045D01*
X48384Y-28045D02*
X48526Y-28045D01*
X48928Y-28045D02*
X49615Y-28045D01*
X50386Y-28045D02*
X55615Y-28045D01*
X56386Y-28045D02*
X57075Y-28045D01*
X57474Y-28045D02*
X57616Y-28045D01*
X58384Y-28045D02*
X58526Y-28045D01*
X58928Y-28045D02*
X59005Y-28045D01*
X46995Y-28125D02*
X47042Y-28125D01*
X47554Y-28125D02*
X47696Y-28125D01*
X48304Y-28125D02*
X48446Y-28125D01*
X48961Y-28125D02*
X49535Y-28125D01*
X50466Y-28125D02*
X55535Y-28125D01*
X56466Y-28125D02*
X57043Y-28125D01*
X57554Y-28125D02*
X57696Y-28125D01*
X58304Y-28125D02*
X58446Y-28125D01*
X58961Y-28125D02*
X59005Y-28125D01*
X46995Y-28205D02*
X47010Y-28205D01*
X47634Y-28205D02*
X47776Y-28205D01*
X48224Y-28205D02*
X48366Y-28205D01*
X48994Y-28205D02*
X49480Y-28205D01*
X50521Y-28205D02*
X55480Y-28205D01*
X56521Y-28205D02*
X57010Y-28205D01*
X57634Y-28205D02*
X57776Y-28205D01*
X58224Y-28205D02*
X58366Y-28205D01*
X58994Y-28205D02*
X59005Y-28205D01*
X47714Y-28285D02*
X47856Y-28285D01*
X48144Y-28285D02*
X48286Y-28285D01*
X49027Y-28285D02*
X49447Y-28285D01*
X50554Y-28285D02*
X55447Y-28285D01*
X56554Y-28285D02*
X56978Y-28285D01*
X57714Y-28285D02*
X57856Y-28285D01*
X58144Y-28285D02*
X58286Y-28285D01*
X47794Y-28365D02*
X47936Y-28365D01*
X48064Y-28365D02*
X48206Y-28365D01*
X49028Y-28365D02*
X49414Y-28365D01*
X50587Y-28365D02*
X55414Y-28365D01*
X56587Y-28365D02*
X56970Y-28365D01*
X57794Y-28365D02*
X57936Y-28365D01*
X58064Y-28365D02*
X58206Y-28365D01*
X47874Y-28445D02*
X48126Y-28445D01*
X49029Y-28445D02*
X49406Y-28445D01*
X50594Y-28445D02*
X55406Y-28445D01*
X56594Y-28445D02*
X56971Y-28445D01*
X57874Y-28445D02*
X58126Y-28445D01*
X47904Y-28525D02*
X48096Y-28525D01*
X49029Y-28525D02*
X49406Y-28525D01*
X50594Y-28525D02*
X55406Y-28525D01*
X56594Y-28525D02*
X56971Y-28525D01*
X57904Y-28525D02*
X58096Y-28525D01*
X47824Y-28605D02*
X47966Y-28605D01*
X48034Y-28605D02*
X48176Y-28605D01*
X49030Y-28605D02*
X49406Y-28605D01*
X50594Y-28605D02*
X55406Y-28605D01*
X56594Y-28605D02*
X56972Y-28605D01*
X57824Y-28605D02*
X57966Y-28605D01*
X58034Y-28605D02*
X58176Y-28605D01*
X47744Y-28685D02*
X47886Y-28685D01*
X48114Y-28685D02*
X48256Y-28685D01*
X49030Y-28685D02*
X49433Y-28685D01*
X50566Y-28685D02*
X55433Y-28685D01*
X56566Y-28685D02*
X56972Y-28685D01*
X57744Y-28685D02*
X57886Y-28685D01*
X58114Y-28685D02*
X58256Y-28685D01*
X47664Y-28765D02*
X47806Y-28765D01*
X48194Y-28765D02*
X48336Y-28765D01*
X49002Y-28765D02*
X49466Y-28765D01*
X50532Y-28765D02*
X55466Y-28765D01*
X56532Y-28765D02*
X56994Y-28765D01*
X57664Y-28765D02*
X57806Y-28765D01*
X58194Y-28765D02*
X58336Y-28765D01*
X59002Y-28765D02*
X59005Y-28765D01*
X46995Y-28845D02*
X47027Y-28845D01*
X47584Y-28845D02*
X47726Y-28845D01*
X48274Y-28845D02*
X48416Y-28845D01*
X48970Y-28845D02*
X49505Y-28845D01*
X50494Y-28845D02*
X55505Y-28845D01*
X56495Y-28845D02*
X57027Y-28845D01*
X57584Y-28845D02*
X57726Y-28845D01*
X58274Y-28845D02*
X58416Y-28845D01*
X58969Y-28845D02*
X59005Y-28845D01*
X46995Y-28925D02*
X47060Y-28925D01*
X47504Y-28925D02*
X47646Y-28925D01*
X48354Y-28925D02*
X48496Y-28925D01*
X48937Y-28925D02*
X49585Y-28925D01*
X50414Y-28925D02*
X55585Y-28925D01*
X56415Y-28925D02*
X57060Y-28925D01*
X57504Y-28925D02*
X57646Y-28925D01*
X58354Y-28925D02*
X58496Y-28925D01*
X58937Y-28925D02*
X59005Y-28925D01*
X46995Y-29005D02*
X47093Y-29005D01*
X47424Y-29005D02*
X47566Y-29005D01*
X48434Y-29005D02*
X48576Y-29005D01*
X48905Y-29005D02*
X49655Y-29005D01*
X50345Y-29005D02*
X55655Y-29005D01*
X56345Y-29005D02*
X57093Y-29005D01*
X57424Y-29005D02*
X57566Y-29005D01*
X58434Y-29005D02*
X58576Y-29005D01*
X58905Y-29005D02*
X59005Y-29005D01*
X46995Y-29085D02*
X47138Y-29085D01*
X47344Y-29085D02*
X47486Y-29085D01*
X48514Y-29085D02*
X48656Y-29085D01*
X48861Y-29085D02*
X49575Y-29085D01*
X50425Y-29085D02*
X55575Y-29085D01*
X56425Y-29085D02*
X57138Y-29085D01*
X57344Y-29085D02*
X57486Y-29085D01*
X58514Y-29085D02*
X58656Y-29085D01*
X58861Y-29085D02*
X59005Y-29085D01*
X46995Y-29165D02*
X47406Y-29165D01*
X48594Y-29165D02*
X49497Y-29165D01*
X50505Y-29165D02*
X55497Y-29165D01*
X56505Y-29165D02*
X57406Y-29165D01*
X58594Y-29165D02*
X59005Y-29165D01*
X46995Y-29245D02*
X47345Y-29245D01*
X48654Y-29245D02*
X49463Y-29245D01*
X50538Y-29245D02*
X55463Y-29245D01*
X56538Y-29245D02*
X57345Y-29245D01*
X58654Y-29245D02*
X59005Y-29245D01*
X46995Y-29325D02*
X47392Y-29325D01*
X48607Y-29325D02*
X49430Y-29325D01*
X50571Y-29325D02*
X55430Y-29325D01*
X56571Y-29325D02*
X57392Y-29325D01*
X58607Y-29325D02*
X59005Y-29325D01*
X46995Y-29405D02*
X47493Y-29405D01*
X48508Y-29405D02*
X49406Y-29405D01*
X50594Y-29405D02*
X55406Y-29405D01*
X56594Y-29405D02*
X57493Y-29405D01*
X58508Y-29405D02*
X59005Y-29405D01*
X46995Y-29485D02*
X47692Y-29485D01*
X48315Y-29485D02*
X49406Y-29485D01*
X50594Y-29485D02*
X55406Y-29485D01*
X56594Y-29485D02*
X57692Y-29485D01*
X58315Y-29485D02*
X59005Y-29485D01*
X46995Y-29565D02*
X49406Y-29565D01*
X50594Y-29565D02*
X55406Y-29565D01*
X56594Y-29565D02*
X59005Y-29565D01*
X46995Y-29645D02*
X49417Y-29645D01*
X50582Y-29645D02*
X55417Y-29645D01*
X56582Y-29645D02*
X59005Y-29645D01*
X46995Y-29725D02*
X49450Y-29725D01*
X50549Y-29725D02*
X55450Y-29725D01*
X56549Y-29725D02*
X59005Y-29725D01*
X46995Y-29805D02*
X49483Y-29805D01*
X50516Y-29805D02*
X55483Y-29805D01*
X56516Y-29805D02*
X59005Y-29805D01*
X46995Y-29885D02*
X49545Y-29885D01*
X50454Y-29885D02*
X55545Y-29885D01*
X56454Y-29885D02*
X59005Y-29885D01*
X46995Y-29965D02*
X49625Y-29965D01*
X50373Y-29965D02*
X55625Y-29965D01*
X56374Y-29965D02*
X59005Y-29965D01*
X46995Y-30045D02*
X49614Y-30045D01*
X50385Y-30045D02*
X55615Y-30045D01*
X56386Y-30045D02*
X59005Y-30045D01*
X46995Y-30125D02*
X49535Y-30125D01*
X50465Y-30125D02*
X55535Y-30125D01*
X56466Y-30125D02*
X59005Y-30125D01*
X46995Y-30205D02*
X49480Y-30205D01*
X50521Y-30205D02*
X55480Y-30205D01*
X56521Y-30205D02*
X59005Y-30205D01*
X46995Y-30285D02*
X49447Y-30285D01*
X50554Y-30285D02*
X55447Y-30285D01*
X56554Y-30285D02*
X59005Y-30285D01*
X46995Y-30365D02*
X49414Y-30365D01*
X50587Y-30365D02*
X55414Y-30365D01*
X56587Y-30365D02*
X59005Y-30365D01*
X46995Y-30445D02*
X49406Y-30445D01*
X50594Y-30445D02*
X55406Y-30445D01*
X56594Y-30445D02*
X59005Y-30445D01*
X46995Y-30525D02*
X49406Y-30525D01*
X50594Y-30525D02*
X55406Y-30525D01*
X56594Y-30525D02*
X59005Y-30525D01*
X46995Y-30605D02*
X49406Y-30605D01*
X50594Y-30605D02*
X55406Y-30605D01*
X56594Y-30605D02*
X59005Y-30605D01*
X46995Y-30685D02*
X49433Y-30685D01*
X50566Y-30685D02*
X55433Y-30685D01*
X56566Y-30685D02*
X59005Y-30685D01*
X46995Y-30765D02*
X49466Y-30765D01*
X50532Y-30765D02*
X55466Y-30765D01*
X56532Y-30765D02*
X59005Y-30765D01*
X46995Y-30845D02*
X49504Y-30845D01*
X50494Y-30845D02*
X55505Y-30845D01*
X56494Y-30845D02*
X59005Y-30845D01*
X46995Y-30925D02*
X49584Y-30925D01*
X50413Y-30925D02*
X55585Y-30925D01*
X56414Y-30925D02*
X59005Y-30925D01*
X46995Y-31005D02*
X49655Y-31005D01*
X50345Y-31005D02*
X55655Y-31005D01*
X56346Y-31005D02*
X59005Y-31005D01*
X46995Y-31085D02*
X49575Y-31085D01*
X50425Y-31085D02*
X55575Y-31085D01*
X56426Y-31085D02*
X59005Y-31085D01*
X46995Y-31165D02*
X49497Y-31165D01*
X50505Y-31165D02*
X55497Y-31165D01*
X56505Y-31165D02*
X59005Y-31165D01*
X46995Y-31245D02*
X49463Y-31245D01*
X50538Y-31245D02*
X55463Y-31245D01*
X56538Y-31245D02*
X59005Y-31245D01*
X46995Y-31325D02*
X49430Y-31325D01*
X50571Y-31325D02*
X55430Y-31325D01*
X56571Y-31325D02*
X59005Y-31325D01*
X46995Y-31405D02*
X49406Y-31405D01*
X50594Y-31405D02*
X55406Y-31405D01*
X56594Y-31405D02*
X59005Y-31405D01*
X46995Y-31485D02*
X49406Y-31485D01*
X50594Y-31485D02*
X55406Y-31485D01*
X56594Y-31485D02*
X59005Y-31485D01*
X46995Y-31565D02*
X49406Y-31565D01*
X50594Y-31565D02*
X55406Y-31565D01*
X56594Y-31565D02*
X59005Y-31565D01*
X46995Y-31645D02*
X49417Y-31645D01*
X50582Y-31645D02*
X55417Y-31645D01*
X56582Y-31645D02*
X59005Y-31645D01*
X46995Y-31725D02*
X49450Y-31725D01*
X50549Y-31725D02*
X55450Y-31725D01*
X56549Y-31725D02*
X59005Y-31725D01*
X46995Y-31805D02*
X49483Y-31805D01*
X50516Y-31805D02*
X55483Y-31805D01*
X56516Y-31805D02*
X59005Y-31805D01*
X46995Y-31885D02*
X49544Y-31885D01*
X50454Y-31885D02*
X55545Y-31885D01*
X56454Y-31885D02*
X59005Y-31885D01*
X46995Y-31965D02*
X49624Y-31965D01*
X50374Y-31965D02*
X55625Y-31965D01*
X56374Y-31965D02*
X59005Y-31965D01*
X46995Y-32045D02*
X49615Y-32045D01*
X50385Y-32045D02*
X55615Y-32045D01*
X56386Y-32045D02*
X59005Y-32045D01*
X46995Y-32125D02*
X49535Y-32125D01*
X50465Y-32125D02*
X55535Y-32125D01*
X56466Y-32125D02*
X59005Y-32125D01*
X46995Y-32205D02*
X49480Y-32205D01*
X50521Y-32205D02*
X55480Y-32205D01*
X56521Y-32205D02*
X59005Y-32205D01*
X46995Y-32285D02*
X49447Y-32285D01*
X50554Y-32285D02*
X55447Y-32285D01*
X56554Y-32285D02*
X59005Y-32285D01*
X46995Y-32365D02*
X49414Y-32365D01*
X50587Y-32365D02*
X55414Y-32365D01*
X56587Y-32365D02*
X59005Y-32365D01*
X46995Y-32445D02*
X49406Y-32445D01*
X50594Y-32445D02*
X55406Y-32445D01*
X56594Y-32445D02*
X59005Y-32445D01*
X46995Y-32525D02*
X49406Y-32525D01*
X50594Y-32525D02*
X55406Y-32525D01*
X56594Y-32525D02*
X59005Y-32525D01*
X46995Y-32605D02*
X49406Y-32605D01*
X50594Y-32605D02*
X55406Y-32605D01*
X56594Y-32605D02*
X59005Y-32605D01*
X46995Y-32685D02*
X49433Y-32685D01*
X50566Y-32685D02*
X55433Y-32685D01*
X56566Y-32685D02*
X59005Y-32685D01*
X46995Y-32765D02*
X49466Y-32765D01*
X50532Y-32765D02*
X55466Y-32765D01*
X56532Y-32765D02*
X59005Y-32765D01*
X46995Y-32845D02*
X49504Y-32845D01*
X50494Y-32845D02*
X55505Y-32845D01*
X56494Y-32845D02*
X59005Y-32845D01*
X46995Y-32925D02*
X49584Y-32925D01*
X50414Y-32925D02*
X55585Y-32925D01*
X56413Y-32925D02*
X59005Y-32925D01*
X46995Y-33005D02*
X49655Y-33005D01*
X50345Y-33005D02*
X55655Y-33005D01*
X56345Y-33005D02*
X59005Y-33005D01*
X46995Y-33085D02*
X49575Y-33085D01*
X50425Y-33085D02*
X55575Y-33085D01*
X56425Y-33085D02*
X59005Y-33085D01*
X46995Y-33165D02*
X49497Y-33165D01*
X50505Y-33165D02*
X55497Y-33165D01*
X56505Y-33165D02*
X59005Y-33165D01*
X46995Y-33245D02*
X49463Y-33245D01*
X50538Y-33245D02*
X55463Y-33245D01*
X56538Y-33245D02*
X59005Y-33245D01*
X46995Y-33325D02*
X49430Y-33325D01*
X50571Y-33325D02*
X55430Y-33325D01*
X56571Y-33325D02*
X59005Y-33325D01*
X46995Y-33405D02*
X49406Y-33405D01*
X50594Y-33405D02*
X55406Y-33405D01*
X56594Y-33405D02*
X59005Y-33405D01*
X46995Y-33485D02*
X49406Y-33485D01*
X50594Y-33485D02*
X55406Y-33485D01*
X56594Y-33485D02*
X59005Y-33485D01*
X46995Y-33565D02*
X49406Y-33565D01*
X50594Y-33565D02*
X55406Y-33565D01*
X56594Y-33565D02*
X59005Y-33565D01*
X46995Y-33645D02*
X49417Y-33645D01*
X50582Y-33645D02*
X55417Y-33645D01*
X56582Y-33645D02*
X59005Y-33645D01*
X46995Y-33725D02*
X49450Y-33725D01*
X50549Y-33725D02*
X55450Y-33725D01*
X56549Y-33725D02*
X59005Y-33725D01*
X46995Y-33805D02*
X49483Y-33805D01*
X50516Y-33805D02*
X55483Y-33805D01*
X56516Y-33805D02*
X59005Y-33805D01*
X46995Y-33885D02*
X49545Y-33885D01*
X50454Y-33885D02*
X55545Y-33885D01*
X56455Y-33885D02*
X59005Y-33885D01*
X46995Y-33965D02*
X49625Y-33965D01*
X50374Y-33965D02*
X55625Y-33965D01*
X56375Y-33965D02*
X59005Y-33965D01*
X46995Y-34045D02*
X49615Y-34045D01*
X50385Y-34045D02*
X55615Y-34045D01*
X56385Y-34045D02*
X59005Y-34045D01*
X46995Y-34125D02*
X49535Y-34125D01*
X50465Y-34125D02*
X55535Y-34125D01*
X56465Y-34125D02*
X59005Y-34125D01*
X46995Y-34205D02*
X49480Y-34205D01*
X50521Y-34205D02*
X55480Y-34205D01*
X56521Y-34205D02*
X59005Y-34205D01*
X46995Y-34285D02*
X49447Y-34285D01*
X50554Y-34285D02*
X55447Y-34285D01*
X56554Y-34285D02*
X59005Y-34285D01*
X46995Y-34365D02*
X49414Y-34365D01*
X50587Y-34365D02*
X55414Y-34365D01*
X56587Y-34365D02*
X59005Y-34365D01*
X46995Y-34445D02*
X49406Y-34445D01*
X50594Y-34445D02*
X55406Y-34445D01*
X56594Y-34445D02*
X59005Y-34445D01*
X46995Y-34525D02*
X49406Y-34525D01*
X50594Y-34525D02*
X55406Y-34525D01*
X56594Y-34525D02*
X59005Y-34525D01*
X46995Y-34605D02*
X49406Y-34605D01*
X50594Y-34605D02*
X55406Y-34605D01*
X56594Y-34605D02*
X59005Y-34605D01*
X46995Y-34685D02*
X49433Y-34685D01*
X50566Y-34685D02*
X55433Y-34685D01*
X56566Y-34685D02*
X59005Y-34685D01*
X46995Y-34765D02*
X49466Y-34765D01*
X50532Y-34765D02*
X55466Y-34765D01*
X56532Y-34765D02*
X59005Y-34765D01*
X46995Y-34845D02*
X49504Y-34845D01*
X50495Y-34845D02*
X55505Y-34845D01*
X56495Y-34845D02*
X59005Y-34845D01*
X46995Y-34925D02*
X49584Y-34925D01*
X50415Y-34925D02*
X55585Y-34925D01*
X56415Y-34925D02*
X59005Y-34925D01*
X46995Y-35005D02*
X49655Y-35005D01*
X50345Y-35005D02*
X55655Y-35005D01*
X56345Y-35005D02*
X59005Y-35005D01*
X46995Y-35085D02*
X49575Y-35085D01*
X50425Y-35085D02*
X55575Y-35085D01*
X56425Y-35085D02*
X59005Y-35085D01*
X46995Y-35165D02*
X49497Y-35165D01*
X50505Y-35165D02*
X55497Y-35165D01*
X56505Y-35165D02*
X59005Y-35165D01*
X46995Y-35245D02*
X49463Y-35245D01*
X50538Y-35245D02*
X55463Y-35245D01*
X56538Y-35245D02*
X59005Y-35245D01*
X46995Y-35325D02*
X49430Y-35325D01*
X50571Y-35325D02*
X55430Y-35325D01*
X56571Y-35325D02*
X59005Y-35325D01*
X46995Y-35405D02*
X49406Y-35405D01*
X50594Y-35405D02*
X55406Y-35405D01*
X56594Y-35405D02*
X59005Y-35405D01*
X46995Y-35485D02*
X49406Y-35485D01*
X50594Y-35485D02*
X55406Y-35485D01*
X56594Y-35485D02*
X59005Y-35485D01*
X46995Y-35565D02*
X49406Y-35565D01*
X50645Y-35565D02*
X55406Y-35565D01*
X56594Y-35565D02*
X59005Y-35565D01*
X46995Y-35645D02*
X49417Y-35645D01*
X50725Y-35645D02*
X55417Y-35645D01*
X56582Y-35645D02*
X59005Y-35645D01*
X46995Y-35725D02*
X49450Y-35725D01*
X50805Y-35725D02*
X55450Y-35725D01*
X56549Y-35725D02*
X59005Y-35725D01*
X46995Y-35805D02*
X49483Y-35805D01*
X50885Y-35805D02*
X55483Y-35805D01*
X56516Y-35805D02*
X59005Y-35805D01*
X46995Y-35885D02*
X49544Y-35885D01*
X50965Y-35885D02*
X55545Y-35885D01*
X56454Y-35885D02*
X59005Y-35885D01*
X46995Y-35965D02*
X49624Y-35965D01*
X51045Y-35965D02*
X55625Y-35965D01*
X56374Y-35965D02*
X59005Y-35965D01*
X46995Y-36045D02*
X49615Y-36045D01*
X51125Y-36045D02*
X55615Y-36045D01*
X56386Y-36045D02*
X59005Y-36045D01*
X46995Y-36125D02*
X49535Y-36125D01*
X51205Y-36125D02*
X55535Y-36125D01*
X56466Y-36125D02*
X59005Y-36125D01*
X46995Y-36205D02*
X49480Y-36205D01*
X51285Y-36205D02*
X55480Y-36205D01*
X56521Y-36205D02*
X59005Y-36205D01*
X46995Y-36285D02*
X49447Y-36285D01*
X51365Y-36285D02*
X55447Y-36285D01*
X56554Y-36285D02*
X59005Y-36285D01*
X46995Y-36365D02*
X49414Y-36365D01*
X51445Y-36365D02*
X55414Y-36365D01*
X56587Y-36365D02*
X59005Y-36365D01*
X46995Y-36445D02*
X49406Y-36445D01*
X51525Y-36445D02*
X55406Y-36445D01*
X56594Y-36445D02*
X59005Y-36445D01*
X46995Y-36525D02*
X47776Y-36525D01*
X48226Y-36525D02*
X49406Y-36525D01*
X51605Y-36525D02*
X55406Y-36525D01*
X56594Y-36525D02*
X57776Y-36525D01*
X58226Y-36525D02*
X59005Y-36525D01*
X46995Y-36605D02*
X47653Y-36605D01*
X48348Y-36605D02*
X49406Y-36605D01*
X51685Y-36605D02*
X55406Y-36605D01*
X56594Y-36605D02*
X57653Y-36605D01*
X58348Y-36605D02*
X59005Y-36605D01*
X46995Y-36685D02*
X47573Y-36685D01*
X48428Y-36685D02*
X49433Y-36685D01*
X50565Y-36685D02*
X50605Y-36685D01*
X51765Y-36685D02*
X55433Y-36685D01*
X56566Y-36685D02*
X57573Y-36685D01*
X58428Y-36685D02*
X59005Y-36685D01*
X46995Y-36765D02*
X47529Y-36765D01*
X48471Y-36765D02*
X49466Y-36765D01*
X50532Y-36765D02*
X50685Y-36765D01*
X51845Y-36765D02*
X55466Y-36765D01*
X56532Y-36765D02*
X57529Y-36765D01*
X58471Y-36765D02*
X59005Y-36765D01*
X46995Y-36845D02*
X47496Y-36845D01*
X48504Y-36845D02*
X49504Y-36845D01*
X50494Y-36845D02*
X50765Y-36845D01*
X51925Y-36845D02*
X55505Y-36845D01*
X56495Y-36845D02*
X57496Y-36845D01*
X58504Y-36845D02*
X59005Y-36845D01*
X46995Y-36925D02*
X47475Y-36925D01*
X48525Y-36925D02*
X49584Y-36925D01*
X50414Y-36925D02*
X50845Y-36925D01*
X52005Y-36925D02*
X55585Y-36925D01*
X56415Y-36925D02*
X57475Y-36925D01*
X58525Y-36925D02*
X59005Y-36925D01*
X46995Y-37005D02*
X47475Y-37005D01*
X48525Y-37005D02*
X49655Y-37005D01*
X50345Y-37005D02*
X50925Y-37005D01*
X52085Y-37005D02*
X55655Y-37005D01*
X56345Y-37005D02*
X57475Y-37005D01*
X58525Y-37005D02*
X59005Y-37005D01*
X46995Y-37085D02*
X47475Y-37085D01*
X48525Y-37085D02*
X49575Y-37085D01*
X50425Y-37085D02*
X51005Y-37085D01*
X52165Y-37085D02*
X55575Y-37085D01*
X56425Y-37085D02*
X57475Y-37085D01*
X58525Y-37085D02*
X59005Y-37085D01*
X46995Y-37165D02*
X47500Y-37165D01*
X48500Y-37165D02*
X49497Y-37165D01*
X50505Y-37165D02*
X51085Y-37165D01*
X52245Y-37165D02*
X55497Y-37165D01*
X56505Y-37165D02*
X57500Y-37165D01*
X58500Y-37165D02*
X59005Y-37165D01*
X46995Y-37245D02*
X47533Y-37245D01*
X48466Y-37245D02*
X49463Y-37245D01*
X50538Y-37245D02*
X51165Y-37245D01*
X52325Y-37245D02*
X55463Y-37245D01*
X56538Y-37245D02*
X57533Y-37245D01*
X58466Y-37245D02*
X59005Y-37245D01*
X46995Y-37325D02*
X47582Y-37325D01*
X48417Y-37325D02*
X49430Y-37325D01*
X50571Y-37325D02*
X51245Y-37325D01*
X52405Y-37325D02*
X55430Y-37325D01*
X56571Y-37325D02*
X57582Y-37325D01*
X58417Y-37325D02*
X59005Y-37325D01*
X46995Y-37405D02*
X47662Y-37405D01*
X48337Y-37405D02*
X49406Y-37405D01*
X50594Y-37405D02*
X51325Y-37405D01*
X52485Y-37405D02*
X55406Y-37405D01*
X56594Y-37405D02*
X57662Y-37405D01*
X58337Y-37405D02*
X59005Y-37405D01*
X46995Y-37485D02*
X47798Y-37485D01*
X48200Y-37485D02*
X49406Y-37485D01*
X50594Y-37485D02*
X51405Y-37485D01*
X52565Y-37485D02*
X55406Y-37485D01*
X56594Y-37485D02*
X57798Y-37485D01*
X58200Y-37485D02*
X59005Y-37485D01*
X46995Y-37565D02*
X49406Y-37565D01*
X50594Y-37565D02*
X51485Y-37565D01*
X52645Y-37565D02*
X55406Y-37565D01*
X56594Y-37565D02*
X59005Y-37565D01*
X46995Y-37645D02*
X49417Y-37645D01*
X50582Y-37645D02*
X51565Y-37645D01*
X52725Y-37645D02*
X55417Y-37645D01*
X56582Y-37645D02*
X59005Y-37645D01*
X46995Y-37725D02*
X49450Y-37725D01*
X50549Y-37725D02*
X51645Y-37725D01*
X52805Y-37725D02*
X55450Y-37725D01*
X56549Y-37725D02*
X59005Y-37725D01*
X46995Y-37805D02*
X49483Y-37805D01*
X50516Y-37805D02*
X51725Y-37805D01*
X52885Y-37805D02*
X55483Y-37805D01*
X56516Y-37805D02*
X59005Y-37805D01*
X46995Y-37885D02*
X49544Y-37885D01*
X50454Y-37885D02*
X51805Y-37885D01*
X52965Y-37885D02*
X55545Y-37885D01*
X56455Y-37885D02*
X59005Y-37885D01*
X46995Y-37965D02*
X49624Y-37965D01*
X50374Y-37965D02*
X51885Y-37965D01*
X53045Y-37965D02*
X55625Y-37965D01*
X56375Y-37965D02*
X59005Y-37965D01*
X46995Y-38045D02*
X49615Y-38045D01*
X50385Y-38045D02*
X51965Y-38045D01*
X53125Y-38045D02*
X55675Y-38045D01*
X56325Y-38045D02*
X59005Y-38045D01*
X46995Y-38125D02*
X49535Y-38125D01*
X50465Y-38125D02*
X52045Y-38125D01*
X53205Y-38125D02*
X55696Y-38125D01*
X56304Y-38125D02*
X59005Y-38125D01*
X46995Y-38205D02*
X49480Y-38205D01*
X50521Y-38205D02*
X52125Y-38205D01*
X53285Y-38205D02*
X55488Y-38205D01*
X55634Y-38205D02*
X55776Y-38205D01*
X56224Y-38205D02*
X56366Y-38205D01*
X56514Y-38205D02*
X59005Y-38205D01*
X46995Y-38285D02*
X49447Y-38285D01*
X50554Y-38285D02*
X52205Y-38285D01*
X53365Y-38285D02*
X55458Y-38285D01*
X55714Y-38285D02*
X55856Y-38285D01*
X56144Y-38285D02*
X56286Y-38285D01*
X56548Y-38285D02*
X59005Y-38285D01*
X46995Y-38365D02*
X49414Y-38365D01*
X50587Y-38365D02*
X52285Y-38365D01*
X53445Y-38365D02*
X55429Y-38365D01*
X55794Y-38365D02*
X55936Y-38365D01*
X56064Y-38365D02*
X56206Y-38365D01*
X56579Y-38365D02*
X59005Y-38365D01*
X46995Y-38445D02*
X49406Y-38445D01*
X50594Y-38445D02*
X52365Y-38445D01*
X53525Y-38445D02*
X55413Y-38445D01*
X55874Y-38445D02*
X56126Y-38445D01*
X56582Y-38445D02*
X59005Y-38445D01*
X46995Y-38525D02*
X49406Y-38525D01*
X50594Y-38525D02*
X52445Y-38525D01*
X53605Y-38525D02*
X55416Y-38525D01*
X55904Y-38525D02*
X56096Y-38525D01*
X56586Y-38525D02*
X59005Y-38525D01*
X46995Y-38605D02*
X49406Y-38605D01*
X50594Y-38605D02*
X52525Y-38605D01*
X53685Y-38605D02*
X55420Y-38605D01*
X55824Y-38605D02*
X55966Y-38605D01*
X56034Y-38605D02*
X56176Y-38605D01*
X56582Y-38605D02*
X59005Y-38605D01*
X46995Y-38685D02*
X49433Y-38685D01*
X50566Y-38685D02*
X52605Y-38685D01*
X53765Y-38685D02*
X55440Y-38685D01*
X55744Y-38685D02*
X55886Y-38685D01*
X56114Y-38685D02*
X56256Y-38685D01*
X56553Y-38685D02*
X59005Y-38685D01*
X46995Y-38765D02*
X49466Y-38765D01*
X50532Y-38765D02*
X52685Y-38765D01*
X53845Y-38765D02*
X55473Y-38765D01*
X55664Y-38765D02*
X55806Y-38765D01*
X56194Y-38765D02*
X56336Y-38765D01*
X56523Y-38765D02*
X59005Y-38765D01*
X46995Y-38845D02*
X49505Y-38845D01*
X50494Y-38845D02*
X52765Y-38845D01*
X53925Y-38845D02*
X55726Y-38845D01*
X56274Y-38845D02*
X59005Y-38845D01*
X46995Y-38925D02*
X49585Y-38925D01*
X50413Y-38925D02*
X52845Y-38925D01*
X54005Y-38925D02*
X55665Y-38925D01*
X56334Y-38925D02*
X59005Y-38925D01*
X46995Y-39005D02*
X49655Y-39005D01*
X50345Y-39005D02*
X52925Y-39005D01*
X54085Y-39005D02*
X55655Y-39005D01*
X56345Y-39005D02*
X59005Y-39005D01*
X46995Y-39085D02*
X49575Y-39085D01*
X50425Y-39085D02*
X53005Y-39085D01*
X54165Y-39085D02*
X55575Y-39085D01*
X56425Y-39085D02*
X59005Y-39085D01*
X46995Y-39165D02*
X49497Y-39165D01*
X50505Y-39165D02*
X53085Y-39165D01*
X54245Y-39165D02*
X55497Y-39165D01*
X56505Y-39165D02*
X59005Y-39165D01*
X46995Y-39245D02*
X49463Y-39245D01*
X50538Y-39245D02*
X53165Y-39245D01*
X54325Y-39245D02*
X55463Y-39245D01*
X56538Y-39245D02*
X59005Y-39245D01*
X46995Y-39325D02*
X49430Y-39325D01*
X50571Y-39325D02*
X53245Y-39325D01*
X54405Y-39325D02*
X55430Y-39325D01*
X56571Y-39325D02*
X59005Y-39325D01*
X46995Y-39405D02*
X49406Y-39405D01*
X50594Y-39405D02*
X53325Y-39405D01*
X54485Y-39405D02*
X55406Y-39405D01*
X56594Y-39405D02*
X59005Y-39405D01*
X46995Y-39485D02*
X47871Y-39485D01*
X48130Y-39485D02*
X49406Y-39485D01*
X50594Y-39485D02*
X53405Y-39485D01*
X54565Y-39485D02*
X55406Y-39485D01*
X56594Y-39485D02*
X57871Y-39485D01*
X58130Y-39485D02*
X59005Y-39485D01*
X46995Y-39565D02*
X47693Y-39565D01*
X48308Y-39565D02*
X49406Y-39565D01*
X50594Y-39565D02*
X53485Y-39565D01*
X54645Y-39565D02*
X55406Y-39565D01*
X56594Y-39565D02*
X57693Y-39565D01*
X58308Y-39565D02*
X59005Y-39565D01*
X46995Y-39645D02*
X47613Y-39645D01*
X48388Y-39645D02*
X49417Y-39645D01*
X50582Y-39645D02*
X53565Y-39645D01*
X54725Y-39645D02*
X55417Y-39645D01*
X56582Y-39645D02*
X57613Y-39645D01*
X58388Y-39645D02*
X59005Y-39645D01*
X46995Y-39725D02*
X47546Y-39725D01*
X48455Y-39725D02*
X49450Y-39725D01*
X50549Y-39725D02*
X53645Y-39725D01*
X54805Y-39725D02*
X55450Y-39725D01*
X56549Y-39725D02*
X57546Y-39725D01*
X58455Y-39725D02*
X59005Y-39725D01*
X46995Y-39805D02*
X47513Y-39805D01*
X48488Y-39805D02*
X49483Y-39805D01*
X50516Y-39805D02*
X53725Y-39805D01*
X54885Y-39805D02*
X55483Y-39805D01*
X56516Y-39805D02*
X57513Y-39805D01*
X58488Y-39805D02*
X59005Y-39805D01*
X46995Y-39885D02*
X47480Y-39885D01*
X48521Y-39885D02*
X49545Y-39885D01*
X50455Y-39885D02*
X53805Y-39885D01*
X54965Y-39885D02*
X55545Y-39885D01*
X56454Y-39885D02*
X57480Y-39885D01*
X58521Y-39885D02*
X59005Y-39885D01*
X46995Y-39965D02*
X47475Y-39965D01*
X48545Y-39965D02*
X49625Y-39965D01*
X50375Y-39965D02*
X53885Y-39965D01*
X55045Y-39965D02*
X55625Y-39965D01*
X56374Y-39965D02*
X57475Y-39965D01*
X58525Y-39965D02*
X59005Y-39965D01*
X46995Y-40045D02*
X47475Y-40045D01*
X48625Y-40045D02*
X49675Y-40045D01*
X50325Y-40045D02*
X53965Y-40045D01*
X55125Y-40045D02*
X55615Y-40045D01*
X56385Y-40045D02*
X57475Y-40045D01*
X58525Y-40045D02*
X59005Y-40045D01*
X46995Y-40125D02*
X47483Y-40125D01*
X48705Y-40125D02*
X49696Y-40125D01*
X50304Y-40125D02*
X54045Y-40125D01*
X55205Y-40125D02*
X55535Y-40125D01*
X56465Y-40125D02*
X57483Y-40125D01*
X58516Y-40125D02*
X59005Y-40125D01*
X46995Y-40205D02*
X47516Y-40205D01*
X48785Y-40205D02*
X49488Y-40205D01*
X49634Y-40205D02*
X49776Y-40205D01*
X50224Y-40205D02*
X50366Y-40205D01*
X50514Y-40205D02*
X54125Y-40205D01*
X55285Y-40205D02*
X55480Y-40205D01*
X56521Y-40205D02*
X57516Y-40205D01*
X58483Y-40205D02*
X59005Y-40205D01*
X46995Y-40285D02*
X47550Y-40285D01*
X48865Y-40285D02*
X49458Y-40285D01*
X49714Y-40285D02*
X49856Y-40285D01*
X50144Y-40285D02*
X50286Y-40285D01*
X50548Y-40285D02*
X54205Y-40285D01*
X55365Y-40285D02*
X55447Y-40285D01*
X56554Y-40285D02*
X57550Y-40285D01*
X58450Y-40285D02*
X59005Y-40285D01*
X46995Y-40365D02*
X47622Y-40365D01*
X48945Y-40365D02*
X49429Y-40365D01*
X49794Y-40365D02*
X49936Y-40365D01*
X50064Y-40365D02*
X50206Y-40365D01*
X50579Y-40365D02*
X54285Y-40365D01*
X56587Y-40365D02*
X57590Y-40365D01*
X58410Y-40365D02*
X59005Y-40365D01*
X46995Y-40445D02*
X47702Y-40445D01*
X49025Y-40445D02*
X49413Y-40445D01*
X49874Y-40445D02*
X50126Y-40445D01*
X50582Y-40445D02*
X54365Y-40445D01*
X56594Y-40445D02*
X57590Y-40445D01*
X58410Y-40445D02*
X59005Y-40445D01*
X46995Y-40525D02*
X47945Y-40525D01*
X49105Y-40525D02*
X49416Y-40525D01*
X49904Y-40525D02*
X50096Y-40525D01*
X50586Y-40525D02*
X54445Y-40525D01*
X56594Y-40525D02*
X57568Y-40525D01*
X58410Y-40525D02*
X59005Y-40525D01*
X46995Y-40605D02*
X48025Y-40605D01*
X49185Y-40605D02*
X49420Y-40605D01*
X49824Y-40605D02*
X49966Y-40605D01*
X50034Y-40605D02*
X50176Y-40605D01*
X50582Y-40605D02*
X54525Y-40605D01*
X56594Y-40605D02*
X57488Y-40605D01*
X58410Y-40605D02*
X59005Y-40605D01*
X46995Y-40685D02*
X48105Y-40685D01*
X49265Y-40685D02*
X49440Y-40685D01*
X49744Y-40685D02*
X49886Y-40685D01*
X50114Y-40685D02*
X50256Y-40685D01*
X50553Y-40685D02*
X54605Y-40685D01*
X56566Y-40685D02*
X57408Y-40685D01*
X58407Y-40685D02*
X59005Y-40685D01*
X46995Y-40765D02*
X48185Y-40765D01*
X49345Y-40765D02*
X49473Y-40765D01*
X49664Y-40765D02*
X49806Y-40765D01*
X50194Y-40765D02*
X50336Y-40765D01*
X50523Y-40765D02*
X54685Y-40765D01*
X56532Y-40765D02*
X57328Y-40765D01*
X58391Y-40765D02*
X59005Y-40765D01*
X46995Y-40845D02*
X48265Y-40845D01*
X49425Y-40845D02*
X49726Y-40845D01*
X50274Y-40845D02*
X54765Y-40845D01*
X56495Y-40845D02*
X57248Y-40845D01*
X58368Y-40845D02*
X59005Y-40845D01*
X46995Y-40925D02*
X48345Y-40925D01*
X49490Y-40925D02*
X49665Y-40925D01*
X50334Y-40925D02*
X54845Y-40925D01*
X56415Y-40925D02*
X57168Y-40925D01*
X58315Y-40925D02*
X59005Y-40925D01*
X46995Y-41005D02*
X48425Y-41005D01*
X49544Y-41005D02*
X49655Y-41005D01*
X50346Y-41005D02*
X54925Y-41005D01*
X56502Y-41005D02*
X57088Y-41005D01*
X58248Y-41005D02*
X59005Y-41005D01*
X46995Y-41085D02*
X48505Y-41085D01*
X49563Y-41085D02*
X49574Y-41085D01*
X50426Y-41085D02*
X54956Y-41085D01*
X56567Y-41085D02*
X57008Y-41085D01*
X58168Y-41085D02*
X59005Y-41085D01*
X46995Y-41165D02*
X48585Y-41165D01*
X50505Y-41165D02*
X54956Y-41165D01*
X56594Y-41165D02*
X56928Y-41165D01*
X58088Y-41165D02*
X59005Y-41165D01*
X46995Y-41245D02*
X48665Y-41245D01*
X50538Y-41245D02*
X54956Y-41245D01*
X56594Y-41245D02*
X56848Y-41245D01*
X58008Y-41245D02*
X59005Y-41245D01*
X46995Y-41325D02*
X48745Y-41325D01*
X50571Y-41325D02*
X54956Y-41325D01*
X56594Y-41325D02*
X56768Y-41325D01*
X57928Y-41325D02*
X59005Y-41325D01*
X46995Y-41405D02*
X48759Y-41405D01*
X50594Y-41405D02*
X54956Y-41405D01*
X56594Y-41405D02*
X56688Y-41405D01*
X57848Y-41405D02*
X59005Y-41405D01*
X46995Y-41485D02*
X48759Y-41485D01*
X50594Y-41485D02*
X54956Y-41485D01*
X56594Y-41485D02*
X56608Y-41485D01*
X57768Y-41485D02*
X59005Y-41485D01*
X46995Y-41565D02*
X48759Y-41565D01*
X50594Y-41565D02*
X54956Y-41565D01*
X57688Y-41565D02*
X59005Y-41565D01*
X46995Y-41645D02*
X48759Y-41645D01*
X50582Y-41645D02*
X54956Y-41645D01*
X57608Y-41645D02*
X59005Y-41645D01*
X46995Y-41725D02*
X48759Y-41725D01*
X50549Y-41725D02*
X54956Y-41725D01*
X57528Y-41725D02*
X59005Y-41725D01*
X46995Y-41805D02*
X48759Y-41805D01*
X50516Y-41805D02*
X54956Y-41805D01*
X57448Y-41805D02*
X59005Y-41805D01*
X46995Y-41885D02*
X48759Y-41885D01*
X50455Y-41885D02*
X54956Y-41885D01*
X57368Y-41885D02*
X59005Y-41885D01*
X46995Y-41965D02*
X48759Y-41965D01*
X49579Y-41965D02*
X49625Y-41965D01*
X50375Y-41965D02*
X54956Y-41965D01*
X57288Y-41965D02*
X59005Y-41965D01*
X46995Y-42045D02*
X48759Y-42045D01*
X49579Y-42045D02*
X49764Y-42045D01*
X50236Y-42045D02*
X54970Y-42045D01*
X57208Y-42045D02*
X59005Y-42045D01*
X46995Y-42125D02*
X48759Y-42125D01*
X49579Y-42125D02*
X54986Y-42125D01*
X57128Y-42125D02*
X59005Y-42125D01*
X46995Y-42205D02*
X48759Y-42205D01*
X49579Y-42205D02*
X55037Y-42205D01*
X57048Y-42205D02*
X59005Y-42205D01*
X46995Y-42285D02*
X48759Y-42285D01*
X49579Y-42285D02*
X55099Y-42285D01*
X56968Y-42285D02*
X59005Y-42285D01*
X46995Y-42365D02*
X48759Y-42365D01*
X49579Y-42365D02*
X55184Y-42365D01*
X56882Y-42365D02*
X59005Y-42365D01*
X46995Y-42445D02*
X48759Y-42445D01*
X49579Y-42445D02*
X55311Y-42445D01*
X56755Y-42445D02*
X59005Y-42445D01*
X46995Y-42525D02*
X48759Y-42525D01*
X49579Y-42525D02*
X55504Y-42525D01*
X56324Y-42525D02*
X59005Y-42525D01*
X46995Y-42605D02*
X48759Y-42605D01*
X49579Y-42605D02*
X55504Y-42605D01*
X56324Y-42605D02*
X59005Y-42605D01*
X46995Y-42685D02*
X48759Y-42685D01*
X49579Y-42685D02*
X55504Y-42685D01*
X56324Y-42685D02*
X59005Y-42685D01*
X46995Y-42765D02*
X48759Y-42765D01*
X49579Y-42765D02*
X55504Y-42765D01*
X56324Y-42765D02*
X59005Y-42765D01*
X46995Y-42845D02*
X48759Y-42845D01*
X49579Y-42845D02*
X55504Y-42845D01*
X56324Y-42845D02*
X59005Y-42845D01*
X46995Y-42925D02*
X48759Y-42925D01*
X49579Y-42925D02*
X55504Y-42925D01*
X56324Y-42925D02*
X59005Y-42925D01*
X46995Y-43005D02*
X48759Y-43005D01*
X49579Y-43005D02*
X55504Y-43005D01*
X56324Y-43005D02*
X59005Y-43005D01*
X46995Y-43085D02*
X48759Y-43085D01*
X49579Y-43085D02*
X55504Y-43085D01*
X56324Y-43085D02*
X59005Y-43085D01*
X46995Y-43165D02*
X48759Y-43165D01*
X49579Y-43165D02*
X55504Y-43165D01*
X56324Y-43165D02*
X59005Y-43165D01*
X46995Y-43245D02*
X48759Y-43245D01*
X49579Y-43245D02*
X55504Y-43245D01*
X56324Y-43245D02*
X59005Y-43245D01*
X46995Y-43325D02*
X48759Y-43325D01*
X49579Y-43325D02*
X55504Y-43325D01*
X56324Y-43325D02*
X59005Y-43325D01*
X46995Y-43405D02*
X48759Y-43405D01*
X49579Y-43405D02*
X55504Y-43405D01*
X56324Y-43405D02*
X59005Y-43405D01*
X46995Y-43485D02*
X48759Y-43485D01*
X49579Y-43485D02*
X55504Y-43485D01*
X56324Y-43485D02*
X59005Y-43485D01*
X46995Y-43565D02*
X48759Y-43565D01*
X49579Y-43565D02*
X55504Y-43565D01*
X56324Y-43565D02*
X59005Y-43565D01*
X46995Y-43645D02*
X48065Y-43645D01*
X49579Y-43645D02*
X55504Y-43645D01*
X56324Y-43645D02*
X57548Y-43645D01*
X57601Y-43645D02*
X59005Y-43645D01*
X46995Y-43725D02*
X47943Y-43725D01*
X49579Y-43725D02*
X55504Y-43725D01*
X56324Y-43725D02*
X57180Y-43725D01*
X57820Y-43725D02*
X59005Y-43725D01*
X46995Y-43805D02*
X47229Y-43805D01*
X47771Y-43805D02*
X47899Y-43805D01*
X49579Y-43805D02*
X55504Y-43805D01*
X56324Y-43805D02*
X57154Y-43805D01*
X57847Y-43805D02*
X58229Y-43805D01*
X58771Y-43805D02*
X59005Y-43805D01*
X46995Y-43885D02*
X47137Y-43885D01*
X47863Y-43885D02*
X47886Y-43885D01*
X49579Y-43885D02*
X55504Y-43885D01*
X56324Y-43885D02*
X57205Y-43885D01*
X57794Y-43885D02*
X58137Y-43885D01*
X58863Y-43885D02*
X59005Y-43885D01*
X46995Y-43965D02*
X47062Y-43965D01*
X49579Y-43965D02*
X55504Y-43965D01*
X56324Y-43965D02*
X56963Y-43965D01*
X57145Y-43965D02*
X57285Y-43965D01*
X57714Y-43965D02*
X57856Y-43965D01*
X58040Y-43965D02*
X58062Y-43965D01*
X58940Y-43965D02*
X59005Y-43965D01*
X46995Y-44045D02*
X47028Y-44045D01*
X49579Y-44045D02*
X55504Y-44045D01*
X56324Y-44045D02*
X56934Y-44045D01*
X57225Y-44045D02*
X57365Y-44045D01*
X57634Y-44045D02*
X57776Y-44045D01*
X58973Y-44045D02*
X59005Y-44045D01*
X49579Y-44125D02*
X55504Y-44125D01*
X56324Y-44125D02*
X56904Y-44125D01*
X57305Y-44125D02*
X57445Y-44125D01*
X57554Y-44125D02*
X57696Y-44125D01*
X49579Y-44205D02*
X55504Y-44205D01*
X56324Y-44205D02*
X56895Y-44205D01*
X57385Y-44205D02*
X57616Y-44205D01*
X49579Y-44285D02*
X55504Y-44285D01*
X56324Y-44285D02*
X56898Y-44285D01*
X57394Y-44285D02*
X57605Y-44285D01*
X49579Y-44365D02*
X55504Y-44365D01*
X56324Y-44365D02*
X56901Y-44365D01*
X57314Y-44365D02*
X57456Y-44365D01*
X57545Y-44365D02*
X57685Y-44365D01*
X49579Y-44445D02*
X55504Y-44445D01*
X56324Y-44445D02*
X56923Y-44445D01*
X57234Y-44445D02*
X57376Y-44445D01*
X57625Y-44445D02*
X57765Y-44445D01*
X49579Y-44525D02*
X55504Y-44525D01*
X56324Y-44525D02*
X56956Y-44525D01*
X57154Y-44525D02*
X57296Y-44525D01*
X57705Y-44525D02*
X57845Y-44525D01*
X58040Y-44525D02*
X58056Y-44525D01*
X49579Y-44605D02*
X55504Y-44605D01*
X56324Y-44605D02*
X57216Y-44605D01*
X57785Y-44605D02*
X58127Y-44605D01*
X49579Y-44685D02*
X55504Y-44685D01*
X56324Y-44685D02*
X57149Y-44685D01*
X57850Y-44685D02*
X58207Y-44685D01*
X49579Y-44765D02*
X55504Y-44765D01*
X56324Y-44765D02*
X57116Y-44765D01*
X57885Y-44765D02*
X58325Y-44765D01*
X49579Y-44845D02*
X55504Y-44845D01*
X56324Y-44845D02*
X57035Y-44845D01*
X57965Y-44845D02*
X58177Y-44845D01*
X49579Y-44925D02*
X55504Y-44925D01*
X56324Y-44925D02*
X56970Y-44925D01*
X58031Y-44925D02*
X58097Y-44925D01*
X49579Y-45005D02*
X55504Y-45005D01*
X56324Y-45005D02*
X56936Y-45005D01*
X49579Y-45085D02*
X55504Y-45085D01*
X56324Y-45085D02*
X56903Y-45085D01*
X49579Y-45165D02*
X55504Y-45165D01*
X56324Y-45165D02*
X56885Y-45165D01*
X49579Y-45245D02*
X55504Y-45245D01*
X56324Y-45245D02*
X56885Y-45245D01*
X49579Y-45325D02*
X55504Y-45325D01*
X56324Y-45325D02*
X56885Y-45325D01*
X49579Y-45405D02*
X55504Y-45405D01*
X56324Y-45405D02*
X56898Y-45405D01*
X49579Y-45485D02*
X55504Y-45485D01*
X56324Y-45485D02*
X56932Y-45485D01*
X47913Y-45565D02*
X47964Y-45565D01*
X49579Y-45565D02*
X55504Y-45565D01*
X56324Y-45565D02*
X56965Y-45565D01*
X47833Y-45645D02*
X48025Y-45645D01*
X49579Y-45645D02*
X55504Y-45645D01*
X56324Y-45645D02*
X57025Y-45645D01*
X47697Y-45725D02*
X48105Y-45725D01*
X49579Y-45725D02*
X55504Y-45725D01*
X56324Y-45725D02*
X56943Y-45725D01*
X47771Y-45805D02*
X48153Y-45805D01*
X49579Y-45805D02*
X55504Y-45805D01*
X56324Y-45805D02*
X56899Y-45805D01*
X47863Y-45885D02*
X48205Y-45885D01*
X49579Y-45885D02*
X55504Y-45885D01*
X56324Y-45885D02*
X56886Y-45885D01*
X47940Y-45965D02*
X47962Y-45965D01*
X48145Y-45965D02*
X48285Y-45965D01*
X49579Y-45965D02*
X55504Y-45965D01*
X56324Y-45965D02*
X56886Y-45965D01*
X48225Y-46045D02*
X48365Y-46045D01*
X49579Y-46045D02*
X55504Y-46045D01*
X56324Y-46045D02*
X56886Y-46045D01*
X48305Y-46125D02*
X48445Y-46125D01*
X49579Y-46125D02*
X55504Y-46125D01*
X56324Y-46125D02*
X56886Y-46125D01*
X48385Y-46205D02*
X48526Y-46205D01*
X49579Y-46205D02*
X55504Y-46205D01*
X56324Y-46205D02*
X56886Y-46205D01*
X48394Y-46285D02*
X48536Y-46285D01*
X49579Y-46285D02*
X55504Y-46285D01*
X56324Y-46285D02*
X56886Y-46285D01*
X48314Y-46365D02*
X48456Y-46365D01*
X49579Y-46365D02*
X55504Y-46365D01*
X56324Y-46365D02*
X56886Y-46365D01*
X46995Y-46445D02*
X47023Y-46445D01*
X48234Y-46445D02*
X48376Y-46445D01*
X49579Y-46445D02*
X55504Y-46445D01*
X56324Y-46445D02*
X56886Y-46445D01*
X58976Y-46445D02*
X59005Y-46445D01*
X46995Y-46525D02*
X47056Y-46525D01*
X47942Y-46525D02*
X47956Y-46525D01*
X48154Y-46525D02*
X48296Y-46525D01*
X49579Y-46525D02*
X55504Y-46525D01*
X56324Y-46525D02*
X56886Y-46525D01*
X58943Y-46525D02*
X59005Y-46525D01*
X46995Y-46605D02*
X47127Y-46605D01*
X47873Y-46605D02*
X48216Y-46605D01*
X49579Y-46605D02*
X55504Y-46605D01*
X56324Y-46605D02*
X56886Y-46605D01*
X58114Y-46605D02*
X58127Y-46605D01*
X58873Y-46605D02*
X59005Y-46605D01*
X46995Y-46685D02*
X47207Y-46685D01*
X47793Y-46685D02*
X48149Y-46685D01*
X49579Y-46685D02*
X55504Y-46685D01*
X56324Y-46685D02*
X56894Y-46685D01*
X58105Y-46685D02*
X58207Y-46685D01*
X58793Y-46685D02*
X59005Y-46685D01*
X46995Y-46765D02*
X48176Y-46765D01*
X49579Y-46765D02*
X55504Y-46765D01*
X56324Y-46765D02*
X56933Y-46765D01*
X58067Y-46765D02*
X59005Y-46765D01*
X46995Y-46845D02*
X48372Y-46845D01*
X48648Y-46845D02*
X48759Y-46845D01*
X49579Y-46845D02*
X55504Y-46845D01*
X56324Y-46845D02*
X57039Y-46845D01*
X57960Y-46845D02*
X59005Y-46845D01*
X46995Y-46925D02*
X48759Y-46925D01*
X49579Y-46925D02*
X55504Y-46925D01*
X56324Y-46925D02*
X59005Y-46925D01*
X46995Y-47005D02*
X48759Y-47005D01*
X49579Y-47005D02*
X55504Y-47005D01*
X56324Y-47005D02*
X59005Y-47005D01*
X46995Y-47085D02*
X48759Y-47085D01*
X49579Y-47085D02*
X55504Y-47085D01*
X56324Y-47085D02*
X59005Y-47085D01*
X46995Y-47165D02*
X48759Y-47165D01*
X49579Y-47165D02*
X55504Y-47165D01*
X56324Y-47165D02*
X59005Y-47165D01*
X46995Y-47245D02*
X48759Y-47245D01*
X49579Y-47245D02*
X55504Y-47245D01*
X56324Y-47245D02*
X59005Y-47245D01*
X46995Y-47325D02*
X48759Y-47325D01*
X49579Y-47325D02*
X55504Y-47325D01*
X56324Y-47325D02*
X59005Y-47325D01*
X46995Y-47405D02*
X48759Y-47405D01*
X49579Y-47405D02*
X55504Y-47405D01*
X56324Y-47405D02*
X59005Y-47405D01*
X46995Y-47485D02*
X47758Y-47485D01*
X48234Y-47485D02*
X48759Y-47485D01*
X49579Y-47485D02*
X55504Y-47485D01*
X56324Y-47485D02*
X57758Y-47485D01*
X58234Y-47485D02*
X59005Y-47485D01*
X46995Y-47565D02*
X47564Y-47565D01*
X48432Y-47565D02*
X48759Y-47565D01*
X49579Y-47565D02*
X55504Y-47565D01*
X56324Y-47565D02*
X57564Y-47565D01*
X58432Y-47565D02*
X59005Y-47565D01*
X46995Y-47645D02*
X47411Y-47645D01*
X48590Y-47645D02*
X48759Y-47645D01*
X49579Y-47645D02*
X55504Y-47645D01*
X56324Y-47645D02*
X57411Y-47645D01*
X58590Y-47645D02*
X59005Y-47645D01*
X46995Y-47725D02*
X47364Y-47725D01*
X48637Y-47725D02*
X48759Y-47725D01*
X49579Y-47725D02*
X55504Y-47725D01*
X56324Y-47725D02*
X57364Y-47725D01*
X58637Y-47725D02*
X59005Y-47725D01*
X46995Y-47805D02*
X47376Y-47805D01*
X48624Y-47805D02*
X48759Y-47805D01*
X49579Y-47805D02*
X55504Y-47805D01*
X56324Y-47805D02*
X57376Y-47805D01*
X58624Y-47805D02*
X59005Y-47805D01*
X46995Y-47885D02*
X47189Y-47885D01*
X47314Y-47885D02*
X47456Y-47885D01*
X48544Y-47885D02*
X48686Y-47885D01*
X49579Y-47885D02*
X55504Y-47885D01*
X56324Y-47885D02*
X57189Y-47885D01*
X57314Y-47885D02*
X57456Y-47885D01*
X58544Y-47885D02*
X58686Y-47885D01*
X58812Y-47885D02*
X59005Y-47885D01*
X46995Y-47965D02*
X47107Y-47965D01*
X47394Y-47965D02*
X47536Y-47965D01*
X48464Y-47965D02*
X48606Y-47965D01*
X49579Y-47965D02*
X55504Y-47965D01*
X56324Y-47965D02*
X57107Y-47965D01*
X57394Y-47965D02*
X57536Y-47965D01*
X58464Y-47965D02*
X58606Y-47965D01*
X58895Y-47965D02*
X59005Y-47965D01*
X46995Y-48045D02*
X47075Y-48045D01*
X47474Y-48045D02*
X47616Y-48045D01*
X48384Y-48045D02*
X48526Y-48045D01*
X49579Y-48045D02*
X55504Y-48045D01*
X56324Y-48045D02*
X57075Y-48045D01*
X57474Y-48045D02*
X57616Y-48045D01*
X58384Y-48045D02*
X58526Y-48045D01*
X58928Y-48045D02*
X59005Y-48045D01*
X46995Y-48125D02*
X47042Y-48125D01*
X47554Y-48125D02*
X47696Y-48125D01*
X48304Y-48125D02*
X48446Y-48125D01*
X49579Y-48125D02*
X55504Y-48125D01*
X56324Y-48125D02*
X57043Y-48125D01*
X57554Y-48125D02*
X57696Y-48125D01*
X58304Y-48125D02*
X58446Y-48125D01*
X58961Y-48125D02*
X59005Y-48125D01*
X46995Y-48205D02*
X47010Y-48205D01*
X47634Y-48205D02*
X47776Y-48205D01*
X48224Y-48205D02*
X48366Y-48205D01*
X49579Y-48205D02*
X55504Y-48205D01*
X56324Y-48205D02*
X57010Y-48205D01*
X57634Y-48205D02*
X57776Y-48205D01*
X58224Y-48205D02*
X58366Y-48205D01*
X58994Y-48205D02*
X59005Y-48205D01*
X47714Y-48285D02*
X47856Y-48285D01*
X48144Y-48285D02*
X48286Y-48285D01*
X49579Y-48285D02*
X55504Y-48285D01*
X56324Y-48285D02*
X56978Y-48285D01*
X57714Y-48285D02*
X57856Y-48285D01*
X58144Y-48285D02*
X58286Y-48285D01*
X47794Y-48365D02*
X47936Y-48365D01*
X48064Y-48365D02*
X48206Y-48365D01*
X49579Y-48365D02*
X55504Y-48365D01*
X56324Y-48365D02*
X56970Y-48365D01*
X57794Y-48365D02*
X57936Y-48365D01*
X58064Y-48365D02*
X58206Y-48365D01*
X47874Y-48445D02*
X48126Y-48445D01*
X49579Y-48445D02*
X55504Y-48445D01*
X56324Y-48445D02*
X56971Y-48445D01*
X57874Y-48445D02*
X58126Y-48445D01*
X47904Y-48525D02*
X48096Y-48525D01*
X49579Y-48525D02*
X55504Y-48525D01*
X56324Y-48525D02*
X56971Y-48525D01*
X57904Y-48525D02*
X58096Y-48525D01*
X47824Y-48605D02*
X47966Y-48605D01*
X48034Y-48605D02*
X48176Y-48605D01*
X49579Y-48605D02*
X55504Y-48605D01*
X56324Y-48605D02*
X56972Y-48605D01*
X57824Y-48605D02*
X57966Y-48605D01*
X58034Y-48605D02*
X58176Y-48605D01*
X47744Y-48685D02*
X47886Y-48685D01*
X48114Y-48685D02*
X48256Y-48685D01*
X49579Y-48685D02*
X55504Y-48685D01*
X56324Y-48685D02*
X56972Y-48685D01*
X57744Y-48685D02*
X57886Y-48685D01*
X58114Y-48685D02*
X58256Y-48685D01*
X47664Y-48765D02*
X47806Y-48765D01*
X48194Y-48765D02*
X48336Y-48765D01*
X49579Y-48765D02*
X55504Y-48765D01*
X56324Y-48765D02*
X56994Y-48765D01*
X57664Y-48765D02*
X57806Y-48765D01*
X58194Y-48765D02*
X58336Y-48765D01*
X59002Y-48765D02*
X59005Y-48765D01*
X46995Y-48845D02*
X47027Y-48845D01*
X47584Y-48845D02*
X47726Y-48845D01*
X48274Y-48845D02*
X48416Y-48845D01*
X49579Y-48845D02*
X55504Y-48845D01*
X56324Y-48845D02*
X57027Y-48845D01*
X57584Y-48845D02*
X57726Y-48845D01*
X58274Y-48845D02*
X58416Y-48845D01*
X58969Y-48845D02*
X59005Y-48845D01*
X46995Y-48925D02*
X47060Y-48925D01*
X47504Y-48925D02*
X47646Y-48925D01*
X48354Y-48925D02*
X48496Y-48925D01*
X49579Y-48925D02*
X55504Y-48925D01*
X56324Y-48925D02*
X57060Y-48925D01*
X57504Y-48925D02*
X57646Y-48925D01*
X58354Y-48925D02*
X58496Y-48925D01*
X58937Y-48925D02*
X59005Y-48925D01*
X46995Y-49005D02*
X47093Y-49005D01*
X47424Y-49005D02*
X47566Y-49005D01*
X48434Y-49005D02*
X48576Y-49005D01*
X49579Y-49005D02*
X55504Y-49005D01*
X56324Y-49005D02*
X57093Y-49005D01*
X57424Y-49005D02*
X57566Y-49005D01*
X58434Y-49005D02*
X58576Y-49005D01*
X58905Y-49005D02*
X59005Y-49005D01*
X46995Y-49085D02*
X47138Y-49085D01*
X47344Y-49085D02*
X47486Y-49085D01*
X48514Y-49085D02*
X48656Y-49085D01*
X49579Y-49085D02*
X55504Y-49085D01*
X56324Y-49085D02*
X57138Y-49085D01*
X57344Y-49085D02*
X57486Y-49085D01*
X58514Y-49085D02*
X58656Y-49085D01*
X58861Y-49085D02*
X59005Y-49085D01*
X46995Y-49165D02*
X47406Y-49165D01*
X48594Y-49165D02*
X48759Y-49165D01*
X49579Y-49165D02*
X55504Y-49165D01*
X56324Y-49165D02*
X57406Y-49165D01*
X58594Y-49165D02*
X59005Y-49165D01*
X46995Y-49245D02*
X47345Y-49245D01*
X48654Y-49245D02*
X48759Y-49245D01*
X49579Y-49245D02*
X55504Y-49245D01*
X56324Y-49245D02*
X57345Y-49245D01*
X58654Y-49245D02*
X59005Y-49245D01*
X46995Y-49325D02*
X47392Y-49325D01*
X48607Y-49325D02*
X48759Y-49325D01*
X49579Y-49325D02*
X55504Y-49325D01*
X56324Y-49325D02*
X57392Y-49325D01*
X58607Y-49325D02*
X59005Y-49325D01*
X46995Y-49405D02*
X47493Y-49405D01*
X48508Y-49405D02*
X48759Y-49405D01*
X49579Y-49405D02*
X55504Y-49405D01*
X56324Y-49405D02*
X57493Y-49405D01*
X58508Y-49405D02*
X59005Y-49405D01*
X46995Y-49485D02*
X47692Y-49485D01*
X48315Y-49485D02*
X48759Y-49485D01*
X49579Y-49485D02*
X55504Y-49485D01*
X56324Y-49485D02*
X57692Y-49485D01*
X58315Y-49485D02*
X59005Y-49485D01*
X46995Y-49565D02*
X48759Y-49565D01*
X49579Y-49565D02*
X55504Y-49565D01*
X56324Y-49565D02*
X59005Y-49565D01*
X46995Y-49645D02*
X48759Y-49645D01*
X49579Y-49645D02*
X55504Y-49645D01*
X56324Y-49645D02*
X59005Y-49645D01*
X46995Y-49725D02*
X48759Y-49725D01*
X49579Y-49725D02*
X55504Y-49725D01*
X56324Y-49725D02*
X59005Y-49725D01*
X46995Y-49805D02*
X48759Y-49805D01*
X49579Y-49805D02*
X55504Y-49805D01*
X56324Y-49805D02*
X59005Y-49805D01*
X46995Y-49885D02*
X48759Y-49885D01*
X49579Y-49885D02*
X51788Y-49885D01*
X52033Y-49885D02*
X52878Y-49885D01*
X53123Y-49885D02*
X53968Y-49885D01*
X54213Y-49885D02*
X55504Y-49885D01*
X56324Y-49885D02*
X59005Y-49885D01*
X46995Y-49965D02*
X48759Y-49965D01*
X49579Y-49965D02*
X50525Y-49965D01*
X51113Y-49965D02*
X51596Y-49965D01*
X52226Y-49965D02*
X52686Y-49965D01*
X53316Y-49965D02*
X53776Y-49965D01*
X54406Y-49965D02*
X54633Y-49965D01*
X56324Y-49965D02*
X59005Y-49965D01*
X46995Y-50045D02*
X47720Y-50045D01*
X48440Y-50045D02*
X48759Y-50045D01*
X49579Y-50045D02*
X50477Y-50045D01*
X51164Y-50045D02*
X51496Y-50045D01*
X52325Y-50045D02*
X52586Y-50045D01*
X53415Y-50045D02*
X53676Y-50045D01*
X54505Y-50045D02*
X54583Y-50045D01*
X56324Y-50045D02*
X57562Y-50045D01*
X58280Y-50045D02*
X59005Y-50045D01*
X46995Y-50125D02*
X47528Y-50125D01*
X48633Y-50125D02*
X48759Y-50125D01*
X49579Y-50125D02*
X50515Y-50125D01*
X51124Y-50125D02*
X51416Y-50125D01*
X52405Y-50125D02*
X52506Y-50125D01*
X53495Y-50125D02*
X53596Y-50125D01*
X56324Y-50125D02*
X57368Y-50125D01*
X58473Y-50125D02*
X59005Y-50125D01*
X46995Y-50205D02*
X47415Y-50205D01*
X48746Y-50205D02*
X48759Y-50205D01*
X49579Y-50205D02*
X50286Y-50205D01*
X50455Y-50205D02*
X50595Y-50205D01*
X51044Y-50205D02*
X51186Y-50205D01*
X51355Y-50205D02*
X51366Y-50205D01*
X52453Y-50205D02*
X52456Y-50205D01*
X53543Y-50205D02*
X53546Y-50205D01*
X56324Y-50205D02*
X57254Y-50205D01*
X58586Y-50205D02*
X59005Y-50205D01*
X46995Y-50285D02*
X47335Y-50285D01*
X49579Y-50285D02*
X50257Y-50285D01*
X50535Y-50285D02*
X50675Y-50285D01*
X50964Y-50285D02*
X51106Y-50285D01*
X56324Y-50285D02*
X57174Y-50285D01*
X58666Y-50285D02*
X59005Y-50285D01*
X46995Y-50365D02*
X47255Y-50365D01*
X49579Y-50365D02*
X50228Y-50365D01*
X50615Y-50365D02*
X50755Y-50365D01*
X50884Y-50365D02*
X51026Y-50365D01*
X56324Y-50365D02*
X57094Y-50365D01*
X58746Y-50365D02*
X59005Y-50365D01*
X46995Y-50445D02*
X47175Y-50445D01*
X49579Y-50445D02*
X50214Y-50445D01*
X50695Y-50445D02*
X50946Y-50445D01*
X56324Y-50445D02*
X57014Y-50445D01*
X58826Y-50445D02*
X59005Y-50445D01*
X46995Y-50525D02*
X47138Y-50525D01*
X49579Y-50525D02*
X50218Y-50525D01*
X50724Y-50525D02*
X50915Y-50525D01*
X56324Y-50525D02*
X56978Y-50525D01*
X58863Y-50525D02*
X59005Y-50525D01*
X46995Y-50605D02*
X47105Y-50605D01*
X49579Y-50605D02*
X50221Y-50605D01*
X50644Y-50605D02*
X50786Y-50605D01*
X50855Y-50605D02*
X50995Y-50605D01*
X56324Y-50605D02*
X56945Y-50605D01*
X58896Y-50605D02*
X59005Y-50605D01*
X46995Y-50685D02*
X47072Y-50685D01*
X49579Y-50685D02*
X50239Y-50685D01*
X50564Y-50685D02*
X50706Y-50685D01*
X50935Y-50685D02*
X51075Y-50685D01*
X56324Y-50685D02*
X56912Y-50685D01*
X58929Y-50685D02*
X59005Y-50685D01*
X46995Y-50765D02*
X47039Y-50765D01*
X49579Y-50765D02*
X50272Y-50765D01*
X50484Y-50765D02*
X50626Y-50765D01*
X51015Y-50765D02*
X51155Y-50765D01*
X56324Y-50765D02*
X56879Y-50765D01*
X58962Y-50765D02*
X59005Y-50765D01*
X46995Y-50845D02*
X47005Y-50845D01*
X49579Y-50845D02*
X50369Y-50845D01*
X50404Y-50845D02*
X50546Y-50845D01*
X51095Y-50845D02*
X51235Y-50845D01*
X51270Y-50845D02*
X51387Y-50845D01*
X52432Y-50845D02*
X52477Y-50845D01*
X53522Y-50845D02*
X53567Y-50845D01*
X56324Y-50845D02*
X56845Y-50845D01*
X58995Y-50845D02*
X59005Y-50845D01*
X46995Y-50925D02*
X47005Y-50925D01*
X49580Y-50925D02*
X50466Y-50925D01*
X51173Y-50925D02*
X51465Y-50925D01*
X52354Y-50925D02*
X52555Y-50925D01*
X53444Y-50925D02*
X53645Y-50925D01*
X54534Y-50925D02*
X54570Y-50925D01*
X56324Y-50925D02*
X56845Y-50925D01*
X58995Y-50925D02*
X59005Y-50925D01*
X46995Y-51005D02*
X47005Y-51005D01*
X49660Y-51005D02*
X50493Y-51005D01*
X51146Y-51005D02*
X51243Y-51005D01*
X51488Y-51005D02*
X51545Y-51005D01*
X52274Y-51005D02*
X52333Y-51005D01*
X52578Y-51005D02*
X52635Y-51005D01*
X53364Y-51005D02*
X53423Y-51005D01*
X53668Y-51005D02*
X53725Y-51005D01*
X54454Y-51005D02*
X54513Y-51005D01*
X56324Y-51005D02*
X56845Y-51005D01*
X58995Y-51005D02*
X59005Y-51005D01*
X46995Y-51085D02*
X47005Y-51085D01*
X49740Y-51085D02*
X50664Y-51085D01*
X50993Y-51085D02*
X51051Y-51085D01*
X51681Y-51085D02*
X51714Y-51085D01*
X52104Y-51085D02*
X52141Y-51085D01*
X52771Y-51085D02*
X52804Y-51085D01*
X53194Y-51085D02*
X53231Y-51085D01*
X53861Y-51085D02*
X53894Y-51085D01*
X54284Y-51085D02*
X54321Y-51085D01*
X56311Y-51085D02*
X56845Y-51085D01*
X58995Y-51085D02*
X59005Y-51085D01*
X46995Y-51165D02*
X47005Y-51165D01*
X49820Y-51165D02*
X50951Y-51165D01*
X51780Y-51165D02*
X52041Y-51165D01*
X52870Y-51165D02*
X53131Y-51165D01*
X53960Y-51165D02*
X54221Y-51165D01*
X56296Y-51165D02*
X56845Y-51165D01*
X58995Y-51165D02*
X59005Y-51165D01*
X46995Y-51245D02*
X47005Y-51245D01*
X49900Y-51245D02*
X50871Y-51245D01*
X51860Y-51245D02*
X51961Y-51245D01*
X52950Y-51245D02*
X53051Y-51245D01*
X54040Y-51245D02*
X54141Y-51245D01*
X56250Y-51245D02*
X56845Y-51245D01*
X58995Y-51245D02*
X59005Y-51245D01*
X46995Y-51325D02*
X47026Y-51325D01*
X49980Y-51325D02*
X50822Y-51325D01*
X51908Y-51325D02*
X51911Y-51325D01*
X52998Y-51325D02*
X53001Y-51325D01*
X54088Y-51325D02*
X54091Y-51325D01*
X56193Y-51325D02*
X56866Y-51325D01*
X58974Y-51325D02*
X59005Y-51325D01*
X46995Y-51405D02*
X47059Y-51405D01*
X50060Y-51405D02*
X50789Y-51405D01*
X56113Y-51405D02*
X56899Y-51405D01*
X58941Y-51405D02*
X59005Y-51405D01*
X46995Y-51485D02*
X47092Y-51485D01*
X50140Y-51485D02*
X50755Y-51485D01*
X56033Y-51485D02*
X56932Y-51485D01*
X58907Y-51485D02*
X59005Y-51485D01*
X46995Y-51565D02*
X47125Y-51565D01*
X49034Y-51565D02*
X49060Y-51565D01*
X50220Y-51565D02*
X50750Y-51565D01*
X55953Y-51565D02*
X56965Y-51565D01*
X58874Y-51565D02*
X59005Y-51565D01*
X46995Y-51645D02*
X47158Y-51645D01*
X49001Y-51645D02*
X49140Y-51645D01*
X50300Y-51645D02*
X50750Y-51645D01*
X55873Y-51645D02*
X56998Y-51645D01*
X58841Y-51645D02*
X59005Y-51645D01*
X46995Y-51725D02*
X47224Y-51725D01*
X48935Y-51725D02*
X49220Y-51725D01*
X50380Y-51725D02*
X50750Y-51725D01*
X55793Y-51725D02*
X57064Y-51725D01*
X58775Y-51725D02*
X59005Y-51725D01*
X46995Y-51805D02*
X47304Y-51805D01*
X48855Y-51805D02*
X49300Y-51805D01*
X50460Y-51805D02*
X50776Y-51805D01*
X55713Y-51805D02*
X57144Y-51805D01*
X58695Y-51805D02*
X59005Y-51805D01*
X46995Y-51885D02*
X47384Y-51885D01*
X48775Y-51885D02*
X49380Y-51885D01*
X50540Y-51885D02*
X50809Y-51885D01*
X55633Y-51885D02*
X57224Y-51885D01*
X58615Y-51885D02*
X59005Y-51885D01*
X46995Y-51965D02*
X47464Y-51965D01*
X48695Y-51965D02*
X49460Y-51965D01*
X50620Y-51965D02*
X50842Y-51965D01*
X52977Y-51965D02*
X53022Y-51965D01*
X54067Y-51965D02*
X54112Y-51965D01*
X55525Y-51965D02*
X57304Y-51965D01*
X58535Y-51965D02*
X59005Y-51965D01*
X46995Y-52045D02*
X47648Y-52045D01*
X48511Y-52045D02*
X49540Y-52045D01*
X52899Y-52045D02*
X53100Y-52045D01*
X53989Y-52045D02*
X54190Y-52045D01*
X55079Y-52045D02*
X57488Y-52045D01*
X58351Y-52045D02*
X59005Y-52045D01*
X46995Y-52125D02*
X47840Y-52125D01*
X48317Y-52125D02*
X49620Y-52125D01*
X52819Y-52125D02*
X53180Y-52125D01*
X53909Y-52125D02*
X54270Y-52125D01*
X54999Y-52125D02*
X57680Y-52125D01*
X58157Y-52125D02*
X59005Y-52125D01*
X46995Y-52205D02*
X49700Y-52205D01*
X52649Y-52205D02*
X53349Y-52205D01*
X53739Y-52205D02*
X54439Y-52205D01*
X54829Y-52205D02*
X59005Y-52205D01*
X46995Y-52285D02*
X49780Y-52285D01*
X52369Y-52285D02*
X59005Y-52285D01*
X46995Y-52365D02*
X49860Y-52365D01*
X52289Y-52365D02*
X59005Y-52365D01*
X46995Y-52445D02*
X49940Y-52445D01*
X52209Y-52445D02*
X59005Y-52445D01*
X46995Y-52525D02*
X50020Y-52525D01*
X52129Y-52525D02*
X59005Y-52525D01*
X46995Y-52605D02*
X50100Y-52605D01*
X52049Y-52605D02*
X59005Y-52605D01*
X46995Y-52685D02*
X50180Y-52685D01*
X51969Y-52685D02*
X59005Y-52685D01*
X46995Y-52765D02*
X50277Y-52765D01*
X51872Y-52765D02*
X59005Y-52765D01*
X46995Y-52845D02*
X50493Y-52845D01*
X51656Y-52845D02*
X59005Y-52845D01*
X46995Y-52925D02*
X59005Y-52925D01*
X46995Y-53005D02*
X59005Y-53005D01*
X46995Y-53085D02*
X59005Y-53085D01*
X46995Y-53165D02*
X59005Y-53165D01*
X46995Y-53245D02*
X59005Y-53245D01*
X46995Y-53325D02*
X59005Y-53325D01*
X46995Y-53405D02*
X59005Y-53405D01*
X46995Y-53485D02*
X59005Y-53485D01*
X46995Y-53565D02*
X59005Y-53565D01*
X46995Y-53645D02*
X59005Y-53645D01*
X46995Y-53725D02*
X59005Y-53725D01*
X46995Y-53805D02*
X59005Y-53805D01*
X46995Y-53885D02*
X59005Y-53885D01*
X46995Y-53965D02*
X59005Y-53965D01*
X46995Y-54045D02*
X59005Y-54045D01*
X46995Y-54125D02*
X59005Y-54125D01*
X46995Y-54205D02*
X59005Y-54205D01*
X46995Y-54285D02*
X59005Y-54285D01*
X46995Y-54365D02*
X59005Y-54365D01*
X46995Y-54445D02*
X59005Y-54445D01*
X46995Y-54525D02*
X59005Y-54525D01*
X46995Y-54605D02*
X59005Y-54605D01*
X46995Y-54685D02*
X59005Y-54685D01*
X59005Y-54755D02*
X59005Y-48758D01*
X58877Y-49076D01*
X58733Y-49162D01*
X58071Y-48500D01*
X58733Y-47838D01*
X58877Y-47924D01*
X59005Y-48232D01*
X59005Y-46376D01*
X58936Y-46542D01*
X58791Y-46687D01*
X58602Y-46765D01*
X58397Y-46765D01*
X58208Y-46686D01*
X58114Y-46592D01*
X58114Y-46665D01*
X58076Y-46756D01*
X58006Y-46826D01*
X57914Y-46864D01*
X57085Y-46864D01*
X56994Y-46826D01*
X56924Y-46756D01*
X56886Y-46664D01*
X56886Y-45835D01*
X56924Y-45744D01*
X56994Y-45674D01*
X57036Y-45656D01*
X56979Y-45598D01*
X56885Y-45372D01*
X56885Y-45127D01*
X56979Y-44901D01*
X57076Y-44804D01*
X57076Y-44604D01*
X56975Y-44570D01*
X56903Y-44394D01*
X56893Y-44155D01*
X56975Y-43930D01*
X57076Y-43896D01*
X57429Y-44250D01*
X57076Y-44604D01*
X57076Y-44804D01*
X57152Y-44729D01*
X57162Y-44724D01*
X57146Y-44674D01*
X57500Y-44321D01*
X57500Y-44179D01*
X57146Y-43826D01*
X57180Y-43725D01*
X57356Y-43653D01*
X57595Y-43643D01*
X57820Y-43725D01*
X57854Y-43826D01*
X57500Y-44179D01*
X57500Y-44321D01*
X57854Y-44674D01*
X57837Y-44724D01*
X57849Y-44729D01*
X58021Y-44902D01*
X58054Y-44981D01*
X58064Y-44958D01*
X58209Y-44813D01*
X58361Y-44750D01*
X58208Y-44686D01*
X58063Y-44541D01*
X58048Y-44505D01*
X58025Y-44570D01*
X57924Y-44604D01*
X57571Y-44250D01*
X57924Y-43896D01*
X58025Y-43930D01*
X58050Y-43991D01*
X58064Y-43958D01*
X58209Y-43813D01*
X58398Y-43735D01*
X58603Y-43735D01*
X58792Y-43814D01*
X58937Y-43959D01*
X59005Y-44123D01*
X59005Y-28758D01*
X58877Y-29076D01*
X58733Y-29162D01*
X58071Y-28500D01*
X58733Y-27838D01*
X58877Y-27924D01*
X59005Y-28232D01*
X59005Y-25245D01*
X46995Y-25245D01*
X46995Y-28241D01*
X47123Y-27924D01*
X47267Y-27838D01*
X47929Y-28500D01*
X47267Y-29162D01*
X47123Y-29076D01*
X46995Y-28767D01*
X46995Y-44123D01*
X47064Y-43958D01*
X47209Y-43813D01*
X47398Y-43735D01*
X47603Y-43735D01*
X47792Y-43814D01*
X47886Y-43908D01*
X47886Y-43835D01*
X47924Y-43744D01*
X47994Y-43674D01*
X48086Y-43636D01*
X48759Y-43636D01*
X48759Y-41339D01*
X47945Y-40525D01*
X47895Y-40525D01*
X47702Y-40445D01*
X47555Y-40297D01*
X47475Y-40104D01*
X47475Y-39895D01*
X47555Y-39702D01*
X47703Y-39555D01*
X47895Y-39475D01*
X47895Y-37525D01*
X47702Y-37445D01*
X47555Y-37297D01*
X47475Y-37104D01*
X47475Y-36895D01*
X47555Y-36702D01*
X47703Y-36555D01*
X47804Y-36513D01*
X47804Y-29530D01*
X47424Y-29377D01*
X47338Y-29233D01*
X48000Y-28571D01*
X48000Y-28429D01*
X47338Y-27767D01*
X47424Y-27623D01*
X47786Y-27473D01*
X48196Y-27470D01*
X48576Y-27623D01*
X48662Y-27767D01*
X48000Y-28429D01*
X48000Y-28571D01*
X48662Y-29233D01*
X48576Y-29377D01*
X48214Y-29527D01*
X47804Y-29530D01*
X47804Y-36513D01*
X47896Y-36475D01*
X48105Y-36475D01*
X48298Y-36555D01*
X48445Y-36703D01*
X48525Y-36896D01*
X48525Y-37105D01*
X48445Y-37298D01*
X48297Y-37445D01*
X48104Y-37525D01*
X47895Y-37525D01*
X47895Y-39475D01*
X48105Y-39475D01*
X48298Y-39555D01*
X48445Y-39703D01*
X48525Y-39896D01*
X48525Y-39945D01*
X48733Y-40153D01*
X48733Y-29162D01*
X48071Y-28500D01*
X48733Y-27838D01*
X48877Y-27924D01*
X49027Y-28286D01*
X49030Y-28696D01*
X48877Y-29076D01*
X48733Y-29162D01*
X48733Y-40153D01*
X49459Y-40879D01*
X49548Y-41012D01*
X49564Y-41095D01*
X49590Y-41069D01*
X49590Y-40839D01*
X49492Y-40808D01*
X49422Y-40642D01*
X49412Y-40410D01*
X49492Y-40192D01*
X49590Y-40161D01*
X49929Y-40500D01*
X49590Y-40839D01*
X49590Y-41069D01*
X49664Y-40996D01*
X49685Y-40987D01*
X49661Y-40910D01*
X50000Y-40571D01*
X50339Y-40910D01*
X50314Y-40987D01*
X50337Y-40997D01*
X50410Y-41069D01*
X50410Y-40839D01*
X50071Y-40500D01*
X50410Y-40161D01*
X50508Y-40192D01*
X50578Y-40358D01*
X50588Y-40590D01*
X50508Y-40808D01*
X50410Y-40839D01*
X50410Y-41069D01*
X50504Y-41164D01*
X50594Y-41382D01*
X50594Y-41618D01*
X50503Y-41837D01*
X50336Y-42004D01*
X50118Y-42094D01*
X49882Y-42094D01*
X49663Y-42003D01*
X49579Y-41919D01*
X49579Y-50924D01*
X50396Y-51741D01*
X50396Y-50854D01*
X50295Y-50820D01*
X50223Y-50644D01*
X50213Y-50405D01*
X50295Y-50180D01*
X50396Y-50146D01*
X50749Y-50500D01*
X50396Y-50854D01*
X50396Y-51741D01*
X50684Y-52029D01*
X50725Y-52028D01*
X50725Y-51107D01*
X50500Y-51025D01*
X50466Y-50924D01*
X50820Y-50571D01*
X50820Y-50429D01*
X50466Y-50076D01*
X50500Y-49975D01*
X50676Y-49903D01*
X50915Y-49893D01*
X51140Y-49975D01*
X51174Y-50076D01*
X50820Y-50429D01*
X50820Y-50571D01*
X51174Y-50924D01*
X51140Y-51025D01*
X50964Y-51097D01*
X50725Y-51107D01*
X50725Y-52028D01*
X50904Y-52028D01*
X50844Y-51968D01*
X50750Y-51742D01*
X50750Y-51497D01*
X50844Y-51271D01*
X51017Y-51099D01*
X51243Y-51005D01*
X51488Y-51005D01*
X51714Y-51099D01*
X51886Y-51272D01*
X51909Y-51329D01*
X51934Y-51271D01*
X52107Y-51099D01*
X52333Y-51005D01*
X52578Y-51005D01*
X52804Y-51099D01*
X52976Y-51272D01*
X52999Y-51329D01*
X53024Y-51271D01*
X53197Y-51099D01*
X53423Y-51005D01*
X53668Y-51005D01*
X53894Y-51099D01*
X54066Y-51272D01*
X54089Y-51329D01*
X54114Y-51271D01*
X54287Y-51099D01*
X54513Y-51005D01*
X54603Y-51005D01*
X54566Y-50914D01*
X54566Y-50893D01*
X54438Y-51021D01*
X54212Y-51115D01*
X53967Y-51115D01*
X53741Y-51021D01*
X53569Y-50848D01*
X53545Y-50790D01*
X53521Y-50849D01*
X53348Y-51021D01*
X53122Y-51115D01*
X52877Y-51115D01*
X52651Y-51021D01*
X52479Y-50848D01*
X52455Y-50790D01*
X52431Y-50849D01*
X52258Y-51021D01*
X52032Y-51115D01*
X51787Y-51115D01*
X51561Y-51021D01*
X51389Y-50848D01*
X51360Y-50778D01*
X51345Y-50820D01*
X51244Y-50854D01*
X50891Y-50500D01*
X51244Y-50146D01*
X51345Y-50180D01*
X51360Y-50218D01*
X51389Y-50151D01*
X51562Y-49979D01*
X51788Y-49885D01*
X52033Y-49885D01*
X52259Y-49979D01*
X52431Y-50152D01*
X52454Y-50209D01*
X52479Y-50151D01*
X52652Y-49979D01*
X52878Y-49885D01*
X53123Y-49885D01*
X53349Y-49979D01*
X53521Y-50152D01*
X53544Y-50209D01*
X53569Y-50151D01*
X53742Y-49979D01*
X53968Y-49885D01*
X54213Y-49885D01*
X54439Y-49979D01*
X54566Y-50106D01*
X54566Y-50085D01*
X54604Y-49994D01*
X54674Y-49924D01*
X54766Y-49886D01*
X55504Y-49886D01*
X55504Y-42474D01*
X55458Y-42474D01*
X55301Y-42443D01*
X55168Y-42354D01*
X55076Y-42262D01*
X54987Y-42129D01*
X54956Y-41972D01*
X54956Y-41035D01*
X50577Y-36657D01*
X50503Y-36837D01*
X50339Y-37000D01*
X50504Y-37164D01*
X50594Y-37382D01*
X50594Y-37618D01*
X50503Y-37837D01*
X50339Y-38000D01*
X50504Y-38164D01*
X50594Y-38382D01*
X50594Y-38618D01*
X50503Y-38837D01*
X50339Y-38999D01*
X50504Y-39164D01*
X50594Y-39382D01*
X50594Y-39618D01*
X50503Y-39837D01*
X50336Y-40004D01*
X50314Y-40012D01*
X50339Y-40090D01*
X50000Y-40429D01*
X49661Y-40090D01*
X49685Y-40012D01*
X49663Y-40003D01*
X49496Y-39836D01*
X49406Y-39618D01*
X49406Y-39382D01*
X49497Y-39163D01*
X49660Y-39000D01*
X49496Y-38836D01*
X49406Y-38618D01*
X49406Y-38382D01*
X49497Y-38163D01*
X49659Y-38000D01*
X49496Y-37836D01*
X49406Y-37618D01*
X49406Y-37382D01*
X49497Y-37163D01*
X49659Y-37000D01*
X49496Y-36836D01*
X49406Y-36618D01*
X49406Y-36382D01*
X49497Y-36163D01*
X49659Y-36000D01*
X49496Y-35836D01*
X49406Y-35618D01*
X49406Y-35382D01*
X49497Y-35163D01*
X49659Y-35000D01*
X49496Y-34836D01*
X49406Y-34618D01*
X49406Y-34382D01*
X49497Y-34163D01*
X49660Y-34000D01*
X49496Y-33836D01*
X49406Y-33618D01*
X49406Y-33382D01*
X49497Y-33163D01*
X49659Y-33000D01*
X49496Y-32836D01*
X49406Y-32618D01*
X49406Y-32382D01*
X49497Y-32163D01*
X49659Y-32000D01*
X49496Y-31836D01*
X49406Y-31618D01*
X49406Y-31382D01*
X49497Y-31163D01*
X49659Y-31000D01*
X49496Y-30836D01*
X49406Y-30618D01*
X49406Y-30382D01*
X49497Y-30163D01*
X49659Y-29999D01*
X49496Y-29836D01*
X49406Y-29618D01*
X49406Y-29382D01*
X49497Y-29163D01*
X49660Y-29000D01*
X49496Y-28836D01*
X49406Y-28618D01*
X49406Y-28382D01*
X49497Y-28163D01*
X49659Y-28000D01*
X49496Y-27836D01*
X49406Y-27618D01*
X49406Y-27382D01*
X49497Y-27163D01*
X49664Y-26996D01*
X49882Y-26906D01*
X50118Y-26906D01*
X50337Y-26997D01*
X50504Y-27164D01*
X50594Y-27382D01*
X50594Y-27618D01*
X50503Y-27837D01*
X50340Y-27999D01*
X50504Y-28164D01*
X50594Y-28382D01*
X50594Y-28618D01*
X50503Y-28837D01*
X50339Y-29000D01*
X50504Y-29164D01*
X50594Y-29382D01*
X50594Y-29618D01*
X50503Y-29837D01*
X50339Y-29999D01*
X50504Y-30164D01*
X50594Y-30382D01*
X50594Y-30618D01*
X50503Y-30837D01*
X50339Y-30999D01*
X50504Y-31164D01*
X50594Y-31382D01*
X50594Y-31618D01*
X50503Y-31837D01*
X50339Y-32000D01*
X50504Y-32164D01*
X50594Y-32382D01*
X50594Y-32618D01*
X50503Y-32837D01*
X50339Y-33000D01*
X50504Y-33164D01*
X50594Y-33382D01*
X50594Y-33618D01*
X50503Y-33837D01*
X50339Y-34000D01*
X50504Y-34164D01*
X50594Y-34382D01*
X50594Y-34618D01*
X50503Y-34837D01*
X50340Y-35000D01*
X50504Y-35164D01*
X50594Y-35382D01*
X50594Y-35514D01*
X55422Y-40343D01*
X55497Y-40163D01*
X55660Y-39999D01*
X55496Y-39836D01*
X55406Y-39618D01*
X55406Y-39382D01*
X55497Y-39163D01*
X55590Y-39070D01*
X55590Y-38839D01*
X55492Y-38808D01*
X55422Y-38642D01*
X55412Y-38410D01*
X55492Y-38192D01*
X55590Y-38161D01*
X55929Y-38500D01*
X55590Y-38839D01*
X55590Y-39070D01*
X55664Y-38996D01*
X55685Y-38987D01*
X55661Y-38910D01*
X56000Y-38571D01*
X56000Y-38429D01*
X55661Y-38090D01*
X55685Y-38012D01*
X55663Y-38003D01*
X55496Y-37836D01*
X55406Y-37618D01*
X55406Y-37382D01*
X55497Y-37163D01*
X55660Y-37000D01*
X55496Y-36836D01*
X55406Y-36618D01*
X55406Y-36382D01*
X55497Y-36163D01*
X55660Y-36000D01*
X55496Y-35836D01*
X55406Y-35618D01*
X55406Y-35382D01*
X55497Y-35163D01*
X55660Y-34999D01*
X55496Y-34836D01*
X55406Y-34618D01*
X55406Y-34382D01*
X55497Y-34163D01*
X55660Y-33999D01*
X55496Y-33836D01*
X55406Y-33618D01*
X55406Y-33382D01*
X55497Y-33163D01*
X55660Y-33000D01*
X55496Y-32836D01*
X55406Y-32618D01*
X55406Y-32382D01*
X55497Y-32163D01*
X55660Y-32000D01*
X55496Y-31836D01*
X55406Y-31618D01*
X55406Y-31382D01*
X55497Y-31163D01*
X55660Y-30999D01*
X55496Y-30836D01*
X55406Y-30618D01*
X55406Y-30382D01*
X55497Y-30163D01*
X55660Y-29999D01*
X55496Y-29836D01*
X55406Y-29618D01*
X55406Y-29382D01*
X55497Y-29163D01*
X55660Y-28999D01*
X55496Y-28836D01*
X55406Y-28618D01*
X55406Y-28382D01*
X55497Y-28163D01*
X55660Y-28000D01*
X55496Y-27836D01*
X55406Y-27618D01*
X55406Y-27382D01*
X55497Y-27163D01*
X55664Y-26996D01*
X55882Y-26906D01*
X56118Y-26906D01*
X56337Y-26997D01*
X56504Y-27164D01*
X56594Y-27382D01*
X56594Y-27618D01*
X56503Y-27837D01*
X56340Y-27999D01*
X56504Y-28164D01*
X56594Y-28382D01*
X56594Y-28618D01*
X56503Y-28837D01*
X56340Y-29000D01*
X56504Y-29164D01*
X56594Y-29382D01*
X56594Y-29618D01*
X56503Y-29837D01*
X56340Y-29999D01*
X56504Y-30164D01*
X56594Y-30382D01*
X56594Y-30618D01*
X56503Y-30837D01*
X56340Y-30999D01*
X56504Y-31164D01*
X56594Y-31382D01*
X56594Y-31618D01*
X56503Y-31837D01*
X56340Y-31999D01*
X56504Y-32164D01*
X56594Y-32382D01*
X56594Y-32618D01*
X56503Y-32837D01*
X56339Y-32999D01*
X56504Y-33164D01*
X56594Y-33382D01*
X56594Y-33618D01*
X56503Y-33837D01*
X56340Y-34000D01*
X56504Y-34164D01*
X56594Y-34382D01*
X56594Y-34618D01*
X56503Y-34837D01*
X56340Y-35000D01*
X56504Y-35164D01*
X56594Y-35382D01*
X56594Y-35618D01*
X56503Y-35837D01*
X56340Y-35999D01*
X56504Y-36164D01*
X56594Y-36382D01*
X56594Y-36618D01*
X56503Y-36837D01*
X56340Y-37000D01*
X56504Y-37164D01*
X56594Y-37382D01*
X56594Y-37618D01*
X56503Y-37837D01*
X56336Y-38004D01*
X56314Y-38012D01*
X56339Y-38090D01*
X56000Y-38429D01*
X56000Y-38571D01*
X56339Y-38910D01*
X56314Y-38987D01*
X56337Y-38997D01*
X56410Y-39070D01*
X56410Y-38839D01*
X56071Y-38500D01*
X56410Y-38161D01*
X56508Y-38192D01*
X56578Y-38358D01*
X56588Y-38590D01*
X56508Y-38808D01*
X56410Y-38839D01*
X56410Y-39070D01*
X56504Y-39164D01*
X56594Y-39382D01*
X56594Y-39618D01*
X56503Y-39837D01*
X56339Y-40000D01*
X56504Y-40164D01*
X56594Y-40382D01*
X56594Y-40618D01*
X56503Y-40837D01*
X56389Y-40951D01*
X56395Y-40951D01*
X56486Y-40989D01*
X56556Y-41059D01*
X56594Y-41151D01*
X56594Y-41499D01*
X57267Y-40826D01*
X57267Y-29162D01*
X57123Y-29076D01*
X56973Y-28714D01*
X56970Y-28304D01*
X57123Y-27924D01*
X57267Y-27838D01*
X57929Y-28500D01*
X57267Y-29162D01*
X57267Y-40826D01*
X57590Y-40503D01*
X57590Y-40332D01*
X57555Y-40297D01*
X57475Y-40104D01*
X57475Y-39895D01*
X57555Y-39702D01*
X57703Y-39555D01*
X57895Y-39475D01*
X57895Y-37525D01*
X57702Y-37445D01*
X57555Y-37297D01*
X57475Y-37104D01*
X57475Y-36895D01*
X57555Y-36702D01*
X57703Y-36555D01*
X57804Y-36513D01*
X57804Y-29530D01*
X57424Y-29377D01*
X57338Y-29233D01*
X58000Y-28571D01*
X58000Y-28429D01*
X57338Y-27767D01*
X57424Y-27623D01*
X57786Y-27473D01*
X58196Y-27470D01*
X58576Y-27623D01*
X58662Y-27767D01*
X58000Y-28429D01*
X58000Y-28571D01*
X58662Y-29233D01*
X58576Y-29377D01*
X58214Y-29527D01*
X57804Y-29530D01*
X57804Y-36513D01*
X57896Y-36475D01*
X58105Y-36475D01*
X58298Y-36555D01*
X58445Y-36703D01*
X58525Y-36896D01*
X58525Y-37105D01*
X58445Y-37298D01*
X58297Y-37445D01*
X58104Y-37525D01*
X57895Y-37525D01*
X57895Y-39475D01*
X58105Y-39475D01*
X58298Y-39555D01*
X58445Y-39703D01*
X58525Y-39896D01*
X58525Y-40105D01*
X58445Y-40298D01*
X58410Y-40332D01*
X58410Y-40673D01*
X58379Y-40830D01*
X58290Y-40963D01*
X56899Y-42354D01*
X56766Y-42443D01*
X56609Y-42474D01*
X56324Y-42474D01*
X56324Y-51024D01*
X56323Y-51024D01*
X56324Y-51025D01*
X56317Y-51055D01*
X56293Y-51181D01*
X56204Y-51314D01*
X56203Y-51314D01*
X56203Y-51315D01*
X55608Y-51910D01*
X55475Y-51999D01*
X55318Y-52030D01*
X55094Y-52030D01*
X54983Y-52141D01*
X54757Y-52235D01*
X54512Y-52235D01*
X54286Y-52141D01*
X54114Y-51968D01*
X54090Y-51910D01*
X54066Y-51969D01*
X53893Y-52141D01*
X53667Y-52235D01*
X53422Y-52235D01*
X53196Y-52141D01*
X53024Y-51968D01*
X53000Y-51910D01*
X52976Y-51969D01*
X52803Y-52141D01*
X52577Y-52235D01*
X52419Y-52235D01*
X51926Y-52729D01*
X51793Y-52818D01*
X51636Y-52849D01*
X50514Y-52849D01*
X50357Y-52818D01*
X50224Y-52729D01*
X49042Y-51547D01*
X48991Y-51670D01*
X48688Y-51972D01*
X48293Y-52135D01*
X47865Y-52135D01*
X47470Y-51971D01*
X47168Y-51668D01*
X47005Y-51273D01*
X47005Y-50845D01*
X47169Y-50450D01*
X47472Y-50148D01*
X47804Y-50010D01*
X47804Y-49530D01*
X47424Y-49377D01*
X47338Y-49233D01*
X48000Y-48571D01*
X48000Y-48429D01*
X47338Y-47767D01*
X47424Y-47623D01*
X47786Y-47473D01*
X48196Y-47470D01*
X48576Y-47623D01*
X48662Y-47767D01*
X48000Y-48429D01*
X48000Y-48571D01*
X48662Y-49233D01*
X48576Y-49377D01*
X48214Y-49527D01*
X47804Y-49530D01*
X47804Y-50010D01*
X47867Y-49985D01*
X48295Y-49985D01*
X48690Y-50149D01*
X48759Y-50218D01*
X48759Y-49146D01*
X48733Y-49162D01*
X48071Y-48500D01*
X48733Y-47838D01*
X48759Y-47853D01*
X48759Y-46799D01*
X48644Y-46847D01*
X48405Y-46857D01*
X48180Y-46775D01*
X48146Y-46674D01*
X48500Y-46321D01*
X48571Y-46250D01*
X48500Y-46179D01*
X48146Y-45826D01*
X48162Y-45775D01*
X48151Y-45771D01*
X47979Y-45598D01*
X47945Y-45518D01*
X47936Y-45542D01*
X47791Y-45687D01*
X47638Y-45749D01*
X47792Y-45814D01*
X47937Y-45959D01*
X47951Y-45994D01*
X47975Y-45930D01*
X48076Y-45896D01*
X48429Y-46250D01*
X48076Y-46604D01*
X47975Y-46570D01*
X47949Y-46508D01*
X47936Y-46542D01*
X47791Y-46687D01*
X47602Y-46765D01*
X47397Y-46765D01*
X47208Y-46686D01*
X47063Y-46541D01*
X46995Y-46376D01*
X46995Y-48241D01*
X47123Y-47924D01*
X47267Y-47838D01*
X47929Y-48500D01*
X47267Y-49162D01*
X47123Y-49076D01*
X46995Y-48767D01*
X46995Y-54755D01*
X57705Y-54755D01*
X57705Y-52135D01*
X57310Y-51971D01*
X57008Y-51668D01*
X56845Y-51273D01*
X56845Y-50845D01*
X57009Y-50450D01*
X57267Y-50192D01*
X57267Y-49162D01*
X57123Y-49076D01*
X56973Y-48714D01*
X56970Y-48304D01*
X57123Y-47924D01*
X57267Y-47838D01*
X57929Y-48500D01*
X57267Y-49162D01*
X57267Y-50192D01*
X57312Y-50148D01*
X57707Y-49985D01*
X57804Y-49985D01*
X57804Y-49530D01*
X57424Y-49377D01*
X57338Y-49233D01*
X58000Y-48571D01*
X58000Y-48429D01*
X57338Y-47767D01*
X57424Y-47623D01*
X57786Y-47473D01*
X58196Y-47470D01*
X58576Y-47623D01*
X58662Y-47767D01*
X58000Y-48429D01*
X58000Y-48571D01*
X58662Y-49233D01*
X58576Y-49377D01*
X58214Y-49527D01*
X57804Y-49530D01*
X57804Y-49985D01*
X58135Y-49985D01*
X58530Y-50149D01*
X58832Y-50452D01*
X58995Y-50847D01*
X58995Y-51275D01*
X58831Y-51670D01*
X58528Y-51972D01*
X58133Y-52135D01*
X57705Y-52135D01*
X57705Y-54755D01*
X59005Y-54755D01*
M02*
