G04 (created by PCBNEW-RS274X (2010-03-14)-final) date Wed 16 Feb 2011 04:18:36 PM PST*
G01*
G70*
G90*
%MOIN*%
G04 Gerber Fmt 3.4, Leading zero omitted, Abs format*
%FSLAX34Y34*%
G04 APERTURE LIST*
%ADD10C,0.006000*%
%ADD11C,0.009000*%
%ADD12C,0.093000*%
%ADD13R,0.093000X0.093000*%
%ADD14C,0.073000*%
%ADD15C,0.185000*%
%ADD16C,0.075000*%
%ADD17C,0.180000*%
%ADD18R,0.089000X0.080000*%
%ADD19C,0.089000*%
G04 APERTURE END LIST*
G54D10*
G54D11*
X59250Y-25000D02*
X46750Y-25000D01*
X59250Y-55000D02*
X59250Y-25000D01*
X46750Y-55000D02*
X59250Y-55000D01*
X46750Y-25000D02*
X46750Y-55000D01*
G54D12*
X48500Y-45250D03*
X48500Y-46250D03*
G54D13*
X48500Y-44250D03*
G54D14*
X47500Y-44250D03*
X47500Y-45250D03*
X47500Y-46250D03*
G54D12*
X57500Y-45250D03*
X57500Y-44250D03*
G54D13*
X57500Y-46250D03*
G54D14*
X58500Y-46250D03*
X58500Y-45250D03*
X58500Y-44250D03*
G54D12*
X53000Y-50500D03*
X51910Y-50500D03*
X50820Y-50500D03*
X54090Y-50500D03*
G54D13*
X55180Y-50500D03*
G54D12*
X54635Y-51620D03*
X53545Y-51620D03*
X52455Y-51620D03*
X51365Y-51620D03*
G54D15*
X48080Y-51060D03*
X57920Y-51060D03*
G54D16*
X58000Y-37000D03*
X58000Y-40000D03*
X48000Y-37000D03*
X48000Y-40000D03*
G54D17*
X58000Y-48500D03*
X48000Y-48500D03*
X58000Y-28500D03*
X48000Y-28500D03*
G54D18*
X56000Y-41500D03*
G54D19*
X56000Y-40500D03*
X56000Y-39500D03*
X56000Y-38500D03*
X56000Y-37500D03*
X56000Y-36500D03*
X56000Y-35500D03*
X56000Y-34500D03*
X56000Y-33500D03*
X56000Y-32500D03*
X56000Y-31500D03*
X56000Y-30500D03*
X56000Y-29500D03*
X56000Y-28500D03*
X56000Y-27500D03*
X50000Y-27500D03*
X50000Y-28500D03*
X50000Y-29500D03*
X50000Y-30500D03*
X50000Y-31500D03*
X50000Y-32500D03*
X50000Y-33500D03*
X50000Y-34500D03*
X50000Y-35500D03*
X50000Y-36500D03*
X50000Y-37500D03*
X50000Y-38500D03*
X50000Y-39500D03*
X50000Y-40500D03*
X50000Y-41500D03*
M02*
